<svg width="80" height="64" viewBox="0 0 80 64" fill="none" xmlns="http://www.w3.org/2000/svg">
<path fill-rule="evenodd" clip-rule="evenodd" d="M2.2222 0H62.2217C63.4483 0 64.4439 1.02171 64.4439 2.28571V4.57143H59.9995H4.44441V38.8571V40V45.7143H24.902H29.9997H30.3108H33.333H35.6997H40.1663C35.7219 48 33.4997 50.2857 33.4997 50.2857H29.9997H22.222H2.2222C0.995547 50.2857 0 49.264 0 48V40V38.8571V2.28571C0 1.02171 0.995547 0 2.2222 0ZM53.4149 19.0103C53.7615 12.8274 56.9793 9.14286 62.2348 9.14286C67.8014 9.14286 71.1236 13.2389 71.1236 20.0983C71.1236 25.8217 67.7258 32 62.2348 32C62.2126 32 62.1926 31.9954 62.1726 31.9909C62.1526 31.9863 62.1326 31.9817 62.1103 31.9817C61.9992 30.2583 61.7681 28.6331 61.3192 27.2046C61.6259 27.3417 61.9348 27.4286 62.2481 27.4286C64.4925 27.4286 66.6925 23.7029 66.6925 19.9086C66.6925 14.192 64.497 13.7143 62.2481 13.7143C59.9992 13.7143 57.8037 14.192 57.8037 19.9086C57.8037 20.5189 57.8793 21.1177 57.9815 21.7097C56.7171 20.48 55.1882 19.5749 53.4149 19.0103ZM57.7899 33.8126C57.7899 39.536 54.3922 45.7143 48.9011 45.7143C43.4101 45.7143 40.0123 39.536 40.0123 33.8126C40.0123 26.9531 43.3367 22.8571 48.9011 22.8571C54.4677 22.8571 57.7899 26.9531 57.7899 33.8126ZM62.2443 36.5714C67.6221 36.5714 71.7976 37.8217 75.722 41.1429C78.422 43.4286 83.8219 50.2857 75.722 50.2857H64.4443C64.4443 50.2857 62.2221 48 57.7777 45.7143H62.2443H67.6332H73.042C70.9976 41.9291 65.2132 41.1429 62.2443 41.1429V41.1383L62.2332 41.1429C61.7599 41.1429 61.2199 41.1726 60.6532 41.2183C61.2643 39.7349 61.7466 38.1829 61.991 36.5874C62.0332 36.5874 62.0727 36.5834 62.1121 36.5794L62.1122 36.5794C62.1516 36.5754 62.191 36.5714 62.2332 36.5714L62.2443 36.5851V36.5714ZM48.9145 27.4286C51.1633 27.4286 53.3589 27.9063 53.3589 33.6229C53.3589 37.4171 51.1589 41.1429 48.9145 41.1429C46.67 41.1429 44.4701 37.4171 44.4701 33.6229C44.4701 27.9063 46.6656 27.4286 48.9145 27.4286ZM62.3886 54.8571C65.0885 57.1429 70.4885 64 62.3886 64H35.391C27.2911 64 32.6622 57.1177 35.391 54.8571C39.3554 51.5703 43.4887 50.2857 48.8998 50.2857L48.9109 50.2994V50.2857C54.2886 50.2857 58.4664 51.536 62.3886 54.8571ZM54.2997 59.4286H48.9109H38.0999C40.1999 55.7143 45.7887 54.8571 48.8998 54.8571L48.9109 54.8526V54.8571C51.8798 54.8571 57.6642 55.6434 59.7108 59.4286H54.2997ZM34.9036 14.3849C34.0343 13.4907 32.6292 13.4907 31.7577 14.3849L22.2246 24.1936L17.1289 18.9519C16.2597 18.0578 14.8546 18.0578 13.9853 18.9519C13.116 19.8484 13.116 21.2938 13.9853 22.1857L20.6505 29.0442C21.0863 29.4902 21.6554 29.7143 22.2246 29.7143C22.7937 29.7143 23.3628 29.4902 23.7964 29.0442L34.9036 17.6187C35.7729 16.7245 35.7729 15.2791 34.9036 14.3849Z" fill="#BE8CFF"/>
<mask id="mask0_8_3866" style="mask-type:alpha" maskUnits="userSpaceOnUse" x="0" y="0" width="80" height="64">
<path fill-rule="evenodd" clip-rule="evenodd" d="M2.2222 0H62.2217C63.4483 0 64.4439 1.02171 64.4439 2.28571V4.57143H59.9995H4.44441V38.8571V40V45.7143H24.902H29.9997H30.3108H33.333H35.6997H40.1663C35.7219 48 33.4997 50.2857 33.4997 50.2857H29.9997H22.222H2.2222C0.995547 50.2857 0 49.264 0 48V40V38.8571V2.28571C0 1.02171 0.995547 0 2.2222 0ZM53.4149 19.0103C53.7615 12.8274 56.9793 9.14286 62.2348 9.14286C67.8014 9.14286 71.1236 13.2389 71.1236 20.0983C71.1236 25.8217 67.7258 32 62.2348 32C62.2126 32 62.1926 31.9954 62.1726 31.9909C62.1526 31.9863 62.1326 31.9817 62.1103 31.9817C61.9992 30.2583 61.7681 28.6331 61.3192 27.2046C61.6259 27.3417 61.9348 27.4286 62.2481 27.4286C64.4925 27.4286 66.6925 23.7029 66.6925 19.9086C66.6925 14.192 64.497 13.7143 62.2481 13.7143C59.9992 13.7143 57.8037 14.192 57.8037 19.9086C57.8037 20.5189 57.8793 21.1177 57.9815 21.7097C56.7171 20.48 55.1882 19.5749 53.4149 19.0103ZM57.7899 33.8126C57.7899 39.536 54.3922 45.7143 48.9011 45.7143C43.4101 45.7143 40.0123 39.536 40.0123 33.8126C40.0123 26.9531 43.3367 22.8571 48.9011 22.8571C54.4677 22.8571 57.7899 26.9531 57.7899 33.8126ZM62.2443 36.5714C67.6221 36.5714 71.7976 37.8217 75.722 41.1429C78.422 43.4286 83.8219 50.2857 75.722 50.2857H64.4443C64.4443 50.2857 62.2221 48 57.7777 45.7143H62.2443H67.6332H73.042C70.9976 41.9291 65.2132 41.1429 62.2443 41.1429V41.1383L62.2332 41.1429C61.7599 41.1429 61.2199 41.1726 60.6532 41.2183C61.2643 39.7349 61.7466 38.1829 61.991 36.5874C62.0332 36.5874 62.0727 36.5834 62.1121 36.5794L62.1122 36.5794C62.1516 36.5754 62.191 36.5714 62.2332 36.5714L62.2443 36.5851V36.5714ZM48.9145 27.4286C51.1633 27.4286 53.3589 27.9063 53.3589 33.6229C53.3589 37.4171 51.1589 41.1429 48.9145 41.1429C46.67 41.1429 44.4701 37.4171 44.4701 33.6229C44.4701 27.9063 46.6656 27.4286 48.9145 27.4286ZM62.3886 54.8571C65.0885 57.1429 70.4885 64 62.3886 64H35.391C27.2911 64 32.6622 57.1177 35.391 54.8571C39.3554 51.5703 43.4887 50.2857 48.8998 50.2857L48.9109 50.2994V50.2857C54.2886 50.2857 58.4664 51.536 62.3886 54.8571ZM54.2997 59.4286H48.9109H38.0999C40.1999 55.7143 45.7887 54.8571 48.8998 54.8571L48.9109 54.8526V54.8571C51.8798 54.8571 57.6642 55.6434 59.7108 59.4286H54.2997ZM34.9036 14.3849C34.0343 13.4907 32.6292 13.4907 31.7577 14.3849L22.2246 24.1936L17.1289 18.9519C16.2597 18.0578 14.8546 18.0578 13.9853 18.9519C13.116 19.8484 13.116 21.2938 13.9853 22.1857L20.6505 29.0442C21.0863 29.4902 21.6554 29.7143 22.2246 29.7143C22.7937 29.7143 23.3628 29.4902 23.7964 29.0442L34.9036 17.6187C35.7729 16.7245 35.7729 15.2791 34.9036 14.3849Z" fill="white"/>
</mask>
<g mask="url(#mask0_8_3866)">
</g>
</svg>
