<svg width="32" height="32" viewBox="0 0 32 32" fill="none" xmlns="http://www.w3.org/2000/svg">
<path d="M16 0C11.7565 0 7.68687 1.68571 4.68629 4.68629C1.68571 7.68687 0 11.7565 0 16C0 20.2435 1.68571 24.3131 4.68629 27.3137C7.68687 30.3143 11.7565 32 16 32C20.2435 32 24.3131 30.3143 27.3137 27.3137C30.3143 24.3131 32 20.2435 32 16C32 11.7565 30.3143 7.68687 27.3137 4.68629C24.3131 1.68571 20.2435 0 16 0Z" fill="#8723FF"/>
<path d="M16 1.67999C19.7962 1.68264 23.4359 3.19252 26.1193 5.87776C28.8027 8.56299 30.31 12.2038 30.31 16C30.31 19.7962 28.8027 23.437 26.1193 26.1222C23.4359 28.8075 19.7962 30.3173 16 30.32C12.2021 30.32 8.55975 28.8113 5.87423 26.1258C3.1887 23.4402 1.67999 19.7979 1.67999 16C1.67999 12.2021 3.1887 8.55974 5.87423 5.87422C8.55975 3.1887 12.2021 1.67999 16 1.67999Z" fill="white"/>
<path d="M11.15 9.91C11.1613 9.51748 11.2879 9.13696 11.514 8.81589C11.7401 8.49482 12.0557 8.24742 12.4214 8.10452C12.7872 7.96163 13.1869 7.92957 13.5708 8.01235C13.9547 8.09512 14.3057 8.28907 14.58 8.57L22.15 15.77C22.439 16.0341 22.6393 16.381 22.7237 16.7632C22.808 17.1455 22.7722 17.5444 22.6212 17.9056C22.4702 18.2667 22.2113 18.5724 21.8799 18.7808C21.5486 18.9892 21.1609 19.0902 20.77 19.07H20.24L20.84 20.38C20.9391 20.6106 20.9901 20.859 20.9901 21.11C20.9901 21.361 20.9391 21.6094 20.84 21.84C20.6304 22.323 20.2387 22.7039 19.75 22.9L18.42 23.43C17.9406 23.6371 17.3991 23.6485 16.9114 23.4616C16.4236 23.2747 16.0283 22.9045 15.81 22.43L15.26 21.2L14.5 21.91C14.2192 22.1675 13.8706 22.3395 13.4953 22.4056C13.1201 22.4718 12.7337 22.4293 12.3818 22.2833C12.0298 22.1372 11.7269 21.8937 11.5087 21.5813C11.2905 21.2689 11.166 20.9007 11.15 20.52V9.91ZM13.55 9.73C13.4856 9.6662 13.404 9.62241 13.3152 9.60392C13.2264 9.58544 13.1342 9.59304 13.0496 9.62581C12.965 9.65858 12.8917 9.71513 12.8386 9.78862C12.7854 9.86212 12.7547 9.94942 12.75 10.04V20.31C12.7564 20.3997 12.7885 20.4858 12.8423 20.5578C12.8962 20.6299 12.9696 20.685 13.0538 20.7166C13.138 20.7482 13.2296 20.7549 13.3175 20.736C13.4055 20.7171 13.4862 20.6734 13.55 20.61L15.81 18.48L17.15 21.57C17.2022 21.6798 17.2949 21.7651 17.4087 21.808C17.5224 21.8508 17.6483 21.848 17.76 21.8L19.05 21.29C19.1047 21.2701 19.1548 21.2394 19.1973 21.1996C19.2397 21.1598 19.2737 21.1118 19.2971 21.0585C19.3204 21.0052 19.3328 20.9478 19.3333 20.8896C19.3338 20.8314 19.3225 20.7737 19.3 20.72L17.84 17.47H20.59C20.6776 17.4716 20.7636 17.447 20.8371 17.3993C20.9106 17.3517 20.9682 17.2833 21.0025 17.2027C21.0369 17.1222 21.0465 17.0332 21.03 16.9472C21.0135 16.8613 20.9717 16.7821 20.91 16.72L13.55 9.73Z" fill="#8723FF" stroke="#8723FF" stroke-width="0.1"/>
</svg>
