<svg width="72" height="56" viewBox="0 0 72 56" fill="none" xmlns="http://www.w3.org/2000/svg">
<path fill-rule="evenodd" clip-rule="evenodd" d="M1.99998 0H55.9995C57.1035 0 57.9995 0.894 57.9995 2V4H53.9995H3.99996V34V35V40H22.4118H26.9998H27.2798H29.9997H32.1297H36.1497C32.1497 42 30.1497 44 30.1497 44H26.9998H19.9998H1.99998C0.895992 44 0 43.106 0 42V35V34V2C0 0.894 0.895992 0 1.99998 0ZM48.0734 16.634C48.3854 11.224 51.2813 8 56.0113 8C61.0213 8 64.0112 11.584 64.0112 17.586C64.0112 22.594 60.9533 28 56.0113 28C55.9913 28 55.9733 27.996 55.9553 27.992C55.9373 27.988 55.9193 27.984 55.8993 27.984C55.7993 26.476 55.5913 25.054 55.1873 23.804C55.4633 23.924 55.7413 24 56.0233 24C58.0433 24 60.0233 20.74 60.0233 17.42C60.0233 12.418 58.0473 12 56.0233 12C53.9993 12 52.0233 12.418 52.0233 17.42C52.0233 17.954 52.0913 18.478 52.1833 18.996C51.0453 17.92 49.6694 17.128 48.0734 16.634ZM52.0109 29.586C52.0109 34.594 48.953 40 44.011 40C39.0691 40 36.0111 34.594 36.0111 29.586C36.0111 23.584 39.0031 20 44.011 20C49.021 20 52.0109 23.584 52.0109 29.586ZM56.0199 32C60.8599 32 64.6178 33.094 68.1498 36C70.5798 38 75.4397 44 68.1498 44H57.9999C57.9999 44 55.9999 42 51.9999 40H56.0199H60.8699H65.7378C63.8978 36.688 58.6919 36 56.0199 36V35.996L56.0099 36C55.5839 36 55.0979 36.026 54.5879 36.066C55.1379 34.768 55.5719 33.41 55.7919 32.014C55.8299 32.014 55.8653 32.0105 55.9008 32.007L55.9009 32.007L55.901 32.007C55.9365 32.0035 55.9719 32 56.0099 32L56.0199 32.012V32ZM44.023 24C46.047 24 48.023 24.418 48.023 29.42C48.023 32.74 46.043 36 44.023 36C42.003 36 40.023 32.74 40.023 29.42C40.023 24.418 41.999 24 44.023 24ZM56.1497 48C58.5797 50 63.4396 56 56.1497 56H31.8519C24.562 56 29.3959 49.978 31.8519 48C35.4199 45.124 39.1399 44 44.0098 44L44.0198 44.012V44C48.8598 44 52.6197 45.094 56.1497 48ZM48.8698 52H44.0198H34.2899C36.1799 48.75 41.2098 48 44.0098 48L44.0198 47.996V48C46.6918 48 51.8977 48.688 53.7397 52H48.8698ZM16 12C16 10.8955 16.8954 10 18 10C19.1046 10 20 10.8955 20 12V16H24C25.1046 16 26 16.8955 26 18C26 19.1046 25.1046 20 24 20H20V24C20 25.1046 19.1046 26 18 26C16.8954 26 16 25.1046 16 24V20H12C10.8954 20 10 19.1046 10 18C10 16.8955 10.8954 16 12 16H16V12Z" fill="#BE8CFF"/>
<mask id="mask0_8_3834" style="mask-type:alpha" maskUnits="userSpaceOnUse" x="0" y="0" width="72" height="56">
<path fill-rule="evenodd" clip-rule="evenodd" d="M1.99998 0H55.9995C57.1035 0 57.9995 0.894 57.9995 2V4H53.9995H3.99996V34V35V40H22.4118H26.9998H27.2798H29.9997H32.1297H36.1497C32.1497 42 30.1497 44 30.1497 44H26.9998H19.9998H1.99998C0.895992 44 0 43.106 0 42V35V34V2C0 0.894 0.895992 0 1.99998 0ZM48.0734 16.634C48.3854 11.224 51.2813 8 56.0113 8C61.0213 8 64.0112 11.584 64.0112 17.586C64.0112 22.594 60.9533 28 56.0113 28C55.9913 28 55.9733 27.996 55.9553 27.992C55.9373 27.988 55.9193 27.984 55.8993 27.984C55.7993 26.476 55.5913 25.054 55.1873 23.804C55.4633 23.924 55.7413 24 56.0233 24C58.0433 24 60.0233 20.74 60.0233 17.42C60.0233 12.418 58.0473 12 56.0233 12C53.9993 12 52.0233 12.418 52.0233 17.42C52.0233 17.954 52.0913 18.478 52.1833 18.996C51.0453 17.92 49.6694 17.128 48.0734 16.634ZM52.0109 29.586C52.0109 34.594 48.953 40 44.011 40C39.0691 40 36.0111 34.594 36.0111 29.586C36.0111 23.584 39.0031 20 44.011 20C49.021 20 52.0109 23.584 52.0109 29.586ZM56.0199 32C60.8599 32 64.6178 33.094 68.1498 36C70.5798 38 75.4397 44 68.1498 44H57.9999C57.9999 44 55.9999 42 51.9999 40H56.0199H60.8699H65.7378C63.8978 36.688 58.6919 36 56.0199 36V35.996L56.0099 36C55.5839 36 55.0979 36.026 54.5879 36.066C55.1379 34.768 55.5719 33.41 55.7919 32.014C55.8299 32.014 55.8653 32.0105 55.9008 32.007L55.9009 32.007L55.901 32.007C55.9365 32.0035 55.9719 32 56.0099 32L56.0199 32.012V32ZM44.023 24C46.047 24 48.023 24.418 48.023 29.42C48.023 32.74 46.043 36 44.023 36C42.003 36 40.023 32.74 40.023 29.42C40.023 24.418 41.999 24 44.023 24ZM56.1497 48C58.5797 50 63.4396 56 56.1497 56H31.8519C24.562 56 29.3959 49.978 31.8519 48C35.4199 45.124 39.1399 44 44.0098 44L44.0198 44.012V44C48.8598 44 52.6197 45.094 56.1497 48ZM48.8698 52H44.0198H34.2899C36.1799 48.75 41.2098 48 44.0098 48L44.0198 47.996V48C46.6918 48 51.8977 48.688 53.7397 52H48.8698ZM16 12C16 10.8955 16.8954 10 18 10C19.1046 10 20 10.8955 20 12V16H24C25.1046 16 26 16.8955 26 18C26 19.1046 25.1046 20 24 20H20V24C20 25.1046 19.1046 26 18 26C16.8954 26 16 25.1046 16 24V20H12C10.8954 20 10 19.1046 10 18C10 16.8955 10.8954 16 12 16H16V12Z" fill="white"/>
</mask>
<g mask="url(#mask0_8_3834)">
</g>
</svg>
