<svg width="32" height="32" viewBox="0 0 32 32" fill="none" xmlns="http://www.w3.org/2000/svg">
<path fill-rule="evenodd" clip-rule="evenodd" d="M5 6C4.449 6 4 6.448 4 7V7V25C4 25.551 4.449 26 5 26V26H27C27.552 26 28 25.551 28 25V25V7C28 6.448 27.552 6 27 6V6H5ZM6 24H26V8H6V24ZM8.5 10C8.224 10 8 10.224 8 10.5V10.5C8 10.776 8.224 11 8.5 11V11H23.5C23.776 11 24 10.776 24 10.5V10.5C24 10.224 23.776 10 23.5 10V10H8.5ZM8.5 12C8.224 12 8 12.224 8 12.5V12.5C8 12.776 8.224 13 8.5 13V13H23.5C23.776 13 24 12.776 24 12.5V12.5C24 12.224 23.776 12 23.5 12V12H8.5ZM13 17C13 17.389 13.081 17.759 13.215 18.101V18.101C13.193 18.117 13.167 18.126 13.146 18.146V18.146L11.146 20.146C11.003 20.29 10.96 20.504 11.038 20.691V20.691C11.115 20.878 11.298 21 11.5 21V21H12V21.5C12 21.702 12.122 21.885 12.309 21.962V21.962C12.371 21.987 12.436 22 12.5 22V22C12.63 22 12.757 21.95 12.854 21.854V21.854L14.854 19.854C14.874 19.833 14.883 19.807 14.898 19.784V19.784C15.241 19.92 15.61 20 16 20V20C16.389 20 16.759 19.92 17.101 19.784V19.784C17.117 19.807 17.126 19.833 17.146 19.854V19.854L19.146 21.854C19.242 21.95 19.37 22 19.5 22V22C19.564 22 19.629 21.987 19.691 21.962V21.962C19.878 21.885 20 21.702 20 21.5V21.5V21H20.5C20.702 21 20.884 20.878 20.962 20.691V20.691C21.04 20.504 20.997 20.29 20.854 20.146V20.146L18.854 18.146C18.833 18.126 18.807 18.117 18.784 18.101V18.101C18.92 17.759 19 17.389 19 17V17C19 15.346 17.653 14 16 14V14C14.346 14 13 15.346 13 17V17ZM14 17C14 15.897 14.897 15 16 15V15C17.103 15 18 15.897 18 17V17C18 18.103 17.103 19 16 19V19C14.897 19 14 18.103 14 17V17Z" fill="#323232"/>
</svg>
