<svg width="32" height="32" viewBox="0 0 32 32" fill="none" xmlns="http://www.w3.org/2000/svg">
<path d="M16 0C12.8355 0 9.74207 0.938383 7.11089 2.69649C4.4797 4.45459 2.42894 6.95345 1.21793 9.87707C0.0069325 12.8007 -0.309921 16.0177 0.307443 19.1214C0.924806 22.2251 2.44866 25.0761 4.6863 27.3137C6.92394 29.5513 9.77487 31.0752 12.8786 31.6926C15.9823 32.3099 19.1993 31.9931 22.1229 30.7821C25.0466 29.5711 27.5454 27.5203 29.3035 24.8891C31.0616 22.2579 32 19.1645 32 16C32 11.7565 30.3143 7.68687 27.3137 4.68629C24.3131 1.68571 20.2435 0 16 0Z" fill="#8723FF"/>
<path d="M16 1.69C18.8327 1.69 21.6017 2.53011 23.9568 4.10405C26.3119 5.678 28.1474 7.91507 29.2309 10.5323C30.3145 13.1495 30.5975 16.0293 30.0441 18.8074C29.4908 21.5855 28.1259 24.137 26.1222 26.1393C24.1185 28.1416 21.566 29.5047 18.7876 30.0561C16.0091 30.6075 13.1295 30.3225 10.513 29.2371C7.89657 28.1517 5.66079 26.3147 4.08849 23.9585C2.51619 21.6023 1.67802 18.8327 1.68 16C1.68265 12.2038 3.19252 8.56406 5.87776 5.8807C8.56299 3.19734 12.2038 1.69 16 1.69Z" fill="white"/>
<path d="M18.41 6.59C19.6063 6.5926 20.7732 6.96131 21.7539 7.64658C22.7345 8.33186 23.4819 9.30087 23.8956 10.4234C24.3094 11.5459 24.3696 12.7682 24.0683 13.926C23.767 15.0838 23.1185 16.1216 22.21 16.9C21.9881 16.378 21.6691 15.903 21.27 15.5C21.7843 15.0299 22.173 14.4386 22.4006 13.78C22.6282 13.1214 22.6875 12.4163 22.5732 11.7289C22.4589 11.0415 22.1745 10.3936 21.746 9.84411C21.3174 9.29462 20.7583 8.86098 20.1195 8.58264C19.4807 8.30429 18.7824 8.19007 18.0882 8.25036C17.3939 8.31065 16.7258 8.54354 16.1445 8.92785C15.5633 9.31215 15.0873 9.83568 14.7599 10.4508C14.4325 11.066 14.2641 11.7532 14.27 12.45C14.2732 13.235 14.4948 14.0037 14.91 14.67L9.19997 20.32V21.65H10.53L13.39 18.79C13.3978 19.4552 13.5514 20.1106 13.84 20.71L11.47 23.07C11.3389 23.198 11.1711 23.2819 10.99 23.31H8.36997C8.16348 23.3115 7.96368 23.2368 7.80873 23.1003C7.65378 22.9638 7.55455 22.775 7.52997 22.57V19.97C7.52772 19.7857 7.5876 19.6061 7.69997 19.46L7.76997 19.38L12.85 14.3C12.6484 13.7007 12.547 13.0723 12.55 12.44C12.5526 10.8876 13.1712 9.39961 14.2699 8.30281C15.3685 7.20601 16.8575 6.58999 18.41 6.59ZM18 14.12C18.9098 14.12 19.7991 14.3898 20.5556 14.8952C21.3121 15.4007 21.9017 16.1191 22.2498 16.9597C22.598 17.8002 22.6891 18.7251 22.5116 19.6174C22.3341 20.5097 21.896 21.3294 21.2527 21.9727C20.6093 22.616 19.7897 23.0541 18.8974 23.2316C18.0051 23.4091 17.0802 23.318 16.2396 22.9698C15.3991 22.6217 14.6807 22.0321 14.1752 21.2756C13.6698 20.5192 13.4 19.6298 13.4 18.72C13.4 17.5 13.8846 16.33 14.7473 15.4673C15.6099 14.6046 16.78 14.12 18 14.12ZM18 15.8C17.4196 15.798 16.8518 15.9684 16.3684 16.2896C15.885 16.6108 15.5079 17.0683 15.2849 17.6041C15.0619 18.1399 15.0031 18.7298 15.1158 19.2991C15.2285 19.8684 15.5078 20.3914 15.9182 20.8018C16.3285 21.2122 16.8515 21.4914 17.4208 21.6042C17.9901 21.7169 18.5801 21.658 19.1159 21.435C19.6517 21.212 20.1092 20.8349 20.4303 20.3516C20.7515 19.8682 20.9219 19.3003 20.92 18.72C20.9173 17.9464 20.6088 17.2052 20.0618 16.6582C19.5148 16.1111 18.7736 15.8026 18 15.8ZM19.86 17.3C19.938 17.3772 19.9999 17.4691 20.0422 17.5703C20.0844 17.6716 20.1062 17.7803 20.1062 17.89C20.1062 17.9997 20.0844 18.1084 20.0422 18.2097C19.9999 18.3109 19.938 18.4028 19.86 18.48L18.19 20.15C18.1119 20.2283 18.0192 20.2904 17.9171 20.3328C17.815 20.3752 17.7055 20.3971 17.595 20.3971C17.4844 20.3971 17.3749 20.3752 17.2728 20.3328C17.1707 20.2904 17.078 20.2283 17 20.15L16.17 19.35C16.0312 19.1889 15.9588 18.9812 15.9671 18.7688C15.9755 18.5564 16.0641 18.3551 16.215 18.2054C16.366 18.0557 16.568 17.9688 16.7805 17.9623C16.993 17.9557 17.2001 18.0299 17.36 18.17L17.6 18.38L18.68 17.3C18.8355 17.1455 19.0458 17.0588 19.265 17.0588C19.4842 17.0588 19.6945 17.1455 19.85 17.3H19.86ZM19.67 9.94C19.92 9.93802 20.165 10.0105 20.3737 10.1482C20.5825 10.2859 20.7455 10.4825 20.8421 10.7132C20.9387 10.9438 20.9645 11.198 20.9162 11.4433C20.8679 11.6887 20.7477 11.9141 20.5709 12.0909C20.3941 12.2677 20.1686 12.3879 19.9233 12.4362C19.678 12.4845 19.4238 12.4587 19.1932 12.3621C18.9625 12.2655 18.7658 12.1025 18.6281 11.8938C18.4905 11.685 18.418 11.44 18.42 11.19C18.42 10.8602 18.5503 10.5438 18.7825 10.3096C19.0148 10.0755 19.3302 9.94264 19.66 9.94H19.67Z" fill="#8723FF"/>
</svg>
