<svg width="32" height="32" viewBox="0 0 32 32" fill="none" xmlns="http://www.w3.org/2000/svg">
<path fill-rule="evenodd" clip-rule="evenodd" d="M25.3333 2.66663H18.6666V5.33329H24V26.6666L7.99998 26.6613V5.33329H13.3746V2.66663H6.66665C5.93065 2.66663 5.33331 3.26263 5.33331 3.99996V27.9946C5.33331 28.732 5.93065 29.328 6.66665 29.328L22.3007 29.3328C22.3115 29.3331 22.3224 29.3333 22.3333 29.3333H24H25.6666C26.2189 29.3333 26.6666 28.8856 26.6666 28.3333V28V27.6666V3.99996C26.6666 3.26263 26.0693 2.66663 25.3333 2.66663ZM20 10.6666L16 14.6666L12 10.6666H15.3333V3.33329C15.3333 2.96529 15.632 2.66663 16 2.66663C16.368 2.66663 16.6666 2.96529 16.6666 3.33329V10.6666H20ZM11.3333 17.3333H20.6666C21.0346 17.3333 21.3333 17.632 21.3333 18C21.3333 18.368 21.0346 18.6666 20.6666 18.6666H11.3333C10.9653 18.6666 10.6666 18.368 10.6666 18C10.6666 17.632 10.9653 17.3333 11.3333 17.3333ZM11.3333 20H20.6666C21.0346 20 21.3333 20.2986 21.3333 20.6666C21.3333 21.0346 21.0346 21.3333 20.6666 21.3333H11.3333C10.9653 21.3333 10.6666 21.0346 10.6666 20.6666C10.6666 20.2986 10.9653 20 11.3333 20ZM20.6666 22.6666H11.3333C10.9653 22.6666 10.6666 22.9653 10.6666 23.3333C10.6666 23.7013 10.9653 24 11.3333 24H20.6666C21.0346 24 21.3333 23.7013 21.3333 23.3333C21.3333 22.9653 21.0346 22.6666 20.6666 22.6666Z" fill="#323232"/>
</svg>
