<svg width="32" height="32" viewBox="0 0 32 32" fill="none" xmlns="http://www.w3.org/2000/svg">
<path d="M16 0C12.8355 0 9.74207 0.938383 7.11089 2.69649C4.4797 4.45459 2.42894 6.95345 1.21793 9.87707C0.0069325 12.8007 -0.309921 16.0177 0.307443 19.1214C0.924806 22.2251 2.44866 25.0761 4.6863 27.3137C6.92394 29.5513 9.77487 31.0752 12.8786 31.6926C15.9823 32.3099 19.1993 31.9931 22.1229 30.7821C25.0466 29.5711 27.5454 27.5203 29.3035 24.8891C31.0616 22.2579 32 19.1645 32 16C32 11.7565 30.3143 7.68687 27.3137 4.68629C24.3131 1.68571 20.2435 0 16 0Z" fill="#8723FF"/>
<path d="M16 1.69C18.8327 1.69 21.6017 2.53011 23.9568 4.10405C26.3119 5.678 28.1474 7.91507 29.2309 10.5323C30.3145 13.1495 30.5975 16.0293 30.0441 18.8074C29.4908 21.5855 28.1259 24.137 26.1222 26.1393C24.1185 28.1416 21.566 29.5047 18.7876 30.0561C16.0091 30.6075 13.1295 30.3225 10.513 29.2371C7.89657 28.1517 5.66079 26.3147 4.08849 23.9585C2.51619 21.6023 1.67802 18.8327 1.68 16C1.68265 12.2038 3.19252 8.56406 5.87776 5.8807C8.56299 3.19734 12.2038 1.69 16 1.69Z" fill="white"/>
<path fill-rule="evenodd" clip-rule="evenodd" d="M16.58 9.08683C16.7185 9.15709 16.8348 9.26438 16.916 9.39678C16.9973 9.52919 17.0402 9.68151 17.04 9.83683V21.5468C17.0402 21.7021 16.9973 21.8545 16.916 21.9869C16.8348 22.1193 16.7185 22.2266 16.58 22.2968C16.462 22.3559 16.3319 22.3867 16.2 22.3868C16.0196 22.384 15.8447 22.3245 15.7 22.2168L10.7 18.4568C10.597 18.3782 10.5137 18.2768 10.4564 18.1605C10.3992 18.0443 10.3696 17.9164 10.37 17.7868V13.6068C10.368 13.477 10.3969 13.3486 10.4543 13.2321C10.5117 13.1156 10.5959 13.0144 10.7 12.9368L15.7 9.16683C15.8253 9.0741 15.9736 9.0176 16.1288 9.00349C16.284 8.98938 16.4401 9.01821 16.58 9.08683ZM22.39 10.5168C22.5842 10.5177 22.7715 10.5893 22.9168 10.7181C23.0622 10.8469 23.1557 11.0241 23.18 11.2168V20.0668C23.1741 20.2661 23.0939 20.456 22.9553 20.5993C22.8167 20.7425 22.6295 20.8289 22.4306 20.8414C22.2316 20.8539 22.0351 20.7917 21.8796 20.6669C21.7242 20.5421 21.6209 20.3638 21.59 20.1668V11.3168C21.59 11.2118 21.6107 11.1077 21.6509 11.0107C21.6911 10.9136 21.75 10.8254 21.8243 10.7511C21.8986 10.6769 21.9868 10.6179 22.0839 10.5777C22.1809 10.5375 22.2849 10.5168 22.39 10.5168ZM15.39 11.5168L12.04 14.0268V17.3768L15.39 19.8868V11.5168ZM19.59 11.9868C19.7842 11.9877 19.9715 12.0593 20.1168 12.1881C20.2622 12.3169 20.3557 12.4941 20.38 12.6868V18.6168C20.3933 18.829 20.3217 19.0378 20.181 19.1972C20.0404 19.3566 19.8422 19.4536 19.63 19.4668C19.4178 19.4801 19.2091 19.4085 19.0497 19.2679C18.8903 19.1272 18.7933 18.929 18.78 18.7168V12.7868C18.7787 12.6818 18.7981 12.5775 18.8371 12.4799C18.876 12.3823 18.9339 12.2934 19.0072 12.2182C19.0806 12.143 19.168 12.0829 19.2646 12.0415C19.3612 12.0001 19.4649 11.9781 19.57 11.9768L19.59 11.9868ZM9.09 13.1868C9.14516 13.1868 9.19977 13.1977 9.25072 13.2188C9.30168 13.2399 9.34799 13.2708 9.38699 13.3098C9.42599 13.3488 9.45692 13.3951 9.47803 13.4461C9.49913 13.4971 9.51 13.5517 9.51 13.6068V17.7868C9.51 17.8982 9.46575 18.005 9.38699 18.0838C9.30822 18.1626 9.20139 18.2068 9.09 18.2068H7.42C7.30861 18.2068 7.20178 18.1626 7.12301 18.0838C7.04425 18.005 7 17.8982 7 17.7868V13.6068C7 13.5517 7.01086 13.4971 7.03197 13.4461C7.05308 13.3951 7.08401 13.3488 7.12301 13.3098C7.16201 13.2708 7.20832 13.2399 7.25927 13.2188C7.31023 13.1977 7.36484 13.1868 7.42 13.1868H9.09Z" fill="#8723FF"/>
</svg>
