<svg width="24" height="24" viewBox="0 0 24 24" fill="none" xmlns="http://www.w3.org/2000/svg">
<path fill-rule="evenodd" clip-rule="evenodd" d="M13.9999 8.97918C13.9999 6.00218 14.6869 5.07818 14.7949 4.99818C15.0709 5.09218 15.9879 6.46618 15.5139 9.31518C15.3159 10.4982 14.8839 11.7142 14.2319 12.7782C14.0469 11.5052 13.9999 10.0842 13.9999 8.97918ZM19.4669 17.2542C19.8509 17.7222 20.3949 17.9792 20.9999 17.9792C22.3749 17.9792 23.5749 16.8192 23.7069 16.6862C24.0969 16.2972 24.0969 15.6672 23.7079 15.2772C23.3209 14.8872 22.6899 14.8832 22.2959 15.2692C22.0049 15.5562 21.3919 15.9792 21.0239 15.9972C20.6789 15.6922 20.6579 13.7992 20.9809 12.1752C21.0849 11.6512 20.7599 11.1382 20.2409 11.0092C19.7219 10.8812 19.1959 11.1812 19.0419 11.6922C18.5239 13.4212 17.1979 15.9792 15.9999 15.9792C15.5509 15.9792 15.1999 15.6872 14.9269 15.2072C16.2029 13.7742 17.1169 11.8602 17.4859 9.64418C17.9509 6.85318 17.3789 4.40918 16.0279 3.41618C15.3869 2.94518 14.6369 2.87018 13.9669 3.21018C12.6799 3.86118 11.9999 5.85618 11.9999 8.97918C11.9999 10.8252 12.0949 12.9622 12.5849 14.6902C11.6079 15.4822 10.4079 15.9792 8.99991 15.9792C8.44691 15.9792 7.99991 16.4272 7.99991 16.9792C7.99991 17.5322 8.44691 17.9792 8.99991 17.9792C10.6099 17.9792 12.1169 17.4712 13.4089 16.5642C13.9999 17.4342 14.8309 17.9792 15.9999 17.9792C17.2129 17.9792 18.1999 17.2212 18.9669 16.2532C19.0789 16.6342 19.2399 16.9782 19.4669 17.2542ZM20.336 9.96558C20.392 9.97558 20.446 9.97958 20.501 9.97958C20.981 9.97958 21.405 9.63258 21.486 9.14458L21.986 6.14458C22.077 5.59958 21.709 5.08358 21.164 4.99358C20.621 4.89958 20.104 5.27058 20.014 5.81458L19.514 8.81458C19.423 9.35958 19.791 9.87558 20.336 9.96558ZM23 21.9796H1.00001C0.447006 21.9796 5.85939e-06 21.5316 5.85939e-06 20.9796C5.85939e-06 20.4276 0.447006 19.9796 1.00001 19.9796H23C23.553 19.9796 24 20.4276 24 20.9796C24 21.5316 23.553 21.9796 23 21.9796ZM6.00001 17.9796C5.74401 17.9796 5.48801 17.8816 5.29301 17.6866L3.50001 15.8936L1.70701 17.6866C1.51201 17.8816 1.25601 17.9796 1.00001 17.9796C0.744006 17.9796 0.488006 17.8816 0.293006 17.6866C-0.0979941 17.2956 -0.0979941 16.6636 0.293006 16.2726L2.08601 14.4796L0.293006 12.6866C-0.0979941 12.2956 -0.0979941 11.6636 0.293006 11.2726C0.684006 10.8816 1.31601 10.8816 1.70701 11.2726L3.50001 13.0656L5.29301 11.2726C5.68401 10.8816 6.31601 10.8816 6.70701 11.2726C7.09801 11.6636 7.09801 12.2956 6.70701 12.6866L4.91401 14.4796L6.70701 16.2726C7.09801 16.6636 7.09801 17.2956 6.70701 17.6866C6.51201 17.8816 6.25601 17.9796 6.00001 17.9796Z" fill="#323232"/>
</svg>
