<svg width="42" height="26" viewBox="0 0 42 26" fill="none" xmlns="http://www.w3.org/2000/svg">
<path fill-rule="evenodd" clip-rule="evenodd" d="M0 0.5C0 0.223858 0.223858 0 0.5 0H41.2C41.4761 0 41.7 0.223858 41.7 0.5V19C41.7 19.2761 41.4761 19.5 41.2 19.5H20.85H0.500001C0.223858 19.5 0 19.2761 0 19V0.5ZM20.85 19.5L26.0625 26H15.6375L20.85 19.5ZM15.6375 16.25V11.375V9.75V4.875V3.25H14.3344H11.7281H10.425V4.875V9.75V11.375V16.25H11.7281V11.375H14.3344V16.25H15.6375ZM14.3344 4.875V9.75H11.7281V4.875H14.3344ZM29.9719 9.75H28.6688V11.375H29.9719V14.625H27.3656V4.875H29.9719V6.5H31.275V4.875V3.25H29.9719H27.3656H26.0625V4.875V14.625V16.25H27.3656H29.9719H31.275V14.625V11.375V9.75H29.9719ZM22.1531 3.25H23.4563V8.125V8.12837L23.4556 8.12919L22.1531 16.25H20.85H19.5469L18.5044 9.75H18.2437V8.125V3.25H19.5469V8.125L20.5894 14.625H21.1106L22.1531 8.125V3.25Z" fill="#323232"/>
</svg>
