<svg width="24" height="24" viewBox="0 0 24 24" fill="none" xmlns="http://www.w3.org/2000/svg">
<path fill-rule="evenodd" clip-rule="evenodd" d="M19 10H18V6H19C20.103 6 21 6.897 21 8C21 9.103 20.103 10 19 10V10ZM12 14C9.794 14 8 12.206 8 10V7H16V10C16 12.206 14.206 14 12 14V14ZM5 10C3.897 10 3 9.103 3 8C3 6.897 3.897 6 5 6H6V10H5ZM8 6H16V4H8V6ZM15.131 20H8.869L9.535 19H14.465L15.131 20ZM19 4H18V3C18 2.448 17.552 2 17 2H7C6.448 2 6 2.448 6 3V4H5C2.794 4 1 5.794 1 8C1 10.206 2.794 12 5 12H6.35C7.068 14.022 8.837 15.544 11 15.91V17H9C8.666 17 8.354 17.167 8.168 17.445L6.168 20.445C5.963 20.752 5.944 21.146 6.118 21.472C6.292 21.797 6.631 22 7 22H17C17.369 22 17.708 21.797 17.882 21.472C18.056 21.146 18.037 20.752 17.832 20.445L15.832 17.445C15.646 17.167 15.334 17 15 17H13V15.91C15.163 15.544 16.932 14.022 17.65 12H19C21.206 12 23 10.206 23 8C23 5.794 21.206 4 19 4V4Z" fill="#323232"/>
</svg>
