<svg width="24" height="24" viewBox="0 0 24 24" fill="none" xmlns="http://www.w3.org/2000/svg">
<g clip-path="url(#clip0_8_4412)">
<path fill-rule="evenodd" clip-rule="evenodd" d="M12 7.00004V5.64004C12 5.01004 11.59 4.81004 11.08 5.20004L8.38 7.29004C8.26241 7.36744 8.16588 7.47284 8.09909 7.59676C8.0323 7.72069 7.99733 7.85926 7.99733 8.00004C7.99733 8.14082 8.0323 8.27939 8.09909 8.40332C8.16588 8.52724 8.26241 8.63264 8.38 8.71004L11.08 10.8C11.59 11.19 12 10.99 12 10.36V9.00004C12.7911 9.00004 13.5645 9.23464 14.2223 9.67416C14.8801 10.1137 15.3928 10.7384 15.6955 11.4693C15.9983 12.2002 16.0775 13.0045 15.9231 13.7804C15.7688 14.5563 15.3878 15.2691 14.8284 15.8285C14.269 16.3879 13.5563 16.7688 12.7804 16.9232C12.0044 17.0775 11.2002 16.9983 10.4693 16.6956C9.73836 16.3928 9.11365 15.8801 8.67412 15.2223C8.2346 14.5645 8 13.7912 8 13C8 12.7348 7.89464 12.4805 7.70711 12.2929C7.51957 12.1054 7.26522 12 7 12C6.73478 12 6.48043 12.1054 6.29289 12.2929C6.10536 12.4805 6 12.7348 6 13C6 14.1867 6.35189 15.3468 7.01118 16.3335C7.67047 17.3202 8.60754 18.0892 9.7039 18.5433C10.8003 18.9974 12.0067 19.1163 13.1705 18.8848C14.3344 18.6532 15.4035 18.0818 16.2426 17.2427C17.0818 16.4036 17.6532 15.3345 17.8847 14.1706C18.1162 13.0067 17.9974 11.8003 17.5433 10.7039C17.0892 9.60758 16.3201 8.67051 15.3334 8.01122C14.3467 7.35193 13.1867 7.00004 12 7.00004Z" fill="#323232"/>
</g>
<defs>
<clipPath id="clip0_8_4412">
<rect width="12" height="14" fill="white" transform="translate(6 5)"/>
</clipPath>
</defs>
</svg>
