<svg width="24" height="24" viewBox="0 0 24 24" fill="none" xmlns="http://www.w3.org/2000/svg">
<path fill-rule="evenodd" clip-rule="evenodd" d="M4 20H20V8H4V20ZM4 7H20V4H4V7ZM21 2H3C2.447 2 2 2.448 2 3V21C2 21.552 2.447 22 3 22H21C21.553 22 22 21.552 22 21V3C22 2.448 21.553 2 21 2V2Z" fill="#323232"/>
<path fill-rule="evenodd" clip-rule="evenodd" d="M17 5.5C17 5.776 16.776 6 16.5 6C16.224 6 16 5.776 16 5.5C16 5.224 16.224 5 16.5 5C16.776 5 17 5.224 17 5.5ZM19 5.5C19 5.776 18.776 6 18.5 6C18.224 6 18 5.776 18 5.5C18 5.224 18.224 5 18.5 5C18.776 5 19 5.224 19 5.5Z" fill="#323232"/>
<path fill-rule="evenodd" clip-rule="evenodd" d="M6.5 11H13.5C13.776 11 14 10.776 14 10.5C14 10.224 13.776 10 13.5 10H6.5C6.224 10 6 10.224 6 10.5C6 10.776 6.224 11 6.5 11ZM6.5 13H11.5C11.776 13 12 12.776 12 12.5C12 12.224 11.776 12 11.5 12H6.5C6.224 12 6 12.224 6 12.5C6 12.776 6.224 13 6.5 13ZM6.5 14H9.5C9.776 14 10 14.224 10 14.5C10 14.776 9.776 15 9.5 15H6.5C6.224 15 6 14.776 6 14.5C6 14.224 6.224 14 6.5 14ZM8.5 16H6.5C6.224 16 6 16.224 6 16.5C6 16.776 6.224 17 6.5 17H8.5C8.776 17 9 16.776 9 16.5C9 16.224 8.776 16 8.5 16ZM6.5 18H8.5C8.776 18 9 18.224 9 18.5C9 18.776 8.776 19 8.5 19H6.5C6.224 19 6 18.776 6 18.5C6 18.224 6.224 18 6.5 18Z" fill="#323232"/>
<path fill-rule="evenodd" clip-rule="evenodd" d="M17.0469 13.2461L15.7539 11.9531L16.4999 11.2071L17.7929 12.5001L17.0469 13.2461ZM12.2929 18.0001H10.9999V16.7071L15.0469 12.6601L16.3399 13.9531L12.2929 18.0001ZM16.8539 10.1461C16.6579 9.95113 16.3419 9.95113 16.1469 10.1461L10.1469 16.1461C10.0529 16.2401 9.99988 16.3671 9.99988 16.5001V18.5001C9.99988 18.7761 10.2239 19.0001 10.4999 19.0001H12.4999C12.6329 19.0001 12.7599 18.9471 12.8539 18.8531L18.8539 12.8531C19.0489 12.6581 19.0489 12.3421 18.8539 12.1461L16.8539 10.1461Z" fill="#323232"/>
</svg>
