<svg width="32" height="32" viewBox="0 0 32 32" fill="none" xmlns="http://www.w3.org/2000/svg">
<path fill-rule="evenodd" clip-rule="evenodd" d="M14.6666 7.99684H17.3333V6.66456H14.6666V7.99684ZM23.3013 9.49566L23.664 10.7906L20.8173 11.5847L20.4546 10.291L23.3013 9.49566ZM24.996 26.5116L24.6066 25.122L27.452 24.328L27.8413 25.7162L24.996 26.5116ZM27.0933 23.045L24.248 23.8403L21.176 12.8677L24.0226 12.0736L27.0933 23.045ZM14.6666 26.6488H17.3333V25.3165H14.6666V26.6488ZM14.6666 23.9842H17.3333V9.32913H14.6666V23.9842ZM13.9986 29.3134H18.0013C19.104 29.3134 20 28.4167 20 27.3163V18.5578L22.608 27.8732C22.7506 28.3861 23.0866 28.8124 23.5533 29.0749C23.8573 29.2454 24.192 29.3333 24.5293 29.3333C24.7106 29.3333 24.8906 29.308 25.0693 29.2574L29.204 28.1023C29.7173 27.9584 30.1426 27.624 30.4053 27.159C30.668 26.6928 30.7333 26.1532 30.5893 25.6416L25.6893 8.13407C25.5466 7.62114 25.2106 7.19215 24.744 6.93102C24.2773 6.66989 23.7386 6.60461 23.2266 6.7485L20 7.65045V5.99709C20 4.89663 19.104 4 18.0013 4H13.9986C12.896 4 12 4.89663 12 5.99709V27.3163C12 28.4167 12.896 29.3134 13.9986 29.3134ZM5.33329 10.6614H7.99996V9.32913H5.33329V10.6614ZM5.33329 26.6488H7.99996V25.3165H5.33329V26.6488ZM5.33329 23.9842H7.99996V11.9937H5.33329V23.9842ZM4.66529 29.3133H8.66796C9.77063 29.3133 10.6666 28.4167 10.6666 27.3163V8.66165C10.6666 7.56119 9.77063 6.66456 8.66796 6.66456H4.66529C3.56263 6.66456 2.66663 7.56119 2.66663 8.66165V27.3163C2.66663 28.4167 3.56263 29.3133 4.66529 29.3133Z" fill="#323232"/>
</svg>
