<svg width="24" height="24" viewBox="0 0 24 24" fill="none" xmlns="http://www.w3.org/2000/svg">
<path fill-rule="evenodd" clip-rule="evenodd" d="M17 18.4424L12.734 13.8214C12.545 13.6164 12.279 13.5004 12 13.5004C11.721 13.5004 11.455 13.6164 11.266 13.8214L7 18.4424V4.00043H17V18.4424ZM18 2.00043H6C5.447 2.00043 5 2.44743 5 3.00043V21.0004C5 21.4114 5.252 21.7814 5.636 21.9314C6.019 22.0794 6.455 21.9814 6.734 21.6784L12 15.9744L17.266 21.6784C17.459 21.8874 17.727 22.0004 18 22.0004C18.123 22.0004 18.246 21.9774 18.364 21.9314C18.748 21.7814 19 21.4114 19 21.0004V3.00043C19 2.44743 18.553 2.00043 18 2.00043V2.00043Z" fill="#323232"/>
</svg>
