<svg width="32" height="32" viewBox="0 0 32 32" fill="none" xmlns="http://www.w3.org/2000/svg">
<path d="M20.25 18.5834H11.9167C11.3414 18.5834 10.875 19.0497 10.875 19.625V27.9584L10.8816 28.0783C10.9604 28.7834 11.7264 29.2181 12.3825 28.8901L16.0833 27.0396L19.7842 28.8901C20.4768 29.2364 21.2917 28.7327 21.2917 27.9584V19.625C21.2917 19.0497 20.8253 18.5834 20.25 18.5834Z" fill="#CAAF8D"/>
<path d="M20.25 18.5834H11.9167C11.3414 18.5834 10.875 19.0497 10.875 19.625V27.9584L10.8816 28.0783C10.9604 28.7834 11.7264 29.2181 12.3825 28.8901L16.0833 27.0396L19.7842 28.8901C20.4768 29.2364 21.2917 28.7327 21.2917 27.9584V19.625C21.2917 19.0497 20.8253 18.5834 20.25 18.5834ZM19.2083 20.6667V26.273L16.5492 24.9433L16.4206 24.8895C16.1584 24.7997 15.8688 24.8177 15.6175 24.9433L12.9583 26.2719V20.6667H19.2083Z" fill="#B09573"/>
<path d="M16.0833 4C21.8363 4 26.5 8.6637 26.5 14.4167C26.5 20.1696 21.8363 24.8333 16.0833 24.8333C10.3303 24.8333 5.66663 20.1696 5.66663 14.4167C5.66663 8.6637 10.3303 4 16.0833 4Z" fill="#D6BB99"/>
<path d="M26.5 14.4167C26.5 20.1697 21.8363 24.8334 16.0833 24.8334C13.6063 24.8334 11.3312 23.9688 9.54333 22.5249C10.3116 22.6727 11.1051 22.75 11.9167 22.75C18.8202 22.75 24.4167 17.1536 24.4167 10.25C24.4167 9.43819 24.3393 8.64444 24.1915 7.87573C25.6352 9.66408 26.5 11.9394 26.5 14.4167Z" fill="#CAAF8C"/>
<path d="M16.0833 4C17.3287 4 18.5231 4.21857 19.6302 4.61944C20.0314 5.72685 20.25 6.92123 20.25 8.16667C20.25 13.9196 15.5863 18.5833 9.83329 18.5833C8.58786 18.5833 7.39347 18.3648 6.2864 17.9639C5.88519 16.8565 5.66663 15.6621 5.66663 14.4167C5.66663 8.6637 10.3303 4 16.0833 4Z" fill="#E7CCAA"/>
<path d="M16.0833 4C21.8363 4 26.5 8.6637 26.5 14.4167C26.5 20.1696 21.8363 24.8333 16.0833 24.8333C10.3303 24.8333 5.66663 20.1696 5.66663 14.4167C5.66663 8.6637 10.3303 4 16.0833 4ZM16.0833 6.08333C11.4809 6.08333 7.74996 9.81429 7.74996 14.4167C7.74996 19.019 11.4809 22.75 16.0833 22.75C20.6857 22.75 24.4166 19.019 24.4166 14.4167C24.4166 9.81429 20.6857 6.08333 16.0833 6.08333Z" fill="#B09573"/>
<path fill-rule="evenodd" clip-rule="evenodd" d="M16.0833 17.0209L13.0219 18.6303L13.6066 15.2214L11.1299 12.8072L14.5526 12.3099L16.0833 9.20837L17.614 12.3099L21.0367 12.8072L18.56 15.2214L19.1447 18.6303L16.0833 17.0209Z" fill="#A38866"/>
<path d="M14.4885 8.16663C17.0595 8.16663 9.83325 15.3928 9.83325 12.8218C9.83325 10.2508 11.9175 8.16663 14.4885 8.16663Z" fill="white"/>
</svg>
