<svg width="24" height="24" viewBox="0 0 24 24" fill="none" xmlns="http://www.w3.org/2000/svg">
<path fill-rule="evenodd" clip-rule="evenodd" d="M12 20C10.492 20 9.015 19.57 7.731 18.757C7.569 18.654 7.383 18.602 7.196 18.602C7.089 18.602 6.983 18.619 6.879 18.653L4.581 19.419L5.347 17.121C5.442 16.835 5.404 16.523 5.243 16.269C4.43 14.985 4 13.508 4 12C4 7.589 7.589 4 12 4C16.411 4 20 7.589 20 12C20 16.411 16.411 20 12 20M12 2C6.486 2 2 6.486 2 12C2 13.727 2.45 15.419 3.304 16.924L2.051 20.684C1.932 21.043 2.025 21.439 2.293 21.707C2.483 21.898 2.739 22 3 22C3.106 22 3.212 21.983 3.316 21.949L7.076 20.696C8.581 21.55 10.273 22 12 22C17.514 22 22 17.514 22 12C22 6.486 17.514 2 12 2M15.5 9H8.5C8.224 9 8 9.224 8 9.5C8 9.776 8.224 10 8.5 10H15.5C15.776 10 16 9.776 16 9.5C16 9.224 15.776 9 15.5 9ZM15.5 11H8.5C8.224 11 8 11.224 8 11.5C8 11.776 8.224 12 8.5 12H15.5C15.776 12 16 11.776 16 11.5C16 11.224 15.776 11 15.5 11ZM15.5 13H8.5C8.224 13 8 13.224 8 13.5C8 13.776 8.224 14 8.5 14H15.5C15.776 14 16 13.776 16 13.5C16 13.224 15.776 13 15.5 13ZM12.5 15H8.5C8.224 15 8 15.224 8 15.5C8 15.776 8.224 16 8.5 16H12.5C12.776 16 13 15.776 13 15.5C13 15.224 12.776 15 12.5 15Z" fill="#323232"/>
</svg>
