<svg width="24" height="24" viewBox="0 0 24 24" fill="none" xmlns="http://www.w3.org/2000/svg">
<path fill-rule="evenodd" clip-rule="evenodd" d="M19.0651 6.94406C18.546 6.42333 17.7024 6.423 17.1833 6.94372L9.92977 14.2207L6.8168 11.0977C6.29775 10.577 5.45409 10.5773 4.93504 11.098C4.41836 11.6164 4.41803 12.4554 4.93471 12.9737L9.00407 17.0562C9.52312 17.5769 10.3668 17.5766 10.8858 17.0559C10.9432 16.9983 10.9942 16.9369 11.0388 16.8723C11.0395 16.8715 11.0403 16.8708 11.041 16.87L19.0654 8.81975C19.5821 8.30139 19.5818 7.46241 19.0651 6.94406Z" fill="#323232"/>
<mask id="mask0_8_3450" style="mask-type:alpha" maskUnits="userSpaceOnUse" x="4" y="6" width="16" height="12">
<path fill-rule="evenodd" clip-rule="evenodd" d="M19.0651 6.94406C18.546 6.42333 17.7024 6.423 17.1833 6.94372L9.92977 14.2207L6.8168 11.0977C6.29775 10.577 5.45409 10.5773 4.93504 11.098C4.41836 11.6164 4.41803 12.4554 4.93471 12.9737L9.00407 17.0562C9.52312 17.5769 10.3668 17.5766 10.8858 17.0559C10.9432 16.9983 10.9942 16.9369 11.0388 16.8723C11.0395 16.8715 11.0403 16.8708 11.041 16.87L19.0654 8.81975C19.5821 8.30139 19.5818 7.46241 19.0651 6.94406Z" fill="white"/>
</mask>
<g mask="url(#mask0_8_3450)">
</g>
</svg>
