<svg width="32" height="32" viewBox="0 0 32 32" fill="none" xmlns="http://www.w3.org/2000/svg">
<path fill-rule="evenodd" clip-rule="evenodd" d="M24 26.6666L8.00004 26.6613V5.33329H24V26.6666ZM25.3334 2.66663H6.66671C5.93071 2.66663 5.33337 3.26396 5.33337 3.99996V27.9946C5.33337 28.732 5.93071 29.328 6.66671 29.328L24 29.3333C24.3534 29.3333 26.0267 29.1933 26.276 28.9426C26.5267 28.6933 26.6667 28.3546 26.6667 28V3.99996C26.6667 3.26396 26.0694 2.66663 25.3334 2.66663ZM11.3334 18.6666H20.6667C21.0347 18.6666 21.3334 18.368 21.3334 18C21.3334 17.632 21.0347 17.3333 20.6667 17.3333H11.3334C10.9654 17.3333 10.6667 17.632 10.6667 18C10.6667 18.368 10.9654 18.6666 11.3334 18.6666ZM11.3334 21.3333H20.6667C21.0347 21.3333 21.3334 21.0346 21.3334 20.6666C21.3334 20.2986 21.0347 20 20.6667 20H11.3334C10.9654 20 10.6667 20.2986 10.6667 20.6666C10.6667 21.0346 10.9654 21.3333 11.3334 21.3333ZM11.3334 24H20.6667C21.0347 24 21.3334 23.7013 21.3334 23.3333C21.3334 22.9653 21.0347 22.6666 20.6667 22.6666H11.3334C10.9654 22.6666 10.6667 22.9653 10.6667 23.3333C10.6667 23.7013 10.9654 24 11.3334 24ZM14.862 14.4713C14.9927 14.602 15.1634 14.666 15.334 14.666C15.5034 14.666 15.674 14.602 15.8047 14.4713L21.138 9.13796C21.398 8.87796 21.398 8.45529 21.138 8.19529C20.878 7.93529 20.4554 7.93529 20.1954 8.19529L15.334 13.0566L13.138 10.862C12.878 10.602 12.4554 10.602 12.1954 10.862C11.9354 11.122 11.9354 11.5446 12.1954 11.8046L14.862 14.4713Z" fill="#323232"/>
</svg>
