<svg width="32" height="32" viewBox="0 0 32 32" fill="none" xmlns="http://www.w3.org/2000/svg">
<path fill-rule="evenodd" clip-rule="evenodd" d="M4 7C4 6.447 4.448 6 5 6H27C27.552 6 28 6.447 28 7V22C28 22.553 27.552 23 27 23H17L16 22L17 21H26V8H6V20.5L4 22V7ZM10.0039 13.0005C11.8819 13.0005 13.0039 14.2535 13.0039 16.3555C13.0039 18.1085 11.8569 20.0005 10.0039 20.0005C8.1509 20.0005 7.0039 18.1085 7.0039 16.3555C7.0039 14.2535 8.1259 13.0005 10.0039 13.0005ZM9.0039 16.3555C9.0039 15.1045 9.4979 15.0005 10.0039 15.0005C10.5099 15.0005 11.0039 15.1045 11.0039 16.3555C11.0039 17.1855 10.5089 18.0005 10.0039 18.0005C9.4989 18.0005 9.0039 17.1855 9.0039 16.3555ZM16.854 18.854L13.583 22.124C14.277 22.599 14.924 23.22 15.504 24C16.314 25.09 16.122 26 15.004 26H14.004H12.994H10.004V25.996L10.002 26H7.012H6.002H5.002C3.884 26 3.692 25.09 4.502 24C5.999 21.985 7.94 21 10.002 21L10.004 21.003V21C10.931 21 11.831 21.211 12.68 21.613L16.147 18.146C16.342 17.951 16.658 17.951 16.854 18.146C17.049 18.342 17.049 18.658 16.854 18.854ZM11.002 24H10.004H7.002C7.591 23.313 8.543 23 10.002 23L10.004 22.999V23C11.463 23 12.415 23.313 13.004 24H11.002Z" fill="#323232"/>
</svg>
