<svg width="32" height="32" viewBox="0 0 32 32" fill="none" xmlns="http://www.w3.org/2000/svg">
<path fill-rule="evenodd" clip-rule="evenodd" d="M27 7H5C4.448 7 4 7.447 4 8V22L6 20.5V9H26V21H17L16 22L17 23H27C27.552 23 28 22.553 28 22V8C28 7.447 27.552 7 27 7ZM9.0039 16.3555C9.0039 15.1045 9.4979 15.0005 10.0039 15.0005C10.5099 15.0005 11.0039 15.1045 11.0039 16.3555C11.0039 17.1855 10.5089 18.0005 10.0039 18.0005C9.4989 18.0005 9.0039 17.1855 9.0039 16.3555ZM10.0039 13.0005C11.8819 13.0005 13.0039 14.2535 13.0039 16.3555C13.0039 18.1085 11.8569 20.0005 10.0039 20.0005C8.1509 20.0005 7.0039 18.1085 7.0039 16.3555C7.0039 14.2535 8.1259 13.0005 10.0039 13.0005ZM10.004 24H11.002H13.004C12.415 23.313 11.463 23 10.004 23V22.999L10.002 23C8.543 23 7.591 23.313 7.002 24H10.004ZM13.583 22.124L16.854 18.854C17.049 18.658 17.049 18.342 16.854 18.146C16.658 17.951 16.342 17.951 16.147 18.146L12.68 21.613C11.831 21.211 10.931 21 10.004 21V21.003L10.002 21C7.94 21 5.999 21.985 4.502 24C3.692 25.09 3.884 26 5.002 26H6.002H7.012H10.002L10.004 25.996V26H12.994H14.004H15.004C16.122 26 16.314 25.09 15.504 24C14.924 23.22 14.277 22.599 13.583 22.124ZM17.5 12.8184L18.162 14.4704H16.839L17.5 12.8184ZM15.964 16.6564C15.862 16.9144 15.569 17.0374 15.314 16.9354C15.058 16.8324 14.933 16.5414 15.036 16.2854L17.036 11.2854C17.188 10.9044 17.812 10.9044 17.964 11.2854L19.964 16.2854C20.067 16.5414 19.942 16.8324 19.686 16.9354C19.625 16.9594 19.562 16.9704 19.5 16.9704C19.302 16.9704 19.114 16.8514 19.036 16.6564L18.557 15.4604C18.549 15.4612 18.5414 15.4631 18.5337 15.465C18.523 15.4677 18.5122 15.4704 18.5 15.4704H16.5C16.4887 15.4704 16.4784 15.4678 16.4679 15.4653C16.4598 15.4633 16.4517 15.4613 16.443 15.4604L15.964 16.6564ZM21.124 15.9707H22V15.5257C21.736 15.4587 21.444 15.4377 21.329 15.5407C21.185 15.6657 21.128 15.8557 21.124 15.9707ZM23 14.1507C23 13.6717 22.768 13.2887 22.364 13.0977C21.862 12.8597 21.154 12.9667 20.683 13.3537C20.469 13.5297 20.438 13.8437 20.613 14.0587C20.789 14.2697 21.103 14.3027 21.317 14.1267C21.5 13.9767 21.799 13.9357 21.936 14.0017C21.965 14.0137 22 14.0317 22 14.1507V14.5077C21.581 14.4397 21.061 14.4497 20.671 14.7867C20.208 15.1917 20.004 15.8847 20.197 16.4007C20.329 16.7517 20.636 16.9707 21 16.9707H22.5C22.776 16.9707 23 16.7477 23 16.4707V14.1507Z" fill="#323232"/>
</svg>
