<svg width="24" height="24" viewBox="0 0 24 24" fill="none" xmlns="http://www.w3.org/2000/svg">
<path fill-rule="evenodd" clip-rule="evenodd" d="M4.70711 3.29289L7.96951 6.55469C8.98777 5.63144 10.3153 5.06449 11.7497 5.00517L12 5C14.9372 5 17.3814 7.11046 17.899 9.89765L17.933 10.11L17.9706 10.1186C19.6486 10.5368 20.9073 12.0147 20.9951 13.8004L21 14C21 15.5045 20.1671 16.8218 18.9201 17.5048L20.7071 19.2929C21.0976 19.6834 21.0976 20.3166 20.7071 20.7071C20.3166 21.0976 19.6834 21.0976 19.2929 20.7071L3.29289 4.70711C2.90237 4.31658 2.90237 3.68342 3.29289 3.29289C3.68342 2.90237 4.31658 2.90237 4.70711 3.29289ZM4.75456 9L6.16624 10.4512C5.44484 11.0132 4.98394 11.9044 4.98394 12.8958C4.98394 14.5872 6.3163 15.9583 7.95985 15.9583H11.5161L13.5 18H7.95985C5.29269 18 3.11723 15.8335 3.00458 13.1172L3 12.8958C3 11.3445 3.67646 9.94099 4.75456 9ZM9 7.72482C9.71876 7.11097 10.6509 6.75 11.6504 6.75C13.891 6.75 15.7073 8.54799 15.7073 10.7659C15.7073 11.3204 16.1614 11.7699 16.7215 11.7699C17.8418 11.7699 18.75 12.6689 18.75 13.7779C18.75 14.7532 18.0451 15.5721 17.1058 15.75L9 7.72482Z" fill="#323232"/>
</svg>
