<svg width="32" height="32" viewBox="0 0 32 32" fill="none" xmlns="http://www.w3.org/2000/svg">
<path fill-rule="evenodd" clip-rule="evenodd" d="M8 6C9.878 6 11 7.254 11 9.355C11 11.108 9.853 13 8 13C6.147 13 5 11.108 5 9.355C5 7.254 6.122 6 8 6ZM8 8C7.494 8 7 8.105 7 9.355C7 10.185 7.495 11 8 11C8.505 11 9 10.185 9 9.355C9 8.105 8.506 8 8 8ZM26 13.355C26 11.254 24.878 10 23 10C21.122 10 20 11.254 20 13.355C20 15.108 21.147 17 23 17C24.853 17 26 15.108 26 13.355ZM22 13.355C22 12.105 22.494 12 23 12C23.506 12 24 12.105 24 13.355C24 14.185 23.505 15 23 15C22.495 15 22 14.185 22 13.355ZM23 20C24.103 20 25 20.897 25 22C25 22.552 25.448 23 26 23C26.552 23 27 22.552 27 22C27 19.794 25.206 18 23 18C20.794 18 19 19.794 19 22C19 22.552 19.448 23 20 23C20.552 23 21 22.552 21 22C21 20.897 21.897 20 23 20ZM16 6C17.878 6 19 7.254 19 9.355C19 11.108 17.853 13 16 13C14.147 13 13 11.108 13 9.355C13 7.254 14.122 6 16 6ZM16 8C15.494 8 15 8.105 15 9.355C15 10.185 15.495 11 16 11C16.505 11 17 10.185 17 9.355C17 8.105 16.506 8 16 8ZM18 18C18 16.897 17.103 16 16 16C14.897 16 14 16.897 14 18C14 18.552 13.552 19 13 19C12.448 19 12 18.552 12 18C12 15.794 13.794 14 16 14C18.206 14 20 15.794 20 18C20 18.552 19.552 19 19 19C18.448 19 18 18.552 18 18ZM8 14C10.206 14 12 15.794 12 18C12 18.552 11.552 19 11 19C10.448 19 10 18.552 10 18C10 16.897 9.103 16 8 16C6.897 16 6 16.897 6 18C6 18.552 5.552 19 5 19C4.448 19 4 18.552 4 18C4 15.794 5.794 14 8 14ZM5 24C4.44772 24 4 24.4477 4 25C4 25.5523 4.44772 26 5 26H27C27.5523 26 28 25.5523 28 25C28 24.4477 27.5523 24 27 24H5Z" fill="#323232"/>
</svg>
