<svg width="32" height="32" viewBox="0 0 32 32" fill="none" xmlns="http://www.w3.org/2000/svg">
<path fill-rule="evenodd" clip-rule="evenodd" d="M16.8345 5.58087C16.8345 4.61852 16.4226 4.53852 16.0008 4.53852C15.5789 4.53852 15.167 4.61852 15.167 5.58087C15.167 6.21935 15.5797 6.8463 16.0008 6.8463C16.4218 6.8463 16.8345 6.21935 16.8345 5.58087ZM13.4996 5.58087C13.4996 3.96388 14.435 3 16.0008 3C17.5665 3 18.5019 3.96388 18.5019 5.58087C18.5019 6.92938 17.5456 8.38482 16.0008 8.38482C14.4559 8.38482 13.4996 6.92938 13.4996 5.58087ZM16.0008 11.4615H16.8329H18.502C18.0109 10.933 17.2172 10.6922 15.9992 10.6922C14.7828 10.6922 13.9891 10.933 13.498 11.4615H16.0008ZM18.2319 9.62526C17.524 9.31601 16.7737 9.1537 16.0008 9.1537C14.28 9.1537 12.6618 9.91142 11.4137 11.4615C10.7384 12.3 10.8985 13 11.8306 13H12.6643H13.5063H15.9992H18.4937H19.3357H20.1694C21.1015 13 21.2616 12.3 20.5863 11.4615C20.1027 10.8615 19.5633 10.3837 18.9847 10.0183L18.2319 9.62526ZM23.8345 17.5809C23.8345 16.6185 23.4226 16.5385 23.0008 16.5385C22.5789 16.5385 22.167 16.6185 22.167 17.5809C22.167 18.2194 22.5797 18.8463 23.0008 18.8463C23.4218 18.8463 23.8345 18.2194 23.8345 17.5809ZM20.4996 17.5809C20.4996 15.9639 21.435 15 23.0007 15C24.5665 15 25.5019 15.9639 25.5019 17.5809C25.5019 18.9294 24.5456 20.3848 23.0007 20.3848C21.4559 20.3848 20.4996 18.9294 20.4996 17.5809ZM23.0008 23.4615H23.8329H25.502C25.0109 22.933 24.2172 22.6922 22.9992 22.6922C21.7828 22.6922 20.9891 22.933 20.498 23.4615H23.0008ZM25.2319 21.6253C24.524 21.316 23.7737 21.1537 23.0008 21.1537C21.28 21.1537 19.6618 21.9114 18.4137 23.4615C17.7384 24.3 17.8985 25 18.8306 25H19.6643H20.5063H22.9992H25.4937H26.3357H27.1694C28.1015 25 28.2616 24.3 27.5863 23.4615C27.1027 22.8615 26.5633 22.3837 25.9847 22.0183L25.2319 21.6253ZM17.4895 28.2105C17.8087 28.0969 18 27.786 18 27.4472C18 26.7823 17.2814 26.3276 16.6264 26.4421C16.4239 26.4775 16.212 26.5 16 26.5C15.788 26.5 15.5761 26.4775 15.3736 26.4421C14.7186 26.3276 14 26.7823 14 27.4472C14 27.786 14.1913 28.0969 14.5105 28.2105C14.8944 28.3472 15.4472 28.5 16 28.5C16.5528 28.5 17.1056 28.3472 17.4895 28.2105ZM6.20506 11.3115C6.05972 11.6176 6.14428 11.9727 6.38384 12.2123C6.85399 12.6824 7.6837 12.4958 8.06582 11.9517C8.18394 11.7835 8.31794 11.6177 8.46783 11.4678C8.61772 11.3179 8.78349 11.1839 8.95168 11.0658C9.49581 10.6837 9.68242 9.85399 9.21226 9.38383C8.97271 9.14428 8.61757 9.05972 8.31155 9.20506C7.94347 9.37986 7.44452 9.66271 7.05362 10.0536C6.66271 10.4445 6.37986 10.9435 6.20506 11.3115ZM23.6895 9.1806C23.381 9.04062 23.0274 9.13137 22.7921 9.37507C22.3302 9.85336 22.5312 10.6797 23.082 11.0523C23.2522 11.1674 23.4203 11.2985 23.5728 11.4458C23.7252 11.593 23.8621 11.7564 23.9831 11.9225C24.3747 12.4599 25.2075 12.632 25.6694 12.1537C25.9048 11.91 25.9831 11.5534 25.8325 11.25C25.6513 10.885 25.3597 10.3911 24.9621 10.0071C24.5644 9.62305 24.0606 9.34895 23.6895 9.1806ZM9.83447 17.5809C9.83447 16.6185 9.42261 16.5385 9.00075 16.5385C8.57889 16.5385 8.16703 16.6185 8.16703 17.5809C8.16703 18.2194 8.57972 18.8463 9.00075 18.8463C9.42178 18.8463 9.83447 18.2194 9.83447 17.5809ZM6.4996 17.5809C6.4996 15.9639 7.43503 15 9.00075 15C10.5665 15 11.5019 15.9639 11.5019 17.5809C11.5019 18.9294 10.5456 20.3848 9.00075 20.3848C7.45587 20.3848 6.4996 18.9294 6.4996 17.5809ZM9.00083 23.4615H9.83288H11.502C11.0109 22.933 10.2172 22.6922 8.99917 22.6922C7.78277 22.6922 6.98907 22.933 6.49801 23.4615H9.00083ZM11.2319 21.6253C10.524 21.316 9.77369 21.1537 9.00083 21.1537C7.28004 21.1537 5.66179 21.9114 4.41372 23.4615C3.7384 24.3 3.89848 25 4.83058 25H5.66429H6.50635H8.99917H11.4937H12.3357H13.1694C14.1015 25 14.2616 24.3 13.5863 23.4615C13.1027 22.8615 12.5633 22.3837 11.9847 22.0183L11.2319 21.6253Z" fill="#323232"/>
</svg>
