<svg width="32" height="32" viewBox="0 0 32 32" fill="none" xmlns="http://www.w3.org/2000/svg">
<path fill-rule="evenodd" clip-rule="evenodd" d="M20.9754 8.49914C20.9917 8.33497 21 8.16846 21 8C21 5.23858 18.7614 3 16 3C13.2386 3 11 5.23858 11 8C11 8.16846 11.0083 8.33497 11.0246 8.49914C10.024 9.16416 9.16416 10.024 8.49914 11.0246C8.33496 11.0083 8.16846 11 8 11C5.23858 11 3 13.2386 3 16C3 18.7614 5.23858 21 8 21C8.16846 21 8.33496 20.9917 8.49914 20.9754C9.16416 21.976 10.024 22.8358 11.0246 23.5009C11.0083 23.665 11 23.8315 11 24C11 26.7614 13.2386 29 16 29C18.7614 29 21 26.7614 21 24C21 23.8315 20.9917 23.665 20.9754 23.5009C21.976 22.8358 22.8358 21.976 23.5009 20.9754C23.665 20.9917 23.8315 21 24 21C26.7614 21 29 18.7614 29 16C29 13.2386 26.7614 11 24 11C23.8315 11 23.665 11.0083 23.5009 11.0246C22.8358 10.024 21.976 9.16416 20.9754 8.49914ZM10.5003 20.3309C10.8425 20.765 11.235 21.1575 11.6691 21.4997C12.5336 20.0054 14.1494 19 16 19C17.8506 19 19.4664 20.0054 20.3309 21.4997C20.765 21.1575 21.1575 20.765 21.4997 20.3309C20.0054 19.4664 19 17.8506 19 16C19 14.1494 20.0054 12.5336 21.4997 11.6691C21.1575 11.235 20.765 10.8425 20.3309 10.5003C19.4664 11.9946 17.8506 13 16 13C14.1494 13 12.5336 11.9946 11.6691 10.5003C11.235 10.8425 10.8425 11.235 10.5003 11.6691C11.9946 12.5336 13 14.1494 13 16C13 17.8506 11.9946 19.4664 10.5003 20.3309ZM8 20C8.53803 20 9.05125 19.8938 9.51983 19.7012C9.15275 19.2722 8.60764 19 8 19C7.39236 19 6.84724 19.2722 6.48017 19.7012C6.94875 19.8938 7.46197 20 8 20ZM8 12C5.79086 12 4 13.7909 4 16C4 17.3173 4.63679 18.4859 5.61933 19.2147C6.08404 18.4449 6.80656 18 8 18C9.18294 18 9.90095 18.4534 10.3679 19.2241C11.3577 18.496 12 17.323 12 16C12 13.7909 10.2091 12 8 12ZM25.5198 19.7012C25.0512 19.8938 24.538 20 24 20C23.462 20 22.9488 19.8938 22.4802 19.7012C22.8472 19.2722 23.3924 19 24 19C24.6076 19 25.1528 19.2722 25.5198 19.7012ZM20 16C20 13.7909 21.7909 12 24 12C26.2091 12 28 13.7909 28 16C28 17.323 27.3577 18.496 26.3679 19.2241C25.9009 18.4534 25.1829 18 24 18C22.8066 18 22.084 18.4449 21.6193 19.2147C20.6368 18.4859 20 17.3173 20 16ZM16 12C16.538 12 17.0512 11.8938 17.5198 11.7012C17.1528 11.2722 16.6076 11 16 11C15.3924 11 14.8472 11.2722 14.4802 11.7012C14.9488 11.8938 15.462 12 16 12ZM16 10C17.1829 10 17.9009 10.4534 18.3679 11.2241C19.3577 10.496 20 9.32299 20 8C20 5.79086 18.2091 4 16 4C13.7909 4 12 5.79086 12 8C12 9.31731 12.6368 10.4859 13.6193 11.2147C14.084 10.4449 14.8066 10 16 10ZM17.9982 7.39643C17.9982 5.89571 17.2502 5 15.9982 5C14.7462 5 13.9982 5.89571 13.9982 7.39643C13.9982 8.64857 14.7629 10 15.9982 10C17.2335 10 17.9982 8.64857 17.9982 7.39643ZM14.9982 7.355C14.9982 6.105 15.4922 6 15.9982 6C16.5042 6 16.9982 6.105 16.9982 7.355C16.9982 8.185 16.5032 9 15.9982 9C15.4932 9 14.9982 8.185 14.9982 7.355ZM13.6193 27.2147C12.6368 26.4859 12 25.3173 12 24C12 21.7909 13.7909 20 16 20C18.2091 20 20 21.7909 20 24C20 25.323 19.3577 26.496 18.3679 27.2241C17.9009 26.4534 17.1829 26 16 26C14.8066 26 14.084 26.4449 13.6193 27.2147ZM17.5198 27.7012C17.0512 27.8938 16.538 28 16 28C15.462 28 14.9488 27.8938 14.4802 27.7012C14.8472 27.2722 15.3924 27 16 27C16.6076 27 17.1528 27.2722 17.5198 27.7012ZM15.9982 21C17.2502 21 17.9982 21.8957 17.9982 23.3964C17.9982 24.6486 17.2335 26 15.9982 26C14.7629 26 13.9982 24.6486 13.9982 23.3964C13.9982 21.8957 14.7462 21 15.9982 21ZM15.9982 22C15.4922 22 14.9982 22.105 14.9982 23.355C14.9982 24.185 15.4932 25 15.9982 25C16.5032 25 16.9982 24.185 16.9982 23.355C16.9982 22.105 16.5042 22 15.9982 22ZM23.9982 13C25.2502 13 25.9982 13.8957 25.9982 15.3964C25.9982 16.6486 25.2335 18 23.9982 18C22.7629 18 21.9982 16.6486 21.9982 15.3964C21.9982 13.8957 22.7462 13 23.9982 13ZM23.9982 14C23.4922 14 22.9982 14.105 22.9982 15.355C22.9982 16.185 23.4932 17 23.9982 17C24.5032 17 24.9982 16.185 24.9982 15.355C24.9982 14.105 24.5042 14 23.9982 14ZM9.99819 15.3964C9.99819 13.8957 9.25019 13 7.99819 13C6.74619 13 5.99819 13.8957 5.99819 15.3964C5.99819 16.6486 6.76285 18 7.99819 18C9.23352 18 9.99819 16.6486 9.99819 15.3964ZM6.99819 15.355C6.99819 14.105 7.49219 14 7.99819 14C8.50419 14 8.99819 14.105 8.99819 15.355C8.99819 16.185 8.50319 17 7.99819 17C7.49319 17 6.99819 16.185 6.99819 15.355Z" fill="#323232"/>
</svg>
