<svg width="24" height="24" viewBox="0 0 24 24" fill="none" xmlns="http://www.w3.org/2000/svg">
<path fill-rule="evenodd" clip-rule="evenodd" d="M14.5001 19.9609C14.2241 19.9609 14.0001 20.1849 14.0001 20.4609V23.4609C14.0001 23.7369 14.2241 23.9609 14.5001 23.9609C14.7761 23.9609 15.0001 23.7369 15.0001 23.4609V20.4609C15.0001 20.1849 14.7761 19.9609 14.5001 19.9609" fill="#323232"/>
<path fill-rule="evenodd" clip-rule="evenodd" d="M9.50012 19.9609C9.22412 19.9609 9.00012 20.1849 9.00012 20.4609V23.4609C9.00012 23.7369 9.22412 23.9609 9.50012 23.9609C9.77612 23.9609 10.0001 23.7369 10.0001 23.4609V20.4609C10.0001 20.1849 9.77612 19.9609 9.50012 19.9609" fill="#323232"/>
<path fill-rule="evenodd" clip-rule="evenodd" d="M19.5001 20.9609C19.2241 20.9609 19.0001 21.1849 19.0001 21.4609V23.4609C19.0001 23.7369 19.2241 23.9609 19.5001 23.9609C19.7761 23.9609 20.0001 23.7369 20.0001 23.4609V21.4609C20.0001 21.1849 19.7761 20.9609 19.5001 20.9609" fill="#666666"/>
<path fill-rule="evenodd" clip-rule="evenodd" d="M4.50012 20.9609C4.22412 20.9609 4.00012 21.1849 4.00012 21.4609V23.4609C4.00012 23.7369 4.22412 23.9609 4.50012 23.9609C4.77612 23.9609 5.00012 23.7369 5.00012 23.4609V21.4609C5.00012 21.1849 4.77612 20.9609 4.50012 20.9609" fill="#666666"/>
<path fill-rule="evenodd" clip-rule="evenodd" d="M15.7927 11.2544C15.5647 11.4834 15.4607 11.8074 15.5137 12.1254L16.1757 16.0994L12.4797 14.0834C12.3297 14.0014 12.1657 13.9614 12.0007 13.9614C11.8347 13.9614 11.6707 14.0014 11.5217 14.0834L7.82465 16.0994L8.48665 12.1254C8.53965 11.8074 8.43565 11.4834 8.20765 11.2544L5.08165 8.12337L9.16365 7.44737C9.46665 7.39737 9.73065 7.21037 9.87765 6.94037L12.0007 3.04937L14.1227 6.94037C14.2697 7.21037 14.5337 7.39737 14.8367 7.44737L18.9187 8.12337L15.7927 11.2544ZM21.9527 7.14837C21.8377 6.79237 21.5337 6.52937 21.1637 6.46837L15.6447 5.55437L12.8777 0.482372C12.5277 -0.160628 11.4727 -0.160628 11.1227 0.482372L8.35565 5.55437L2.83665 6.46837C2.46665 6.52937 2.16265 6.79237 2.04765 7.14837C1.93365 7.50537 2.02765 7.89637 2.29265 8.16137L6.42965 12.3034L5.51365 17.7964C5.45065 18.1734 5.60865 18.5544 5.92065 18.7754C6.23265 18.9974 6.64365 19.0224 6.97965 18.8384L12.0007 16.1004L17.0217 18.8384C17.1707 18.9204 17.3357 18.9614 17.5007 18.9614C17.7037 18.9614 17.9077 18.8984 18.0797 18.7754C18.3917 18.5544 18.5497 18.1734 18.4867 17.7964L17.5707 12.3034L21.7077 8.16137C21.9727 7.89637 22.0667 7.50537 21.9527 7.14837V7.14837Z" fill="#323232"/>
</svg>
