<svg width="24" height="24" viewBox="0 0 24 24" fill="none" xmlns="http://www.w3.org/2000/svg">
<path fill-rule="evenodd" clip-rule="evenodd" d="M23.0003 7H11.0003C10.4473 7 10.0003 6.552 10.0003 6C10.0003 5.448 10.4473 5 11.0003 5H23.0003C23.5533 5 24.0003 5.448 24.0003 6C24.0003 6.552 23.5533 7 23.0003 7ZM11.0003 11H23.0003C23.5533 11 24.0003 10.552 24.0003 10C24.0003 9.448 23.5533 9 23.0003 9H11.0003C10.4473 9 10.0003 9.448 10.0003 10C10.0003 10.552 10.4473 11 11.0003 11ZM5.59624 11L4.50029 8.4955L3.40433 11H5.59624ZM2.52914 13L1.91629 14.4005C1.69429 14.9065 1.10329 15.1365 0.600285 14.9165C0.0932851 14.6945 -0.137715 14.1045 0.0842852 13.5995L3.58429 5.5995C3.74329 5.2355 4.10329 5.0005 4.50029 5.0005C4.89728 5.0005 5.25729 5.2355 5.41629 5.5995L8.91629 13.5995C9.13829 14.1045 8.90728 14.6945 8.40028 14.9165C8.27129 14.9735 8.13529 15.0005 8.00129 15.0005C7.61529 15.0005 7.24829 14.7765 7.08429 14.4005L6.47143 13H6.00029H2.52914ZM11.0003 15H23.0003C23.5533 15 24.0003 14.552 24.0003 14C24.0003 13.448 23.5533 13 23.0003 13H11.0003C10.4473 13 10.0003 13.448 10.0003 14C10.0003 14.552 10.4473 15 11.0003 15ZM1.00029 19C0.447285 19 0.000285167 18.552 0.000285167 18C0.000285167 17.448 0.447285 17 1.00029 17H21.0003C21.5533 17 22.0003 17.448 22.0003 18C22.0003 18.552 21.5533 19 21.0003 19H1.00029Z" fill="#323232"/>
</svg>
