<svg width="32" height="32" viewBox="0 0 32 32" fill="none" xmlns="http://www.w3.org/2000/svg">
<path fill-rule="evenodd" clip-rule="evenodd" d="M8 19.997L18 20V6H8V19.997ZM19 22L7 21.997C6.448 21.997 6 21.549 6 20.997V5C6 4.448 6.448 4 7 4H19C19.552 4 20 4.448 20 5V21C20 21.266 19.895 21.52 19.707 21.707C19.52 21.895 19.265 22 19 22ZM22 25.0004L10 24.9964C9.447 24.9964 9 24.5484 9 23.9964C9 23.4444 9.448 22.9964 10 22.9964L21 23.0004V8.0004C21 7.4484 21.448 7.0004 22 7.0004C22.552 7.0004 23 7.4484 23 8.0004V24.0004C23 24.2654 22.895 24.5204 22.707 24.7074C22.52 24.8954 22.265 25.0004 22 25.0004ZM12 26.9964C12 27.5484 12.447 27.9964 13 27.9964L25 28.0004C25.265 28.0004 25.52 27.8954 25.707 27.7074C25.895 27.5204 26 27.2654 26 27.0004V11.0004C26 10.4484 25.552 10.0004 25 10.0004C24.448 10.0004 24 10.4484 24 11.0004V26.0004L13 25.9964C12.448 25.9964 12 26.4444 12 26.9964Z" fill="#323232"/>
</svg>
