<svg width="32" height="32" viewBox="0 0 32 32" fill="none" xmlns="http://www.w3.org/2000/svg">
<path fill-rule="evenodd" clip-rule="evenodd" d="M7.19612 6.01939C6.57732 5.89563 6 6.36893 6 6.99997V20.9604C6 21.437 6.33646 21.8475 6.80388 21.9409L16 23.7802H5V13.7802V9.78017V7.78017H4C3.44772 7.78017 3 8.22789 3 8.78017V24.7802C3 25.3325 3.44772 25.7802 4 25.7802H28C28.5523 25.7802 29 25.3325 29 24.7802V8.78017C29 8.22788 28.5523 7.78017 28 7.78017H27V9.78017V13.7802V23.7802H16L25.1961 21.9409C25.6635 21.8475 26 21.437 26 20.9604V6.99997C26 6.36893 25.4227 5.89563 24.8039 6.01939L16 7.78017L7.19612 6.01939ZM15.5 9.99997L8 8.28017V20.2802L15.5 22V9.99997ZM14 11.7802L9 10.7802V11.7802L14 12.7802V11.7802ZM18 11.7802L23 10.7802V11.7802L18 12.7802V11.7802ZM23 12.7802L18 13.7802V14.7802L23 13.7802V12.7802ZM14 13.7802L9 12.7802V13.7802L14 14.7802V13.7802ZM23 14.7802L18 15.7802V16.7802L23 15.7802V14.7802ZM14 15.7802L9 14.7802V15.7802L14 16.7802V15.7802ZM23 16.7802L18 17.7802V18.7802L23 17.7802V16.7802ZM14 17.7802L9 16.7802V17.7802L14 18.7802V17.7802ZM24 8.28017L16.5 9.99997V22L24 20.2802V8.28017Z" fill="#323232"/>
</svg>
