<svg width="24" height="24" viewBox="0 0 24 24" fill="none" xmlns="http://www.w3.org/2000/svg">
<path fill-rule="evenodd" clip-rule="evenodd" d="M6.5 20.1818H18.3182V3.81818H6.5V20.1818ZM19.2271 22H5.59073C5.08891 22 4.68164 21.5927 4.68164 21.0909V2.90909C4.68164 2.40727 5.08891 2 5.59073 2H19.2271C19.7289 2 20.1362 2.40727 20.1362 2.90909V21.0909C20.1362 21.5927 19.7289 22 19.2271 22Z" fill="#323232"/>
<path fill-rule="evenodd" clip-rule="evenodd" d="M12.4094 15.6364C12.9743 15.6364 13.4322 15.2439 13.4322 14.7598V12.5682H15.6236C16.1077 12.5682 16.5002 12.1103 16.5002 11.5455C16.5002 10.9807 16.1077 10.5228 15.6236 10.5228H13.4322V8.33121C13.4322 7.84707 12.9743 7.45459 12.4094 7.45459C11.8446 7.45459 11.3867 7.84707 11.3867 8.33121V10.5228H9.19498C8.71084 10.5228 8.31836 10.9807 8.31836 11.5455C8.31836 12.1103 8.71084 12.5682 9.19498 12.5682H11.3867V14.7598C11.3867 15.2439 11.8446 15.6364 12.4094 15.6364Z" fill="#323232"/>
</svg>
