<svg width="24" height="24" viewBox="0 0 24 24" fill="none" xmlns="http://www.w3.org/2000/svg">
<path fill-rule="evenodd" clip-rule="evenodd" d="M17 20V10.5C17 10.224 17.224 10 17.5 10H20.5C20.776 10 21 10.224 21 10.5V20H23C23.552 20 24 20.448 24 21C24 21.552 23.552 22 23 22H1C0.448 22 0 21.552 0 21C0 20.448 0.448 20 1 20H3V12.5C3 12.224 3.224 12 3.5 12H6.5C6.776 12 7 12.224 7 12.5V20H10V14.5C10 14.224 10.224 14 10.5 14H13.5C13.776 14 14 14.224 14 14.5V20H17Z" fill="#323232"/>
<path fill-rule="evenodd" clip-rule="evenodd" d="M18.5863 4.91019C18.7125 4.96785 18.8526 5 19.0001 5C19.1392 5 19.2718 4.97138 19.3923 4.91972L22.7006 7.4C22.9216 7.565 23.2346 7.522 23.3996 7.3C23.5656 7.079 23.5216 6.766 23.2996 6.6L19.9929 4.11999C19.9976 4.08064 20.0001 4.0406 20.0001 4C20.0001 3.449 19.5511 3 19.0001 3C18.4491 3 18.0001 3.449 18.0001 4C18.0001 4.03256 18.0016 4.06476 18.0047 4.09654L12.4144 8.09007C12.2881 8.03225 12.1477 8 12.0001 8C11.7758 8 11.5684 8.0744 11.4013 8.19978L5.99316 5.88235C5.93467 5.38649 5.51126 5 5.00006 5C4.44906 5 4.00006 5.449 4.00006 6C4.00006 6.0406 4.00249 6.08064 4.00723 6.11999L0.700556 8.6C0.479556 8.766 0.434556 9.079 0.600556 9.3C0.698556 9.431 0.848556 9.5 1.00056 9.5C1.10456 9.5 1.20956 9.467 1.29956 9.4L4.60685 6.91931C4.72763 6.97123 4.86057 7 5.00006 7C5.22434 7 5.43173 6.9256 5.59881 6.80022L11.007 9.11765C11.0654 9.61351 11.4888 10 12.0001 10C12.5511 10 13.0001 9.551 13.0001 9C13.0001 8.96746 12.9985 8.93529 12.9954 8.90353L18.5863 4.91019Z" fill="#323232"/>
</svg>
