<svg width="24" height="24" viewBox="0 0 24 24" fill="none" xmlns="http://www.w3.org/2000/svg">
<path fill-rule="evenodd" clip-rule="evenodd" d="M15 18H11C11 19.103 10.103 20 9 20C7.897 20 7 19.103 7 18H3C2.447 18 2 17.552 2 17V14C2 13.448 2.447 13 3 13C3.553 13 4 13.448 4 14V16H7H9H14V7V6H3C2.447 6 2 5.552 2 5C2 4.448 2.447 4 3 4H15C15.553 4 16 4.448 16 5V6H20C20.459 6 20.858 6.312 20.97 6.757L21.858 10.311L23.447 11.105C23.786 11.275 24 11.621 24 12V17C24 17.552 23.553 18 23 18H22.5C22.5 19.1053 21.604 20 20.5 20C19.396 20 18.5 19.1053 18.5 18H15ZM21 16H22V12.618L20.553 11.895C20.292 11.764 20.101 11.526 20.03 11.243L19.219 8H16V16H20.5H21ZM4 9H3C2.447 9 2 8.552 2 8C2 7.448 2.447 7 3 7H4C4.553 7 5 7.448 5 8C5 8.552 4.553 9 4 9ZM9 11C9 11.552 8.553 12 8 12H4C3.447 12 3 11.552 3 11C3 10.448 3.447 10 4 10H8C8.553 10 9 10.448 9 11ZM7 9H9C9.553 9 10 8.552 10 8C10 7.448 9.553 7 9 7H7C6.447 7 6 7.448 6 8C6 8.552 6.447 9 7 9Z" fill="#323232"/>
</svg>
