<svg width="32" height="32" viewBox="0 0 32 32" fill="none" xmlns="http://www.w3.org/2000/svg">
<path fill-rule="evenodd" clip-rule="evenodd" d="M4 22C4 22.5523 4.44772 23 5 23H27C27.5523 23 28 22.5523 28 22V8C28 7.44772 27.5523 7 27 7H5C4.44772 7 4 7.44772 4 8V22ZM26 21H6V9H26V21ZM13 26C12.4477 26 12 25.5523 12 25C12 24.4477 12.4477 24 13 24H19C19.5523 24 20 24.4477 20 25C20 25.5523 19.5523 26 19 26H13ZM15 15H8V11H15V15ZM8 17H11.001V16H8V17ZM24 13H17V11H24V13ZM17 15H22V14H17V15ZM24 15H23V14H24V15ZM17 17H22V16H17V17ZM20.001 19H17V18H20.001V19ZM23 17H24V16H23V17ZM11.001 19H8V18H11.001V19ZM12 17H15V16H12V17ZM15 19H12V18H15V19Z" fill="#323232"/>
</svg>
