<svg width="24" height="24" viewBox="0 0 24 24" fill="none" xmlns="http://www.w3.org/2000/svg">
<path fill-rule="evenodd" clip-rule="evenodd" d="M18.9999 14.0002V6.02021C19.0015 5.93801 18.993 5.85612 18.9746 5.77642C18.933 5.59476 18.8411 5.42666 18.7069 5.29319L15.7069 2.29319C15.5732 2.15875 15.4047 2.06675 15.2226 2.02525C15.1433 2.00707 15.0617 1.9986 14.9799 2.00019H5.99993C5.44793 2.00019 4.99993 2.44819 4.99993 3.00019V12.0002H1.00013C0.653126 12.0002 0.331126 12.1802 0.149126 12.4742C-0.0328738 12.7692 -0.0488738 13.1372 0.105126 13.4472L4.10513 21.4472L4.11441 21.4653C4.12522 21.4859 4.13679 21.5062 4.14913 21.5262C4.17659 21.5706 4.20724 21.6123 4.24069 21.6513C4.4001 21.8372 4.62156 21.9571 4.86167 21.9906C4.90725 21.9969 4.9535 22.0002 5.00013 22.0002H19.0001C19.3341 22.0002 19.6461 21.8332 19.8321 21.5552L23.8321 15.5552C24.0361 15.2482 24.0551 14.8542 23.8821 14.5282C23.7071 14.2032 23.3681 14.0002 23.0001 14.0002H18.9999ZM17.9971 16.0002C17.9981 16.0002 17.999 16.0002 17.9999 16.0002C18.0009 16.0002 18.0018 16.0002 18.0027 16.0002H21.1311L18.4651 20.0002H6.61813L9.61813 14.0002H13.3821L13.1051 14.5532C12.9511 14.8632 12.9671 15.2312 13.1491 15.5262C13.3311 15.8202 13.6531 16.0002 14.0001 16.0002H17.9971ZM16.9999 14.0002V7.00019H14.9999C14.4479 7.00019 13.9999 6.55219 13.9999 6.00019V4.00019H6.99993V14.7636L8.10513 12.5532C8.27513 12.2142 8.62113 12.0002 9.00013 12.0002H15.0001C15.3471 12.0002 15.6681 12.1802 15.8501 12.4742C16.0331 12.7692 16.0491 13.1372 15.8941 13.4472L15.6181 14.0002H16.9999ZM9.49993 7.00019H12.4999C12.7759 7.00019 12.9999 6.77619 12.9999 6.50019C12.9999 6.22419 12.7759 6.00019 12.4999 6.00019H9.49993C9.22393 6.00019 8.99993 6.22419 8.99993 6.50019C8.99993 6.77619 9.22393 7.00019 9.49993 7.00019ZM14.4999 10.0002H9.49993C9.22393 10.0002 8.99993 9.77619 8.99993 9.50019C8.99993 9.22419 9.22393 9.00019 9.49993 9.00019H14.4999C14.7759 9.00019 14.9999 9.22419 14.9999 9.50019C14.9999 9.77619 14.7759 10.0002 14.4999 10.0002Z" fill="#323232"/>
</svg>
