<svg width="24" height="24" viewBox="0 0 24 24" fill="none" xmlns="http://www.w3.org/2000/svg">
<path fill-rule="evenodd" clip-rule="evenodd" d="M0 6C0 4.89543 0.895431 4 2 4H22C23.1046 4 24 4.89543 24 6V18C24 19.1046 23.1046 20 22 20H2C0.89543 20 0 19.1046 0 18V6ZM13 6H22V18H13C13 17.448 12.552 17 12 17C11.448 17 11 17.448 11 18H2V6H11C11 6.552 11.448 7 12 7C12.552 7 13 6.552 13 6ZM11 15C11 14.448 11.448 14 12 14C12.552 14 13 14.448 13 15C13 15.552 12.552 16 12 16C11.448 16 11 15.552 11 15ZM12 11C11.448 11 11 11.448 11 12C11 12.552 11.448 13 12 13C12.552 13 13 12.552 13 12C13 11.448 12.552 11 12 11ZM11 9C11 8.448 11.448 8 12 8C12.552 8 13 8.448 13 9C13 9.552 12.552 10 12 10C11.448 10 11 9.552 11 9ZM16 13C15.448 13 15 12.552 15 12C15 11.448 15.448 11 16 11H19C19.552 11 20 11.448 20 12C20 12.552 19.552 13 19 13H16ZM5 16C4.448 16 4 15.552 4 15C4 14.448 4.448 14 5 14H8C8.552 14 9 14.448 9 15C9 15.552 8.552 16 8 16H5ZM16 10C15.448 10 15 9.552 15 9C15 8.448 15.448 8 16 8H19C19.552 8 20 8.448 20 9C20 9.552 19.552 10 19 10H16ZM16 16C15.448 16 15 15.552 15 15C15 14.448 15.448 14 16 14H17C17.552 14 18 14.448 18 15C18 15.552 17.552 16 17 16H16ZM4 9C4 8.44772 4.44772 8 5 8H8C8.55229 8 9 8.44772 9 9V12C9 12.5523 8.55229 13 8 13H5C4.44772 13 4 12.5523 4 12V9ZM7 10H6V11H7V10Z" fill="#323232"/>
</svg>
