<svg width="24" height="24" viewBox="0 0 24 24" fill="none" xmlns="http://www.w3.org/2000/svg">
<path fill-rule="evenodd" clip-rule="evenodd" d="M1.95424 17.9986H22.0458V6.00138H1.95424V17.9986ZM0.977119 4C0.436772 4 0 4.44731 0 5.00069V18.9993C0 19.5527 0.436772 20 0.977119 20H23.0229C23.5632 20 24 19.5527 24 18.9993V5.00069C24 4.44731 23.5632 4 23.0229 4H0.977119ZM12.1939 14.3857C12.4636 14.3857 12.6825 14.1616 12.6825 13.8854V12.8847C12.6825 12.6085 12.4636 12.3844 12.1939 12.3844C11.9242 12.3844 11.7054 12.6085 11.7054 12.8847V13.8854C11.7054 14.1616 11.9242 14.3857 12.1939 14.3857ZM12.6825 7.88127C12.6825 8.15746 12.4636 8.38161 12.1939 8.38161C11.9242 8.38161 11.7054 8.15746 11.7054 7.88127V6.88058C11.7054 6.60439 11.9242 6.38024 12.1939 6.38024C12.4636 6.38024 12.6825 6.60439 12.6825 6.88058V7.88127ZM12.1939 17.3878C12.4636 17.3878 12.6825 17.1637 12.6825 16.8875V15.8868C12.6825 15.6106 12.4636 15.3864 12.1939 15.3864C11.9242 15.3864 11.7054 15.6106 11.7054 15.8868V16.8875C11.7054 17.1637 11.9242 17.3878 12.1939 17.3878ZM12.6825 10.8833C12.6825 11.1595 12.4636 11.3837 12.1939 11.3837C11.9242 11.3837 11.7054 11.1595 11.7054 10.8833V9.88265C11.7054 9.60646 11.9242 9.3823 12.1939 9.3823C12.4636 9.3823 12.6825 9.60646 12.6825 9.88265V10.8833ZM14.7178 8.66991H20.0226C20.2923 8.66991 20.5112 8.44576 20.5112 8.16957C20.5112 7.89338 20.2923 7.66922 20.0226 7.66922H14.7178C14.4481 7.66922 14.2293 7.89338 14.2293 8.16957C14.2293 8.44576 14.4481 8.66991 14.7178 8.66991ZM20.0226 10.6713H14.7178C14.4481 10.6713 14.2293 10.4471 14.2293 10.1709C14.2293 9.89475 14.4481 9.6706 14.7178 9.6706H20.0226C20.2923 9.6706 20.5112 9.89475 20.5112 10.1709C20.5112 10.4471 20.2923 10.6713 20.0226 10.6713ZM14.7178 12.6727H20.0226C20.2923 12.6727 20.5112 12.4485 20.5112 12.1723C20.5112 11.8961 20.2923 11.672 20.0226 11.672H14.7178C14.4481 11.672 14.2293 11.8961 14.2293 12.1723C14.2293 12.4485 14.4481 12.6727 14.7178 12.6727ZM18.1377 14.674H14.7178C14.4481 14.674 14.2293 14.4499 14.2293 14.1737C14.2293 13.8975 14.4481 13.6734 14.7178 13.6734H18.1377C18.4074 13.6734 18.6263 13.8975 18.6263 14.1737C18.6263 14.4499 18.4074 14.674 18.1377 14.674ZM4.52677 8.66991H9.83252C10.1022 8.66991 10.3211 8.44576 10.3211 8.16957C10.3211 7.89338 10.1022 7.66922 9.83252 7.66922H4.52677C4.25708 7.66922 4.03821 7.89338 4.03821 8.16957C4.03821 8.44576 4.25708 8.66991 4.52677 8.66991ZM9.83252 10.6713H4.52677C4.25708 10.6713 4.03821 10.4471 4.03821 10.1709C4.03821 9.89475 4.25708 9.6706 4.52677 9.6706H9.83252C10.1022 9.6706 10.3211 9.89475 10.3211 10.1709C10.3211 10.4471 10.1022 10.6713 9.83252 10.6713ZM4.52677 12.6727H9.83252C10.1022 12.6727 10.3211 12.4485 10.3211 12.1723C10.3211 11.8961 10.1022 11.672 9.83252 11.672H4.52677C4.25708 11.672 4.03821 11.8961 4.03821 12.1723C4.03821 12.4485 4.25708 12.6727 4.52677 12.6727ZM7.94668 14.674H4.52677C4.25708 14.674 4.03821 14.4499 4.03821 14.1737C4.03821 13.8975 4.25708 13.6734 4.52677 13.6734H7.94668C8.21637 13.6734 8.43524 13.8975 8.43524 14.1737C8.43524 14.4499 8.21637 14.674 7.94668 14.674Z" fill="#323232"/>
</svg>
