<svg width="24" height="24" viewBox="0 0 24 24" fill="none" xmlns="http://www.w3.org/2000/svg">
<path fill-rule="evenodd" clip-rule="evenodd" d="M12 11C12.276 11 12.5 11.224 12.5 11.5V18H16L12 22L8.00001 18H11.5V11.5C11.5 11.224 11.724 11 12 11ZM12.0003 3.0002C14.4053 3.0002 16.6653 3.9362 18.3643 5.6362C21.7293 9.0012 21.8863 14.5292 18.7073 17.7072C18.5123 17.9022 18.2563 18.0002 18.0003 18.0002C17.7443 18.0002 17.4893 17.9022 17.2933 17.7072C16.9033 17.3162 16.9033 16.6832 17.2933 16.2932C19.4423 14.1442 19.8173 9.9172 16.9503 7.0502C15.6283 5.7282 13.8703 5.0002 12.0003 5.0002C10.1303 5.0002 8.37231 5.7282 7.05031 7.0502C5.75531 8.3452 5.02731 10.0532 5.00031 11.8582C4.97531 13.5672 5.59731 15.1832 6.70731 16.2932C7.09731 16.6832 7.09731 17.3162 6.70731 17.7072C6.31631 18.0972 5.68331 18.0972 5.29331 17.7072C3.80331 16.2182 2.96831 14.0752 3.00131 11.8292C3.03431 9.5012 3.97031 7.3012 5.63631 5.6362C7.33531 3.9362 9.59531 3.0002 12.0003 3.0002Z" fill="#323232"/>
</svg>
