<svg width="24" height="24" viewBox="0 0 24 24" fill="none" xmlns="http://www.w3.org/2000/svg">
<path fill-rule="evenodd" clip-rule="evenodd" d="M16.2929 9.29289L13 12.5858V3C13 2.44772 12.5523 2 12 2C11.4477 2 11 2.44772 11 3V12.5858L7.70711 9.29289C7.31658 8.90237 6.68342 8.90237 6.29289 9.29289C5.90237 9.68342 5.90237 10.3166 6.29289 10.7071L11.2922 15.7064L11.2995 15.7136C11.3938 15.8063 11.502 15.8764 11.6172 15.9241C11.7343 15.9727 11.8625 15.9996 11.997 16L12 16L12.003 16C12.2769 15.9992 12.5248 15.8883 12.705 15.7092L11.2922 15.7064L11 12.5858H13L12.7076 15.7066L17.7071 10.7071C18.0976 10.3166 18.0976 9.68342 17.7071 9.29289C17.3166 8.90237 16.6834 8.90237 16.2929 9.29289ZM21 15C20.4477 15 20 15.4477 20 16V19.5C20 19.7761 19.7761 20 19.5 20H4.5C4.22386 20 4 19.7761 4 19.5V16C4 15.4477 3.55228 15 3 15C2.44772 15 2 15.4477 2 16V19.5C2 20.8807 3.11929 22 4.5 22H19.5C20.8807 22 22 20.8807 22 19.5V16C22 15.4477 21.5523 15 21 15Z" fill="#323232"/>
</svg>
