<svg width="24" height="24" viewBox="0 0 24 24" fill="none" xmlns="http://www.w3.org/2000/svg">
<path fill-rule="evenodd" clip-rule="evenodd" d="M10.1466 18.4392L5.56059 13.8533L11.3536 8.06025L15.9396 12.6462L10.1466 18.4392ZM4.00059 20.0002L4.86359 14.5702L9.42959 19.1362L4.00059 20.0002ZM21.7076 8.29325L15.7076 2.29325C15.3166 1.90225 14.6836 1.90225 14.2926 2.29325L3.29259 13.2933C3.18359 13.4023 3.10059 13.5363 3.05159 13.6833L2.05159 20.6833C1.93159 21.0433 2.02459 21.4393 2.29259 21.7073C2.48359 21.8973 2.73959 22.0002 3.00059 22.0002C3.10559 22.0002 3.21259 21.9832 3.31659 21.9482L10.3166 20.9482C10.4636 20.8992 10.5976 20.8163 10.7076 20.7073L21.7076 9.70725C22.0976 9.31625 22.0976 8.68325 21.7076 8.29325V8.29325Z" fill="#323232"/>
</svg>
