<svg width="24" height="24" viewBox="0 0 24 24" fill="none" xmlns="http://www.w3.org/2000/svg">
<path fill-rule="evenodd" clip-rule="evenodd" d="M6.43356 22.6993L23.6993 5.43356C24.1002 5.03266 24.1002 4.38266 23.6993 3.98176L20.0182 0.300677C19.6173 -0.100226 18.9673 -0.100226 18.5664 0.300677L12.1407 6.72645L5.70711 0.292893C5.31658 -0.0976309 4.68342 -0.0976309 4.29289 0.292893L0.292893 4.29289C-0.0976311 4.68342 -0.0976311 5.31658 0.292893 5.70711L6.72645 12.1407L1.30068 17.5664C1.10816 17.759 1 18.0201 1 18.2923V21.9734C1 22.5404 1.45961 23 2.02658 23H5.70766C5.97993 23 6.24104 22.8918 6.43356 22.6993ZM8.14026 10.7269L10.7261 8.14097L9.4997 6.91452L8.70711 7.70711C8.31658 8.09763 7.68342 8.09763 7.29289 7.70711C6.93241 7.34662 6.90468 6.77939 7.2097 6.3871L7.29289 6.29289L8.08548 5.5003L7.4997 4.91452L6.70711 5.70711C6.31658 6.09763 5.68342 6.09763 5.29289 5.70711C4.93241 5.34662 4.90468 4.77939 5.2097 4.3871L5.29289 4.29289L6.08548 3.5003L4.99934 2.41416L2.41345 5.00005L8.14026 10.7269ZM3.05315 18.7176L16.1782 5.59246L18.4075 7.82175L5.28244 20.9468H3.05315V18.7176ZM19.8218 6.40754L17.5925 4.17825L19.2923 2.47837L21.5216 4.70766L19.8218 6.40754ZM17.0788 14.4936L18.4933 13.0791L23.7071 18.2929C24.0976 18.6834 24.0976 19.3166 23.7071 19.7071L19.7071 23.7071C19.3166 24.0976 18.6834 24.0976 18.2929 23.7071L13.0791 18.4933L14.4929 17.0795L18.9992 21.5858L21.5851 19L20.4997 17.9145L19.7071 18.7071C19.3166 19.0976 18.6834 19.0976 18.2929 18.7071C17.9324 18.3466 17.9047 17.7794 18.2097 17.3871L18.2929 17.2929L19.0855 16.5003L18.4997 15.9145L17.7071 16.7071C17.3166 17.0976 16.6834 17.0976 16.2929 16.7071C15.9324 16.3466 15.9047 15.7794 16.2097 15.3871L16.2929 15.2929L17.0855 14.5003L17.0788 14.4936Z" fill="#323232"/>
</svg>
