<svg width="32" height="32" viewBox="0 0 32 32" fill="none" xmlns="http://www.w3.org/2000/svg">
<path d="M20.0834 18.5834H11.75C11.1747 18.5834 10.7084 19.0497 10.7084 19.625V27.9584L10.715 28.0783C10.7938 28.7834 11.5597 29.2182 12.2159 28.8901L15.9167 27.0396L19.6175 28.8901C20.3101 29.2364 21.125 28.7327 21.125 27.9584V19.625C21.125 19.0497 20.6587 18.5834 20.0834 18.5834Z" fill="#CFCFCF"/>
<path d="M20.0834 18.5834H11.75C11.1747 18.5834 10.7084 19.0497 10.7084 19.625V27.9584L10.715 28.0783C10.7938 28.7834 11.5597 29.2182 12.2159 28.8901L15.9167 27.0396L19.6175 28.8901C20.3101 29.2364 21.125 28.7327 21.125 27.9584V19.625C21.125 19.0497 20.6587 18.5834 20.0834 18.5834ZM19.0417 20.6667V26.273L16.3826 24.9433L16.254 24.8895C15.9917 24.7997 15.7022 24.8177 15.4509 24.9433L12.7917 26.2719V20.6667H19.0417Z" fill="#B4B4B4"/>
<path d="M15.9167 4C21.6696 4 26.3333 8.6637 26.3333 14.4167C26.3333 20.1696 21.6696 24.8333 15.9167 24.8333C10.1637 24.8333 5.5 20.1696 5.5 14.4167C5.5 8.6637 10.1637 4 15.9167 4Z" fill="#DEDEDE"/>
<path d="M26.3334 14.4167C26.3334 20.1697 21.6697 24.8334 15.9167 24.8334C13.4397 24.8334 11.1646 23.9688 9.37671 22.5249C10.145 22.6727 10.9385 22.75 11.75 22.75C18.6536 22.75 24.25 17.1536 24.25 10.25C24.25 9.43819 24.1726 8.64444 24.0248 7.87573C25.4686 9.66408 26.3334 11.9394 26.3334 14.4167Z" fill="#CFCFCF"/>
<path d="M15.9167 4C17.1621 4 18.3565 4.21857 19.4636 4.61944C19.8648 5.72685 20.0833 6.92123 20.0833 8.16667C20.0833 13.9196 15.4196 18.5833 9.66667 18.5833C8.42123 18.5833 7.22685 18.3648 6.11978 17.9639C5.71857 16.8565 5.5 15.6621 5.5 14.4167C5.5 8.6637 10.1637 4 15.9167 4Z" fill="#EAEAEA"/>
<path d="M15.9167 4C21.6696 4 26.3333 8.6637 26.3333 14.4167C26.3333 20.1696 21.6696 24.8333 15.9167 24.8333C10.1637 24.8333 5.5 20.1696 5.5 14.4167C5.5 8.6637 10.1637 4 15.9167 4ZM15.9167 6.08333C11.3143 6.08333 7.58333 9.81429 7.58333 14.4167C7.58333 19.019 11.3143 22.75 15.9167 22.75C20.519 22.75 24.25 19.019 24.25 14.4167C24.25 9.81429 20.519 6.08333 15.9167 6.08333Z" fill="#B4B4B4"/>
<path fill-rule="evenodd" clip-rule="evenodd" d="M15.9167 17.0209L12.8553 18.6303L13.44 15.2214L10.9633 12.8072L14.386 12.3099L15.9167 9.20837L17.4474 12.3099L20.8701 12.8072L18.3934 15.2214L18.9781 18.6303L15.9167 17.0209Z" fill="#B4B4B4"/>
<path d="M14.3218 8.16663C16.8929 8.16663 9.66663 15.3928 9.66663 12.8218C9.66663 10.2508 11.7508 8.16663 14.3218 8.16663Z" fill="white"/>
<g style="mix-blend-mode:overlay" opacity="0.35">
<path d="M15.9167 4C21.6696 4 26.3333 8.6637 26.3333 14.4167C26.3333 18.2722 24.2386 21.6385 21.1252 23.4397L21.125 27.9583C21.125 28.7327 20.3101 29.2363 19.6175 28.89L15.9167 27.0396L12.2158 28.89C11.5597 29.2181 10.7938 28.7834 10.715 28.0783L10.7083 27.9583L10.7084 23.4398C7.59482 21.6387 5.5 18.2723 5.5 14.4167C5.5 8.6637 10.1637 4 15.9167 4Z" fill="white"/>
</g>
</svg>
