<svg width="24" height="24" viewBox="0 0 24 24" fill="none" xmlns="http://www.w3.org/2000/svg">
<path fill-rule="evenodd" clip-rule="evenodd" d="M9.7071 6.707L8.9141 7.5L10.7071 9.293C11.0981 9.684 11.0981 10.316 10.7071 10.707C10.5121 10.902 10.2561 11 10.0001 11C9.7441 11 9.4881 10.902 9.2931 10.707L7.5001 8.914L6.7071 9.707C6.5161 9.898 6.2601 10 6.0001 10C5.8711 10 5.7411 9.975 5.6171 9.924C5.2441 9.769 5.0001 9.404 5.0001 9V6C5.0001 5.448 5.4481 5 6.0001 5H9.0001C9.4041 5 9.7691 5.244 9.9241 5.617C10.0791 5.991 9.9931 6.421 9.7071 6.707ZM17.2928 14.2932C17.5788 14.0062 18.0078 13.9202 18.3828 14.0762C18.7568 14.2312 18.9998 14.5962 18.9998 15.0002V18.0002C18.9998 18.5522 18.5518 19.0002 17.9998 19.0002H14.9998C14.5958 19.0002 14.2308 18.7562 14.0758 18.3832C13.9218 18.0092 14.0068 17.5792 14.2928 17.2932L15.0858 16.5002L13.2928 14.7072C12.9028 14.3162 12.9028 13.6832 13.2928 13.2932C13.6838 12.9022 14.3168 12.9022 14.7068 13.2932L16.4998 15.0862L17.2928 14.2932ZM18 5H15C14.596 5 14.231 5.244 14.076 5.617C13.921 5.991 14.007 6.421 14.293 6.707L15.086 7.5L13.293 9.293C12.902 9.684 12.902 10.316 13.293 10.707C13.488 10.902 13.744 11 14 11C14.256 11 14.512 10.902 14.707 10.707L16.5 8.914L17.293 9.707C17.484 9.898 17.74 10 18 10C18.129 10 18.259 9.975 18.383 9.924C18.756 9.769 19 9.404 19 9V6C19 5.448 18.552 5 18 5ZM7.5 15.086L9.293 13.293C9.684 12.902 10.316 12.902 10.707 13.293C11.098 13.684 11.098 14.316 10.707 14.707L8.914 16.5L9.707 17.293C9.993 17.579 10.079 18.009 9.924 18.383C9.769 18.756 9.404 19 9 19H6C5.448 19 5 18.552 5 18V15C5 14.596 5.244 14.231 5.617 14.076C5.992 13.92 6.421 14.006 6.707 14.293L7.5 15.086Z" fill="#323232"/>
</svg>
