<svg width="24" height="24" viewBox="0 0 24 24" fill="none" xmlns="http://www.w3.org/2000/svg">
<path fill-rule="evenodd" clip-rule="evenodd" d="M10.278 10.563L13.724 14.01L10.257 17.478L6.81 14.031L10.278 10.563ZM18.995 10.154L14.134 5.292C13.947 5.105 13.693 5 13.427 5C13.162 5 12.908 5.105 12.72 5.292L4.689 13.324C4.299 13.714 4.299 14.347 4.689 14.738L8.9 18.95H4.5C4.223 18.95 4 19.173 4 19.45C4 19.726 4.223 19.95 4.5 19.95H16.455C16.731 19.95 16.955 19.726 16.955 19.45C16.955 19.173 16.731 18.95 16.455 18.95H11.613L18.995 11.568C19.385 11.177 19.385 10.544 18.995 10.154Z" fill="#323232"/>
</svg>
