<svg width="24" height="24" viewBox="0 0 24 24" fill="none" xmlns="http://www.w3.org/2000/svg">
<path fill-rule="evenodd" clip-rule="evenodd" d="M12 20C16.4183 20 20 16.4183 20 12C20 7.58172 16.4183 4 12 4C7.58172 4 4 7.58172 4 12C4 16.4183 7.58172 20 12 20ZM12 18C15.3137 18 18 15.3137 18 12C18 8.68629 15.3137 6 12 6C8.68629 6 6 8.68629 6 12C6 15.3137 8.68629 18 12 18ZM12 11.0987L9.90133 9L9 9.90133L11.0987 12L9 14.0987L9.90133 15L12 12.9013L14.0987 15L15 14.0987L12.9013 12L15 9.90133L14.0987 9L12 11.0987Z" fill="#323232"/>
</svg>
