<svg width="32" height="32" viewBox="0 0 32 32" fill="none" xmlns="http://www.w3.org/2000/svg">
<path fill-rule="evenodd" clip-rule="evenodd" d="M22.9062 14.5185C22.7462 14.5345 22.6042 14.5885 22.4752 14.6695L16.0002 16.9395L9.52522 14.6695C9.39622 14.5885 9.25422 14.5345 9.09422 14.5185L7.64422 14.0105L16.0002 10.1035L24.3552 14.0105L22.9062 14.5185ZM22.0002 19.9995C22.0002 20.5885 20.2732 21.9995 16.0002 21.9995C11.7262 21.9995 10.0002 20.5885 10.0002 19.9995V16.9565L15.6692 18.9435C15.7762 18.9805 15.8882 18.9995 16.0002 18.9995C16.1122 18.9995 16.2232 18.9805 16.3312 18.9435L22.0002 16.9565V19.9995ZM27.4232 13.2365L16.4232 8.0945C16.1562 7.9685 15.8442 7.9685 15.5762 8.0945L4.57622 13.2365C4.20822 13.4085 3.98122 13.7865 4.00122 14.1925C4.02122 14.5995 4.28522 14.9515 4.66922 15.0865L8.00022 16.2545V19.9995C8.00022 22.3545 11.2892 23.9995 16.0002 23.9995C20.7102 23.9995 24.0002 22.3545 24.0002 19.9995V16.2545L25.5002 15.7285V17.6525C25.2062 17.8275 25.0002 18.1335 25.0002 18.4995C25.0002 19.0525 25.4482 19.4995 26.0002 19.4995C26.5522 19.4995 27.0002 19.0525 27.0002 18.4995C27.0002 18.1335 26.7942 17.8275 26.5002 17.6525V15.3775L27.3312 15.0865C27.7142 14.9515 27.9782 14.5995 27.9982 14.1925C28.0192 13.7865 27.7912 13.4085 27.4232 13.2365V13.2365Z" fill="#323232"/>
</svg>
