<svg width="24" height="24" viewBox="0 0 24 24" fill="none" xmlns="http://www.w3.org/2000/svg">
<path fill-rule="evenodd" clip-rule="evenodd" d="M11 14C10.744 14 10.488 13.902 10.293 13.707C9.902 13.316 9.902 12.684 10.293 12.293L18.586 4.00001H15C14.447 4.00001 14 3.55201 14 3.00001C14 2.44801 14.447 2.00001 15 2.00001H20.9776C21.0983 1.99731 21.2193 2.01639 21.3345 2.05724C21.5766 2.14306 21.7756 2.31942 21.8911 2.54551C21.9673 2.6947 22.0036 2.85891 22 3.0224V9.00001C22 9.55201 21.553 10 21 10C20.447 10 20 9.55201 20 9.00001V5.41401L11.707 13.707C11.512 13.902 11.256 14 11 14ZM19 22H3C2.447 22 2 21.552 2 21V5.00001C2 4.44801 2.447 4.00001 3 4.00001H11C11.553 4.00001 12 4.44801 12 5.00001C12 5.55201 11.553 6.00001 11 6.00001H4V20H18V13C18 12.448 18.447 12 19 12C19.553 12 20 12.448 20 13V21C20 21.552 19.553 22 19 22Z" fill="#323232"/>
</svg>
