<svg width="24" height="24" viewBox="0 0 24 24" fill="none" xmlns="http://www.w3.org/2000/svg">
<path fill-rule="evenodd" clip-rule="evenodd" d="M12 17C7.618 17 4.955 13.303 4.152 12C4.956 10.696 7.619 7 12 7C16.38 7 19.044 10.695 19.848 12C19.044 13.305 16.38 17 12 17ZM21.895 11.553C21.761 11.285 18.543 5 12 5C5.457 5 2.239 11.285 2.105 11.553C1.965 11.834 1.965 12.166 2.105 12.447C2.239 12.715 5.457 19 12 19C18.543 19 21.761 12.715 21.895 12.447C22.035 12.166 22.035 11.834 21.895 11.553ZM11 12C10.448 12 10 11.552 10 11C10 10.448 10.448 10 11 10C11.552 10 12 10.448 12 11C12 11.552 11.552 12 11 12ZM12 8C9.791 8 8 9.791 8 12C8 14.209 9.791 16 12 16C14.209 16 16 14.209 16 12C16 9.791 14.209 8 12 8Z" fill="#323232"/>
</svg>
