<svg width="24" height="24" viewBox="0 0 24 24" fill="none" xmlns="http://www.w3.org/2000/svg">
<path fill-rule="evenodd" clip-rule="evenodd" d="M7 18.301H17.135V5H7V18.301ZM18.135 20.301H6C5.447 20.301 5 19.854 5 19.301V4C5 3.447 5.447 3 6 3H18.135C18.688 3 19.135 3.447 19.135 4V19.301C19.135 19.854 18.688 20.301 18.135 20.301ZM12.6113 10.3694V9.3964C12.6113 9.3544 12.5973 9.3174 12.5883 9.2774L13.0843 9.2784C13.2863 9.2784 13.4683 9.1564 13.5463 8.9694C13.6233 8.7824 13.5803 8.5674 13.4373 8.4254L12.3773 7.3634C12.1813 7.1684 11.8653 7.1684 11.6703 7.3634L10.6083 8.4254C10.4653 8.5674 10.4233 8.7824 10.5003 8.9694C10.5263 9.0314 10.5633 9.0864 10.6083 9.1324C10.7013 9.2234 10.8273 9.2784 10.9633 9.2784H11.6353C11.6263 9.3174 11.6113 9.3544 11.6113 9.3964V10.3694C11.6113 10.5074 11.6673 10.6324 11.7573 10.7234C11.8483 10.8124 11.9733 10.8694 12.1113 10.8694C12.3873 10.8694 12.6113 10.6454 12.6113 10.3694ZM13.3936 11.1506H14.3656C14.4076 11.1506 14.4456 11.1656 14.4846 11.1746V10.6786C14.4846 10.4756 14.6056 10.2946 14.7926 10.2156C14.9796 10.1386 15.1946 10.1816 15.3376 10.3246L16.3986 11.3856C16.5936 11.5816 16.5936 11.8976 16.3986 12.0926L15.3376 13.1536C15.1946 13.2966 14.9796 13.3386 14.7926 13.2616C14.7306 13.2366 14.6756 13.1986 14.6306 13.1536C14.5396 13.0616 14.4846 12.9346 14.4846 12.7996V12.1276C14.4456 12.1366 14.4076 12.1506 14.3656 12.1506H13.3936C13.2546 12.1506 13.1296 12.0946 13.0396 12.0046C12.9496 11.9146 12.8936 11.7896 12.8936 11.6506C12.8936 11.3746 13.1176 11.1506 13.3936 11.1506ZM10.7412 12.1506H9.7692C9.7272 12.1506 9.6892 12.1366 9.6502 12.1276V12.6236C9.6502 12.8256 9.5292 13.0076 9.3422 13.0856C9.1552 13.1626 8.9392 13.1196 8.7972 12.9766L7.7362 11.9166C7.5412 11.7206 7.5412 11.4046 7.7362 11.2096L8.7972 10.1476C8.9392 10.0046 9.1552 9.9626 9.3422 10.0396C9.4042 10.0656 9.4582 10.1026 9.5042 10.1476C9.5952 10.2406 9.6502 10.3666 9.6502 10.5026V11.1746C9.6892 11.1656 9.7272 11.1506 9.7692 11.1506H10.7412C10.8802 11.1506 11.0052 11.2066 11.0952 11.2966C11.1852 11.3876 11.2412 11.5126 11.2412 11.6506C11.2412 11.9266 11.0172 12.1506 10.7412 12.1506ZM11.5234 12.9328V13.9048C11.5234 13.9468 11.5374 13.9848 11.5464 14.0238H11.0504C10.8484 14.0238 10.6664 14.1448 10.5884 14.3318C10.5104 14.5188 10.5544 14.7338 10.6974 14.8768L11.7574 15.9378C11.9534 16.1328 12.2694 16.1328 12.4644 15.9378L13.5254 14.8768C13.6694 14.7338 13.7114 14.5188 13.6334 14.3318C13.6084 14.2698 13.5714 14.2148 13.5254 14.1698C13.4334 14.0788 13.3074 14.0238 13.1714 14.0238H12.4994C12.5084 13.9848 12.5234 13.9468 12.5234 13.9048V12.9328C12.5234 12.7938 12.4664 12.6688 12.3774 12.5788C12.2864 12.4888 12.1614 12.4328 12.0234 12.4328C11.7474 12.4328 11.5234 12.6568 11.5234 12.9328Z" fill="#323232"/>
</svg>
