<svg width="24" height="24" viewBox="0 0 24 24" fill="none" xmlns="http://www.w3.org/2000/svg">
<path fill-rule="evenodd" clip-rule="evenodd" d="M7 18.301H17.135V5H7V18.301ZM18.135 20.301H6C5.447 20.301 5 19.854 5 19.301V4C5 3.447 5.447 3 6 3H18.135C18.688 3 19.135 3.447 19.135 4V19.301C19.135 19.854 18.688 20.301 18.135 20.301ZM13.3936 11.1506H14.3656C14.4076 11.1506 14.4456 11.1656 14.4846 11.1746V10.6776C14.4846 10.4756 14.6056 10.2936 14.7926 10.2156C14.9796 10.1386 15.1946 10.1816 15.3376 10.3246L16.3986 11.3846C16.5936 11.5816 16.5936 11.8966 16.3986 12.0926L15.3376 13.1536C15.1946 13.2966 14.9796 13.3386 14.7926 13.2616C14.7306 13.2356 14.6756 13.1986 14.6306 13.1536C14.5396 13.0616 14.4846 12.9346 14.4846 12.7996V12.1266C14.4456 12.1356 14.4076 12.1506 14.3656 12.1506H13.3936C13.2546 12.1506 13.1296 12.0946 13.0396 12.0046C12.9496 11.9136 12.8936 11.7886 12.8936 11.6506C12.8936 11.3746 13.1176 11.1506 13.3936 11.1506ZM10.7412 12.1506H9.7692C9.7262 12.1506 9.6892 12.1356 9.6502 12.1266V12.6236C9.6502 12.8256 9.5292 13.0066 9.3422 13.0856C9.1552 13.1626 8.9392 13.1196 8.7972 12.9766L7.7362 11.9156C7.5412 11.7196 7.5412 11.4046 7.7362 11.2086L8.7972 10.1476C8.9392 10.0046 9.1552 9.9626 9.3422 10.0396C9.4042 10.0646 9.4582 10.1026 9.5042 10.1476C9.5952 10.2396 9.6502 10.3666 9.6502 10.5016V11.1746C9.6892 11.1656 9.7262 11.1506 9.7692 11.1506H10.7412C10.8802 11.1506 11.0052 11.2066 11.0952 11.2966C11.1852 11.3876 11.2412 11.5126 11.2412 11.6506C11.2412 11.9266 11.0172 12.1506 10.7412 12.1506Z" fill="#323232"/>
</svg>
