<svg width="32" height="32" viewBox="0 0 32 32" fill="none" xmlns="http://www.w3.org/2000/svg">
<path fill-rule="evenodd" clip-rule="evenodd" d="M22.9997 25.9997C23.5521 25.9999 24 25.5521 24 24.9997V7C24 6.44772 23.5523 6 23 6H9C8.44772 6 8 6.44772 8 7V24.9953C8 25.5475 8.44752 25.9951 8.99969 25.9953L22.9997 25.9997ZM10 23.996L22 24V8H10V23.996ZM20 13.9998C20 14.5522 19.5522 14.9999 18.9998 14.9998L12.9998 14.9989C12.4476 14.9988 12 14.5511 12 13.9989V11C12 10.4477 12.4477 10 13 10H19C19.5523 10 20 10.4477 20 11V13.9998ZM20 17.5C20 17.7761 19.7761 18 19.5 18L12.4999 17.9998C12.2238 17.9998 12 17.776 12 17.4999C12 17.2238 12.2238 17 12.4999 17H19.5C19.7761 17 20 17.2239 20 17.5ZM20 19.5C20 19.7761 19.7761 20 19.5 20L12.4999 19.9998C12.2238 19.9998 12 19.776 12 19.4999C12 19.2238 12.2238 19 12.4999 19H19.5C19.7761 19 20 19.2239 20 19.5ZM17 21.5C17 21.7761 16.7761 22 16.5 22L12.4999 21.9998C12.2238 21.9998 12 21.776 12 21.4999C12 21.2238 12.2238 21 12.4999 21H16.5C16.7761 21 17 21.2239 17 21.5ZM3.999 23.997L7 24V22L5 21.997V10H7V8H4C3.44772 8 3 8.44772 3 9V22.997C3 23.5489 3.44711 23.9964 3.999 23.997ZM29 22.999C29 23.5517 28.5517 23.9996 27.999 23.999L25 23.996V21.997L27 22V10H25V8H28C28.5523 8 29 8.44772 29 9V22.999Z" fill="#323232"/>
</svg>
