<svg width="32" height="32" viewBox="0 0 32 32" fill="none" xmlns="http://www.w3.org/2000/svg">
<path d="M16 0C12.8355 0 9.74207 0.938384 7.11088 2.69649C4.4797 4.45459 2.42894 6.95345 1.21793 9.87706C0.0069325 12.8007 -0.309921 16.0177 0.307443 19.1214C0.924806 22.2251 2.44866 25.0761 4.6863 27.3137C6.92394 29.5513 9.77487 31.0752 12.8786 31.6926C15.9823 32.3099 19.1993 31.9931 22.1229 30.7821C25.0466 29.5711 27.5454 27.5203 29.3035 24.8891C31.0616 22.2579 32 19.1645 32 16C32 11.7565 30.3143 7.68687 27.3137 4.68629C24.3131 1.68571 20.2435 0 16 0Z" fill="#8723FF"/>
<path d="M16 1.68C18.8327 1.67802 21.6023 2.51619 23.9585 4.08849C26.3147 5.66079 28.1517 7.89657 29.2371 10.513C30.3225 13.1295 30.6075 16.0091 30.0561 18.7876C29.5047 21.566 28.1416 24.1185 26.1393 26.1222C24.137 28.1259 21.5855 29.4908 18.8074 30.0441C16.0293 30.5975 13.1495 30.3145 10.5323 29.2309C7.91507 28.1474 5.678 26.3119 4.10405 23.9568C2.53011 21.6017 1.69 18.8327 1.69 16C1.69 12.2038 3.19734 8.56299 5.8807 5.87776C8.56406 3.19253 12.2038 1.68265 16 1.68Z" fill="white"/>
<path fill-rule="evenodd" clip-rule="evenodd" d="M17.01 7.53V9.28H19.63C19.7227 9.2647 19.8173 9.2647 19.91 9.28L22.53 10.15C22.6452 10.1897 22.7509 10.2528 22.8404 10.3354C22.9299 10.418 23.0013 10.5184 23.05 10.63L26.55 18.49C26.6256 18.6551 26.6489 18.8395 26.6167 19.0182C26.5846 19.197 26.4985 19.3616 26.37 19.49L23.8 22.13C23.6709 22.2577 23.505 22.3418 23.3257 22.3705C23.1464 22.3992 22.9625 22.371 22.8 22.29L19.49 20.64H12.85L9.54001 22.29C9.37783 22.3726 9.19365 22.4016 9.01396 22.3728C8.83426 22.3441 8.66832 22.259 8.54001 22.13L5.92 19.51C5.789 19.3832 5.70115 19.2184 5.66885 19.039C5.63655 18.8596 5.66144 18.6745 5.74 18.51L9.23001 10.65C9.27874 10.5384 9.35012 10.438 9.43963 10.3554C9.52914 10.2728 9.63483 10.2097 9.75001 10.17L12.38 9.3C12.4694 9.2847 12.5607 9.2847 12.65 9.3H15.27V7.53H17.01ZM19.49 11.02H12.8L10.68 11.73L7.59001 18.73L9.34001 20.48L12.27 19.01C12.3915 18.9508 12.5249 18.92 12.66 18.92H19.66C19.7953 18.9189 19.9289 18.9497 20.05 19.01L22.99 20.48L24.74 18.73L21.64 11.73L19.49 11.02ZM19.63 16.27C19.8049 16.268 19.9764 16.3182 20.1226 16.4141C20.2689 16.5101 20.3832 16.6474 20.451 16.8086C20.5189 16.9698 20.5372 17.1476 20.5035 17.3192C20.4699 17.4908 20.3859 17.6485 20.2622 17.7722C20.1385 17.8959 19.9808 17.9799 19.8092 18.0135C19.6376 18.0472 19.4598 18.0289 19.2986 17.961C19.1374 17.8932 19.0001 17.7789 18.9041 17.6326C18.8082 17.4864 18.758 17.3149 18.76 17.14C18.76 16.9093 18.8517 16.688 19.0148 16.5248C19.178 16.3617 19.3993 16.27 19.63 16.27ZM13.52 12.77V14.52H15.26V16.27H13.52V18.02H11.8V16.27H10.02V14.52H11.8V12.77H13.52ZM21.38 14.52C21.5549 14.518 21.7264 14.5682 21.8726 14.6641C22.0189 14.7601 22.1332 14.8974 22.201 15.0586C22.2689 15.2198 22.2872 15.3976 22.2535 15.5692C22.2199 15.7408 22.1359 15.8985 22.0122 16.0222C21.8885 16.1459 21.7308 16.2299 21.5592 16.2635C21.3876 16.2972 21.2098 16.2789 21.0486 16.211C20.8874 16.1432 20.7501 16.0289 20.6541 15.8826C20.5582 15.7364 20.508 15.5649 20.51 15.39C20.5126 15.1601 20.6051 14.9403 20.7677 14.7777C20.9303 14.6151 21.1501 14.5226 21.38 14.52ZM17.89 14.52C18.0645 14.52 18.235 14.5719 18.3799 14.669C18.5249 14.7662 18.6376 14.9042 18.7039 15.0656C18.7702 15.227 18.7871 15.4044 18.7523 15.5754C18.7175 15.7464 18.6327 15.9031 18.5086 16.0258C18.3846 16.1485 18.2268 16.2315 18.0555 16.2643C17.8841 16.2971 17.7069 16.2782 17.5463 16.2101C17.3856 16.142 17.2489 16.0276 17.1534 15.8816C17.0579 15.7356 17.008 15.5645 17.01 15.39C17.01 15.2749 17.0328 15.1609 17.0772 15.0547C17.1215 14.9485 17.1865 14.8522 17.2683 14.7713C17.3502 14.6903 17.4473 14.6265 17.554 14.5833C17.6607 14.5402 17.7749 14.5187 17.89 14.52ZM19.63 12.77C19.8045 12.768 19.9756 12.8179 20.1216 12.9134C20.2676 13.0089 20.382 13.1456 20.4501 13.3063C20.5183 13.4669 20.5371 13.6441 20.5043 13.8155C20.4715 13.9868 20.3885 14.1446 20.2658 14.2686C20.1431 14.3927 19.9864 14.4775 19.8154 14.5123C19.6444 14.5471 19.467 14.5302 19.3056 14.4639C19.1442 14.3976 19.0062 14.2848 18.909 14.1399C18.8119 13.995 18.76 13.8245 18.76 13.65C18.7587 13.5349 18.7802 13.4207 18.8233 13.314C18.8665 13.2073 18.9303 13.1102 19.0113 13.0283C19.0922 12.9465 19.1885 12.8815 19.2947 12.8372C19.401 12.7928 19.5149 12.77 19.63 12.77Z" fill="#8723FF"/>
</svg>
