<svg width="32" height="32" viewBox="0 0 32 32" fill="none" xmlns="http://www.w3.org/2000/svg">
<path fill-rule="evenodd" clip-rule="evenodd" d="M15 8H17V10H20C20.1075 10 20.2143 10.0173 20.3162 10.0513L23.3162 11.0513C23.5828 11.1402 23.7997 11.3371 23.9138 11.5939L27.9138 20.5938C28.0818 20.972 27.9997 21.4145 27.7071 21.7071L24.7071 24.7071C24.4027 25.0114 23.9378 25.0869 23.5528 24.8944L19.7639 23H12.2361L8.44723 24.8944C8.06224 25.0869 7.59727 25.0114 7.29291 24.7071L4.29292 21.7071C4.00034 21.4145 3.91817 20.972 4.08622 20.5938L8.08621 11.5939C8.20033 11.3371 8.41722 11.1402 8.68379 11.0513L11.6838 10.0513C11.7857 10.0173 11.8925 10 12 10H15V8ZM6.19277 20.7785L8.19747 22.7832L11.5528 21.1056C11.6917 21.0361 11.8448 21 12 21H20C20.1552 21 20.3083 21.0361 20.4472 21.1056L23.8025 22.7832L25.8072 20.7785L22.2653 12.8092L19.8377 12H12.1623L9.73469 12.8092L6.19277 20.7785ZM20 14C20.552 14 21 14.448 21 15C21 15.552 20.552 16 20 16C19.448 16 19 15.552 19 15C19 14.448 19.448 14 20 14ZM21 19C21 18.448 20.552 18 20 18C19.448 18 19 18.448 19 19C19 19.552 19.448 20 20 20C20.552 20 21 19.552 21 19ZM22 16C22.552 16 23 16.448 23 17C23 17.552 22.552 18 22 18C21.448 18 21 17.552 21 17C21 16.448 21.448 16 22 16ZM19 17C19 16.448 18.552 16 18 16C17.448 16 17 16.448 17 17C17 17.552 17.448 18 18 18C18.552 18 19 17.552 19 17ZM13 14H11V16H9.00002V18H11V20H13V18H15V16H13V14Z" fill="#323232"/>
</svg>
