<svg width="32" height="32" viewBox="0 0 32 32" fill="none" xmlns="http://www.w3.org/2000/svg">
<path fill-rule="evenodd" clip-rule="evenodd" d="M16.3334 12.8889V4.55554C16.3334 4.55554 17.2064 7.05554 19.8254 7.05554C21.5715 7.05554 22.4445 6.22221 22.4445 6.22221L19.8254 12.8889H16.3334Z" fill="#F5B200"/>
<path fill-rule="evenodd" clip-rule="evenodd" d="M16.3334 12.8889V4.55554C16.3334 4.55554 15.4604 7.05554 12.8413 7.05554C11.0953 7.05554 10.2223 6.22221 10.2223 6.22221L12.8413 12.8889H16.3334Z" fill="#FFCB43"/>
<path fill-rule="evenodd" clip-rule="evenodd" d="M19.9445 7.05554C18.2778 7.05554 17.1667 6.22221 16.6112 4.55554C16.0556 6.22221 14.9445 7.05554 13.2778 7.05554C12.1667 7.05554 11.3334 6.77776 10.7778 6.22221L13.2778 12.8889H19.9445L22.4445 6.22221C21.8889 6.77776 21.0556 7.05554 19.9445 7.05554ZM16.4956 7.65893L16.6103 7.56054L16.7267 7.65893C17.5329 8.31325 18.5439 8.67778 19.7278 8.71804L18.7887 11.2222H14.4328L13.4937 8.71804L13.7772 8.70268C14.8373 8.61824 15.7532 8.26145 16.4956 7.65893Z" fill="#D29800"/>
<ellipse cx="10.5" cy="6.49996" rx="0.833333" ry="0.833333" fill="#C08B00"/>
<ellipse cx="16.6112" cy="4.83333" rx="0.833333" ry="0.833333" fill="#C08B00"/>
<ellipse cx="22.1667" cy="6.49996" rx="0.833334" ry="0.833333" fill="#C08B00"/>
<path d="M27.1667 11.2222C28.5474 11.2222 29.6667 12.3415 29.6667 13.7222C29.6667 15.1029 28.5474 16.2222 27.1667 16.2222H5.5C4.11929 16.2222 3 15.1029 3 13.7222C3 12.3415 4.11929 11.2222 5.5 11.2222H27.1667Z" fill="#D29800"/>
<path d="M26.6111 14.5555C27.9918 14.5555 29.1111 15.6748 29.1111 17.0555C29.1111 18.4363 27.9918 19.5555 26.6111 19.5555H6.61108C5.23037 19.5555 4.11108 18.4363 4.11108 17.0555C4.11108 15.6748 5.23037 14.5555 6.61108 14.5555H26.6111Z" fill="#D29800"/>
<path d="M24.9445 17.8889C26.3252 17.8889 27.4445 19.0082 27.4445 20.3889C27.4445 21.7696 26.3252 22.8889 24.9445 22.8889H8.27783C6.89712 22.8889 5.77783 21.7696 5.77783 20.3889C5.77783 19.0082 6.89712 17.8889 8.27783 17.8889H24.9445Z" fill="#D29800"/>
<path d="M27.1666 12.8889H5.49996C5.03972 12.8889 4.66663 13.262 4.66663 13.7222C4.66663 14.1496 4.98833 14.5018 5.40278 14.55L5.49996 14.5556H27.1666C27.6269 14.5556 28 14.1825 28 13.7222C28 13.2949 27.6783 12.9427 27.2638 12.8945L27.1666 12.8889Z" fill="#F5B200"/>
<path d="M26.6112 16.2222H6.61117C6.15093 16.2222 5.77783 16.5953 5.77783 17.0555C5.77783 17.4829 6.09953 17.8351 6.51398 17.8832L6.61117 17.8888H26.6112C27.0714 17.8888 27.4445 17.5157 27.4445 17.0555C27.4445 16.6281 27.1228 16.2759 26.7083 16.2278L26.6112 16.2222Z" fill="#F5B200"/>
<path d="M24.9445 19.5555H8.27779C7.81755 19.5555 7.44446 19.9286 7.44446 20.3889C7.44446 20.8162 7.76616 21.1685 8.18061 21.2166L8.27779 21.2222H24.9445C25.4047 21.2222 25.7778 20.8491 25.7778 20.3889C25.7778 19.9615 25.4561 19.6093 25.0416 19.5611L24.9445 19.5555Z" fill="#F5B200"/>
<path d="M19.9445 20.6666H13.2778C12.8176 20.6666 12.4445 21.0397 12.4445 21.4999V28.1657L12.4498 28.2616C12.5128 28.8256 13.1255 29.1733 13.6505 28.9109L16.6111 27.4308L19.5718 28.9109C20.1259 29.1879 20.7778 28.7851 20.7778 28.1657V21.4999C20.7778 21.0397 20.4047 20.6666 19.9445 20.6666Z" fill="#F5B200"/>
<path fill-rule="evenodd" clip-rule="evenodd" d="M13.2778 20.6666H19.9445C20.4047 20.6666 20.7778 21.0397 20.7778 21.4999V28.1657C20.7778 28.7851 20.1259 29.1879 19.5718 28.9109L16.6111 27.4308L13.6505 28.9109C13.1255 29.1733 12.5128 28.8256 12.4498 28.2616L12.4445 28.1657V21.4999C12.4445 21.0397 12.8176 20.6666 13.2778 20.6666ZM19.1111 26.8175V22.3331H14.1111V26.8167L16.2384 25.7539C16.4395 25.6534 16.6711 25.639 16.881 25.7109L16.9838 25.7539L19.1111 26.8175Z" fill="#D29800"/>
<path d="M16.3333 9C20.9357 9 24.6667 12.731 24.6667 17.3333C24.6667 21.9357 20.9357 25.6667 16.3333 25.6667C11.731 25.6667 8 21.9357 8 17.3333C8 12.731 11.731 9 16.3333 9Z" fill="#FFBE12"/>
<path fill-rule="evenodd" clip-rule="evenodd" d="M11.3337 23.8517C12.7395 24.9869 14.5284 25.6667 16.476 25.6667C20.9996 25.6667 24.6667 21.9997 24.6667 17.4762C24.6667 15.5287 23.9869 13.7398 22.8517 12.3341C22.9678 12.9382 23.0286 13.562 23.0286 14.2001C23.0286 19.6282 18.6281 24.0286 13.1998 24.0286C12.5617 24.0286 11.9379 23.9678 11.3337 23.8517Z" fill="#F5B200"/>
<path fill-rule="evenodd" clip-rule="evenodd" d="M19.171 9.49563C19.4918 10.3813 19.6667 11.3369 19.6667 12.3333C19.6667 16.9357 15.9357 20.6667 11.3333 20.6667C10.3369 20.6667 9.38134 20.4918 8.49563 20.171C8.17488 19.2853 8 18.3298 8 17.3333C8 12.731 11.731 9 16.3333 9C17.3298 9 18.2853 9.17488 19.171 9.49563Z" fill="#FFCF51"/>
<path fill-rule="evenodd" clip-rule="evenodd" d="M24.6667 17.3333C24.6667 12.731 20.9357 9 16.3333 9C11.731 9 8 12.731 8 17.3333C8 21.9357 11.731 25.6667 16.3333 25.6667C20.9357 25.6667 24.6667 21.9357 24.6667 17.3333ZM9.66667 17.3333C9.66667 13.6514 12.6514 10.6667 16.3333 10.6667C20.0152 10.6667 23 13.6514 23 17.3333C23 21.0152 20.0152 24 16.3333 24C12.6514 24 9.66667 21.0152 9.66667 17.3333Z" fill="#D29800"/>
<path fill-rule="evenodd" clip-rule="evenodd" d="M16.6111 19.1389L14.162 20.4265L14.6298 17.6994L12.6484 15.768L15.3866 15.3701L16.6111 12.8889L17.8357 15.3701L20.5739 15.768L18.5925 17.6994L19.0602 20.4265L16.6111 19.1389Z" fill="#C08B00"/>
<path d="M15.3058 12.3334C17.4998 12.3334 11.3334 17.729 11.3334 15.8093C11.3334 13.8896 13.1119 12.3334 15.3058 12.3334Z" fill="white"/>
</svg>
