<svg width="24" height="24" viewBox="0 0 24 24" fill="none" xmlns="http://www.w3.org/2000/svg">
<path fill-rule="evenodd" clip-rule="evenodd" d="M6.01626 11.6999C6.06897 8.60893 8.9678 5.90188 12.121 6.005C13.6316 5.93639 15.0519 6.58084 16.2091 7.48605C15.7154 8.03595 15.204 8.56605 14.6574 9.06164C13.2665 8.11906 11.288 7.84993 9.89707 8.93851C7.90688 10.2876 7.81647 13.4731 9.73042 14.9254C11.5919 16.5812 15.1104 15.7589 15.6247 13.2238C14.4586 13.2066 13.2898 13.2238 12.1239 13.1866C12.121 12.5048 12.1181 11.823 12.121 11.1412C14.0701 11.1355 16.0193 11.1326 17.9714 11.1469C18.0882 12.7511 17.872 14.4584 16.8667 15.7848C15.3442 17.8846 12.2874 18.4976 9.9029 17.5981C7.50963 16.7043 5.81462 14.2264 6.01626 11.6999" fill="#323232"/>
</svg>
