<svg width="48" height="24" viewBox="0 0 48 24" fill="none" xmlns="http://www.w3.org/2000/svg">
<path fill-rule="evenodd" clip-rule="evenodd" d="M12 9.33333C12 9.14933 12.224 9 12.5 9C12.776 9 13 9.14933 13 9.33333V10.6667C13 10.8507 12.776 11 12.5 11C12.224 11 12 10.8507 12 10.6667V9.33333ZM9 13.3333C9 13.1493 9.224 13 9.5 13C9.776 13 10 13.1493 10 13.3333V14.6667C10 14.8507 9.776 15 9.5 15C9.224 15 9 14.8507 9 14.6667V13.3333ZM12 13.3333C12 13.1493 12.224 13 12.5 13C12.776 13 13 13.1493 13 13.3333V14.6667C13 14.8507 12.776 15 12.5 15C12.224 15 12 14.8507 12 14.6667V13.3333ZM39.5 13C39.224 13 39 13.1493 39 13.3333V14.6667C39 14.8507 39.224 15 39.5 15C39.776 15 40 14.8507 40 14.6667V13.3333C40 13.1493 39.776 13 39.5 13ZM36 13.3333C36 13.1493 36.224 13 36.5 13C36.776 13 37 13.1493 37 13.3333V14.6667C37 14.8507 36.776 15 36.5 15C36.224 15 36 14.8507 36 14.6667V13.3333ZM33.5 13C33.224 13 33 13.1493 33 13.3333V14.6667C33 14.8507 33.224 15 33.5 15C33.776 15 34 14.8507 34 14.6667V13.3333C34 13.1493 33.776 13 33.5 13ZM30 13.3333C30 13.1493 30.224 13 30.5 13C30.776 13 31 13.1493 31 13.3333V14.6667C31 14.8507 30.776 15 30.5 15C30.224 15 30 14.8507 30 14.6667V13.3333ZM27.5 13C27.224 13 27 13.1493 27 13.3333V14.6667C27 14.8507 27.224 15 27.5 15C27.776 15 28 14.8507 28 14.6667V13.3333C28 13.1493 27.776 13 27.5 13ZM24 13.3333C24 13.1493 24.224 13 24.5 13C24.776 13 25 13.1493 25 13.3333V14.6667C25 14.8507 24.776 15 24.5 15C24.224 15 24 14.8507 24 14.6667V13.3333ZM21.5 13C21.224 13 21 13.1493 21 13.3333V14.6667C21 14.8507 21.224 15 21.5 15C21.776 15 22 14.8507 22 14.6667V13.3333C22 13.1493 21.776 13 21.5 13ZM18 13.3333C18 13.1493 18.224 13 18.5 13C18.776 13 19 13.1493 19 13.3333V14.6667C19 14.8507 18.776 15 18.5 15C18.224 15 18 14.8507 18 14.6667V13.3333ZM15.5 13C15.224 13 15 13.1493 15 13.3333V14.6667C15 14.8507 15.224 15 15.5 15C15.776 15 16 14.8507 16 14.6667V13.3333C16 13.1493 15.776 13 15.5 13ZM9.5 9C9.224 9 9 9.14933 9 9.33333V10.6667C9 10.8507 9.224 11 9.5 11C9.776 11 10 10.8507 10 10.6667V9.33333C10 9.14933 9.776 9 9.5 9ZM39 9.33333C39 9.14933 39.224 9 39.5 9C39.776 9 40 9.14933 40 9.33333V10.6667C40 10.8507 39.776 11 39.5 11C39.224 11 39 10.8507 39 10.6667V9.33333ZM36.5 9C36.224 9 36 9.14933 36 9.33333V10.6667C36 10.8507 36.224 11 36.5 11C36.776 11 37 10.8507 37 10.6667V9.33333C37 9.14933 36.776 9 36.5 9ZM33 9.33333C33 9.14933 33.224 9 33.5 9C33.776 9 34 9.14933 34 9.33333V10.6667C34 10.8507 33.776 11 33.5 11C33.224 11 33 10.8507 33 10.6667V9.33333ZM30.5 9C30.224 9 30 9.14933 30 9.33333V10.6667C30 10.8507 30.224 11 30.5 11C30.776 11 31 10.8507 31 10.6667V9.33333C31 9.14933 30.776 9 30.5 9ZM27 9.33333C27 9.14933 27.224 9 27.5 9C27.776 9 28 9.14933 28 9.33333V10.6667C28 10.8507 27.776 11 27.5 11C27.224 11 27 10.8507 27 10.6667V9.33333ZM24.5 9C24.224 9 24 9.14933 24 9.33333V10.6667C24 10.8507 24.224 11 24.5 11C24.776 11 25 10.8507 25 10.6667V9.33333C25 9.14933 24.776 9 24.5 9ZM21 9.33333C21 9.14933 21.224 9 21.5 9C21.776 9 22 9.14933 22 9.33333V10.6667C22 10.8507 21.776 11 21.5 11C21.224 11 21 10.8507 21 10.6667V9.33333ZM18.5 9C18.224 9 18 9.14933 18 9.33333V10.6667C18 10.8507 18.224 11 18.5 11C18.776 11 19 10.8507 19 10.6667V9.33333C19 9.14933 18.776 9 18.5 9ZM15 9.33333C15 9.14933 15.224 9 15.5 9C15.776 9 16 9.14933 16 9.33333V10.6667C16 10.8507 15.776 11 15.5 11C15.224 11 15 10.8507 15 10.6667V9.33333Z" fill="#323232"/>
<mask id="mask0_8_4182" style="mask-type:alpha" maskUnits="userSpaceOnUse" x="9" y="9" width="31" height="6">
<path fill-rule="evenodd" clip-rule="evenodd" d="M12 9.33333C12 9.14933 12.224 9 12.5 9C12.776 9 13 9.14933 13 9.33333V10.6667C13 10.8507 12.776 11 12.5 11C12.224 11 12 10.8507 12 10.6667V9.33333ZM9 13.3333C9 13.1493 9.224 13 9.5 13C9.776 13 10 13.1493 10 13.3333V14.6667C10 14.8507 9.776 15 9.5 15C9.224 15 9 14.8507 9 14.6667V13.3333ZM12 13.3333C12 13.1493 12.224 13 12.5 13C12.776 13 13 13.1493 13 13.3333V14.6667C13 14.8507 12.776 15 12.5 15C12.224 15 12 14.8507 12 14.6667V13.3333ZM39.5 13C39.224 13 39 13.1493 39 13.3333V14.6667C39 14.8507 39.224 15 39.5 15C39.776 15 40 14.8507 40 14.6667V13.3333C40 13.1493 39.776 13 39.5 13ZM36 13.3333C36 13.1493 36.224 13 36.5 13C36.776 13 37 13.1493 37 13.3333V14.6667C37 14.8507 36.776 15 36.5 15C36.224 15 36 14.8507 36 14.6667V13.3333ZM33.5 13C33.224 13 33 13.1493 33 13.3333V14.6667C33 14.8507 33.224 15 33.5 15C33.776 15 34 14.8507 34 14.6667V13.3333C34 13.1493 33.776 13 33.5 13ZM30 13.3333C30 13.1493 30.224 13 30.5 13C30.776 13 31 13.1493 31 13.3333V14.6667C31 14.8507 30.776 15 30.5 15C30.224 15 30 14.8507 30 14.6667V13.3333ZM27.5 13C27.224 13 27 13.1493 27 13.3333V14.6667C27 14.8507 27.224 15 27.5 15C27.776 15 28 14.8507 28 14.6667V13.3333C28 13.1493 27.776 13 27.5 13ZM24 13.3333C24 13.1493 24.224 13 24.5 13C24.776 13 25 13.1493 25 13.3333V14.6667C25 14.8507 24.776 15 24.5 15C24.224 15 24 14.8507 24 14.6667V13.3333ZM21.5 13C21.224 13 21 13.1493 21 13.3333V14.6667C21 14.8507 21.224 15 21.5 15C21.776 15 22 14.8507 22 14.6667V13.3333C22 13.1493 21.776 13 21.5 13ZM18 13.3333C18 13.1493 18.224 13 18.5 13C18.776 13 19 13.1493 19 13.3333V14.6667C19 14.8507 18.776 15 18.5 15C18.224 15 18 14.8507 18 14.6667V13.3333ZM15.5 13C15.224 13 15 13.1493 15 13.3333V14.6667C15 14.8507 15.224 15 15.5 15C15.776 15 16 14.8507 16 14.6667V13.3333C16 13.1493 15.776 13 15.5 13ZM9.5 9C9.224 9 9 9.14933 9 9.33333V10.6667C9 10.8507 9.224 11 9.5 11C9.776 11 10 10.8507 10 10.6667V9.33333C10 9.14933 9.776 9 9.5 9ZM39 9.33333C39 9.14933 39.224 9 39.5 9C39.776 9 40 9.14933 40 9.33333V10.6667C40 10.8507 39.776 11 39.5 11C39.224 11 39 10.8507 39 10.6667V9.33333ZM36.5 9C36.224 9 36 9.14933 36 9.33333V10.6667C36 10.8507 36.224 11 36.5 11C36.776 11 37 10.8507 37 10.6667V9.33333C37 9.14933 36.776 9 36.5 9ZM33 9.33333C33 9.14933 33.224 9 33.5 9C33.776 9 34 9.14933 34 9.33333V10.6667C34 10.8507 33.776 11 33.5 11C33.224 11 33 10.8507 33 10.6667V9.33333ZM30.5 9C30.224 9 30 9.14933 30 9.33333V10.6667C30 10.8507 30.224 11 30.5 11C30.776 11 31 10.8507 31 10.6667V9.33333C31 9.14933 30.776 9 30.5 9ZM27 9.33333C27 9.14933 27.224 9 27.5 9C27.776 9 28 9.14933 28 9.33333V10.6667C28 10.8507 27.776 11 27.5 11C27.224 11 27 10.8507 27 10.6667V9.33333ZM24.5 9C24.224 9 24 9.14933 24 9.33333V10.6667C24 10.8507 24.224 11 24.5 11C24.776 11 25 10.8507 25 10.6667V9.33333C25 9.14933 24.776 9 24.5 9ZM21 9.33333C21 9.14933 21.224 9 21.5 9C21.776 9 22 9.14933 22 9.33333V10.6667C22 10.8507 21.776 11 21.5 11C21.224 11 21 10.8507 21 10.6667V9.33333ZM18.5 9C18.224 9 18 9.14933 18 9.33333V10.6667C18 10.8507 18.224 11 18.5 11C18.776 11 19 10.8507 19 10.6667V9.33333C19 9.14933 18.776 9 18.5 9ZM15 9.33333C15 9.14933 15.224 9 15.5 9C15.776 9 16 9.14933 16 9.33333V10.6667C16 10.8507 15.776 11 15.5 11C15.224 11 15 10.8507 15 10.6667V9.33333Z" fill="white"/>
</mask>
<g mask="url(#mask0_8_4182)">
</g>
</svg>
