<svg width="32" height="32" viewBox="0 0 32 32" fill="none" xmlns="http://www.w3.org/2000/svg">
<path fill-rule="evenodd" clip-rule="evenodd" d="M16 5C15.4477 5 15 5.44772 15 6V26C15 26.5523 15.4477 27 16 27C16.5523 27 17 26.5523 17 26V6C17 5.44772 16.5523 5 16 5ZM12 11.0002C12 10.4479 12.4477 10.0002 13 10.0002C13.5523 10.0002 14 10.4479 14 11.0002V21.0005C14 21.5528 13.5523 22.0005 13 22.0005C12.4477 22.0005 12 21.5528 12 21.0005V11.0002ZM9 13.0002C9 12.4479 9.44772 12.0002 10 12.0002C10.5523 12.0002 11 12.4479 11 13.0002V19.0005C11 19.5528 10.5523 20.0005 10 20.0005C9.44772 20.0005 9 19.5528 9 19.0005V13.0002ZM6 16.0003C6 15.448 6.44772 15.0003 7 15.0003C7.55228 15.0003 8 15.448 8 16.0003C8 16.5526 7.55228 17.0003 7 17.0003C6.44772 17.0003 6 16.5526 6 16.0003ZM25 15.0003C24.4477 15.0003 24 15.448 24 16.0003C24 16.5526 24.4477 17.0003 25 17.0003C25.5523 17.0003 26 16.5526 26 16.0003C26 15.448 25.5523 15.0003 25 15.0003ZM18 7.00008C18 6.4478 18.4477 6.00008 19 6.00008C19.5523 6.00008 20 6.4478 20 7.00008V25.0006C20 25.5529 19.5523 26.0006 19 26.0006C18.4477 26.0006 18 25.5529 18 25.0006V7.00008ZM22 12.0002C21.4477 12.0002 21 12.4479 21 13.0002V19.0005C21 19.5528 21.4477 20.0005 22 20.0005C22.5523 20.0005 23 19.5528 23 19.0005V13.0002C23 12.4479 22.5523 12.0002 22 12.0002Z" fill="#323232"/>
</svg>
