<svg width="24" height="24" viewBox="0 0 24 24" fill="none" xmlns="http://www.w3.org/2000/svg">
<path fill-rule="evenodd" clip-rule="evenodd" d="M12 20C16.4183 20 20 16.4183 20 12C20 7.58172 16.4183 4 12 4C7.58172 4 4 7.58172 4 12C4 16.4183 7.58172 20 12 20ZM12 18C15.3137 18 18 15.3137 18 12C18 8.68629 15.3137 6 12 6C8.68629 6 6 8.68629 6 12C6 15.3137 8.68629 18 12 18ZM11.8745 14C12.4125 14 12.8745 14.428 12.8745 14.986C12.8745 15.544 12.4245 15.999 11.8745 15.999C11.3495 15.999 10.8745 15.57 10.8745 15.012C10.8745 14.454 11.3255 14 11.8745 14ZM11.0625 13C11.0625 12.291 11.3745 12.006 11.8745 11.506C12.3745 11.006 13.0395 10.757 13.0395 10.252C13.0395 9.70603 12.6395 9.49403 11.8745 9.49403C11.1185 9.49403 10.6985 9.57303 10.6985 10.5H8.9995C8.9995 8.78403 10.1595 8.00003 11.8745 8.00003C13.3865 8.00003 14.6985 8.77603 14.6985 10.235C14.6985 11.859 12.6835 12.008 12.6835 13H11.0625Z" fill="#323232"/>
</svg>
