<svg width="24" height="24" viewBox="0 0 24 24" fill="none" xmlns="http://www.w3.org/2000/svg">
<path fill-rule="evenodd" clip-rule="evenodd" d="M16.8496 5.29191L19.3406 7.78291C19.6556 8.09791 19.7236 8.58291 19.5096 8.97291L15.0816 16.9979C14.9046 17.3159 14.5696 17.5139 14.2056 17.5139H10.8856C10.6196 17.5139 10.3656 17.4089 10.1786 17.2209L7.41064 14.4539C7.22364 14.2659 7.11764 14.0119 7.11764 13.7469V10.4269C7.11764 10.0619 7.31564 9.72691 7.63464 9.55091L15.6596 5.12291C16.0526 4.91091 16.5346 4.97691 16.8496 5.29191ZM11.2556 9.83791L14.8696 13.2399L17.3936 8.66491L15.9676 7.23791L11.2556 9.83791ZM6.35354 14.784C6.63954 14.772 6.91654 14.869 7.12154 15.068L9.08654 16.998C9.37954 17.287 9.46654 17.725 9.30554 18.104C9.14654 18.473 8.78454 18.712 8.38554 18.712H8.35354L4.96954 18.607C4.59354 18.595 4.25554 18.373 4.09554 18.033C3.93454 17.692 3.97954 17.29 4.21154 16.993L5.63154 15.168C5.80654 14.943 6.06854 14.803 6.35354 14.784Z" fill="#323232"/>
</svg>
