<svg width="24" height="24" viewBox="0 0 24 24" fill="none" xmlns="http://www.w3.org/2000/svg">
<path fill-rule="evenodd" clip-rule="evenodd" d="M20.9993 13C20.7633 13 20.5263 12.917 20.3353 12.748L19.9998 12.4498V20C19.9998 20.552 19.5518 21 18.9998 21H5.00016C4.44817 21 4.00018 20.552 4.00018 20V12.4497L3.66469 12.748C3.2497 13.114 2.61971 13.077 2.25272 12.665C1.88573 12.251 1.92273 11.62 2.33572 11.252L11.3355 3.252C11.7145 2.916 12.2855 2.916 12.6645 3.252L21.6643 11.252C22.0773 11.62 22.1143 12.251 21.7473 12.665C21.5493 12.887 21.2753 13 20.9993 13ZM11.9995 5.338L17.9999 10.6719V19H14V14.5C14 14.224 13.776 14 13.5 14H10.5C10.224 14 10 14.224 10 14.5V19H6.00014V10.6717L11.9995 5.338Z" fill="#323232"/>
</svg>
