<svg width="76" height="52" viewBox="0 0 76 52" fill="none" xmlns="http://www.w3.org/2000/svg">
<path fill-rule="evenodd" clip-rule="evenodd" d="M18.0108 20C22.9528 20 26.0108 14.594 26.0108 9.58599C26.0108 3.584 23.0208 0 18.0108 0C13.0028 0 10.0108 3.584 10.0108 9.58599C10.0108 14.594 13.0688 20 18.0108 20ZM18.018 25.996L18.01 26C16.004 26 12.864 26.402 10.544 27.818L5.90203 25.96C9.45603 23.118 13.164 22 18.01 22L18.018 22.012V22C22.836 22 26.582 23.086 30.096 25.96L25.5 27.8C23.152 26.374 19.938 26 18.018 26V25.996ZM20.9998 47.2634L30.1478 42.6894L31.5818 31.2114L20.9998 35.7474V47.2634ZM18.9998 47.9994H16.9998V35.9994H18.9998V47.9994ZM5.85183 42.6894L14.9998 47.2634V35.7474L4.41583 31.2114L5.85183 42.6894ZM33.2118 26.1614C33.8698 25.8774 34.6298 25.9734 35.2018 26.4014C35.7738 26.8314 36.0718 27.5374 35.9838 28.2474L33.9838 44.2474C33.8998 44.9114 33.4918 45.4894 32.8938 45.7894L20.8938 51.7894C20.6158 51.9273 20.3098 51.9994 19.9998 51.9994H15.9998C15.6898 51.9994 15.3818 51.9273 15.1058 51.7894L3.10583 45.7894C2.50783 45.4894 2.09783 44.9114 2.01583 44.2474L0.0158365 28.2474C-0.0741634 27.5374 0.223836 26.8314 0.797836 26.4014C1.36784 25.9734 2.13183 25.8794 2.78783 26.1614L16.4098 31.9994H19.5898L33.2118 26.1614ZM22.0228 9.41999C22.0228 4.418 20.0468 4 18.0228 4C15.9988 4 14.0228 4.418 14.0228 9.41999C14.0228 12.74 16.0028 16 18.0228 16C20.0428 16 22.0228 12.74 22.0228 9.41999ZM53.1674 34C49.6354 31.094 45.8774 30 41.0374 30V30.012L41.0274 30C40.4894 30 39.9714 30.02 39.4594 30.046L38.9014 34.136C39.6774 34.044 40.4114 34 41.0274 34L41.0374 33.996V34C43.7094 34 48.9154 34.688 50.7554 38H45.8874H41.0374H38.3754L37.8294 42H53.1674C60.4574 42 55.5974 36 53.1674 34ZM49.0294 15.586C49.0294 20.594 45.9714 26 41.0294 26C36.0874 26 33.0294 20.594 33.0294 15.586C33.0294 9.58399 36.0194 5.99999 41.0294 5.99999C46.0394 5.99999 49.0294 9.58399 49.0294 15.586ZM41.0414 9.99999C43.0654 9.99999 45.0414 10.418 45.0414 15.42C45.0414 18.74 43.0614 22 41.0414 22C39.0214 22 37.0414 18.74 37.0414 15.42C37.0414 10.418 39.0174 9.99999 41.0414 9.99999ZM60.0198 30C64.8598 30 68.6178 31.094 72.1498 34C74.5798 36 79.4398 42 72.1498 42H59.3338C59.5098 41.742 59.6638 41.468 59.7758 41.16C60.1478 40.124 60.0238 39.04 59.6498 38H60.0198H64.8698H69.7378C67.8978 34.688 62.6918 34 60.0198 34V33.996L60.0098 34C59.2238 34 58.2558 34.07 57.2358 34.226C56.3198 33.206 55.5078 32.528 55.4198 32.456C54.7418 31.896 54.0438 31.412 53.3338 30.962C55.3498 30.296 57.5298 30 60.0098 30L60.0198 30.012V30ZM60.0108 26C64.9528 26 68.0108 20.594 68.0108 15.586C68.0108 9.58399 65.0208 5.99999 60.0108 5.99999C55.0028 5.99999 52.0108 9.58399 52.0108 15.586C52.0108 20.594 55.0688 26 60.0108 26ZM64.0228 15.42C64.0228 10.418 62.0468 9.99999 60.0228 9.99999C57.9988 9.99999 56.0228 10.418 56.0228 15.42C56.0228 18.74 58.0028 22 60.0228 22C62.0428 22 64.0228 18.74 64.0228 15.42Z" fill="#BE8CFF"/>
</svg>
