<svg width="24" height="24" viewBox="0 0 24 24" fill="none" xmlns="http://www.w3.org/2000/svg">
<path fill-rule="evenodd" clip-rule="evenodd" d="M12 19.9487C16.4183 19.9487 20 16.367 20 11.9487C20 7.53045 16.4183 3.94873 12 3.94873C7.58172 3.94873 4 7.53045 4 11.9487C4 16.367 7.58172 19.9487 12 19.9487ZM12.999 15.9487H11V11.9487H12.999V15.9487ZM18 11.9487C18 15.2624 15.3137 17.9487 12 17.9487C8.68629 17.9487 6 15.2624 6 11.9487C6 8.63502 8.68629 5.94873 12 5.94873C15.3137 5.94873 18 8.63502 18 11.9487ZM12.999 9.94873H11V7.94873H12.999V9.94873Z" fill="#323232"/>
</svg>
