<svg width="24" height="24" viewBox="0 0 24 24" fill="none" xmlns="http://www.w3.org/2000/svg">
<path d="M11.9192 4C10.8485 4 9.97979 4.86869 9.97979 5.93939C9.97979 7.0101 10.8485 7.87879 11.9192 7.87879C12.9899 7.87879 13.8586 7.0101 13.8586 5.93939C13.8586 4.86869 12.9899 4 11.9192 4ZM7.35353 6.22222C6.46213 6.22222 5.73737 6.94697 5.73737 7.83839C5.73737 8.72979 6.46213 9.45455 7.35353 9.45455C8.24495 9.45455 8.96969 8.72979 8.96969 7.83839C8.96969 6.94697 8.24495 6.22222 7.35353 6.22222ZM16.4848 7.19192C16.1288 7.19192 15.8384 7.48232 15.8384 7.83839C15.8384 8.19445 16.1288 8.48485 16.4848 8.48485C16.8409 8.48485 17.1313 8.19445 17.1313 7.83839C17.1313 7.48232 16.8409 7.19192 16.4848 7.19192ZM5.45455 10.9495C4.65152 10.9495 4 11.601 4 12.404C4 13.2071 4.65152 13.8586 5.45455 13.8586C6.25758 13.8586 6.90909 13.2071 6.90909 12.404C6.90909 11.601 6.25758 10.9495 5.45455 10.9495ZM18.3839 11.596C17.9369 11.596 17.5758 11.9571 17.5758 12.404C17.5758 12.851 17.9369 13.2121 18.3839 13.2121C18.8309 13.2121 19.1919 12.851 19.1919 12.404C19.1919 11.9571 18.8309 11.596 18.3839 11.596ZM7.35353 15.6768C6.63889 15.6768 6.06061 16.2551 6.06061 16.9697C6.06061 17.6843 6.63889 18.2626 7.35353 18.2626C8.06818 18.2626 8.64647 17.6843 8.64647 16.9697C8.64647 16.2551 8.06818 15.6768 7.35353 15.6768ZM16.4848 16C15.9495 16 15.5152 16.4343 15.5152 16.9697C15.5152 17.505 15.9495 17.9394 16.4848 17.9394C17.0202 17.9394 17.4545 17.505 17.4545 16.9697C17.4545 16.4343 17.0202 16 16.4848 16ZM11.9192 17.7374C11.2955 17.7374 10.7879 18.2449 10.7879 18.8687C10.7879 19.4925 11.2955 20 11.9192 20C12.5429 20 13.0505 19.4925 13.0505 18.8687C13.0505 18.2449 12.5429 17.7374 11.9192 17.7374Z" fill="#323232"/>
</svg>
