<svg width="24" height="24" viewBox="0 0 24 24" fill="none" xmlns="http://www.w3.org/2000/svg">
<path fill-rule="evenodd" clip-rule="evenodd" d="M15 8.82837V10.6569V10.8285L15.0126 10.8158C15.0448 11.0165 15.1382 11.2093 15.2929 11.364C15.6834 11.7545 16.3166 11.7545 16.7071 11.364L19.5355 8.53553C19.9261 8.14501 19.9261 7.51184 19.5355 7.12132L16.7071 4.29289C16.3166 3.90237 15.6834 3.90237 15.2929 4.29289C15.1382 4.4476 15.0448 4.6404 15.0126 4.8411L15 4.82846V5V6.82837H6C5.44772 6.82837 5 7.27608 5 7.82837C5 8.38065 5.44771 8.82837 6 8.82837L15 8.82837Z" fill="#323232"/>
<path fill-rule="evenodd" clip-rule="evenodd" d="M9.82843 15.6569V13.8284V13.6568L9.81578 13.6694C9.78365 13.4687 9.69023 13.276 9.53553 13.1213C9.14501 12.7307 8.51185 12.7307 8.12132 13.1213L5.29289 15.9497C4.90237 16.3402 4.90237 16.9734 5.29289 17.3639L8.12132 20.1923C8.51184 20.5829 9.14501 20.5829 9.53553 20.1923C9.69024 20.0376 9.78366 19.8448 9.81579 19.6441L9.82843 19.6568V19.4852V17.6569L18.8284 17.6569C19.3807 17.6569 19.8284 17.2091 19.8284 16.6569C19.8284 16.1046 19.3807 15.6569 18.8284 15.6569L9.82843 15.6569Z" fill="#323232"/>
</svg>
