<svg width="73" height="56" viewBox="0 0 73 56" fill="none" xmlns="http://www.w3.org/2000/svg">
<path fill-rule="evenodd" clip-rule="evenodd" d="M56.1047 0H2.10521C1.00122 0 0.105225 0.893992 0.105225 1.99998V33.9997V34.9997V41.9996C0.105225 43.1056 1.00122 43.9996 2.10521 43.9996H20.105H27.105H30.255C30.255 43.9996 32.2549 41.9996 36.2549 39.9996H32.2349H30.105H27.385H27.105H22.517H4.10519V34.9997V33.9997V3.99996H54.1047H58.1047V1.99998C58.1047 0.893992 57.2087 0 56.1047 0ZM56.1165 7.99993C51.3866 7.99993 48.4906 11.2239 48.1786 16.6339C49.7746 17.1278 51.1506 17.9198 52.2886 18.9958C52.1966 18.4778 52.1286 17.9538 52.1286 17.4198C52.1286 12.4179 54.1045 11.9999 56.1285 11.9999C58.1525 11.9999 60.1285 12.4179 60.1285 17.4198C60.1285 20.7398 58.1485 23.9998 56.1285 23.9998C55.8465 23.9998 55.5685 23.9238 55.2925 23.8038C55.6965 25.0538 55.9045 26.4758 56.0045 27.9838C56.0245 27.9838 56.0425 27.9878 56.0605 27.9918C56.0785 27.9958 56.0965 27.9998 56.1165 27.9998C61.0585 27.9998 64.1165 22.5938 64.1165 17.5858C64.1165 11.5839 61.1265 7.99993 56.1165 7.99993ZM44.1162 39.9996C49.0582 39.9996 52.1162 34.5937 52.1162 29.5857C52.1162 23.5838 49.1262 19.9998 44.1162 19.9998C39.1083 19.9998 36.1163 23.5838 36.1163 29.5857C36.1163 34.5937 39.1743 39.9996 44.1162 39.9996ZM68.255 35.9997C64.7231 33.0937 60.9651 31.9997 56.1251 31.9997V32.0117L56.1151 31.9997C56.0772 31.9997 56.0417 32.0032 56.0062 32.0067L56.0061 32.0067C55.9706 32.0102 55.9351 32.0137 55.8971 32.0137C55.6771 33.4097 55.2431 34.7677 54.6931 36.0657C55.2031 36.0257 55.6891 35.9997 56.1151 35.9997L56.1251 35.9957V35.9997C58.7971 35.9997 64.0031 36.6877 65.843 39.9996H60.9751H56.1251H52.1052C56.1051 41.9996 58.1051 43.9996 58.1051 43.9996H68.255C75.545 43.9996 70.685 37.9997 68.255 35.9997ZM48.1282 29.4197C48.1282 24.4178 46.1522 23.9998 44.1282 23.9998C42.1043 23.9998 40.1283 24.4178 40.1283 29.4197C40.1283 32.7397 42.1083 35.9997 44.1282 35.9997C46.1482 35.9997 48.1282 32.7397 48.1282 29.4197ZM56.2549 55.9995C63.5449 55.9995 58.6849 49.9996 56.2549 47.9996C52.725 45.0936 48.965 43.9996 44.125 43.9996V44.0116L44.115 43.9996C39.2451 43.9996 35.5251 45.1236 31.9571 47.9996C29.5012 49.9776 24.6672 55.9995 31.9571 55.9995H56.2549ZM44.125 51.9995H48.975H53.845C52.003 48.6876 46.797 47.9996 44.125 47.9996V47.9956L44.115 47.9996C41.3151 47.9996 36.2851 48.7496 34.3951 51.9995H44.125ZM12.0331 21.3712C11.8291 21.8852 11.2431 22.1312 10.7331 21.9272C10.2211 21.7232 9.97114 21.1412 10.1771 20.6292L14.1771 10.6293C14.4811 9.86731 15.7291 9.86731 16.0331 10.6293L20.033 20.6292C20.239 21.1412 19.989 21.7232 19.4771 21.9272C19.3551 21.9772 19.2291 21.9992 19.1051 21.9992C18.7091 21.9992 18.3331 21.7612 18.1771 21.3712L17.2191 18.9772C17.2047 18.9795 17.1908 18.9832 17.1769 18.9869C17.1542 18.9931 17.1312 18.9992 17.1051 18.9992H13.1051C13.081 18.9992 13.0591 18.9934 13.0367 18.9875C13.0219 18.9836 13.007 18.9796 12.9911 18.9772L12.0331 21.3712ZM15.1051 13.6933L16.4291 16.9993H13.7831L15.1051 13.6933ZM21.105 17.9998C21.105 20.2418 22.423 21.9998 24.105 21.9998C24.6115 21.9998 25.085 21.8404 25.4994 21.5564C25.8029 21.8817 26.3088 22.0004 27.1058 22.0004C27.6578 22.0004 28.1058 21.5524 28.1058 21.0004C28.1058 20.4464 27.6578 20.0004 27.1058 20.0004V15.0005C27.1058 14.4465 26.6578 14.0005 26.1058 14.0005C25.8022 14.0005 25.5311 14.1344 25.348 14.3467C24.9711 14.1234 24.5508 13.9999 24.105 13.9999C22.423 13.9999 21.105 15.7579 21.105 17.9998ZM24.105 15.9999C23.707 15.9999 23.105 16.7959 23.105 17.9998C23.105 19.2038 23.707 19.9998 24.105 19.9998C24.503 19.9998 25.105 19.2038 25.105 17.9998C25.105 16.7959 24.503 15.9999 24.105 15.9999Z" fill="#BE8CFF"/>
</svg>
