<svg width="76" height="56" viewBox="0 0 76 56" fill="none" xmlns="http://www.w3.org/2000/svg">
<path fill-rule="evenodd" clip-rule="evenodd" d="M4 2C4 0.894 4.896 0 6 0H60C61.104 0 62 0.894 62 2V4H58H8V16H4V2ZM60.0118 8C55.2818 8 52.3858 11.224 52.0738 16.634C53.6698 17.128 55.0458 17.92 56.1838 18.996C56.0918 18.478 56.0238 17.954 56.0238 17.42C56.0238 12.418 57.9998 12 60.0238 12C62.0478 12 64.0238 12.418 64.0238 17.42C64.0238 20.74 62.0438 24 60.0238 24C59.7418 24 59.4638 23.924 59.1878 23.804C59.5918 25.054 59.7998 26.476 59.8998 27.984C59.9198 27.984 59.9378 27.988 59.9558 27.992C59.9738 27.996 59.9918 28 60.0118 28C64.9538 28 68.0118 22.594 68.0118 17.586C68.0118 11.584 65.0218 8 60.0118 8ZM52.0234 29.42C52.0234 24.418 50.0474 24 48.0234 24C45.9994 24 44.0234 24.418 44.0234 29.42C44.0234 32.74 46.0034 36 48.0234 36C50.0434 36 52.0234 32.74 52.0234 29.42ZM56.0114 29.586C56.0114 34.594 52.9534 40 48.0114 40C43.0694 40 40.0114 34.594 40.0114 29.586C40.0114 23.584 43.0034 20 48.0114 20C53.0214 20 56.0114 23.584 56.0114 29.586ZM60.0204 32C64.8604 32 68.6184 33.094 72.1504 36C74.5804 38 79.4404 44 72.1504 44H62.0004C62.0004 44 60.0004 42 56.0004 40H60.0204H64.8704H69.7384C67.8984 36.688 62.6924 36 60.0204 36V35.996L60.0104 36C59.5844 36 59.0984 36.026 58.5884 36.066C59.1384 34.768 59.5724 33.41 59.7924 32.014C59.8304 32.014 59.8659 32.0105 59.9014 32.007L59.9015 32.007C59.937 32.0035 59.9724 32 60.0104 32L60.0204 32.012V32ZM60.1502 56C67.4402 56 62.5802 50 60.1502 48C56.6202 45.094 52.8602 44 48.0202 44V44.012L48.0102 44C43.1402 44 39.4202 45.124 35.8522 48C33.3962 49.978 28.5622 56 35.8522 56H60.1502ZM48.0202 52H52.8702H57.7402C55.8982 48.688 50.6922 48 48.0202 48V47.996L48.0102 48C45.2102 48 40.1802 48.75 38.2902 52H48.0202ZM24 16L30 22L24 28V23H1C0.448 23 0 22.552 0 22C0 21.448 0.448 21 1 21H24V16ZM34 40H31.28H31H26.412H8V28H4V42C4 43.106 4.896 44 6 44H24H31H34.15C34.15 44 36.15 42 40.15 40H36.13H34Z" fill="#BE8CFF"/>
<mask id="mask0_8_3712" style="mask-type:alpha" maskUnits="userSpaceOnUse" x="0" y="0" width="77" height="56">
<path fill-rule="evenodd" clip-rule="evenodd" d="M4 2C4 0.894 4.896 0 6 0H60C61.104 0 62 0.894 62 2V4H58H8V16H4V2ZM60.0118 8C55.2818 8 52.3858 11.224 52.0738 16.634C53.6698 17.128 55.0458 17.92 56.1838 18.996C56.0918 18.478 56.0238 17.954 56.0238 17.42C56.0238 12.418 57.9998 12 60.0238 12C62.0478 12 64.0238 12.418 64.0238 17.42C64.0238 20.74 62.0438 24 60.0238 24C59.7418 24 59.4638 23.924 59.1878 23.804C59.5918 25.054 59.7998 26.476 59.8998 27.984C59.9198 27.984 59.9378 27.988 59.9558 27.992C59.9738 27.996 59.9918 28 60.0118 28C64.9538 28 68.0118 22.594 68.0118 17.586C68.0118 11.584 65.0218 8 60.0118 8ZM52.0234 29.42C52.0234 24.418 50.0474 24 48.0234 24C45.9994 24 44.0234 24.418 44.0234 29.42C44.0234 32.74 46.0034 36 48.0234 36C50.0434 36 52.0234 32.74 52.0234 29.42ZM56.0114 29.586C56.0114 34.594 52.9534 40 48.0114 40C43.0694 40 40.0114 34.594 40.0114 29.586C40.0114 23.584 43.0034 20 48.0114 20C53.0214 20 56.0114 23.584 56.0114 29.586ZM60.0204 32C64.8604 32 68.6184 33.094 72.1504 36C74.5804 38 79.4404 44 72.1504 44H62.0004C62.0004 44 60.0004 42 56.0004 40H60.0204H64.8704H69.7384C67.8984 36.688 62.6924 36 60.0204 36V35.996L60.0104 36C59.5844 36 59.0984 36.026 58.5884 36.066C59.1384 34.768 59.5724 33.41 59.7924 32.014C59.8304 32.014 59.8659 32.0105 59.9014 32.007L59.9015 32.007C59.937 32.0035 59.9724 32 60.0104 32L60.0204 32.012V32ZM60.1502 56C67.4402 56 62.5802 50 60.1502 48C56.6202 45.094 52.8602 44 48.0202 44V44.012L48.0102 44C43.1402 44 39.4202 45.124 35.8522 48C33.3962 49.978 28.5622 56 35.8522 56H60.1502ZM48.0202 52H52.8702H57.7402C55.8982 48.688 50.6922 48 48.0202 48V47.996L48.0102 48C45.2102 48 40.1802 48.75 38.2902 52H48.0202ZM24 16L30 22L24 28V23H1C0.448 23 0 22.552 0 22C0 21.448 0.448 21 1 21H24V16ZM34 40H31.28H31H26.412H8V28H4V42C4 43.106 4.896 44 6 44H24H31H34.15C34.15 44 36.15 42 40.15 40H36.13H34Z" fill="white"/>
</mask>
<g mask="url(#mask0_8_3712)">
</g>
</svg>
