<svg width="72" height="56" viewBox="0 0 72 56" fill="none" xmlns="http://www.w3.org/2000/svg">
<path fill-rule="evenodd" clip-rule="evenodd" d="M56 0H2C0.896 0 0 0.894 0 2V34V35V42C0 43.106 0.896 44 2 44H20H27H30.15C30.15 44 32.15 42 36.15 40H32.13H30H27.28H27H22.412H4V35V34V4H54H58V2C58 0.894 57.104 0 56 0ZM56.0118 8C51.2818 8 48.3858 11.224 48.0738 16.634C49.6698 17.128 51.0458 17.92 52.1838 18.996C52.0918 18.478 52.0238 17.954 52.0238 17.42C52.0238 12.418 53.9998 12 56.0238 12C58.0478 12 60.0238 12.418 60.0238 17.42C60.0238 20.74 58.0438 24 56.0238 24C55.7418 24 55.4638 23.924 55.1878 23.804C55.5918 25.054 55.7998 26.476 55.8998 27.984C55.9198 27.984 55.9378 27.988 55.9558 27.992C55.9738 27.996 55.9918 28 56.0118 28C60.9538 28 64.0118 22.594 64.0118 17.586C64.0118 11.584 61.0218 8 56.0118 8ZM44.0234 24C46.0474 24 48.0234 24.418 48.0234 29.42C48.0234 32.74 46.0434 36 44.0234 36C42.0034 36 40.0234 32.74 40.0234 29.42C40.0234 24.418 41.9994 24 44.0234 24ZM44.0114 40C48.9534 40 52.0114 34.594 52.0114 29.586C52.0114 23.584 49.0214 20 44.0114 20C39.0034 20 36.0114 23.584 36.0114 29.586C36.0114 34.594 39.0694 40 44.0114 40ZM56.1502 56C63.4402 56 58.5802 50 56.1502 48C52.6202 45.094 48.8602 44 44.0202 44V44.012L44.0102 44C39.1402 44 35.4202 45.124 31.8522 48C29.3962 49.978 24.5622 56 31.8522 56H56.1502ZM44.0202 52H48.8702H53.7402C51.8982 48.688 46.6922 48 44.0202 48V47.996L44.0102 48C41.2102 48 36.1802 48.75 34.2902 52H44.0202ZM56.0204 32C60.8604 32 64.6184 33.094 68.1504 36C70.5804 38 75.4404 44 68.1504 44H58.0004C58.0004 44 56.0004 42 52.0004 40H56.0204H60.8704H65.7384C63.8984 36.688 58.6924 36 56.0204 36V35.996L56.0104 36C55.5844 36 55.0984 36.026 54.5884 36.066C55.1384 34.768 55.5724 33.41 55.7924 32.014C55.8304 32.014 55.8659 32.0105 55.9014 32.007C55.9369 32.0035 55.9724 32 56.0104 32L56.0204 32.012V32ZM20 26C21.076 26 22 26.858 22 27.974C22 29.09 21.1 30 20 30C18.95 30 18 29.142 18 28.026C18 26.908 18.902 26 20 26ZM19.9452 19.1151C18.955 20.0528 18.344 20.6315 18.344 22V24H21.756V22C21.756 21.1295 22.5731 20.5832 23.4902 19.9699C24.6632 19.1856 26 18.2918 26 16.47C26 13.552 23.238 12 20.054 12C16.44 12 14 13.568 14 17H17.576C17.576 15.144 18.462 14.988 20.054 14.988C21.664 14.988 22.506 15.412 22.506 16.506C22.506 17.1793 21.8815 17.625 21.1532 18.1448C20.7911 18.4032 20.4034 18.6799 20.054 19.012C20.0172 19.0469 19.981 19.0812 19.9452 19.1151Z" fill="#BE8CFF"/>
</svg>
