<svg width="24" height="24" viewBox="0 0 24 24" fill="none" xmlns="http://www.w3.org/2000/svg">
<path fill-rule="evenodd" clip-rule="evenodd" d="M12 20C7.58867 20 4 16.4113 4 12C4 7.58867 7.58867 4 12 4C16.4113 4 20 7.58867 20 12C20 16.4113 16.4113 20 12 20ZM10 5.63974C7.29807 6.49123 5.33333 9.0205 5.33333 12C5.33333 12.4743 5.38311 12.9371 5.47772 13.3836L6.09733 12.764C6.228 12.634 6.43867 12.634 6.56933 12.764L7.138 13.3333H8.33333C8.422 13.3333 8.50667 13.3687 8.56933 13.4307L9.80467 14.6667H12.1953L12.764 14.0973C12.8947 13.9673 13.1053 13.9673 13.236 14.0973L13.9027 14.764C13.9647 14.8267 14 14.9113 14 15V15.6667C14 15.7553 13.9647 15.84 13.9027 15.9027L13.4713 16.3333L15.06 17.922C15.3904 17.7506 15.7047 17.5524 16 17.3302V13.138L14.862 12H13.8047L12.5693 13.236C12.5067 13.298 12.422 13.3333 12.3333 13.3333H11C10.9113 13.3333 10.8267 13.298 10.764 13.236L10.0973 12.5693C10.0353 12.5067 10 12.422 10 12.3333V11.6667C10 11.4827 10.1493 11.3333 10.3333 11.3333H11.5287L11.862 11L11.0973 10.236C10.9673 10.1053 10.9673 9.89467 11.0973 9.764L12.862 8L12.3333 7.47133L11.5693 8.236C11.4387 8.366 11.228 8.366 11.0973 8.236L10.0973 7.236C10.0353 7.17333 10 7.08867 10 7V5.63974ZM10.6667 5.46727V6.862L11.3333 7.52867L12.0973 6.764C12.228 6.634 12.4387 6.634 12.5693 6.764L13.5693 7.764C13.6993 7.89467 13.6993 8.10533 13.5693 8.236L11.8047 10L12.5693 10.764C12.6993 10.8947 12.6993 11.1053 12.5693 11.236L11.9027 11.9027C11.84 11.9647 11.7553 12 11.6667 12H10.6667V12.1953L11.138 12.6667H12.1953L13.4307 11.4307C13.4933 11.3687 13.578 11.3333 13.6667 11.3333H15C15.0887 11.3333 15.1733 11.3687 15.236 11.4307L16.5693 12.764C16.6313 12.8267 16.6667 12.9113 16.6667 13V16.7566C17.9003 15.546 18.6667 13.8608 18.6667 12C18.6667 11.1504 18.5069 10.3374 18.2159 9.58947L17.236 10.5693C17.1707 10.634 17.0853 10.6667 17 10.6667C16.9147 10.6667 16.8293 10.634 16.764 10.5693L15.4307 9.236C15.3687 9.17333 15.3333 9.08867 15.3333 9V6.22802C14.3522 5.6592 13.2134 5.33333 12 5.33333C11.5435 5.33333 11.0976 5.37945 10.6667 5.46727ZM16 6.66982V8.862L17 9.862L17.9219 8.93971C17.4583 8.0464 16.7986 7.27061 16 6.66982ZM14.4105 18.2159L12.764 16.5693C12.634 16.4387 12.634 16.228 12.764 16.0973L13.3333 15.5287V15.138L13 14.8047L12.5693 15.236C12.5067 15.298 12.422 15.3333 12.3333 15.3333H9.66667C9.578 15.3333 9.49333 15.298 9.43067 15.236L8.19533 14H7C6.91133 14 6.82667 13.9647 6.764 13.9027L6.33333 13.4713L5.68039 14.1247C6.56947 16.7622 9.06652 18.6667 12 18.6667C12.8496 18.6667 13.6626 18.5069 14.4105 18.2159Z" fill="#323232"/>
</svg>
