<svg width="40" height="40" viewBox="0 0 40 40" fill="none" xmlns="http://www.w3.org/2000/svg">
<path fill-rule="evenodd" clip-rule="evenodd" d="M26.0495 7.09707C24.5505 6.37831 22.9042 6 21.2069 6C15.5919 6 10 9.62155 10 15.8C10 19.6234 11.1371 21.9749 13.5979 24.5254L14.1316 25.0621C14.2331 25.1622 14.3528 25.2798 14.4699 25.3949C14.6781 25.5996 14.8782 25.7962 14.9543 25.8723C15.5 26.4177 15.9186 26.7064 16.2309 26.9218C16.737 27.2708 16.9637 27.4272 16.9993 28.1711L17.0043 28.4C17.0043 31.4928 19.5131 34 22.6078 34C25.7025 34 28.2112 31.4928 28.2112 28.4C28.2112 27.6268 27.584 27 26.8104 27C26.0919 27 25.4998 27.5405 25.4189 28.2367L25.4095 28.4C25.4095 29.9464 24.1551 31.2 22.6078 31.2C21.0604 31.2 19.8061 29.9464 19.806 28.4C19.806 26.6448 19.3256 26.195 18.2738 25.2103C17.9759 24.9313 17.632 24.6094 17.2403 24.2027L16.9354 23.8924C16.8494 23.8064 16.6323 23.5931 16.4152 23.3796C16.1977 23.1658 15.98 22.9518 15.8936 22.8654C13.6956 20.6688 12.8017 18.9405 12.8017 15.8C12.8017 11.6356 17.0043 8.8 21.2069 8.8C22.4824 8.8 23.7148 9.08319 24.8375 9.62155C25.6287 10.0009 26.4835 10.5891 27.2892 11.277C27.8774 11.7793 28.7617 11.7098 29.2642 11.122C29.7667 10.5341 29.6973 9.65039 29.1091 9.14815C28.1327 8.31453 27.0852 7.5937 26.0495 7.09707ZM26.8104 17.2C26.8104 14.1072 24.3016 11.6 21.2069 11.6C18.1122 11.6 15.6035 14.1072 15.6035 17.2C15.6035 17.9732 16.2307 18.6 17.0043 18.6C17.778 18.6 18.4052 17.9732 18.4052 17.2C18.4052 16.0429 19.1075 15.0497 20.1093 14.6252C20.435 16.8052 19.8687 17.6026 19.319 18.3765C18.9014 18.9644 18.4935 19.5387 18.4935 20.6953C18.4935 22.2019 19.1856 23.0692 19.8699 23.9266C20.5387 24.7646 21.2 25.5932 21.2 27C21.2 27.0485 21.2044 27.0911 21.2126 27.1271C21.2769 27.8407 21.877 28.4 22.6078 28.4C23.3815 28.4 24.0086 27.7732 24.0086 27L24.0181 26.8367C24.0743 26.3531 24.3771 25.9447 24.7981 25.7388C25.0273 25.6523 25.2355 25.6 25.4095 25.6C26.1832 25.6 26.8104 24.9732 26.8104 24.2C26.8104 23.482 26.2696 22.8903 25.5729 22.8094L25.4095 22.8C23.8622 22.8 22.6078 22.2417 22.6078 20.6953C22.6078 19.1489 23.8622 18.6 25.4095 18.6L25.5729 18.5906C26.2696 18.5097 26.8104 17.918 26.8104 17.2Z" fill="#323232"/>
</svg>
