<svg width="24" height="24" viewBox="0 0 24 24" fill="none" xmlns="http://www.w3.org/2000/svg">
<path fill-rule="evenodd" clip-rule="evenodd" d="M15.8606 3.61908L15.86 6.08982L15.8612 8.56231L15.8614 11.0339C15.8606 11.2778 15.7173 11.4997 15.4935 11.5976C15.4131 11.6343 15.3292 11.6518 15.2427 11.6526C15.0933 11.6517 14.9447 11.5975 14.8284 11.4935L11.1171 7.78918C10.9877 7.67206 10.9134 7.50512 10.9125 7.32945C10.9125 7.15465 10.9877 6.98861 11.1161 6.87063L14.8275 3.15925C15.0102 2.99409 15.2697 2.95479 15.4926 3.05357C15.7163 3.15323 15.8606 3.37437 15.8606 3.61908ZM8.02254 8.5C8.63144 8.5 9.12504 7.94036 9.12504 7.25C9.12504 6.55964 8.63144 6 8.02254 6C7.41365 6 6.92004 6.55964 6.92004 7.25C6.92004 7.94036 7.41365 8.5 8.02254 8.5Z" fill="#323232"/>
</svg>
