<svg width="24" height="24" viewBox="0 0 24 24" fill="none" xmlns="http://www.w3.org/2000/svg">
<path fill-rule="evenodd" clip-rule="evenodd" d="M7.55091 5.00159C6.70591 5.00159 5.15391 5.32259 4.33191 7.49259C2.90691 11.2546 6.30391 14.2206 10.2199 17.1766C10.9049 17.6946 11.5059 18.1476 11.9809 18.5656C12.4559 18.1476 13.0569 17.6946 13.7419 17.1776C17.6579 14.2206 21.0559 11.2546 19.6309 7.49259C18.7159 5.07559 16.8929 4.95359 16.1529 5.01159C14.5819 5.13759 13.2689 6.27659 12.9609 7.78259C12.8649 8.24759 12.4559 8.58159 11.9809 8.58159C11.5059 8.58159 11.0969 8.24759 11.0019 7.78259C10.6929 6.27659 9.38091 5.13759 7.80991 5.01159C7.73491 5.00559 7.64691 5.00159 7.55091 5.00159M11.9809 21.0016V21.0016C11.6599 21.0016 11.3579 20.8466 11.1699 20.5856C10.8769 20.1786 9.97191 19.4966 9.01491 18.7726C5.78791 16.3366 0.387906 12.2596 2.46191 6.78459C3.41491 4.26559 5.51691 2.81859 7.96991 3.01859C9.59691 3.14859 11.0469 3.98159 11.9809 5.21959C12.9159 3.98159 14.3659 3.14859 15.9929 3.01859C18.4339 2.81959 20.5469 4.26559 21.5009 6.78459C23.5749 12.2596 18.1739 16.3366 14.9469 18.7736C13.9899 19.4966 13.0859 20.1796 12.7919 20.5856C12.6039 20.8466 12.3019 21.0016 11.9809 21.0016" fill="#323232"/>
</svg>
