<svg width="32" height="32" viewBox="0 0 32 32" fill="none" xmlns="http://www.w3.org/2000/svg">
<path fill-rule="evenodd" clip-rule="evenodd" d="M22.0001 25.9993H26.0001V18.9993H22.0001V25.9993ZM11.962 11.99C11.787 12.493 10.952 13 9.482 13C6.098 13 6 8.848 6 8.375C6 6.403 7.175 6 7.49 6C8.2 6 8.415 6.294 9.028 7.552L9.0299 7.5559C9.50558 8.53124 10.0977 9.74535 11.379 10.762C11.875 11.156 12.092 11.615 11.962 11.99ZM12.622 9.196C11.6984 8.46373 11.2573 7.55975 10.8308 6.68578L10.826 6.676L10.8252 6.67442C10.2144 5.4208 9.52214 4 7.49 4C6.041 4 4 5.357 4 8.375C4 11.673 5.695 15 9.482 15C11.704 15 13.337 14.121 13.85 12.649C14.268 11.452 13.797 10.129 12.622 9.196ZM23.5001 9.9998H24.5001C24.7761 9.9998 25.0001 9.7758 25.0001 9.4998C25.0001 9.2238 24.7761 8.9998 24.5001 8.9998H23.5001C23.2241 8.9998 23.0001 9.2238 23.0001 9.4998C23.0001 9.7758 23.2241 9.9998 23.5001 9.9998ZM24.5001 11.9998H23.5001C23.2241 11.9998 23.0001 11.7758 23.0001 11.4998C23.0001 11.2238 23.2241 10.9998 23.5001 10.9998H24.5001C24.7761 10.9998 25.0001 11.2238 25.0001 11.4998C25.0001 11.7758 24.7761 11.9998 24.5001 11.9998ZM24.5001 12.9998H23.5001C23.2241 12.9998 23.0001 13.2238 23.0001 13.4998C23.0001 13.7758 23.2241 13.9998 23.5001 13.9998H24.5001C24.7761 13.9998 25.0001 13.7758 25.0001 13.4998C25.0001 13.2238 24.7761 12.9998 24.5001 12.9998ZM18.5001 8.9998H19.5001C19.7761 8.9998 20.0001 9.2238 20.0001 9.4998C20.0001 9.7758 19.7761 9.9998 19.5001 9.9998H18.5001C18.2241 9.9998 18.0001 9.7758 18.0001 9.4998C18.0001 9.2238 18.2241 8.9998 18.5001 8.9998ZM19.5001 10.9998H18.5001C18.2241 10.9998 18.0001 11.2238 18.0001 11.4998C18.0001 11.7758 18.2241 11.9998 18.5001 11.9998H19.5001C19.7761 11.9998 20.0001 11.7758 20.0001 11.4998C20.0001 11.2238 19.7761 10.9998 19.5001 10.9998ZM18.5001 12.9998H19.5001C19.7761 12.9998 20.0001 13.2238 20.0001 13.4998C20.0001 13.7758 19.7761 13.9998 19.5001 13.9998H18.5001C18.2241 13.9998 18.0001 13.7758 18.0001 13.4998C18.0001 13.2238 18.2241 12.9998 18.5001 12.9998ZM17.0001 19.3973C17.3251 19.4623 17.6601 19.4993 18.0001 19.4993C18.8081 19.4993 19.5741 19.2883 20.2661 18.9513C20.3431 18.9703 20.4171 18.9993 20.5001 18.9993H21.0001V25.9993H17.0001V19.3973ZM7.5001 7.9998C7.7761 7.9998 8.0001 7.7758 8.0001 7.4998C8.0001 7.2238 7.7761 6.9998 7.5001 6.9998C7.2241 6.9998 7.0001 7.2238 7.0001 7.4998C7.0001 7.7758 7.2241 7.9998 7.5001 7.9998ZM14.4461 8.10333C14.1361 7.95033 13.7681 7.96633 13.4741 8.14933C13.1801 8.33233 13.0001 8.65333 13.0001 8.99933V10.9993C12.2631 10.9993 11.7631 11.4533 11.5841 11.7213C11.4311 11.9513 11.4931 12.2613 11.7231 12.4153C11.8081 12.4713 11.9041 12.4993 12.0001 12.4993C12.1611 12.4993 12.3201 12.4203 12.4161 12.2763C12.4181 12.2733 12.6181 11.9993 13.0001 11.9993V13.4993C11.3181 13.4993 10.0001 12.6203 10.0001 11.4993V6.46933C10.8221 6.73833 11.9031 6.99933 13.0001 6.99933C14.0971 6.99933 15.1781 6.73833 16.0001 6.46933V8.68233C15.1111 8.42633 14.4571 8.10933 14.4461 8.10333V8.10333ZM7.5001 8.9998C7.2241 8.9998 7.0001 9.2238 7.0001 9.4998C7.0001 9.7758 7.2241 9.9998 7.5001 9.9998C7.7761 9.9998 8.0001 9.7758 8.0001 9.4998C8.0001 9.2238 7.7761 8.9998 7.5001 8.9998ZM21.0001 10.4693V14.9993C21.0001 16.1553 19.6891 17.4993 18.0001 17.4993C16.3111 17.4993 15.0001 16.1553 15.0001 14.9993V10.4693C15.8221 10.7383 16.9031 10.9993 18.0001 10.9993C19.0971 10.9993 20.1781 10.7383 21.0001 10.4693V10.4693ZM8.5001 10.9998C8.2241 10.9998 8.0001 11.2238 8.0001 11.4998C8.0001 11.7758 8.2241 11.9998 8.5001 11.9998C8.7761 11.9998 9.0001 11.7758 9.0001 11.4998C9.0001 11.2238 8.7761 10.9998 8.5001 10.9998ZM27.0001 16.9993H22.4171C22.7751 16.3863 23.0001 15.7103 23.0001 14.9993V8.99933C23.0001 8.65333 22.8201 8.33233 22.5261 8.14933C22.2321 7.96633 21.8641 7.95033 21.5541 8.10333C21.5361 8.11333 19.7301 8.99933 18.0001 8.99933V4.99933C18.0001 4.65333 17.8201 4.33233 17.5261 4.14933C17.2321 3.96733 16.8631 3.95133 16.5541 4.10333C16.5361 4.11333 14.7301 4.99933 13.0001 4.99933C11.2701 4.99933 9.4641 4.11333 9.4461 4.10333C9.1361 3.95133 8.7691 3.96733 8.4741 4.14933C8.1801 4.33233 8.0001 4.65333 8.0001 4.99933V11.4993C8.0001 13.7793 10.1491 15.4993 13.0001 15.4993C13.0211 15.4993 13.0381 15.4883 13.0591 15.4873C13.2201 16.6943 13.9491 17.7823 15.0001 18.5213V26.9993C15.0001 27.5513 15.4481 27.9993 16.0001 27.9993H27.0001C27.5521 27.9993 28.0001 27.5513 28.0001 26.9993V17.9993C28.0001 17.4463 27.5521 16.9993 27.0001 16.9993V16.9993ZM10.5001 10.9998C10.2241 10.9998 10.0001 11.2238 10.0001 11.4998C10.0001 11.7758 10.2241 11.9998 10.5001 11.9998C10.7761 11.9998 11.0001 11.7758 11.0001 11.4998C11.0001 11.2238 10.7761 10.9998 10.5001 10.9998ZM19.5001 13.9969C19.7761 13.9969 20.0001 14.0669 20.0001 13.3309C20.0001 12.5949 19.7761 11.9989 19.5001 11.9989C19.2241 11.9989 19.0001 12.5949 19.0001 13.3309C19.0001 14.0669 19.2241 13.9969 19.5001 13.9969ZM17.0001 13.3308C17.0001 12.5948 16.7761 11.9988 16.5001 11.9988C16.2241 11.9988 16.0001 12.5948 16.0001 13.3308C16.0001 14.0668 16.2241 13.9968 16.5001 13.9968C16.7761 13.9968 17.0001 14.0668 17.0001 13.3308ZM17.4161 15.2215C17.2621 14.9915 16.9511 14.9295 16.7231 15.0825C16.4931 15.2365 16.4311 15.5465 16.5841 15.7765C16.7631 16.0445 17.2631 16.4985 18.0001 16.4985C18.7371 16.4985 19.2371 16.0445 19.4161 15.7765C19.5691 15.5465 19.5071 15.2365 19.2771 15.0825C19.0471 14.9295 18.7361 14.9915 18.5841 15.2215C18.5821 15.2245 18.3821 15.4985 18.0001 15.4985C17.6211 15.4985 17.4191 15.2265 17.4161 15.2215ZM11.5001 8.00033C11.2241 8.00033 11.0001 7.93133 11.0001 8.66733C11.0001 9.40233 11.2241 9.99933 11.5001 9.99933C11.7761 9.99933 12.0001 9.40233 12.0001 8.66733C12.0001 7.93133 11.7761 8.00033 11.5001 8.00033Z" fill="#323232"/>
</svg>
