<svg width="24" height="24" viewBox="0 0 24 24" fill="none" xmlns="http://www.w3.org/2000/svg">
<path fill-rule="evenodd" clip-rule="evenodd" d="M17 17H16V6.0002V6H17V17ZM14 5.21945V5C14 4.448 14.448 4 15 4H18C18.552 4 19 4.448 19 5V18C19 18.552 18.552 19 18 19H15C14.448 19 14 18.552 14 18V17.7809L13.1557 17.5699C12.5429 19.0101 11.1225 20.0002 9.5003 20.0002C7.2943 20.0002 5.5003 18.2052 5.5003 16.0002C5.5003 15.8867 5.50594 15.7737 5.51744 15.6603L3.11673 15.0601L1.447 15.895C1.306 15.965 1.153 16 1 16C0.817 16 0.635 15.95 0.474 15.851C0.18 15.668 0 15.347 0 15V8C0 7.653 0.18 7.332 0.474 7.149C0.769 6.967 1.138 6.951 1.447 7.105L3.11727 7.94013L14 5.21945ZM6.94874 13.9564L4 13.2192V9.7812L14 7.2812V15.7192L12.7091 15.3965L12.6963 15.3932L6.9733 13.9622C6.96512 13.9602 6.95693 13.9582 6.94874 13.9564ZM9.5003 18.0002C8.45041 18.0002 7.58648 17.1874 7.50633 16.1575L11.1661 17.0725C10.8121 17.6333 10.1932 18.0002 9.5003 18.0002ZM20.5005 7C20.3305 7 20.1655 6.914 20.0715 6.757C19.9295 6.521 20.0055 6.213 20.2425 6.071L22.7425 4.571C22.9795 4.429 23.2865 4.506 23.4285 4.743C23.5705 4.979 23.4945 5.287 23.2575 5.429L20.7575 6.929C20.6765 6.977 20.5875 7 20.5005 7ZM20.5 12H23.5C23.776 12 24 11.776 24 11.5C24 11.224 23.776 11 23.5 11H20.5C20.224 11 20 11.224 20 11.5C20 11.776 20.224 12 20.5 12ZM22.7425 18.429C22.8235 18.477 22.9125 18.5 22.9995 18.5C23.1695 18.5 23.3345 18.414 23.4285 18.257C23.5705 18.021 23.4945 17.713 23.2575 17.571L20.7575 16.071C20.5205 15.93 20.2125 16.006 20.0715 16.243C19.9295 16.479 20.0055 16.787 20.2425 16.929L22.7425 18.429Z" fill="#323232"/>
</svg>
