<svg width="32" height="32" viewBox="0 0 32 32" fill="none" xmlns="http://www.w3.org/2000/svg">
<path fill-rule="evenodd" clip-rule="evenodd" d="M6 22.997L26 23V9H6V22.997ZM27 25L5 24.997C4.448 24.997 4 24.549 4 23.997V8C4 7.447 4.448 7 5 7H27C27.552 7 28 7.447 28 8V24C28 24.266 27.895 24.519 27.707 24.707C27.52 24.894 27.265 25 27 25ZM14.5 19.9999C14.306 19.9999 14.122 19.8869 14.041 19.6969L13.3135 17.9999H9.68653L8.959 19.6969C8.851 19.9509 8.555 20.0679 8.303 19.9599C8.049 19.8509 7.932 19.5569 8.041 19.3029L11.041 12.3029C11.198 11.9359 11.802 11.9359 11.959 12.3029L14.959 19.3029C15.068 19.5569 14.951 19.8509 14.697 19.9599C14.633 19.9869 14.566 19.9999 14.5 19.9999ZM11.5 13.7699L12.8848 16.9999H10.1152L11.5 13.7699ZM20.5 19.9999H23.5C23.776 19.9999 24 19.7759 24 19.4999C24 19.2239 23.776 18.9999 23.5 18.9999H20.5C20.224 18.9999 20 19.2239 20 19.4999C20 19.7759 20.224 19.9999 20.5 19.9999ZM17 19C16.458 19 16 18.313 16 17.5C16 16.687 16.458 16 17 16C17.542 16 18 16.687 18 17.5C18 18.313 17.542 19 17 19ZM19 19V15.5C19 15.224 18.776 15 18.5 15C18.271 15 18.086 15.156 18.027 15.366C17.726 15.139 17.377 15 17 15C15.897 15 15 16.121 15 17.5C15 18.879 15.897 20 17 20C17.407 20 17.784 19.846 18.1 19.584C18.224 19.882 18.482 20 19 20C19.276 20 19.5 19.776 19.5 19.5C19.5 19.224 19.276 19 19 19Z" fill="#323232"/>
</svg>
