<svg width="24" height="24" viewBox="0 0 24 24" fill="none" xmlns="http://www.w3.org/2000/svg">
<path fill-rule="evenodd" clip-rule="evenodd" d="M6.87854 14.2845L6.35687 17.1365L15.8929 12.0145L6.36986 6.86753L6.88454 9.72153L11.2928 11.0515C11.7155 11.1785 12.0044 11.5685 12.0044 12.0105C12.0034 12.4515 11.7135 12.8405 11.2908 12.9665L6.87854 14.2845ZM4.99971 20.0005C4.79184 20.0005 4.58497 19.9355 4.41108 19.8085C4.10027 19.5825 3.94737 19.1985 4.01632 18.8205L5.0237 13.3215C5.09065 12.9515 5.35949 12.6515 5.72026 12.5435L7.52714 12.0035L5.72126 11.4595C5.36149 11.3505 5.09265 11.0495 5.02669 10.6795L4.03431 5.17853C3.96635 4.79953 4.12026 4.41553 4.43106 4.19053C4.74287 3.96453 5.15561 3.93753 5.4924 4.12053L18.4753 11.1385C18.7991 11.3125 19 11.6515 19 12.0195C18.999 12.3875 18.7971 12.7245 18.4733 12.8995L5.47242 19.8815C5.32351 19.9615 5.16161 20.0005 4.99971 20.0005Z" fill="#323232"/>
</svg>
