<svg width="24" height="24" viewBox="0 0 24 24" fill="none" xmlns="http://www.w3.org/2000/svg">
<path fill-rule="evenodd" clip-rule="evenodd" d="M8.6875 2C7.96263 2 7.375 2.58763 7.375 3.3125V7.375H3.3125C2.58763 7.375 2 7.96263 2 8.6875C2 9.41237 2.58763 10 3.3125 10H7.375C8.82475 10 10 8.82475 10 7.375V3.3125C10 2.58763 9.41237 2 8.6875 2ZM15.3125 2C16.0374 2 16.625 2.58763 16.625 3.3125V7.375H20.6875C21.4124 7.375 22 7.96263 22 8.6875C22 9.41237 21.4124 10 20.6875 10H16.625C15.1753 10 14 8.82475 14 7.375V3.3125C14 2.58763 14.5876 2 15.3125 2ZM20.6875 16.625C21.4124 16.625 22 16.0374 22 15.3125C22 14.5876 21.4124 14 20.6875 14H16.625C15.1753 14 14 15.1753 14 16.625V20.6875C14 21.4124 14.5876 22 15.3125 22C16.0374 22 16.625 21.4124 16.625 20.6875V16.625H20.6875ZM2 15.3125C2 16.0374 2.58763 16.625 3.3125 16.625H7.375V20.6875C7.375 21.4124 7.96263 22 8.6875 22C9.41237 22 10 21.4124 10 20.6875V16.625C10 15.1753 8.82475 14 7.375 14H3.3125C2.58763 14 2 14.5876 2 15.3125Z" fill="#323232"/>
</svg>
