<svg width="24" height="24" viewBox="0 0 24 24" fill="none" xmlns="http://www.w3.org/2000/svg">
<path fill-rule="evenodd" clip-rule="evenodd" d="M15.9971 20H8.00012V4H16.0001L15.9971 20ZM16.0001 2H8.00012C6.89712 2 6.00012 2.897 6.00012 4V20C6.00012 21.103 6.89712 22 8.00012 22H16.0001C17.1021 22 18.0001 21.103 18.0001 20V4C18.0001 2.897 17.1021 2 16.0001 2V2ZM12 17C11.447 17 11 17.448 11 18C11 18.552 11.447 19 12 19C12.553 19 13 18.552 13 18C13 17.448 12.553 17 12 17ZM10.5 6H13.5C13.776 6 14 5.776 14 5.5C14 5.224 13.776 5 13.5 5H10.5C10.224 5 10 5.224 10 5.5C10 5.776 10.224 6 10.5 6Z" fill="#323232"/>
</svg>
