<svg width="40" height="40" viewBox="0 0 40 40" fill="none" xmlns="http://www.w3.org/2000/svg">
<path d="M24.4538 30.8064C23.4866 31.3065 22.4632 31.6419 21.3936 31.8346C20.752 31.9505 20.1044 32.0017 19.525 32.0054C17.7223 31.9944 16.0794 31.609 14.5255 30.8418C14.3938 30.7772 14.3621 30.7381 14.4584 30.6052C15.3781 29.3355 16.5636 28.4524 18.1138 28.1268C20.5788 27.6096 22.9804 28.4585 24.505 30.665C24.5684 30.7589 24.5184 30.7735 24.4538 30.8064ZM26.2004 29.5868C25.1892 28.1121 23.8525 27.0571 22.1547 26.4753C21.0411 26.0936 19.8934 25.9813 18.7225 26.0753C17.0527 26.2094 15.5683 26.8022 14.2767 27.8694C13.6803 28.361 13.1631 28.9257 12.7326 29.5685C12.663 29.6721 11.486 31.9908 11.486 31.9908C14.1486 33.4995 20.3166 35.9852 27.5067 31.9908C27.5067 31.9908 26.2089 29.5989 26.2004 29.5868Z" fill="#323232"/>
<path d="M23.411 18.4032C23.2475 17.5506 22.9389 16.7651 22.3376 16.1224C21.5997 15.3344 20.663 15.0112 19.6031 14.9954C17.7101 14.9661 16.377 15.9126 15.7989 17.7153C15.4854 18.6922 15.4208 19.6961 15.5659 20.7084C15.7379 21.9049 16.1672 22.9965 17.0064 23.8893C17.8687 24.8078 18.9225 25.2164 20.1824 24.9663C21.0704 24.7907 21.7558 24.2796 22.2986 23.5734C23.1621 22.4501 23.5146 21.1572 23.539 19.7936C23.5219 19.3033 23.4963 18.8508 23.411 18.4032ZM20.5459 22.483C20.2507 22.8209 19.8934 23.0685 19.4067 23.0185C19.103 22.988 18.8579 22.8319 18.642 22.6294C18.1016 22.1196 17.804 21.4731 17.6406 20.7621C17.4308 19.8546 17.454 18.9472 17.7467 18.0592C17.9626 17.4018 18.4407 17.0688 19.125 17.014C19.4567 16.9871 19.7848 16.9883 20.1141 17.0408C20.7154 17.1371 21.0972 17.4896 21.2997 18.0544C21.4826 18.563 21.5253 19.0911 21.5326 19.6265C21.5229 20.6889 21.2594 21.6671 20.5459 22.483Z" fill="#323232"/>
<path d="M19.6576 10.3642C21.1388 10.3642 22.3397 9.16338 22.3397 7.6821C22.3397 6.20081 21.1388 5 19.6576 5C18.1763 5 16.9755 6.20081 16.9755 7.6821C16.9755 9.16338 18.1763 10.3642 19.6576 10.3642Z" fill="#323232"/>
<path d="M12.6821 13.7622C14.1634 13.7622 15.3642 12.5613 15.3642 11.0801C15.3642 9.59878 14.1634 8.39796 12.6821 8.39796C11.2008 8.39796 10 9.59878 10 11.0801C10 12.5613 11.2008 13.7622 12.6821 13.7622Z" fill="#323232"/>
<path d="M26.2745 13.9411C27.7558 13.9411 28.9566 12.7403 28.9566 11.2591C28.9566 9.77777 27.7558 8.57696 26.2745 8.57696C24.7932 8.57696 23.5924 9.77777 23.5924 11.2591C23.5924 12.7403 24.7932 13.9411 26.2745 13.9411Z" fill="#323232"/>
</svg>
