<svg width="24" height="24" viewBox="0 0 24 24" fill="none" xmlns="http://www.w3.org/2000/svg">
<path fill-rule="evenodd" clip-rule="evenodd" d="M16.5 21C16.771 21 17 20.771 17 20.5V15.5C17 15.229 16.771 15 16.5 15C16.229 15 16 15.229 16 15.5V20.5C16 20.771 16.229 21 16.5 21ZM7.5 15C7.229 15 7 15.229 7 15.5V20.5C7 20.771 7.229 21 7.5 21C7.771 21 8 20.771 8 20.5V15.5C8 15.229 7.771 15 7.5 15ZM2 11C2 5.486 6.486 1 12 1C17.514 1 22 5.486 22 11V16C22 17.542 20.542 19 19 19V20.5C19 21.878 17.878 23 16.5 23C15.122 23 14 21.878 14 20.5V15.5C14 14.122 15.122 13 16.5 13C17.878 13 19 14.122 19 15.5V17C19.449 17 20 16.449 20 16V11C20 6.589 16.411 3 12 3C7.589 3 4 6.589 4 11V16C4 16.449 4.551 17 5 17V15.5C5 14.122 6.122 13 7.5 13C8.878 13 10 14.122 10 15.5V20.5C10 21.878 8.878 23 7.5 23C6.122 23 5 21.878 5 20.5V19C3.458 19 2 17.542 2 16V11ZM17.4991 10.0001C17.2751 10.0001 17.0721 9.8491 17.0151 9.6211C16.5791 7.8771 14.8241 6.0001 12.0001 6.0001C9.1761 6.0001 7.4211 7.8771 6.9851 9.6211C6.9181 9.8891 6.6431 10.0521 6.3791 9.9851C6.1111 9.9181 5.9481 9.6461 6.0151 9.3791C6.5421 7.2701 8.6401 5.0001 12.0001 5.0001C15.3601 5.0001 17.4581 7.2701 17.9851 9.3791C18.0521 9.6461 17.8891 9.9181 17.6211 9.9851C17.5801 9.9951 17.5391 10.0001 17.4991 10.0001Z" fill="#323232"/>
</svg>
