<svg width="24" height="24" viewBox="0 0 24 24" fill="none" xmlns="http://www.w3.org/2000/svg">
<path fill-rule="evenodd" clip-rule="evenodd" d="M18 20H8.815C8.928 19.686 9 19.353 9 19V4H19V18.5C19 18.589 19.029 18.668 19.051 18.75C19.029 18.832 19 18.911 19 19C19 19.551 18.552 20 18 20V20ZM5 14H7V19C7 19.551 6.552 20 6 20C5.448 20 5 19.551 5 19V14ZM21 3C21 2.448 20.553 2 20 2H8C7.447 2 7 2.448 7 3V12H4C3.447 12 3 12.448 3 13V19C3 20.654 4.346 22 6 22H18C19.654 22 21 20.654 21 19C21 18.911 20.972 18.832 20.949 18.75C20.972 18.668 21 18.589 21 18.5V3Z" fill="#323232"/>
<path fill-rule="evenodd" clip-rule="evenodd" d="M16.5 6H11.5C11.224 6 11 6.224 11 6.5C11 6.776 11.224 7 11.5 7H16.5C16.776 7 17 6.776 17 6.5C17 6.224 16.776 6 16.5 6ZM16.5 8H11.5C11.224 8 11 8.224 11 8.5C11 8.776 11.224 9 11.5 9H16.5C16.776 9 17 8.776 17 8.5C17 8.224 16.776 8 16.5 8ZM11.5 10H14.5C14.776 10 15 10.224 15 10.5C15 10.776 14.776 11 14.5 11H11.5C11.224 11 11 10.776 11 10.5C11 10.224 11.224 10 11.5 10ZM13.5 13H11.5C11.224 13 11 13.224 11 13.5C11 13.776 11.224 14 11.5 14H13.5C13.776 14 14 13.776 14 13.5C14 13.224 13.776 13 13.5 13ZM15.5 13H16.5C16.776 13 17 13.224 17 13.5C17 13.776 16.776 14 16.5 14H15.5C15.224 14 15 13.776 15 13.5C15 13.224 15.224 13 15.5 13ZM13.5 15H11.5C11.224 15 11 15.224 11 15.5C11 15.776 11.224 16 11.5 16H13.5C13.776 16 14 15.776 14 15.5C14 15.224 13.776 15 13.5 15ZM15.5 15H16.5C16.776 15 17 15.224 17 15.5C17 15.776 16.776 16 16.5 16H15.5C15.224 16 15 15.776 15 15.5C15 15.224 15.224 15 15.5 15ZM13.5 17H11.5C11.224 17 11 17.224 11 17.5C11 17.776 11.224 18 11.5 18H13.5C13.776 18 14 17.776 14 17.5C14 17.224 13.776 17 13.5 17ZM15.5 17H16.5C16.776 17 17 17.224 17 17.5C17 17.776 16.776 18 16.5 18H15.5C15.224 18 15 17.776 15 17.5C15 17.224 15.224 17 15.5 17Z" fill="#323232"/>
</svg>
