<svg width="24" height="24" viewBox="0 0 24 24" fill="none" xmlns="http://www.w3.org/2000/svg">
<path fill-rule="evenodd" clip-rule="evenodd" d="M12 19C8.141 19 5 15.86 5 12C5 8.14 8.141 5 12 5C15.859 5 19 8.14 19 12C19 15.86 15.859 19 12 19ZM12 3C7.037 3 3 7.038 3 12C3 16.962 7.037 21 12 21C16.963 21 21 16.962 21 12C21 7.038 16.963 3 12 3ZM11.707 8.293C11.316 7.902 10.684 7.902 10.293 8.293C9.902 8.684 9.902 9.316 10.293 9.707L12.586 12L10.293 14.293C9.902 14.684 9.902 15.316 10.293 15.707C10.488 15.902 10.744 16 11 16C11.256 16 11.512 15.902 11.707 15.707L14.707 12.707C15.098 12.316 15.098 11.684 14.707 11.293L11.707 8.293Z" fill="#323232"/>
</svg>
