<svg width="64" height="64" viewBox="0 0 64 64" fill="none" xmlns="http://www.w3.org/2000/svg">
<path fill-rule="evenodd" clip-rule="evenodd" d="M4 8C1.79086 8 0 9.79086 0 12V26C0 28.2091 1.79086 30 4 30H29.1429L28 28.5L29.1429 27H3V11H61V27H63.874C63.9562 26.6804 64 26.3453 64 26V12C64 9.79086 62.2091 8 60 8H4ZM59 27C59 32.512 55.5696 37.2227 50.7273 39.1138V42.1365C50.7273 42.2708 50.6732 42.3995 50.5773 42.4935L49.4365 43.6117C49.2438 43.8006 49.2357 44.1082 49.4182 44.3069L53.6895 48.9588C53.8651 49.1501 53.8651 49.4439 53.6895 49.6352L49.4182 54.287C49.2357 54.4858 49.2438 54.7934 49.4365 54.9823L50.5773 56.1004C50.6732 56.1945 50.7273 56.3232 50.7273 56.4575V60.7555C50.7273 60.9422 50.6233 61.1133 50.4576 61.1993L47.3168 62.8289C47.121 62.9305 46.8818 62.8917 46.728 62.7336L42.2829 58.1605C42.1015 57.9739 42 57.7238 42 57.4635V39.373C36.7775 37.6859 33 32.7841 33 27C33 19.8203 38.8203 14 46 14C53.1797 14 59 19.8203 59 27ZM51.942 23.675C51.5878 21.2173 49.6069 19.3088 47.125 19.0338C45.5619 18.8608 43.9972 19.3567 42.8329 20.3948C41.6681 21.4336 41 22.9223 41 24.4791H43.619C43.619 23.6637 43.9692 22.8837 44.5796 22.3393C45.1983 21.7877 45.9997 21.5349 46.8356 21.6275C48.1312 21.771 49.165 22.7655 49.3496 24.0459C49.5338 25.3245 48.8759 26.5456 47.7122 27.0845C46.1803 27.7939 45.1905 29.3308 45.1905 31H47.8095C47.8095 30.3422 48.2045 29.7342 48.816 29.4511C51.0355 28.4232 52.2918 26.102 51.942 23.675ZM48 33.5C48 34.3284 47.3284 35 46.5 35C45.6716 35 45 34.3284 45 33.5C45 32.6716 45.6716 32 46.5 32C47.3284 32 48 32.6716 48 33.5ZM8 14C7.44772 14 7 14.4477 7 15V23C7 23.5523 7.44772 24 8 24C8.55229 24 9 23.5523 9 23V15C9 14.4477 8.55229 14 8 14Z" fill="#323232"/>
</svg>
