<svg width="24" height="24" viewBox="0 0 24 24" fill="none" xmlns="http://www.w3.org/2000/svg">
<path fill-rule="evenodd" clip-rule="evenodd" d="M8.44891 20.25H2.83334C1.7865 20.2491 0.999085 19.4598 1 18.4148C1.00092 17.3698 1.78833 16.5833 2.83242 16.5833H2.83425C3.024 16.5833 3.25775 16.4669 3.44567 16.279C3.63267 16.0911 3.75 15.8573 3.75 15.6667V11.0833C3.75 6.84469 6.96357 3.34157 11.083 2.88396V1.91667C11.083 1.41067 11.4936 1 11.9996 1C12.5056 1 12.9163 1.41067 12.9163 1.91667V2.8839C17.0353 3.34125 20.25 6.84449 20.25 11.0833V15.6667C20.25 15.8573 20.3664 16.0911 20.5543 16.279C20.7413 16.4669 20.976 16.5833 21.1648 16.5833H21.1658H21.1667C22.2117 16.5833 22.9991 17.3698 23 18.4148C23.0009 19.4598 22.2126 20.2491 21.1667 20.25H15.5504C15.1424 21.8299 13.7054 23 11.9996 23C10.2939 23 8.85686 21.8299 8.44891 20.25ZM10.4123 20.25C10.7297 20.7976 11.3223 21.1667 11.9996 21.1667C12.677 21.1667 13.2696 20.7976 13.587 20.25H10.4123ZM12 4.66667C11.9999 4.66667 11.9998 4.66667 11.9996 4.66667C8.46147 4.66687 5.58334 7.54512 5.58334 11.0833V15.6667C5.58334 16.345 5.27625 17.0408 4.74183 17.5761C4.20742 18.1105 3.51258 18.4167 2.83517 18.4167H21.163C20.4865 18.4167 19.7917 18.1105 19.2582 17.5761C18.7228 17.0408 18.4167 16.345 18.4167 15.6667V11.0833C18.4167 7.545 15.5374 4.66667 12 4.66667V4.66667ZM16.1246 15.6667C15.8716 15.6667 15.6663 15.4613 15.6663 15.2083V10.1667C15.6663 9.4425 15.3876 8.75958 14.8807 8.24258C14.7038 8.062 14.7066 7.77142 14.8871 7.5945C15.0686 7.41667 15.3583 7.41942 15.5352 7.60092C16.2108 8.29025 16.583 9.20142 16.583 10.1667V15.2083C16.583 15.4613 16.3776 15.6667 16.1246 15.6667Z" fill="#323232"/>
</svg>
