<svg width="24" height="24" viewBox="0 0 24 24" fill="none" xmlns="http://www.w3.org/2000/svg">
<mask id="mask0_8_2869" style="mask-type:alpha" maskUnits="userSpaceOnUse" x="2" y="4" width="20" height="17">
<path d="M9.28485 14.9092C11.1003 14.9092 12.4767 15.2283 13.8412 16.0892C13.0449 16.2856 12.3249 16.6156 11.6485 17.0874C10.7667 16.7901 9.92121 16.7274 9.28485 16.7274V16.7256C8.00758 16.7274 5.72031 17.0683 4.86212 18.5456H10.2812C9.91576 19.0747 9.6594 19.6856 9.84576 20.2147C9.86576 20.271 9.90758 20.3119 9.93576 20.3638H3.75303C0.440305 20.3638 2.63667 17.6265 3.75303 16.7274C5.37576 15.4201 7.06667 14.9092 9.28031 14.9092L9.28485 14.9147V14.9092ZM16.4139 16.7555L16.5858 16.7573C18.0039 16.7818 19.0794 17.1146 20.0549 17.8255C20.4739 18.1328 21.4994 19.0809 21.2149 19.7846C21.0594 20.1691 20.5967 20.3637 19.8385 20.3637H12.9839C12.2221 20.3637 11.7576 20.1664 11.6039 19.78C11.3194 19.0628 12.3494 18.1246 12.7703 17.8237C13.7239 17.1428 14.7549 16.8091 16.0758 16.7618V16.7591L16.2294 16.7573C16.2903 16.7564 16.3521 16.7555 16.4139 16.7555ZM16.4167 18.3618C15.8003 18.3618 15.0394 18.4728 14.5012 18.7582H18.343C17.8085 18.4728 17.0412 18.3618 16.4167 18.3618ZM16.4138 9.72439C18.0165 9.72439 19.0119 10.8917 19.0119 12.7698C19.0119 14.3462 18.0183 16.048 16.4138 16.048C14.8101 16.048 13.8165 14.3462 13.8165 12.7698C13.8165 10.8917 14.8119 9.72439 16.4138 9.72439ZM16.4578 11.5353H16.377C15.9878 11.5366 15.6301 11.5749 15.6301 12.7235C15.6301 13.5444 16.1138 14.238 16.4174 14.238C16.721 14.238 17.2047 13.5444 17.2047 12.7235C17.2047 11.5353 16.8229 11.5353 16.4174 11.5353L16.4578 11.5353ZM9.28103 4.00012C11.5583 4.00012 12.9174 5.62921 12.9174 8.35739C12.9174 10.6338 11.5274 13.091 9.28103 13.091C7.03467 13.091 5.64467 10.6338 5.64467 8.35739C5.64467 5.62921 7.00376 4.00012 9.28103 4.00012ZM9.34517 5.81858H9.2278C8.32867 5.82733 7.46831 6.05668 7.46831 8.28194C7.46831 9.79103 8.36831 11.2728 9.28649 11.2728C10.2047 11.2728 11.1047 9.79103 11.1047 8.28194C11.1047 6.0083 10.2065 5.8183 9.28649 5.8183L9.34517 5.81858Z" fill="white"/>
</mask>
<g mask="url(#mask0_8_2869)">
<path d="M9.28485 14.9092C11.1003 14.9092 12.4767 15.2283 13.8412 16.0892C13.0449 16.2856 12.3249 16.6156 11.6485 17.0874C10.7667 16.7901 9.92121 16.7274 9.28485 16.7274V16.7256C8.00758 16.7274 5.72031 17.0683 4.86212 18.5456H10.2812C9.91576 19.0747 9.6594 19.6856 9.84576 20.2147C9.86576 20.271 9.90758 20.3119 9.93576 20.3638H3.75303C0.440305 20.3638 2.63667 17.6265 3.75303 16.7274C5.37576 15.4201 7.06667 14.9092 9.28031 14.9092L9.28485 14.9147V14.9092ZM16.4139 16.7555L16.5858 16.7573C18.0039 16.7818 19.0794 17.1146 20.0549 17.8255C20.4739 18.1328 21.4994 19.0809 21.2149 19.7846C21.0594 20.1691 20.5967 20.3637 19.8385 20.3637H12.9839C12.2221 20.3637 11.7576 20.1664 11.6039 19.78C11.3194 19.0628 12.3494 18.1246 12.7703 17.8237C13.7239 17.1428 14.7549 16.8091 16.0758 16.7618V16.7591L16.2294 16.7573C16.2903 16.7564 16.3521 16.7555 16.4139 16.7555ZM16.4167 18.3618C15.8003 18.3618 15.0394 18.4728 14.5012 18.7582H18.343C17.8085 18.4728 17.0412 18.3618 16.4167 18.3618ZM16.4138 9.72439C18.0165 9.72439 19.0119 10.8917 19.0119 12.7698C19.0119 14.3462 18.0183 16.048 16.4138 16.048C14.8101 16.048 13.8165 14.3462 13.8165 12.7698C13.8165 10.8917 14.8119 9.72439 16.4138 9.72439ZM16.4578 11.5353H16.377C15.9878 11.5366 15.6301 11.5749 15.6301 12.7235C15.6301 13.5444 16.1138 14.238 16.4174 14.238C16.721 14.238 17.2047 13.5444 17.2047 12.7235C17.2047 11.5353 16.8229 11.5353 16.4174 11.5353L16.4578 11.5353ZM9.28103 4.00012C11.5583 4.00012 12.9174 5.62921 12.9174 8.35739C12.9174 10.6338 11.5274 13.091 9.28103 13.091C7.03467 13.091 5.64467 10.6338 5.64467 8.35739C5.64467 5.62921 7.00376 4.00012 9.28103 4.00012ZM9.34517 5.81858H9.2278C8.32867 5.82733 7.46831 6.05668 7.46831 8.28194C7.46831 9.79103 8.36831 11.2728 9.28649 11.2728C10.2047 11.2728 11.1047 9.79103 11.1047 8.28194C11.1047 6.0083 10.2065 5.8183 9.28649 5.8183L9.34517 5.81858Z" fill="#323232"/>
<path d="M24 0.5H0V24.5H24V0.5Z" fill="#323232"/>
</g>
</svg>
