<svg width="24" height="24" viewBox="0 0 24 24" fill="none" xmlns="http://www.w3.org/2000/svg">
<path fill-rule="evenodd" clip-rule="evenodd" d="M10.9486 15.709L10.8266 15.752L8.71056 13.635L12.8886 9.455L15.0466 11.612L10.9486 15.709ZM8.15256 14.491L9.77856 16.118L7.47556 16.924L8.15256 14.491ZM19.2076 8.865L15.6356 5.293C15.4486 5.105 15.1946 5 14.9286 5C14.6636 5 14.4096 5.105 14.2216 5.293L6.66756 12.849C6.54556 12.971 6.45756 13.122 6.41056 13.288L5.03656 18.232C4.93656 18.591 5.04556 18.976 5.31656 19.23C5.50556 19.406 5.75056 19.5 6.00056 19.5C6.11156 19.5 6.22256 19.481 6.33056 19.444L11.8246 17.521C11.9666 17.472 12.0946 17.391 12.2016 17.284L19.2076 10.279C19.5976 9.889 19.5976 9.256 19.2076 8.865Z" fill="#323232"/>
</svg>
