<svg width="24" height="24" viewBox="0 0 24 24" fill="none" xmlns="http://www.w3.org/2000/svg">
<path fill-rule="evenodd" clip-rule="evenodd" d="M15.2599 3C15.5598 3 15.8445 3.0636 16.1011 3.17739L14.2413 5H4.03998V19H15.2599V18L17.2999 16V19C17.2999 20.1046 16.3866 21 15.2599 21H4.03998C2.91331 21 2 20.1046 2 19V5C2 3.89541 2.91331 3 4.03998 3H15.2599V3ZM8.11995 15V17H7.09995C6.53698 17 6.07996 16.5519 6.07996 16C6.07996 15.4481 6.53698 15 7.09995 15H8.11995V15ZM18.3386 4.30035L22.0935 7.98163C22.5022 8.38233 22.5022 9.03251 22.0935 9.43322L14.6825 16.6989C14.4864 16.8912 14.2197 16.9993 13.9422 16.9993H10.1873C9.6092 16.9993 9.13994 16.5399 9.13994 15.9724V12.2912C9.13994 12.0191 9.25023 11.7576 9.44629 11.5654L16.8573 4.29965C17.266 3.89894 17.9292 3.89894 18.3379 4.29965L18.3386 4.30035ZM17.555 6.49965L11.1799 12.7498V15H13.4751L19.8502 8.74982L17.555 6.49965ZM8.11995 11V13H7.09995C6.53698 13 6.07996 12.5519 6.07996 12C6.07996 11.4481 6.53698 11 7.09995 11H8.11995ZM12.1999 7L10.1599 9H7.09995C6.53698 9 6.07996 8.55194 6.07996 8C6.07996 7.44806 6.53698 7 7.09995 7H12.1999Z" fill="#323232"/>
</svg>
