<svg width="32" height="32" viewBox="0 0 32 32" fill="none" xmlns="http://www.w3.org/2000/svg">
<path fill-rule="evenodd" clip-rule="evenodd" d="M4 7C4 6.447 4.448 6 5 6H27C27.552 6 28 6.447 28 7V8.5625V11L26 9V8.5V8H6V23H4V7ZM26 21V16L28 14V15.5V22C28 22.553 27.552 23 27 23H14V21H26ZM7 13C7 12.4477 7.44772 12 8 12H12C12.5523 12 13 12.4477 13 13V25C13 25.5523 12.5523 26 12 26H8C7.44772 26 7 25.5523 7 25V13ZM8 13H12V25H8V24H9.5C9.77614 24 10 23.7761 10 23.5C10 23.2239 9.77614 23 9.5 23H8V21H9.5C9.77614 21 10 20.7761 10 20.5C10 20.2239 9.77614 20 9.5 20H8V18H9.5C9.77614 18 10 17.7761 10 17.5C10 17.2239 9.77614 17 9.5 17H8V15H9.5C9.77614 15 10 14.7761 10 14.5C10 14.2239 9.77614 14 9.5 14H8V13ZM22.0733 17.2196L19.7803 14.9266L22.6768 12.0301L24.9698 14.3231L22.0733 17.2196ZM19.0003 18.0001L19.4318 15.2851L21.7148 17.5681L19.0003 18.0001ZM27.8538 12.1466L24.8538 9.14662C24.6583 8.95112 24.3418 8.95112 24.1463 9.14662L18.6463 14.6466C18.5918 14.7011 18.5503 14.7681 18.5258 14.8416L18.0258 18.3416C17.9658 18.5216 18.0123 18.7196 18.1463 18.8536C18.2418 18.9486 18.3698 19.0001 18.5003 19.0001C18.5528 19.0001 18.6063 18.9916 18.6583 18.9741L22.1583 18.4741C22.2318 18.4496 22.2988 18.4081 22.3538 18.3536L27.8538 12.8536C28.0488 12.6581 28.0488 12.3416 27.8538 12.1466Z" fill="#323232"/>
</svg>
