<svg width="24" height="24" viewBox="0 0 24 24" fill="none" xmlns="http://www.w3.org/2000/svg">
<path fill-rule="evenodd" clip-rule="evenodd" d="M2 14H16V4H2V14ZM17 16H1C0.448 16 0 15.552 0 15V3C0 2.448 0.448 2 1 2H17C17.552 2 18 2.448 18 3V15C18 15.552 17.552 16 17 16ZM23 22H6C5.448 22 5 21.552 5 21C5 20.448 5.448 20 6 20H22V8C22 7.448 22.448 7 23 7C23.552 7 24 7.448 24 8V21C24 21.552 23.552 22 23 22ZM4 19H20C20.552 19 21 18.552 21 18V6C21 5.448 20.552 5 20 5C19.448 5 19 5.448 19 6V17H4C3.448 17 3 17.448 3 18C3 18.552 3.448 19 4 19Z" fill="#323232"/>
</svg>
