<svg width="24" height="24" viewBox="0 0 24 24" fill="none" xmlns="http://www.w3.org/2000/svg">
<path fill-rule="evenodd" clip-rule="evenodd" d="M6.54044 9.552L9.81289 11.6355C9.92844 11.709 10 11.8485 10 12C10 12.151 9.92844 12.2905 9.81289 12.364L6.54044 14.4475C6.48533 14.482 6.42444 14.5 6.36356 14.5C6.3 14.5 6.236 14.4805 6.17911 14.442C6.068 14.3675 6 14.2305 6 14.083L6 9.9165C6 9.769 6.068 9.632 6.17911 9.5575C6.236 9.519 6.3 9.5 6.36356 9.5C6.42444 9.5 6.48533 9.517 6.54044 9.552ZM16 19C16 19.5523 16.4477 20 17 20C17.5523 20 18 19.5523 18 19V5C18 4.44771 17.5523 4 17 4C16.4477 4 16 4.44771 16 5V19Z" fill="#323232"/>
<mask id="mask0_8_4118" style="mask-type:alpha" maskUnits="userSpaceOnUse" x="6" y="4" width="12" height="16">
<path fill-rule="evenodd" clip-rule="evenodd" d="M6.54044 9.552L9.81289 11.6355C9.92844 11.709 10 11.8485 10 12C10 12.151 9.92844 12.2905 9.81289 12.364L6.54044 14.4475C6.48533 14.482 6.42444 14.5 6.36356 14.5C6.3 14.5 6.236 14.4805 6.17911 14.442C6.068 14.3675 6 14.2305 6 14.083L6 9.9165C6 9.769 6.068 9.632 6.17911 9.5575C6.236 9.519 6.3 9.5 6.36356 9.5C6.42444 9.5 6.48533 9.517 6.54044 9.552ZM16 19C16 19.5523 16.4477 20 17 20C17.5523 20 18 19.5523 18 19V5C18 4.44771 17.5523 4 17 4C16.4477 4 16 4.44771 16 5V19Z" fill="white"/>
</mask>
<g mask="url(#mask0_8_4118)">
</g>
</svg>
