<svg width="24" height="24" viewBox="0 0 24 24" fill="none" xmlns="http://www.w3.org/2000/svg">
<path fill-rule="evenodd" clip-rule="evenodd" d="M14.448 6.54044L12.3645 9.81289C12.291 9.92844 12.1515 10 12 10C11.849 10 11.7095 9.92844 11.636 9.81289L9.5525 6.54044C9.518 6.48533 9.5 6.42444 9.5 6.36356C9.5 6.3 9.5195 6.236 9.558 6.17911C9.6325 6.068 9.7695 6 9.917 6H14.0835C14.231 6 14.368 6.068 14.4425 6.17911C14.481 6.236 14.5 6.3 14.5 6.36356C14.5 6.42444 14.483 6.48533 14.448 6.54044ZM5 16C4.44772 16 4 16.4477 4 17C4 17.5523 4.44772 18 5 18H19C19.5523 18 20 17.5523 20 17C20 16.4477 19.5523 16 19 16H5Z" fill="#323232"/>
</svg>
