<svg width="24" height="24" viewBox="0 0 24 24" fill="none" xmlns="http://www.w3.org/2000/svg">
<path fill-rule="evenodd" clip-rule="evenodd" d="M14.448 17.4596L12.3645 14.1871C12.291 14.0716 12.1515 14 12 14C11.849 14 11.7095 14.0716 11.636 14.1871L9.5525 17.4596C9.518 17.5147 9.5 17.5756 9.5 17.6364C9.5 17.7 9.5195 17.764 9.558 17.8209C9.6325 17.932 9.7695 18 9.917 18H14.0835C14.231 18 14.368 17.932 14.4425 17.8209C14.481 17.764 14.5 17.7 14.5 17.6364C14.5 17.5756 14.483 17.5147 14.448 17.4596ZM5 8C4.44772 8 4 7.55229 4 7C4 6.44771 4.44772 6 5 6H19C19.5523 6 20 6.44771 20 7C20 7.55229 19.5523 8 19 8H5Z" fill="#323232"/>
</svg>
