<svg width="24" height="24" viewBox="0 0 24 24" fill="none" xmlns="http://www.w3.org/2000/svg">
<path fill-rule="evenodd" clip-rule="evenodd" d="M17.4596 14.448L14.1871 12.3645C14.0716 12.291 14 12.1515 14 12C14 11.849 14.0716 11.7095 14.1871 11.636L17.4596 9.5525C17.5147 9.518 17.5756 9.5 17.6364 9.5C17.7 9.5 17.764 9.5195 17.8209 9.558C17.932 9.6325 18 9.7695 18 9.917V14.0835C18 14.231 17.932 14.368 17.8209 14.4425C17.764 14.481 17.7 14.5 17.6364 14.5C17.5756 14.5 17.5147 14.483 17.4596 14.448ZM8 5C8 4.44772 7.55229 4 7 4C6.44771 4 6 4.44772 6 5L6 19C6 19.5523 6.44771 20 7 20C7.55229 20 8 19.5523 8 19L8 5Z" fill="#323232"/>
<mask id="mask0_8_4111" style="mask-type:alpha" maskUnits="userSpaceOnUse" x="6" y="4" width="12" height="16">
<path fill-rule="evenodd" clip-rule="evenodd" d="M17.4596 14.448L14.1871 12.3645C14.0716 12.291 14 12.1515 14 12C14 11.849 14.0716 11.7095 14.1871 11.636L17.4596 9.5525C17.5147 9.518 17.5756 9.5 17.6364 9.5C17.7 9.5 17.764 9.5195 17.8209 9.558C17.932 9.6325 18 9.7695 18 9.917V14.0835C18 14.231 17.932 14.368 17.8209 14.4425C17.764 14.481 17.7 14.5 17.6364 14.5C17.5756 14.5 17.5147 14.483 17.4596 14.448ZM8 5C8 4.44772 7.55229 4 7 4C6.44771 4 6 4.44772 6 5L6 19C6 19.5523 6.44771 20 7 20C7.55229 20 8 19.5523 8 19L8 5Z" fill="white"/>
</mask>
<g mask="url(#mask0_8_4111)">
</g>
</svg>
