<svg width="32" height="32" viewBox="0 0 32 32" fill="none" xmlns="http://www.w3.org/2000/svg">
<path fill-rule="evenodd" clip-rule="evenodd" d="M25 5C25 4.448 24.552 4 24 4H8C7.448 4 7 4.448 7 5V27C7 27.552 7.448 28 8 28H24C24.552 28 25 27.552 25 27V20C25 19.448 24.552 19 24 19C23.448 19 23 19.448 23 20V26H9V6H23V11C23 11.552 23.448 12 24 12C24.552 12 25 11.552 25 11V5ZM15 24C15 24.552 15.448 25 16 25C16.552 25 17 24.552 17 24C17 23.448 16.552 23 16 23C15.448 23 15 23.448 15 24ZM16.9996 9.5016C16.9996 9.2996 17.1216 9.1166 17.3086 9.0396C17.4956 8.9616 17.7106 9.0046 17.8536 9.1476L24.8516 16.1446C24.9956 16.2886 25.0376 16.5026 24.9606 16.6896C24.8826 16.8766 24.7006 16.9986 24.4986 16.9986H20.7086L17.8536 19.8536C17.7576 19.9496 17.6296 19.9996 17.4996 19.9996C17.4356 19.9996 17.3706 19.9876 17.3086 19.9616C17.1216 19.8846 16.9996 19.7026 16.9996 19.4996V9.5016Z" fill="#323232"/>
</svg>
