<svg width="32" height="32" viewBox="0 0 32 32" fill="none" xmlns="http://www.w3.org/2000/svg">
<path d="M16 0C12.8355 0 9.74207 0.938383 7.11088 2.69649C4.4797 4.45459 2.42894 6.95345 1.21793 9.87706C0.0069325 12.8007 -0.309921 16.0177 0.307443 19.1214C0.924806 22.2251 2.44866 25.0761 4.6863 27.3137C6.92394 29.5513 9.77486 31.0752 12.8786 31.6926C15.9823 32.3099 19.1993 31.9931 22.1229 30.7821C25.0466 29.5711 27.5454 27.5203 29.3035 24.8891C31.0616 22.2579 32 19.1645 32 16C32 11.7565 30.3143 7.68687 27.3137 4.68629C24.3131 1.68571 20.2435 0 16 0Z" fill="#8723FF"/>
<path d="M16.0001 1.67999C18.8323 1.67999 21.6009 2.51985 23.9558 4.09335C26.3107 5.66685 28.1462 7.90333 29.23 10.52C30.3139 13.1366 30.5974 16.0159 30.0449 18.7937C29.4924 21.5715 28.1285 24.1231 26.1258 26.1258C24.1231 28.1284 21.5716 29.4923 18.7938 30.0448C16.0159 30.5974 13.1367 30.3138 10.52 29.2299C7.90339 28.1461 5.66691 26.3107 4.09341 23.9558C2.51991 21.6008 1.68005 18.8322 1.68005 16C1.68005 12.2021 3.18877 8.55974 5.87429 5.87422C8.55981 3.1887 12.2022 1.67999 16.0001 1.67999Z" fill="white"/>
<path fill-rule="evenodd" clip-rule="evenodd" d="M17.56 13.02C18.3162 13.0189 19.0586 13.2229 19.708 13.6104C20.3574 13.9979 20.8895 14.5542 21.2477 15.2203C21.6059 15.8863 21.7766 16.637 21.7418 17.3925C21.707 18.1479 21.4679 18.8797 21.05 19.51L23.18 21.63C23.2908 21.7937 23.3403 21.9912 23.3199 22.1878C23.2994 22.3845 23.2103 22.5676 23.0681 22.705C22.926 22.8423 22.7399 22.9252 22.5427 22.9389C22.3455 22.9526 22.1498 22.8964 21.99 22.78L19.87 20.66C19.1866 21.1176 18.3824 21.3613 17.56 21.36C16.4854 21.3075 15.4722 20.8436 14.7303 20.0645C13.9884 19.2854 13.5746 18.2508 13.5746 17.175C13.5746 16.0992 13.9884 15.0646 14.7303 14.2855C15.4722 13.5064 16.4854 13.0425 17.56 12.99V13.02ZM9.39996 17.31C9.59945 17.3109 9.79175 17.3846 9.94085 17.5171C10.09 17.6496 10.1856 17.832 10.21 18.03V20.68H12.81C13.0274 20.6667 13.2413 20.7404 13.4044 20.8848C13.5676 21.0292 13.6667 21.2325 13.68 21.45C13.6932 21.6675 13.6195 21.8813 13.4751 22.0445C13.3307 22.2076 13.1274 22.3067 12.91 22.32H10.22C9.80248 22.3184 9.40114 22.1586 9.09681 21.8728C8.79247 21.5871 8.60778 21.1965 8.57996 20.78V18.13C8.58255 17.9133 8.66978 17.7063 8.823 17.553C8.97622 17.3998 9.18328 17.3126 9.39996 17.31ZM17.56 14.69C17.0635 14.69 16.5782 14.8372 16.1655 15.113C15.7527 15.3888 15.431 15.7808 15.241 16.2395C15.051 16.6981 15.0013 17.2028 15.0982 17.6897C15.195 18.1766 15.4341 18.6238 15.7851 18.9748C16.1361 19.3259 16.5834 19.5649 17.0703 19.6618C17.5572 19.7586 18.0618 19.7089 18.5205 19.5189C18.9791 19.329 19.3711 19.0072 19.6469 18.5945C19.9227 18.1817 20.07 17.6964 20.07 17.2C20.07 16.5343 19.8055 15.8959 19.3348 15.4252C18.8641 14.9544 18.2256 14.69 17.56 14.69ZM12.81 8.94C13.0274 8.92674 13.2413 9.00041 13.4044 9.14481C13.5676 9.28922 13.6667 9.49252 13.68 9.71C13.6932 9.92748 13.6195 10.1413 13.4751 10.3045C13.3307 10.4676 13.1274 10.5667 12.91 10.58H10.22V13.13C10.2332 13.3475 10.1595 13.5613 10.0151 13.7245C9.87073 13.8876 9.66743 13.9867 9.44995 14C9.23248 14.0133 9.01864 13.9396 8.85548 13.7952C8.69233 13.6508 8.59322 13.4475 8.57996 13.23V10.59C8.58097 10.1773 8.73658 9.78001 9.01611 9.47642C9.29563 9.17284 9.67877 8.98501 10.09 8.95H12.81V8.94ZM21.81 8.94C22.2476 8.94 22.6672 9.11384 22.9767 9.42327C23.2861 9.73271 23.46 10.1524 23.46 10.59V13.14C23.4376 13.3431 23.341 13.5309 23.1888 13.6673C23.0365 13.8036 22.8393 13.879 22.635 13.879C22.4306 13.879 22.2334 13.8036 22.0812 13.6673C21.9289 13.5309 21.8324 13.3431 21.81 13.14V10.59H19.23C19.114 10.6028 18.9966 10.591 18.8855 10.5554C18.7744 10.5197 18.6721 10.4611 18.5852 10.3832C18.4983 10.3054 18.4288 10.2101 18.3812 10.1036C18.3336 9.99703 18.309 9.88167 18.309 9.765C18.309 9.64833 18.3336 9.53296 18.3812 9.42644C18.4288 9.31992 18.4983 9.22462 18.5852 9.14677C18.6721 9.06893 18.7744 9.01028 18.8855 8.97465C18.9966 8.93902 19.114 8.92721 19.23 8.94H21.81Z" fill="#8723FF"/>
</svg>
