<svg width="32" height="32" viewBox="0 0 32 32" fill="none" xmlns="http://www.w3.org/2000/svg">
<path fill-rule="evenodd" clip-rule="evenodd" d="M21.5001 8.49976C22.8781 8.49976 24.0001 9.62076 24.0001 10.9998C24.0001 12.3788 22.8781 13.4998 21.5001 13.4998C20.1221 13.4998 19.0001 12.3788 19.0001 10.9998C19.0001 9.62076 20.1221 8.49976 21.5001 8.49976M21.5001 15.4998C23.9811 15.4998 26.0001 13.4808 26.0001 10.9998C26.0001 8.51876 23.9811 6.49976 21.5001 6.49976C19.0191 6.49976 17.0001 8.51876 17.0001 10.9998C17.0001 13.4808 19.0191 15.4998 21.5001 15.4998" fill="#323232"/>
<path fill-rule="evenodd" clip-rule="evenodd" d="M12.2844 11.407C12.0624 11.635 11.9624 11.953 12.0134 12.266L12.1544 13.129L11.4844 12.759C11.3334 12.676 11.1664 12.634 11.0004 12.634C10.8334 12.634 10.6674 12.676 10.5164 12.759L9.84635 13.129L9.98735 12.266C10.0384 11.953 9.93735 11.635 9.71635 11.407L9.07535 10.751L9.91535 10.622C10.2444 10.572 10.5284 10.36 10.6694 10.058L11.0004 9.354L11.3304 10.058C11.4724 10.36 11.7554 10.572 12.0854 10.622L12.9254 10.751L12.2844 11.407ZM15.1514 9.067L12.9144 8.725L11.9054 6.575C11.7414 6.224 11.3884 6 11.0004 6C10.6124 6 10.2594 6.224 10.0954 6.575L9.08535 8.725L6.84935 9.067C6.47835 9.124 6.17135 9.383 6.05235 9.738C5.93235 10.094 6.02235 10.485 6.28435 10.754L7.93135 12.442L7.54135 14.839C7.47935 15.217 7.63835 15.596 7.95135 15.817C8.26535 16.038 8.67635 16.06 9.01235 15.875L11.0004 14.776L12.9884 15.875C13.1394 15.959 13.3064 16 13.4724 16C13.6744 16 13.8764 15.938 14.0484 15.817C14.3614 15.596 14.5214 15.217 14.4594 14.839L14.0684 12.442L15.7164 10.754C15.9774 10.485 16.0674 10.094 15.9484 9.738C15.8294 9.383 15.5214 9.124 15.1514 9.067V9.067Z" fill="#323232"/>
<path fill-rule="evenodd" clip-rule="evenodd" d="M9.00012 23.9998H13.0001V19.9998H9.00012V23.9998ZM14.0001 17.9998H8.00012C7.44812 17.9998 7.00012 18.4468 7.00012 18.9998V24.9998C7.00012 25.5528 7.44812 25.9998 8.00012 25.9998H14.0001C14.5521 25.9998 15.0001 25.5528 15.0001 24.9998V18.9998C15.0001 18.4468 14.5521 17.9998 14.0001 17.9998V17.9998Z" fill="#323232"/>
<path fill-rule="evenodd" clip-rule="evenodd" d="M19.6184 23.9998L21.5004 19.9998L23.3824 23.9998H19.6184ZM22.3944 17.5108C22.0564 16.8294 20.9444 16.8294 20.6054 17.5108L17.1054 24.5456C16.9514 24.8561 16.9674 25.2259 17.1494 25.5224C17.3314 25.8189 17.6534 25.9998 18.0004 25.9998H25.0004C25.3474 25.9998 25.6684 25.8189 25.8504 25.5224C26.0334 25.2259 26.0494 24.8561 25.8944 24.5456L22.3944 17.5108Z" fill="#323232"/>
</svg>
