<svg width="32" height="32" viewBox="0 0 32 32" fill="none" xmlns="http://www.w3.org/2000/svg">
<path fill-rule="evenodd" clip-rule="evenodd" d="M18.2792 7H17.9146C17.7087 6.4174 17.1531 6 16.5 6H15.5C14.8469 6 14.2913 6.4174 14.0854 7H13.7208C13.2903 7 12.9082 7.27543 12.7721 7.68377L12.3335 8.99957L11 8.9995L12 7H9C8.44772 7 8 7.44772 8 8V25C8 25.5523 8.44772 26 9 26H23C23.5523 26 24 25.5523 24 25V8C24 7.44771 23.5523 7 23 7H20L21 9L19.6666 8.99993L19.2279 7.68377C19.0918 7.27543 18.7097 7 18.2792 7ZM19.6667 9H21H22V24L10 23.9965V9H12.3333L12 10H20L19.6667 9ZM20.8533 15.8532C20.8533 16.1292 20.6292 16.3532 20.3533 16.3532H16.3533C16.0773 16.3532 15.8533 16.1292 15.8533 15.8532C15.8533 15.5772 16.0773 15.3532 16.3533 15.3532H20.3533C20.6292 15.3532 20.8533 15.5772 20.8533 15.8532ZM20.8533 20.8532C20.8533 21.1292 20.6292 21.3532 20.3533 21.3532H16.3533C16.0773 21.3532 15.8533 21.1292 15.8533 20.8532C15.8533 20.5772 16.0773 20.3532 16.3533 20.3532H20.3533C20.6292 20.3532 20.8533 20.5772 20.8533 20.8532ZM12.5 17.3527C12.372 17.3527 12.244 17.3047 12.146 17.2067L11.1463 16.0603C10.9513 15.8652 10.9513 15.5483 11.1463 15.3533C11.3412 15.1582 11.6583 15.1582 11.8533 15.3533L12.5 16.1458L14.2925 14.1462C14.4875 13.9513 14.8045 13.9513 14.9995 14.1462C15.1945 14.3412 15.1945 14.6582 14.9995 14.8533L12.853 17.2067C12.755 17.3047 12.627 17.3527 12.5 17.3527ZM12.5 22.3527C12.372 22.3527 12.244 22.3047 12.146 22.2067L11.1463 21.0603C10.9513 20.8652 10.9513 20.5483 11.1463 20.3533C11.3412 20.1582 11.6583 20.1582 11.8533 20.3533L12.5 21.1458L14.2925 19.1462C14.4875 18.9513 14.8045 18.9513 14.9995 19.1462C15.1945 19.3413 15.1945 19.6582 14.9995 19.8533L12.853 22.2067C12.755 22.3047 12.627 22.3527 12.5 22.3527Z" fill="#323232"/>
</svg>
