<svg width="24" height="24" viewBox="0 0 24 24" fill="none" xmlns="http://www.w3.org/2000/svg">
<path fill-rule="evenodd" clip-rule="evenodd" d="M12 19C15.859 19 19 15.86 19 12C19 8.14 15.859 5 12 5C8.141 5 5 8.14 5 12C5 15.86 8.141 19 12 19ZM12 3C16.963 3 21 7.038 21 12C21 16.962 16.963 21 12 21C7.037 21 3 16.962 3 12C3 7.038 7.037 3 12 3ZM12.293 8.293C12.684 7.902 13.316 7.902 13.707 8.293C14.098 8.684 14.098 9.316 13.707 9.707L11.414 12L13.707 14.293C14.098 14.684 14.098 15.316 13.707 15.707C13.512 15.902 13.256 16 13 16C12.744 16 12.488 15.902 12.293 15.707L9.293 12.707C8.902 12.316 8.902 11.684 9.293 11.293L12.293 8.293Z" fill="#323232"/>
</svg>
