<svg width="32" height="32" viewBox="0 0 32 32" fill="none" xmlns="http://www.w3.org/2000/svg">
<path fill-rule="evenodd" clip-rule="evenodd" d="M23 17C24.672 17 25.606 16.024 25.895 15.447C26.135 14.966 25.942 14.399 25.47 14.141C24.999 13.882 24.397 14.062 24.121 14.524C24.092 14.572 23.813 15 23 15C22.592 15 22 14.221 22 13C22 11.779 22.592 11 23 11C23.795 11 24.079 11.409 24.119 11.473C24.373 11.947 24.961 12.137 25.447 11.895C25.941 11.647 26.142 11.047 25.895 10.553C25.606 9.976 24.672 9 23 9C21.318 9 20 10.757 20 13C20 15.243 21.318 17 23 17" fill="#323232"/>
<path fill-rule="evenodd" clip-rule="evenodd" d="M9 11C9.408 11 10 11.779 10 13C10 14.221 9.408 15 9 15C8.592 15 8 14.221 8 13C8 11.779 8.592 11 9 11M9 17C9.449 17 9.869 16.867 10.248 16.641C10.431 16.856 10.695 17 11 17C11.552 17 12 16.552 12 16V10C12 9.448 11.552 9 11 9C10.695 9 10.431 9.144 10.248 9.359C9.869 9.133 9.449 9 9 9C7.318 9 6 10.757 6 13C6 15.243 7.318 17 9 17" fill="#323232"/>
<path fill-rule="evenodd" clip-rule="evenodd" d="M16 15C15.592 15 15 14.221 15 13C15 11.779 15.592 11 16 11C16.408 11 17 11.779 17 13C17 14.221 16.408 15 16 15M16 9C15.646 9 15.313 9.093 15 9.237V6C15 5.448 14.552 5 14 5C13.447 5 13 5.448 13 6V16C13 16.552 13.447 17 14 17C14.304 17 14.568 16.856 14.751 16.641C15.13 16.867 15.55 17 16 17C17.682 17 19 15.243 19 13C19 10.757 17.682 9 16 9" fill="#323232"/>
<path fill-rule="evenodd" clip-rule="evenodd" d="M11.5 25H10.5V20C10.5 19.596 10.256 19.231 9.88301 19.076C9.50801 18.92 9.07901 19.006 8.79301 19.293L6.79301 21.293C6.40201 21.684 6.40201 22.316 6.79301 22.707C7.18401 23.098 7.81601 23.098 8.20701 22.707L8.50001 22.414V25H7.50001C6.94801 25 6.50001 25.448 6.50001 26C6.50001 26.552 6.94801 27 7.50001 27H11.5C12.052 27 12.5 26.552 12.5 26C12.5 25.448 12.052 25 11.5 25" fill="#323232"/>
<path fill-rule="evenodd" clip-rule="evenodd" d="M18.0001 25H16.6941C17.1871 24.5 17.6401 23.956 17.8951 23.447C18.6841 21.869 18.4101 20.826 18.0421 20.23C17.5591 19.448 16.6321 19 15.5001 19C14.2231 19 13.3941 19.976 13.1051 20.553C12.8611 21.042 13.0581 21.629 13.5431 21.88C14.0291 22.131 14.6291 21.94 14.8881 21.459C14.8911 21.455 15.1461 21 15.5001 21C15.9111 21 16.2331 21.108 16.3401 21.281C16.4471 21.455 16.4421 21.88 16.1051 22.553C15.7251 23.314 14.2501 24.577 13.4091 25.193C13.0601 25.449 12.9151 25.9 13.0501 26.311C13.1851 26.722 13.5681 27 14.0001 27H18.0001C18.5521 27 19.0001 26.552 19.0001 26C19.0001 25.448 18.5521 25 18.0001 25" fill="#323232"/>
<path fill-rule="evenodd" clip-rule="evenodd" d="M24.5978 21.8164L25.7068 20.7074C25.9938 20.4204 26.0788 19.9914 25.9238 19.6174C25.7688 19.2434 25.4048 19.0004 24.9998 19.0004H20.9998C20.4478 19.0004 19.9998 19.4474 19.9998 20.0004C19.9998 20.5524 20.4478 21.0004 20.9998 21.0004H22.5858L22.2928 21.2934C22.0658 21.5204 21.9628 21.8424 22.0138 22.1594C22.0648 22.4754 22.2648 22.7494 22.5518 22.8934C23.2088 23.2244 23.9288 23.7954 23.9998 24.0004C23.9998 24.4484 23.4488 25.0004 22.9998 25.0004C22.6088 25.0004 21.9948 24.5764 21.7068 24.2934C21.3168 23.9024 20.6838 23.9024 20.2928 24.2934C19.9028 24.6834 19.9028 25.3164 20.2928 25.7074C20.4258 25.8394 21.6258 27.0004 22.9998 27.0004C24.5418 27.0004 25.9998 25.5424 25.9998 24.0004C25.9998 23.0964 25.2918 22.3404 24.5978 21.8164" fill="#323232"/>
</svg>
