<svg width="24" height="24" viewBox="0 0 24 24" fill="none" xmlns="http://www.w3.org/2000/svg">
<path fill-rule="evenodd" clip-rule="evenodd" d="M7 11H6V21H18V11H17H7ZM6 9V8C6 4.691 8.691 2 12 2C15.309 2 18 4.691 18 8V9H19C19.552 9 20 9.448 20 10V22C20 22.552 19.552 23 19 23H5C4.448 23 4 22.552 4 22V10C4 9.448 4.448 9 5 9H6ZM16 9V8C16 5.794 14.206 4 12 4C9.794 4 8 5.794 8 8V9H16ZM10 16.7317C9.40259 16.3854 9 15.7389 9 15C9 13.897 9.897 13 11 13C12.103 13 13 13.897 13 15C13 15.7389 12.5974 16.3854 12 16.7317V18C12 18.552 11.552 19 11 19C10.448 19 10 18.552 10 18V16.7317ZM16 19.5C16 19.776 16.224 20 16.5 20C16.776 20 17 19.776 17 19.5V12.5C17 12.224 16.776 12 16.5 12C16.224 12 16 12.224 16 12.5V19.5Z" fill="#323232"/>
</svg>
