<svg width="24" height="24" viewBox="0 0 24 24" fill="none" xmlns="http://www.w3.org/2000/svg">
<path fill-rule="evenodd" clip-rule="evenodd" d="M9 2.5005C8.448 2.5005 8 2.9475 8 3.5005V3.5C8 2.673 7.327 2 6.5 2C5.673 2 5 2.673 5 3.5C5 4.052 4.552 4.5 4 4.5C3.44808 4.5 3.00014 4.05214 3 3.50025V3.5005V12.7832C1.11037 13.7683 0 15.6288 0 18.056C0 20.524 1.357 22.759 3.541 23.888C3.685 23.963 3.843 24 4 24C4.181 24 4.361 23.951 4.52 23.854C4.818 23.673 5 23.349 5 23V20.076C5 19.14 5.94 19 6.5 19C7.06 19 8 19.14 8 20.076V23C8 23.349 8.182 23.673 8.48 23.854C8.777 24.035 9.149 24.048 9.459 23.888C11.643 22.759 13 20.524 13 18.056C13 15.6288 11.8896 13.7683 10 12.7832V3.5005C10 2.9475 9.552 2.5005 9 2.5005ZM8 6.40596V12.1238C7.52659 12.0421 7.02568 12 6.5 12C5.97432 12 5.47341 12.0421 5 12.1238L6.17661 9.88126C6.26381 9.95531 6.37672 10 6.5 10C6.776 10 7 9.776 7 9.5V8.31191L8 6.40596ZM6.5 17C8.593 17 10 18.236 10 20.076V20.919C10.637 20.124 11 19.121 11 18.056C11 15.478 9.36 14 6.5 14C3.64 14 2 15.478 2 18.056C2 19.121 2.363 20.124 3 20.918V20.076C3 18.236 4.407 17 6.5 17Z" fill="#323232"/>
<path fill-rule="evenodd" clip-rule="evenodd" d="M16 7H13V4.924C15.143 4.583 16.27 3.165 16.743 2H22V7H20H16ZM15 9H12C11.448 9 11 8.552 11 8V4C11 3.448 11.448 3 12 3C14.623 3 14.999 0.924 15.014 0.835C15.094 0.354 15.511 0 16 0H23C23.552 0 24 0.448 24 1V8C24 8.552 23.552 9 23 9H21V23C21 23.552 20.552 24 20 24H16C15.448 24 15 23.552 15 23V9ZM17 9V22H19V9H17Z" fill="#323232"/>
</svg>
