<svg width="24" height="24" viewBox="0 0 24 24" fill="none" xmlns="http://www.w3.org/2000/svg">
<path fill-rule="evenodd" clip-rule="evenodd" d="M12.874 13.54L11.581 17.419L15.46 16.126L21.586 10L19 7.41401L12.874 13.54ZM9.99995 20C9.73895 20 9.48295 19.898 9.29295 19.707C9.02495 19.439 8.93195 19.043 9.05195 18.684L11.052 12.684C11.101 12.537 11.184 12.403 11.293 12.293L18.293 5.29301C18.684 4.90201 19.316 4.90201 19.707 5.29301L23.707 9.29301C24.098 9.68401 24.098 10.316 23.707 10.707L16.707 17.707C16.598 17.817 16.464 17.899 16.316 17.949L10.316 19.949C10.213 19.983 10.105 20 9.99995 20V20Z" fill="#323232"/>
<path fill-rule="evenodd" clip-rule="evenodd" d="M16.5 17C16.372 17 16.244 16.951 16.146 16.854L12.146 12.854C11.951 12.658 11.951 12.342 12.146 12.146C12.342 11.951 12.658 11.951 12.854 12.146L16.854 16.146C17.049 16.342 17.049 16.658 16.854 16.854C16.756 16.951 16.628 17 16.5 17" fill="#323232"/>
<path fill-rule="evenodd" clip-rule="evenodd" d="M22 12C21.744 12 21.488 11.902 21.293 11.707L17.293 7.70701C16.902 7.31601 16.902 6.68401 17.293 6.29301C17.684 5.90201 18.316 5.90201 18.707 6.29301L22.707 10.293C23.098 10.684 23.098 11.316 22.707 11.707C22.512 11.902 22.256 12 22 12" fill="#323232"/>
<path fill-rule="evenodd" clip-rule="evenodd" d="M21.5 12.5C21.244 12.5 20.988 12.402 20.793 12.207L16.793 8.20701C16.402 7.81601 16.402 7.18401 16.793 6.79301C17.184 6.40201 17.816 6.40201 18.207 6.79301L22.207 10.793C22.598 11.184 22.598 11.816 22.207 12.207C22.012 12.402 21.756 12.5 21.5 12.5" fill="#323232"/>
<path fill-rule="evenodd" clip-rule="evenodd" d="M7 24C7.553 24 8 23.552 8 23V1C8 0.448 7.553 0 7 0H1C0.447 0 0 0.448 0 1V23C0 23.552 0.447 24 1 24H7ZM6 8V10H4.5C4.224 10 4 10.224 4 10.5C4 10.776 4.224 11 4.5 11H6V13H4.5C4.224 13 4 13.224 4 13.5C4 13.776 4.224 14 4.5 14H6V16H4.5C4.224 16 4 16.224 4 16.5C4 16.776 4.224 17 4.5 17H6V19H4.5C4.224 19 4 19.224 4 19.5C4 19.776 4.224 20 4.5 20H6V22H2V2H6V4H4.5C4.224 4 4 4.224 4 4.5C4 4.776 4.224 5 4.5 5H6V7H4.5C4.224 7 4 7.224 4 7.5C4 7.776 4.224 8 4.5 8H6Z" fill="#323232"/>
</svg>
