<svg width="40" height="40" viewBox="0 0 40 40" fill="none" xmlns="http://www.w3.org/2000/svg">
<path fill-rule="evenodd" clip-rule="evenodd" d="M27.5 7.75C27.5 6.7835 26.7165 6 25.75 6H20.5L19.6613 6.00968C14.9519 6.11906 10.9767 7.14981 7.71638 8.81687C5.59336 9.90243 4.18952 11.017 3.45661 11.8212C2.80557 12.5355 2.85687 13.6424 3.5712 14.2934C4.28553 14.9444 5.39238 14.8931 6.04342 14.1788L6.1811 14.0416C6.24358 13.9828 6.32272 13.9115 6.41867 13.8291L6.75714 13.5502C7.44336 13.0054 8.29246 12.4533 9.3098 11.9331C12.2749 10.417 15.9835 9.5 20.5 9.5H25.75L25.9541 9.48823C26.8244 9.38714 27.5 8.64746 27.5 7.75ZM20.5 13C29.25 13 34.9725 17.5136 38 23.5C34.9725 29.4864 29.25 34 20.5 34C11.75 34 6.02751 29.4864 3.00001 23.5C6.02751 17.5136 11.75 13 20.5 13ZM20.5 16.5C16.6267 16.5 13.5 19.6267 13.5 23.5C13.5 27.3733 16.6267 30.5 20.5 30.5C24.3733 30.5 27.5 27.3733 27.5 23.5C27.5 19.6267 24.3733 16.5 20.5 16.5ZM24.4756 20.0666C23.5137 18.9532 22.0908 18.25 20.5 18.25C17.595 18.25 15.25 20.595 15.25 23.5C15.25 26.405 17.595 28.75 20.5 28.75C23.405 28.75 25.75 26.405 25.75 23.5C25.75 23.1167 25.7092 22.7431 25.6323 22.3848C25.3794 23.0389 24.746 23.5 24 23.5C23.0298 23.5 22.25 22.7202 22.25 21.75C22.25 20.7798 23.0298 20 24 20C24.1647 20 24.3238 20.0225 24.4756 20.0666ZM11.1597 18.6896L11.116 18.7165C9.08792 19.9497 7.64373 21.6154 6.50001 23.5C7.65214 25.3984 9.10918 27.0747 11.1609 28.3106C10.4183 26.8702 10 25.235 10 23.5C10 21.7649 10.4183 20.1298 11.1597 18.6896ZM29.8639 18.7356L29.8392 18.6894C31.8908 19.9253 33.3479 21.6016 34.5 23.5C33.3479 25.3985 31.8908 27.0748 29.8403 28.3104C30.5818 26.8702 31 25.2351 31 23.5C31 21.7834 30.5906 20.1646 29.8639 18.7356ZM21.375 23.5C20.8899 23.5 20.5 23.8899 20.5 24.375C20.5 24.8601 20.8899 25.25 21.375 25.25C21.8601 25.25 22.25 24.8601 22.25 24.375C22.25 23.8899 21.8601 23.5 21.375 23.5Z" fill="#323232"/>
</svg>
