<svg width="24" height="24" viewBox="0 0 24 24" fill="none" xmlns="http://www.w3.org/2000/svg">
<path fill-rule="evenodd" clip-rule="evenodd" d="M19.207 10.2932L16.207 7.29319C15.921 7.00719 15.491 6.92119 15.117 7.07619C14.743 7.23019 14.5 7.59619 14.5 8.00019V10.0002H8.917C6.757 10.0002 5 11.7572 5 13.9172C5 16.0772 6.757 17.8342 8.917 17.8342C9.47 17.8342 9.917 17.3872 9.917 16.8342C9.917 16.2812 9.47 15.8342 8.917 15.8342C7.86 15.8342 7 14.9742 7 13.9172C7 12.8602 7.86 12.0002 8.917 12.0002H14.5V14.0002C14.5 14.4042 14.743 14.7702 15.117 14.9242C15.241 14.9762 15.371 15.0002 15.5 15.0002C15.76 15.0002 16.016 14.8982 16.207 14.7072L19.207 11.7072C19.598 11.3162 19.598 10.6842 19.207 10.2932Z" fill="#323232"/>
</svg>
