<svg width="32" height="32" viewBox="0 0 32 32" fill="none" xmlns="http://www.w3.org/2000/svg">
<path fill-rule="evenodd" clip-rule="evenodd" d="M19.1 19.087C18.975 19.142 18.858 19.219 18.761 19.327C18.719 19.373 18.701 19.429 18.669 19.481C17.539 20.427 16.086 21 14.5 21C10.916 21 8 18.084 8 14.5C8 10.916 10.916 8 14.5 8C18.084 8 21 10.916 21 14.5C21 16.289 20.273 17.911 19.1 19.087M25.673 24.26L20.977 19.991C22.236 18.508 23 16.593 23 14.5C23 9.813 19.187 6 14.5 6C9.813 6 6 9.813 6 14.5C6 19.187 9.813 23 14.5 23C16.372 23 18.099 22.384 19.505 21.355L24.328 25.739C24.519 25.914 24.76 26 25 26C25.272 26 25.543 25.889 25.74 25.672C26.112 25.264 26.082 24.631 25.673 24.26M17.13 13.2788C17.13 11.2255 16.1439 10 14.4934 10C12.843 10 11.8569 11.2255 11.8569 13.2788C11.8569 14.9921 12.865 16.8411 14.4934 16.8411C16.1219 16.8411 17.13 14.9921 17.13 13.2788ZM13.1752 13.2222C13.1752 11.5119 13.8264 11.3682 14.4934 11.3682C15.1605 11.3682 15.8117 11.5119 15.8117 13.2222C15.8117 14.3578 15.1592 15.4729 14.4934 15.4729C13.8277 15.4729 13.1752 14.3578 13.1752 13.2222ZM14.4958 18.2093C15.5597 18.2093 16.4782 18.8664 16.8945 19.8101C17.0472 20.1562 18.1727 19.7682 17.9773 19.2695C17.387 17.763 16.3968 16.8411 14.4958 16.8411C12.6042 16.8411 11.6101 17.7211 11.025 19.1958C10.8208 19.7107 11.9306 20.2218 12.0596 19.8993C12.4562 18.908 13.3987 18.2093 14.4958 18.2093Z" fill="#323232"/>
</svg>
