<svg width="24" height="24" viewBox="0 0 24 24" fill="none" xmlns="http://www.w3.org/2000/svg">
<path fill-rule="evenodd" clip-rule="evenodd" d="M5.99699 2C6.50299 2 6.99699 2.104 6.99699 3.355C6.99699 4.185 6.50199 5 5.99699 5C5.49199 5 4.99699 4.185 4.99699 3.355C4.99699 2.104 5.49099 2 5.99699 2ZM5.99699 7C7.84999 7 8.99699 5.108 8.99699 3.355C8.99699 1.254 7.87499 0 5.99699 0C4.11899 0 2.99699 1.254 2.99699 3.355C2.99699 5.108 4.14399 7 5.99699 7ZM2.99599 11C3.58499 10.312 4.53699 10 5.99599 10L5.99799 9.999V10C7.45699 10 8.40899 10.312 8.99799 11H6.99599H5.99799H2.99599ZM5.99799 12.996V13H8.98799H9.99799H10.998C12.116 13 12.308 12.09 11.498 11C10.002 8.985 8.05899 8 5.99799 8V8.003L5.99599 8C3.93399 8 1.99199 8.985 0.495986 11C-0.314014 12.09 -0.122014 13 0.995986 13H1.99599H3.00599H5.99599L5.99799 12.996ZM18.998 14.355C18.998 15.185 18.503 16 17.998 16C17.493 16 16.998 15.185 16.998 14.355C16.998 13.105 17.492 13 17.998 13C18.504 13 18.998 13.105 18.998 14.355ZM14.998 14.355C14.998 16.108 16.145 18 17.998 18C19.851 18 20.998 16.108 20.998 14.355C20.998 12.254 19.876 11 17.998 11C16.12 11 14.998 12.254 14.998 14.355ZM18.996 22H17.998H14.996C15.585 21.312 16.537 21 17.996 21L17.998 20.999V21C19.457 21 20.409 21.312 20.998 22H18.996ZM23.498 22C22.002 19.985 20.059 19 17.998 19V19.003L17.996 19C15.934 19 13.992 19.985 12.496 22C11.686 23.09 11.878 24 12.996 24H13.996H15.006H17.996L17.998 23.996V24H20.988H21.998H22.998C24.116 24 24.308 23.09 23.498 22ZM14.997 4.5H15.497C17.427 4.5 18.997 6.07 18.997 8V8.5C18.997 8.776 19.221 9 19.497 9C19.773 9 19.997 8.776 19.997 8.5V8C19.997 5.519 17.978 3.5 15.497 3.5H14.997V1L11.997 4L14.997 7V4.5ZM8.49699 19.5H8.99699V17L11.997 20L8.99699 23V20.5H8.49699C6.01599 20.5 3.99699 18.481 3.99699 16V15.5C3.99699 15.224 4.22099 15 4.49699 15C4.77299 15 4.99699 15.224 4.99699 15.5V16C4.99699 17.93 6.56699 19.5 8.49699 19.5Z" fill="#323232"/>
</svg>
