<svg width="24" height="24" viewBox="0 0 24 24" fill="none" xmlns="http://www.w3.org/2000/svg">
<path fill-rule="evenodd" clip-rule="evenodd" d="M12 6.99966V5.64366C12 5.00966 12.412 4.80966 12.916 5.19866L15.623 7.29166C16.126 7.68166 16.126 8.31766 15.623 8.70766L12.916 10.8007C12.412 11.1897 12 10.9897 12 10.3557V8.99966C9.794 8.99966 8 10.7937 8 12.9997C8 15.2057 9.794 16.9997 12 16.9997C14.206 16.9997 16 15.2057 16 12.9997C16 12.4477 16.448 11.9997 17 11.9997C17.552 11.9997 18 12.4477 18 12.9997C18 16.3087 15.309 18.9997 12 18.9997C8.691 18.9997 6 16.3087 6 12.9997C6 9.69066 8.691 6.99966 12 6.99966" fill="#323232"/>
</svg>
