<svg width="24" height="24" viewBox="0 0 24 24" fill="none" xmlns="http://www.w3.org/2000/svg">
<path fill-rule="evenodd" clip-rule="evenodd" d="M19 21H6V3H19V21ZM5 23H20C20.552 23 21 22.552 21 22V2C21 1.448 20.552 1 20 1H5C4.448 1 4 1.448 4 2V3H3C2.448 3 2 3.448 2 4C2 4.552 2.448 5 3 5H4V7H3C2.448 7 2 7.448 2 8C2 8.552 2.448 9 3 9H4V11H3C2.448 11 2 11.448 2 12C2 12.552 2.448 13 3 13H4V15H3C2.448 15 2 15.448 2 16C2 16.552 2.448 17 3 17H4V19H3C2.448 19 2 19.448 2 20C2 20.552 2.448 21 3 21H4V22C4 22.552 4.448 23 5 23Z" fill="#323232"/>
<path fill-rule="evenodd" clip-rule="evenodd" d="M11.4968 12.0039H7.4928C7.2168 12.0039 6.9928 11.7799 6.9928 11.5039C6.9928 10.3179 7.4738 9.15788 8.3128 8.31888C9.1508 7.48088 10.3118 6.99988 11.4968 6.99988C11.7738 6.99988 11.9968 7.22388 11.9968 7.49988V11.5039C11.9968 11.7799 11.7738 12.0039 11.4968 12.0039ZM8.0298 11.0039H10.9968V8.03688C10.2548 8.14588 9.5528 8.49288 9.0198 9.02588C8.4858 9.55988 8.1388 10.2619 8.0298 11.0039ZM13.4958 17.0001C11.7338 17.0001 10.2708 15.6921 10.0278 13.9961H13.4958C13.7728 13.9961 13.9958 13.7721 13.9958 13.4961V10.0281C15.6928 10.2711 16.9998 11.7341 16.9998 13.4961C16.9998 15.4281 15.4278 17.0001 13.4958 17.0001ZM8.9918 13.4961C8.9918 15.9791 11.0128 18.0001 13.4958 18.0001C15.9798 18.0001 17.9998 15.9791 17.9998 13.4961C17.9998 11.0131 15.9798 8.99208 13.4958 8.99208C13.2198 8.99208 12.9958 9.21608 12.9958 9.49208V12.9961H9.4918C9.2158 12.9961 8.9918 13.2201 8.9918 13.4961Z" fill="#323232"/>
</svg>
