<svg width="32" height="32" viewBox="0 0 32 32" fill="none" xmlns="http://www.w3.org/2000/svg">
<path fill-rule="evenodd" clip-rule="evenodd" d="M10 13.4996V7.4526C10.545 7.7716 11.211 7.9996 12 7.9996C12.553 7.9996 13 7.5516 13 6.9996C13 6.4476 12.553 5.9996 12 5.9996C10.658 5.9996 9.898 4.5616 9.895 4.5526C9.688 4.1386 9.225 3.9206 8.77 4.0266C8.318 4.1326 8 4.5356 8 4.9996V10.9916C7.686 10.8956 7.353 10.8326 7 10.8326C5.346 10.8326 4 11.9916 4 13.4166C4 14.8406 5.346 15.9996 7 15.9996C8.575 15.9996 9.856 14.9456 9.977 13.6156C9.97877 13.5979 9.98347 13.5812 9.98817 13.5645C9.99409 13.5435 10 13.5225 10 13.4996ZM18.5791 22.2711L11.2161 18.1041C11.0921 18.0341 10.9551 18.0001 10.8181 18.0001C10.6751 18.0001 10.5311 18.0381 10.4031 18.1151C10.1531 18.2641 10.0001 18.5381 10.0001 18.8331V27.1661C10.0001 27.4611 10.1531 27.7351 10.4031 27.8841C10.5311 27.9611 10.6751 28.0001 10.8181 28.0001C10.9551 28.0001 11.0921 27.9641 11.2161 27.8951L18.5791 23.7281C18.8391 23.5811 19.0001 23.3021 19.0001 23.0001C19.0001 22.6971 18.8391 22.4181 18.5791 22.2711ZM17 5.9996H27C27.553 5.9996 28 6.4476 28 6.9996V16.9996C28 17.5516 27.553 17.9996 27 17.9996H17C16.447 17.9996 16 17.5516 16 16.9996V6.9996C16 6.4476 16.447 5.9996 17 5.9996ZM22.707 11.9996L26 8.7066V15.2926L22.707 11.9996ZM25.293 15.9996L22 12.7066L18.707 15.9996H25.293ZM18.707 7.9996H25.293L22 11.2926L18.707 7.9996ZM21.293 11.9996L18 8.7066V15.2926L21.293 11.9996Z" fill="#323232"/>
</svg>
