<svg width="24" height="24" viewBox="0 0 24 24" fill="none" xmlns="http://www.w3.org/2000/svg">
<path fill-rule="evenodd" clip-rule="evenodd" d="M11.573 1.5732L11.5732 3.86005L11.5734 4.01442C11.6975 4.0088 11.839 4.0059 11.9999 4.0059C16.9705 4.0059 20.9999 8.03534 20.9999 13.0059C20.9999 13.5582 20.5522 14.0059 19.9999 14.0059C19.4477 14.0059 18.9999 13.5582 18.9999 13.0059C18.9999 9.13991 15.8659 6.0059 11.9999 6.0059C11.8397 6.0059 11.6987 6.00303 11.575 5.99746L11.5751 6.14852L11.5761 8.43619C11.5754 8.66188 11.4428 8.86729 11.2358 8.9578C11.1614 8.99174 11.0837 9.00788 11.0036 9.00866C10.8653 9.00779 10.7278 8.95757 10.6201 8.86126L7.18386 5.43147C7.06409 5.32302 6.99527 5.16848 6.99438 5.00589C6.99431 4.8441 7.06381 4.69044 7.18268 4.58128L10.6167 1.14727C10.7857 0.99446 11.0259 0.958165 11.2322 1.04967C11.4394 1.14198 11.5729 1.3467 11.573 1.5732ZM16.4213 22.4386L16.4211 20.1518L16.421 19.9974C16.2968 20.003 16.1553 20.0059 15.9944 20.0059C11.0238 20.0059 6.99438 15.9765 6.99438 11.0059C6.99438 10.4536 7.4421 10.0059 7.99438 10.0059C8.54667 10.0059 8.99438 10.4536 8.99438 11.0059C8.99438 14.8719 12.1284 18.0059 15.9944 18.0059C16.1546 18.0059 16.2956 18.0088 16.4194 18.0143L16.4193 17.8633L16.4182 15.5756C16.4189 15.3499 16.5515 15.1445 16.7586 15.054C16.833 15.0201 16.9106 15.0039 16.9907 15.0031C17.129 15.004 17.2666 15.0542 17.3742 15.1505L20.8105 18.5803C20.9302 18.6888 20.9991 18.8433 20.9999 19.0059C21 19.1677 20.9305 19.3214 20.8116 19.4305L17.3776 22.8645C17.2086 23.0173 16.9684 23.0536 16.7621 22.9621C16.555 22.8698 16.4214 22.6651 16.4213 22.4386Z" fill="#323232"/>
</svg>
