<svg width="48" height="48" viewBox="0 0 48 48" fill="none" xmlns="http://www.w3.org/2000/svg">
<circle cx="24" cy="24" r="23" fill="#323232" stroke="#323232" stroke-width="2"/>
<mask id="mask0_8_4312" style="mask-type:alpha" maskUnits="userSpaceOnUse" x="0" y="0" width="48" height="48">
<circle cx="24" cy="24" r="23" fill="white" stroke="white" stroke-width="2"/>
</mask>
<g mask="url(#mask0_8_4312)">
<path fill-rule="evenodd" clip-rule="evenodd" d="M19.6958 15.2492C19.4723 15.1241 19.2266 15.0625 18.9788 15.0625C18.7188 15.0625 18.4608 15.13 18.2292 15.2671C17.7783 15.5352 17.5 16.0238 17.5 16.5501V31.4459C17.5 31.9742 17.7783 32.4628 18.2292 32.7309C18.4608 32.868 18.7188 32.9375 18.9788 32.9375C19.2266 32.9375 19.4723 32.8739 19.6958 32.7488L32.9903 25.3009C33.4595 25.0387 33.75 24.5402 33.75 24C33.75 23.4578 33.4595 22.9593 32.9903 22.6971L19.6958 15.2492Z" fill="white"/>
<mask id="mask1_8_4312" style="mask-type:alpha" maskUnits="userSpaceOnUse" x="17" y="15" width="17" height="18">
<path fill-rule="evenodd" clip-rule="evenodd" d="M19.6958 15.2492C19.4723 15.1241 19.2266 15.0625 18.9788 15.0625C18.7188 15.0625 18.4608 15.13 18.2292 15.2671C17.7783 15.5352 17.5 16.0238 17.5 16.5501V31.4459C17.5 31.9742 17.7783 32.4628 18.2292 32.7309C18.4608 32.868 18.7188 32.9375 18.9788 32.9375C19.2266 32.9375 19.4723 32.8739 19.6958 32.7488L32.9903 25.3009C33.4595 25.0387 33.75 24.5402 33.75 24C33.75 23.4578 33.4595 22.9593 32.9903 22.6971L19.6958 15.2492Z" fill="white"/>
</mask>
<g mask="url(#mask1_8_4312)">
</g>
</g>
</svg>
