<svg width="48" height="48" viewBox="0 0 48 48" fill="none" xmlns="http://www.w3.org/2000/svg">
<circle cx="24" cy="24" r="23" stroke="#323232" stroke-width="2"/>
<path fill-rule="evenodd" clip-rule="evenodd" d="M27.4531 15.875H29.3828C30.448 15.875 31.3125 16.785 31.3125 17.9062V30.0938C31.3125 31.215 30.448 32.125 29.3828 32.125H27.4531C26.3879 32.125 25.5234 31.215 25.5234 30.0938V17.9062C25.5234 16.785 26.3879 15.875 27.4531 15.875ZM18.6172 15.875H20.5469C21.6121 15.875 22.4766 16.785 22.4766 17.9062V30.0938C22.4766 31.215 21.6121 32.125 20.5469 32.125H18.6172C17.552 32.125 16.6875 31.215 16.6875 30.0938V17.9062C16.6875 16.785 17.552 15.875 18.6172 15.875Z" fill="#323232"/>
</svg>
