<svg width="68" height="64" viewBox="0 0 68 64" fill="none" xmlns="http://www.w3.org/2000/svg">
<path fill-rule="evenodd" clip-rule="evenodd" d="M26 39.9994C26 38.8934 25.104 37.9994 24 37.9994C19.588 37.9994 16 41.5874 16 45.9996V51.9997H4.00001V25.287L24.024 16.1848L37.2121 21.8369C38.2241 22.2749 39.4021 21.8009 39.8381 20.7869C40.2741 19.7729 39.8021 18.5968 38.7881 18.1608L26 12.6807V6.03649V5.95648V1.99838C26 1.39836 25.732 0.832344 25.268 0.452334C24.804 0.0723235 24.194 -0.0776805 23.608 0.0383226L13.608 2.03838C12.672 2.22438 12 3.0444 12 3.99843C12 4.95246 12.672 5.77248 13.608 5.95848L22 7.63653V12.7107L1.172 22.1789C0.458001 22.5029 0 23.2129 0 23.999V53.9998C0 55.1058 0.896001 55.9998 2 55.9998H18C19.104 55.9998 20 55.1058 20 53.9998V45.9996C20 43.7935 21.794 41.9995 24 41.9995C25.104 41.9995 26 41.1054 26 39.9994ZM60.0045 27.9991C60.0045 26.893 60.9005 25.999 62.0045 25.999H66C67.104 25.999 68 26.893 68 27.9991V55.9998C68 57.1058 67.104 57.9998 66 57.9998H51.0001L49 55.9998L51.0001 53.9997H64V29.9991H62.0045C60.9005 29.9991 60.0045 29.1051 60.0045 27.9991ZM36.0079 51.9997C39.7139 51.9997 42.0079 48.2156 42.0079 44.7095C42.0079 40.5074 39.7639 37.9993 36.0079 37.9993C32.2519 37.9993 30.0078 40.5074 30.0078 44.7095C30.0078 48.2156 32.3018 51.9997 36.0079 51.9997ZM36.0079 41.9994C37.0199 41.9994 38.0079 42.2074 38.0079 44.7095C38.0079 46.3715 37.0179 47.9996 36.0079 47.9996C34.9979 47.9996 34.0079 46.3715 34.0079 44.7095C34.0079 42.2074 34.9959 41.9994 36.0079 41.9994ZM49.7081 49.7076L43.1661 56.2478C44.5541 57.1978 45.8481 58.4398 47.0081 59.9999C48.6281 62.1799 48.2441 64 46.0081 64H44.0081H41.9881H36.0081V63.992L36.0041 64H30.024H28.004H26.004C23.768 64 23.384 62.1799 25.004 59.9999C27.998 55.9698 31.8801 53.9997 36.0041 53.9997L36.0081 54.0057V53.9997C37.8621 53.9997 39.6621 54.4217 41.3601 55.2258L48.2941 48.2916C48.6841 47.9016 49.3161 47.9016 49.7081 48.2916C50.0981 48.6836 50.0981 49.3156 49.7081 49.7076ZM38.0041 59.9999H36.0081H30.004C31.182 58.6259 33.0861 57.9998 36.0041 57.9998L36.0081 57.9978V57.9998C38.9261 57.9998 40.8301 58.6259 42.0081 59.9999H38.0041ZM24 31.9992C26.206 31.9992 28 30.2051 28 27.9991C28 25.793 26.206 23.999 24 23.999C21.794 23.999 20 25.793 20 27.9991C20 30.2051 21.794 31.9992 24 31.9992ZM18 27.9991C18 31.3072 20.692 33.9992 24 33.9992C27.308 33.9992 30 31.3072 30 27.9991C30 24.691 27.308 21.9989 24 21.9989C20.692 21.9989 18 24.691 18 27.9991ZM23 25.999V27.9991C23 28.2651 23.106 28.5191 23.292 28.7071L24.292 29.7071C24.488 29.9011 24.744 29.9991 25 29.9991C25.256 29.9991 25.512 29.9011 25.708 29.7071C26.098 29.3151 26.098 28.6831 25.708 28.2911L25 27.5851V25.999C25 25.447 24.552 24.999 24 24.999C23.448 24.999 23 25.447 23 25.999ZM61.4132 18.5868C60.6309 17.8044 59.3663 17.8044 58.582 18.5868L50.0021 27.1694L45.416 22.583C44.6337 21.8005 43.3691 21.8005 42.5868 22.583C41.8044 23.3674 41.8044 24.6321 42.5868 25.4125L48.5855 31.4137C48.9776 31.8039 49.4899 32 50.0021 32C50.5143 32 51.0266 31.8039 51.4167 31.4137L61.4132 21.4163C62.1956 20.6339 62.1956 19.3692 61.4132 18.5868Z" fill="#BE8CFF"/>
<mask id="mask0_8_3680" style="mask-type:alpha" maskUnits="userSpaceOnUse" x="0" y="0" width="68" height="64">
<path fill-rule="evenodd" clip-rule="evenodd" d="M26 39.9994C26 38.8934 25.104 37.9994 24 37.9994C19.588 37.9994 16 41.5874 16 45.9996V51.9997H4.00001V25.287L24.024 16.1848L37.2121 21.8369C38.2241 22.2749 39.4021 21.8009 39.8381 20.7869C40.2741 19.7729 39.8021 18.5968 38.7881 18.1608L26 12.6807V6.03649V5.95648V1.99838C26 1.39836 25.732 0.832344 25.268 0.452334C24.804 0.0723235 24.194 -0.0776805 23.608 0.0383226L13.608 2.03838C12.672 2.22438 12 3.0444 12 3.99843C12 4.95246 12.672 5.77248 13.608 5.95848L22 7.63653V12.7107L1.172 22.1789C0.458001 22.5029 0 23.2129 0 23.999V53.9998C0 55.1058 0.896001 55.9998 2 55.9998H18C19.104 55.9998 20 55.1058 20 53.9998V45.9996C20 43.7935 21.794 41.9995 24 41.9995C25.104 41.9995 26 41.1054 26 39.9994ZM60.0045 27.9991C60.0045 26.893 60.9005 25.999 62.0045 25.999H66C67.104 25.999 68 26.893 68 27.9991V55.9998C68 57.1058 67.104 57.9998 66 57.9998H51.0001L49 55.9998L51.0001 53.9997H64V29.9991H62.0045C60.9005 29.9991 60.0045 29.1051 60.0045 27.9991ZM36.0079 51.9997C39.7139 51.9997 42.0079 48.2156 42.0079 44.7095C42.0079 40.5074 39.7639 37.9993 36.0079 37.9993C32.2519 37.9993 30.0078 40.5074 30.0078 44.7095C30.0078 48.2156 32.3018 51.9997 36.0079 51.9997ZM36.0079 41.9994C37.0199 41.9994 38.0079 42.2074 38.0079 44.7095C38.0079 46.3715 37.0179 47.9996 36.0079 47.9996C34.9979 47.9996 34.0079 46.3715 34.0079 44.7095C34.0079 42.2074 34.9959 41.9994 36.0079 41.9994ZM49.7081 49.7076L43.1661 56.2478C44.5541 57.1978 45.8481 58.4398 47.0081 59.9999C48.6281 62.1799 48.2441 64 46.0081 64H44.0081H41.9881H36.0081V63.992L36.0041 64H30.024H28.004H26.004C23.768 64 23.384 62.1799 25.004 59.9999C27.998 55.9698 31.8801 53.9997 36.0041 53.9997L36.0081 54.0057V53.9997C37.8621 53.9997 39.6621 54.4217 41.3601 55.2258L48.2941 48.2916C48.6841 47.9016 49.3161 47.9016 49.7081 48.2916C50.0981 48.6836 50.0981 49.3156 49.7081 49.7076ZM38.0041 59.9999H36.0081H30.004C31.182 58.6259 33.0861 57.9998 36.0041 57.9998L36.0081 57.9978V57.9998C38.9261 57.9998 40.8301 58.6259 42.0081 59.9999H38.0041ZM24 31.9992C26.206 31.9992 28 30.2051 28 27.9991C28 25.793 26.206 23.999 24 23.999C21.794 23.999 20 25.793 20 27.9991C20 30.2051 21.794 31.9992 24 31.9992ZM18 27.9991C18 31.3072 20.692 33.9992 24 33.9992C27.308 33.9992 30 31.3072 30 27.9991C30 24.691 27.308 21.9989 24 21.9989C20.692 21.9989 18 24.691 18 27.9991ZM23 25.999V27.9991C23 28.2651 23.106 28.5191 23.292 28.7071L24.292 29.7071C24.488 29.9011 24.744 29.9991 25 29.9991C25.256 29.9991 25.512 29.9011 25.708 29.7071C26.098 29.3151 26.098 28.6831 25.708 28.2911L25 27.5851V25.999C25 25.447 24.552 24.999 24 24.999C23.448 24.999 23 25.447 23 25.999ZM61.4132 18.5868C60.6309 17.8044 59.3663 17.8044 58.582 18.5868L50.0021 27.1694L45.416 22.583C44.6337 21.8005 43.3691 21.8005 42.5868 22.583C41.8044 23.3674 41.8044 24.6321 42.5868 25.4125L48.5855 31.4137C48.9776 31.8039 49.4899 32 50.0021 32C50.5143 32 51.0266 31.8039 51.4167 31.4137L61.4132 21.4163C62.1956 20.6339 62.1956 19.3692 61.4132 18.5868Z" fill="white"/>
</mask>
<g mask="url(#mask0_8_3680)">
</g>
</svg>
