<svg width="24" height="24" viewBox="0 0 24 24" fill="none" xmlns="http://www.w3.org/2000/svg">
<path fill-rule="evenodd" clip-rule="evenodd" d="M15.1 15.087C14.975 15.142 14.858 15.219 14.761 15.327C14.719 15.373 14.701 15.429 14.669 15.481C13.539 16.427 12.086 17 10.5 17C6.916 17 4 14.084 4 10.5C4 6.916 6.916 4 10.5 4C14.084 4 17 6.916 17 10.5C17 12.289 16.273 13.911 15.1 15.087M21.673 20.26L16.977 15.991C18.236 14.508 19 12.593 19 10.5C19 5.813 15.187 2 10.5 2C5.813 2 2 5.813 2 10.5C2 15.187 5.813 19 10.5 19C12.372 19 14.099 18.384 15.505 17.355L20.328 21.739C20.519 21.914 20.76 22 21 22C21.272 22 21.543 21.889 21.74 21.672C22.112 21.264 22.082 20.631 21.673 20.26M10.5004 5.9996C8.0194 5.9996 6.0004 8.0186 6.0004 10.4996C6.0004 10.7756 6.2244 10.9996 6.5004 10.9996C6.7764 10.9996 7.0004 10.7756 7.0004 10.4996C7.0004 8.5696 8.5704 6.9996 10.5004 6.9996C10.7764 6.9996 11.0004 6.7756 11.0004 6.4996C11.0004 6.2236 10.7764 5.9996 10.5004 5.9996" fill="#323232"/>
</svg>
