<svg width="24" height="24" viewBox="0 0 24 24" fill="none" xmlns="http://www.w3.org/2000/svg">
<path fill-rule="evenodd" clip-rule="evenodd" d="M4.5 3H5C5.276 3 5.5 3.224 5.5 3.5C5.5 3.776 5.276 4 5 4C5 4.276 4.776 4.5 4.5 4.5C4.224 4.5 4 4.276 4 4V3.5C4 3.224 4.224 3 4.5 3ZM4.5 8.1357C4.776 8.1357 5 7.9117 5 7.6357V6.7267C5 6.4497 4.776 6.2267 4.5 6.2267C4.224 6.2267 4 6.4497 4 6.7267V7.6357C4 7.9117 4.224 8.1357 4.5 8.1357ZM12.2097 9.7903C10.3317 9.7903 8.8037 11.3183 8.8037 13.1963C8.8037 15.0743 10.3317 16.6013 12.2097 16.6013C14.0877 16.6013 15.6157 15.0743 15.6157 13.1963C15.6157 11.3183 14.0877 9.7903 12.2097 9.7903ZM16.7437 16.1293L19.4987 18.8833C19.8897 19.2743 19.8897 19.9073 19.4987 20.2983C19.3037 20.4933 19.0477 20.5913 18.7917 20.5913C18.5357 20.5913 18.2807 20.4933 18.0847 20.2983L15.3647 17.5773C14.4757 18.2183 13.3877 18.6013 12.2097 18.6013C9.2287 18.6013 6.8037 16.1763 6.8037 13.1963C6.8037 10.2153 9.2287 7.7903 12.2097 7.7903C15.1907 7.7903 17.6157 10.2153 17.6157 13.1963C17.6157 14.2773 17.2927 15.2833 16.7437 16.1293ZM9.8037 13.1963C9.8037 11.8173 10.9247 10.6963 12.3037 10.6963C12.5797 10.6963 12.8037 10.9203 12.8037 11.1963C12.8037 11.4723 12.5797 11.6963 12.3037 11.6963C11.4767 11.6963 10.8037 12.3693 10.8037 13.1963C10.8037 13.4723 10.5797 13.6963 10.3037 13.6963C10.0277 13.6963 9.8037 13.4723 9.8037 13.1963ZM5 14C5 13.724 4.776 13.5 4.5 13.5C4.224 13.5 4 13.724 4 14V14.5C4 14.776 4.224 15 4.5 15H5C5.276 15 5.5 14.776 5.5 14.5C5.5 14.224 5.276 14 5 14ZM5 11.2724C5 11.5484 4.776 11.7724 4.5 11.7724C4.224 11.7724 4 11.5484 4 11.2724V10.3634C4 10.0864 4.224 9.8634 4.5 9.8634C4.776 9.8634 5 10.0864 5 10.3634V11.2724ZM10.7266 4H11.5446C11.8216 4 12.0446 3.776 12.0446 3.5C12.0446 3.224 11.8216 3 11.5446 3H10.7266C10.4506 3 10.2266 3.224 10.2266 3.5C10.2266 3.776 10.4506 4 10.7266 4ZM8.2721 4H7.4541C7.1781 4 6.9541 3.776 6.9541 3.5C6.9541 3.224 7.1781 3 7.4541 3H8.2721C8.5491 3 8.7721 3.224 8.7721 3.5C8.7721 3.776 8.5491 4 8.2721 4ZM14 4C14 4.276 14.224 4.5 14.5 4.5C14.776 4.5 15 4.276 15 4V3.5C15 3.224 14.776 3 14.5 3H14C13.724 3 13.5 3.224 13.5 3.5C13.5 3.776 13.724 4 14 4ZM14 6.3935C14 6.1175 14.224 5.8935 14.5 5.8935C14.776 5.8935 15 6.1175 15 6.3935V6.8935C15 7.1695 14.776 7.3935 14.5 7.3935C14.224 7.3935 14 7.1695 14 6.8935V6.3935Z" fill="#323232"/>
</svg>
