<svg width="24" height="24" viewBox="0 0 24 24" fill="none" xmlns="http://www.w3.org/2000/svg">
<path fill-rule="evenodd" clip-rule="evenodd" d="M4 6C4 6.276 4.224 6.5 4.5 6.5C4.776 6.5 5 6.276 5 6C5.276 6 5.5 5.776 5.5 5.5C5.5 5.224 5.276 5 5 5H4.5C4.224 5 4 5.224 4 5.5V6ZM4.5 10.1358C4.224 10.1358 4 9.9118 4 9.6358V8.7268C4 8.4498 4.224 8.2268 4.5 8.2268C4.776 8.2268 5 8.4498 5 8.7268V9.6358C5 9.9118 4.776 10.1358 4.5 10.1358ZM4.5 13.7728C4.224 13.7728 4 13.5488 4 13.2728V12.3638C4 12.0868 4.224 11.8638 4.5 11.8638C4.776 11.8638 5 12.0868 5 12.3638V13.2728C5 13.5488 4.776 13.7728 4.5 13.7728ZM4.5 17H5C5.276 17 5.5 16.776 5.5 16.5C5.5 16.224 5.276 16 5 16C5 15.724 4.776 15.5 4.5 15.5C4.224 15.5 4 15.724 4 16V16.5C4 16.776 4.224 17 4.5 17ZM7.4873 17H7.9873C8.2633 17 8.4873 16.776 8.4873 16.5C8.4873 16.224 8.2633 16 7.9873 16H7.4873C7.2113 16 6.9873 16.224 6.9873 16.5C6.9873 16.776 7.2113 17 7.4873 17ZM8.2734 6H7.4554C7.1784 6 6.9554 5.776 6.9554 5.5C6.9554 5.224 7.1784 5 7.4554 5H8.2734C8.5494 5 8.7734 5.224 8.7734 5.5C8.7734 5.776 8.5494 6 8.2734 6ZM11.5454 6H10.7274C10.4514 6 10.2274 5.776 10.2274 5.5C10.2274 5.224 10.4514 5 10.7274 5H11.5454C11.8224 5 12.0454 5.224 12.0454 5.5C12.0454 5.776 11.8224 6 11.5454 6ZM14 6C14 6.276 14.224 6.5 14.5 6.5C14.776 6.5 15 6.276 15 6V5.5C15 5.224 14.776 5 14.5 5H14C13.724 5 13.5 5.224 13.5 5.5C13.5 5.776 13.724 6 14 6ZM14.5 9.3946C14.224 9.3946 14 9.1706 14 8.8946V8.3946C14 8.1186 14.224 7.8946 14.5 7.8946C14.776 7.8946 15 8.1186 15 8.3946V8.8946C15 9.1706 14.776 9.3946 14.5 9.3946ZM11.2354 16.1026V10.6006L15.2644 13.9996H13.6324C13.3554 13.9996 13.0904 14.1156 12.9014 14.3176L11.2354 16.1026ZM9.8684 19.5706C9.9874 19.6176 10.1124 19.6396 10.2354 19.6396C10.5064 19.6396 10.7734 19.5286 10.9664 19.3226L14.0674 15.9996H18.0004C18.4204 15.9996 18.7954 15.7376 18.9394 15.3436C19.0834 14.9496 18.9654 14.5066 18.6444 14.2356L10.8804 7.6836C10.5834 7.4326 10.1654 7.3766 9.8144 7.5406C9.4614 7.7046 9.2354 8.0596 9.2354 8.4486V18.6396C9.2354 19.0506 9.4864 19.4186 9.8684 19.5706Z" fill="#323232"/>
</svg>
