<svg width="24" height="24" viewBox="0 0 24 24" fill="none" xmlns="http://www.w3.org/2000/svg">
<path fill-rule="evenodd" clip-rule="evenodd" d="M10.4997 23H13.4997C13.9507 23 14.3467 22.698 14.4647 22.264L15.2757 19.292C15.8577 19.03 16.4037 18.701 16.9057 18.31L20.1717 19.444C20.6457 19.61 21.1707 19.396 21.3947 18.947L22.8947 15.947C23.1117 15.513 22.9857 14.985 22.5957 14.696L19.9617 12.745C19.9877 12.491 19.9997 12.244 19.9997 12C19.9997 11.756 19.9877 11.509 19.9617 11.255L22.5957 9.304C22.9857 9.015 23.1117 8.487 22.8947 8.053L21.3947 5.053C21.1777 4.619 20.6807 4.404 20.2157 4.541L16.7497 5.567C16.2917 5.229 15.7987 4.942 15.2757 4.708L14.4647 1.736C14.3467 1.302 13.9507 1 13.4997 1H10.4997C10.0497 1 9.6537 1.302 9.5347 1.736L8.7247 4.708C8.1417 4.97 7.5967 5.299 7.0947 5.69L3.8277 4.556C3.3567 4.39 2.8297 4.604 2.6057 5.053L1.1057 8.053C0.887698 8.488 1.0157 9.018 1.4087 9.306L4.0397 11.239C4.0137 11.498 3.9997 11.75 3.9997 12C3.9997 12.25 4.0137 12.502 4.0397 12.761L1.4087 14.694C1.0157 14.982 0.887698 15.512 1.1057 15.947L2.6057 18.947C2.8297 19.396 3.3557 19.609 3.8277 19.444L7.0947 18.31C7.5967 18.701 8.1417 19.03 8.7247 19.292L9.5347 22.264C9.6537 22.698 10.0497 23 10.4997 23ZM12 10C10.897 10 10 10.897 10 12C10 13.103 10.897 14 12 14C13.103 14 14 13.103 14 12C14 10.897 13.103 10 12 10ZM12 16C9.794 16 8 14.206 8 12C8 9.794 9.794 8 12 8C14.206 8 16 9.794 16 12C16 14.206 14.206 16 12 16Z" fill="#323232"/>
</svg>
