<svg width="24" height="24" viewBox="0 0 24 24" fill="none" xmlns="http://www.w3.org/2000/svg">
<path fill-rule="evenodd" clip-rule="evenodd" d="M11.3305 20.1816H12.6696L13.3405 17.7189C13.4177 17.4371 13.6259 17.2089 13.8996 17.1071C14.5523 16.8634 15.1441 16.5025 15.6586 16.0343C15.9059 15.8107 16.2559 15.7407 16.5686 15.8489L19.2713 16.788L19.9358 15.458L17.7231 13.818C17.4468 13.6126 17.3095 13.2708 17.3686 12.9326C17.4268 12.5971 17.4541 12.2917 17.4541 11.9999C17.4541 11.708 17.4268 11.4026 17.3686 11.0671C17.3095 10.729 17.4468 10.3872 17.7231 10.1817L19.9358 8.54173L19.2549 7.17902L16.3822 8.02991C16.0868 8.11537 15.7677 8.0481 15.5341 7.85083C15.0523 7.43901 14.5023 7.11811 13.9005 6.89266C13.6259 6.79084 13.4177 6.56266 13.3405 6.28085L12.6696 3.81816H11.3305L10.6587 6.28085C10.5814 6.56266 10.3742 6.79084 10.0996 6.89266C9.44689 7.13629 8.85508 7.49719 8.34054 7.96537C8.09418 8.18991 7.74419 8.259 7.43147 8.15082L4.72878 7.21174L4.06515 8.539L6.27603 10.1635C6.55512 10.3681 6.6933 10.7135 6.6333 11.0535C6.57421 11.3917 6.54512 11.7017 6.54512 11.9999C6.54512 12.298 6.57421 12.608 6.6333 12.9462C6.6933 13.2862 6.55512 13.6317 6.27603 13.8362L4.06515 15.4607L4.72878 16.788L7.43147 15.8489C7.7451 15.7416 8.09509 15.8107 8.34054 16.0343C8.85508 16.5025 9.44689 16.8634 10.0996 17.1071C10.3742 17.2089 10.5814 17.4371 10.6587 17.7189L11.3305 20.1816ZM13.3632 21.9997H10.636C10.2269 21.9997 9.86689 21.7252 9.75871 21.3306L9.02235 18.6289C8.49236 18.3907 7.99691 18.0916 7.54056 17.7361L4.5706 18.767C4.14151 18.917 3.66334 18.7234 3.45971 18.3152L2.09609 15.588C1.89791 15.1925 2.01427 14.7107 2.37154 14.4489L4.76332 12.6917C4.73969 12.4562 4.72696 12.2271 4.72696 11.9999C4.72696 11.7726 4.73969 11.5435 4.76332 11.3081L2.37154 9.5508C2.01427 9.28899 1.89791 8.80718 2.09609 8.41173L3.45971 5.68449C3.66334 5.27632 4.14242 5.08177 4.5706 5.23268L7.54056 6.26358C7.99691 5.90813 8.49236 5.60904 9.02235 5.37086L9.75871 2.66908C9.86689 2.27454 10.2269 2 10.636 2H13.3632C13.7732 2 14.1332 2.27454 14.2405 2.66908L14.9777 5.37086C15.4532 5.58359 15.9013 5.84449 16.3177 6.15176L19.4686 5.21905C19.8913 5.0945 20.3431 5.28995 20.5404 5.68449L21.904 8.41173C22.1013 8.80627 21.9867 9.28626 21.6322 9.54898L19.2377 11.3226C19.2613 11.5535 19.2722 11.778 19.2722 11.9999C19.2722 12.2217 19.2613 12.4462 19.2377 12.6771L21.6322 14.4507C21.9867 14.7135 22.1013 15.1934 21.904 15.588L20.5404 18.3152C20.3367 18.7234 19.8595 18.9179 19.4286 18.767L16.4595 17.7361C16.0032 18.0916 15.5068 18.3907 14.9777 18.6289L14.2405 21.3306C14.1332 21.7252 13.7732 21.9997 13.3632 21.9997V21.9997ZM11.9999 10.1817C10.9971 10.1817 10.1817 10.9971 10.1817 11.9999C10.1817 13.0026 10.9971 13.818 11.9999 13.818C13.0026 13.818 13.818 13.0026 13.818 11.9999C13.818 10.9971 13.0026 10.1817 11.9999 10.1817ZM11.9999 15.6362C9.99443 15.6362 8.36354 14.0053 8.36354 11.9999C8.36354 9.99443 9.99443 8.36355 11.9999 8.36355C14.0053 8.36355 15.6362 9.99443 15.6362 11.9999C15.6362 14.0053 14.0053 15.6362 11.9999 15.6362Z" fill="#323232"/>
</svg>
