<svg width="24" height="24" viewBox="0 0 24 24" fill="none" xmlns="http://www.w3.org/2000/svg">
<path fill-rule="evenodd" clip-rule="evenodd" d="M11.2637 21H12.7367L13.4747 18.291C13.5597 17.981 13.7887 17.73 14.0897 17.618C14.8077 17.35 15.4587 16.953 16.0247 16.438C16.2967 16.192 16.6817 16.115 17.0257 16.234L19.9987 17.267L20.7297 15.804L18.2957 14C17.9917 13.774 17.8407 13.398 17.9057 13.026C17.9697 12.657 17.9997 12.321 17.9997 12C17.9997 11.679 17.9697 11.343 17.9057 10.974C17.8407 10.602 17.9917 10.226 18.2957 10L20.7297 8.196L19.9807 6.697L16.8207 7.633C16.4957 7.727 16.1447 7.653 15.8877 7.436C15.3577 6.983 14.7527 6.63 14.0907 6.382C13.7887 6.27 13.5597 6.019 13.4747 5.709L12.7367 3H11.2637L10.5247 5.709C10.4397 6.019 10.2117 6.27 9.9097 6.382C9.1917 6.65 8.5407 7.047 7.9747 7.562C7.7037 7.809 7.3187 7.885 6.9747 7.766L4.0017 6.733L3.2717 8.193L5.7037 9.98C6.0107 10.205 6.1627 10.585 6.0967 10.959C6.0317 11.331 5.9997 11.672 5.9997 12C5.9997 12.328 6.0317 12.669 6.0967 13.041C6.1627 13.415 6.0107 13.795 5.7037 14.02L3.2717 15.807L4.0017 17.267L6.9747 16.234C7.3197 16.116 7.7047 16.192 7.9747 16.438C8.5407 16.953 9.1917 17.35 9.9097 17.618C10.2117 17.73 10.4397 17.981 10.5247 18.291L11.2637 21ZM13.4997 23H10.4997C10.0497 23 9.6537 22.698 9.5347 22.264L8.7247 19.292C8.1417 19.03 7.5967 18.701 7.0947 18.31L3.8277 19.444C3.3557 19.609 2.8297 19.396 2.6057 18.947L1.1057 15.947C0.887698 15.512 1.0157 14.982 1.4087 14.694L4.0397 12.761C4.0137 12.502 3.9997 12.25 3.9997 12C3.9997 11.75 4.0137 11.498 4.0397 11.239L1.4087 9.306C1.0157 9.018 0.887698 8.488 1.1057 8.053L2.6057 5.053C2.8297 4.604 3.3567 4.39 3.8277 4.556L7.0947 5.69C7.5967 5.299 8.1417 4.97 8.7247 4.708L9.5347 1.736C9.6537 1.302 10.0497 1 10.4997 1H13.4997C13.9507 1 14.3467 1.302 14.4647 1.736L15.2757 4.708C15.7987 4.942 16.2917 5.229 16.7497 5.567L20.2157 4.541C20.6807 4.404 21.1777 4.619 21.3947 5.053L22.8947 8.053C23.1117 8.487 22.9857 9.015 22.5957 9.304L19.9617 11.255C19.9877 11.509 19.9997 11.756 19.9997 12C19.9997 12.244 19.9877 12.491 19.9617 12.745L22.5957 14.696C22.9857 14.985 23.1117 15.513 22.8947 15.947L21.3947 18.947C21.1707 19.396 20.6457 19.61 20.1717 19.444L16.9057 18.31C16.4037 18.701 15.8577 19.03 15.2757 19.292L14.4647 22.264C14.3467 22.698 13.9507 23 13.4997 23V23ZM12 10C10.897 10 10 10.897 10 12C10 13.103 10.897 14 12 14C13.103 14 14 13.103 14 12C14 10.897 13.103 10 12 10ZM12 16C9.794 16 8 14.206 8 12C8 9.794 9.794 8 12 8C14.206 8 16 9.794 16 12C16 14.206 14.206 16 12 16Z" fill="#323232"/>
</svg>
