<svg width="32" height="32" viewBox="0 0 32 32" fill="none" xmlns="http://www.w3.org/2000/svg">
<path fill-rule="evenodd" clip-rule="evenodd" d="M27 6H5C4.448 6 4 6.447 4 7V21L6 19.5V8H26V20H17L16 21L17 22H27C27.552 22 28 21.553 28 21V7C28 6.447 27.552 6 27 6ZM10.0039 15.0005C10.5099 15.0005 11.0039 15.1045 11.0039 16.3555C11.0039 17.1855 10.5089 18.0005 10.0039 18.0005C9.4989 18.0005 9.0039 17.1855 9.0039 16.3555C9.0039 15.1045 9.4979 15.0005 10.0039 15.0005ZM7.0039 16.3555C7.0039 14.2535 8.1259 13.0005 10.0039 13.0005C11.8819 13.0005 13.0039 14.2535 13.0039 16.3555C13.0039 18.1085 11.8569 20.0005 10.0039 20.0005C8.1509 20.0005 7.0039 18.1085 7.0039 16.3555ZM10.004 24H11.002H13.004C12.415 23.313 11.463 23 10.002 23C8.543 23 7.591 23.313 7.002 24H10.004ZM12.68 21.613C11.831 21.211 10.931 21 10.004 21C7.94 21 5.999 21.985 4.502 24C3.692 25.09 3.884 26 5.002 26H6.002H7.012H10.002H12.994H14.004H15.004C16.122 26 16.314 25.09 15.504 24C14.924 23.22 14.277 22.599 13.583 22.124L12.68 21.613ZM23.45 11C23.7536 11 24 10.776 24 10.5C24 10.224 23.7536 10 23.45 10H13.55C13.2464 10 13 10.224 13 10.5C13 10.776 13.2464 11 13.55 11H23.45ZM23.6 14C23.8208 14 24 13.776 24 13.5C24 13.224 23.8208 13 23.6 13H16.4C16.1792 13 16 13.224 16 13.5C16 13.776 16.1792 14 16.4 14H23.6ZM23.6 17C23.8208 17 24 16.776 24 16.5C24 16.224 23.8208 16 23.6 16H16.4C16.1792 16 16 16.224 16 16.5C16 16.776 16.1792 17 16.4 17H23.6Z" fill="#323232"/>
</svg>
