<svg width="24" height="24" viewBox="0 0 24 24" fill="none" xmlns="http://www.w3.org/2000/svg">
<path fill-rule="evenodd" clip-rule="evenodd" d="M12.0448 13.4998C11.2873 13.4998 10.5448 12.2773 10.5448 11.0323C10.5448 9.1566 11.2858 8.99985 12.0448 8.99985C12.8038 8.99985 13.5448 9.1566 13.5448 11.0323C13.5448 12.2773 12.8023 13.4998 12.0448 13.4998ZM12.0403 7.49985C10.1623 7.49985 9.04028 8.84385 9.04028 11.0946C9.04028 12.9726 10.187 14.9998 12.0403 14.9998C13.8935 14.9998 15.0403 12.9726 15.0403 11.0946C15.0403 8.84385 13.919 7.49985 12.0403 7.49985ZM14.4405 17.9625C13.8548 18.2783 13.2698 18.5505 12.7508 18.7913C12.4763 18.9188 12.225 19.0358 12 19.149C11.7743 19.0358 11.523 18.9188 11.2485 18.7913C10.7295 18.5498 10.1445 18.2783 9.55875 17.9625C10.1723 17.5583 10.971 17.25 12 17.25C13.0283 17.25 13.827 17.5583 14.4405 17.9625ZM12 15.75C10.2548 15.75 9.00675 16.3995 8.1615 17.094C6.9555 16.215 6 15.0675 6 13.5V5.25H18V13.5C18 15.0675 17.0445 16.215 15.8377 17.0933C14.9925 16.3995 13.7445 15.75 12 15.75ZM18.75 3.75H12H5.25H4.5V4.5V13.5C4.5 13.7137 4.5165 13.9193 4.5405 14.121C4.5465 14.1713 4.55325 14.22 4.56075 14.2695C4.58775 14.4548 4.623 14.6362 4.6695 14.8125C4.6725 14.823 4.67475 14.835 4.677 14.8463C4.73025 15.0413 4.79625 15.2295 4.8705 15.4125C4.88025 15.438 4.8915 15.4627 4.902 15.4875C4.97775 15.666 5.061 15.8393 5.15475 16.0072C5.96475 17.4548 7.40175 18.4793 8.7525 19.2255C8.75775 19.2278 8.763 19.2308 8.769 19.2345C9.096 19.4145 9.41625 19.5788 9.72225 19.728C9.74175 19.737 9.75975 19.746 9.7785 19.755C9.9165 19.8218 10.0507 19.8862 10.1805 19.9478C10.1895 19.9515 10.1978 19.956 10.2067 19.9605C10.3643 20.034 10.5143 20.1038 10.6583 20.1705C10.8315 20.2515 10.9943 20.3272 11.1428 20.3993C11.16 20.4075 11.1772 20.4158 11.1945 20.424C11.3572 20.5035 11.5035 20.5777 11.625 20.6483C11.8605 20.7833 12 20.8988 12 21C12 20.8988 12.1395 20.7833 12.3742 20.6483H12.375C12.4957 20.5777 12.6427 20.5035 12.8048 20.424C12.822 20.4158 12.8393 20.4075 12.8565 20.3993C13.005 20.3272 13.1685 20.2515 13.3417 20.1705C13.485 20.1038 13.635 20.034 13.7925 19.9605C13.8015 19.956 13.8098 19.9515 13.8188 19.9478C13.9485 19.8862 14.0828 19.8218 14.2215 19.755C14.2395 19.746 14.2575 19.737 14.277 19.728C14.583 19.5788 14.904 19.4145 15.2303 19.2345C15.2362 19.2308 15.2415 19.2278 15.2475 19.2255C16.5975 18.4793 18.0345 17.4548 18.8445 16.0072C18.9382 15.8393 19.0215 15.666 19.0972 15.4875C19.1077 15.4627 19.119 15.438 19.1287 15.4125C19.203 15.2295 19.269 15.0413 19.3223 14.8463C19.3253 14.835 19.3268 14.823 19.3298 14.8125C19.3763 14.6362 19.4115 14.4548 19.4393 14.2695C19.446 14.22 19.4535 14.1713 19.4587 14.121C19.4827 13.9193 19.5 13.7137 19.5 13.5V4.5V3.75H18.75Z" fill="#323232"/>
</svg>
