<svg width="24" height="24" viewBox="0 0 24 24" fill="none" xmlns="http://www.w3.org/2000/svg">
<path fill-rule="evenodd" clip-rule="evenodd" d="M15.5302 18.5303L16.4999 17.5607L18.9695 20.0303L19.0402 20.0927C19.3344 20.3215 19.7598 20.3007 20.0302 20.0303C20.3231 19.7374 20.3231 19.2626 20.0302 18.9697L17.5605 16.5L18.5302 15.5303C19.0027 15.0579 18.6681 14.25 17.9999 14.25L14.9999 14.25C14.5857 14.25 14.2499 14.5858 14.2499 15L14.2499 18C14.2499 18.6682 15.0577 19.0028 15.5302 18.5303ZM8.46975 18.5303L7.50013 17.5607L5.0305 20.0303L4.95984 20.0927C4.66563 20.3215 4.2402 20.3007 3.96984 20.0303C3.67695 19.7374 3.67695 19.2625 3.96984 18.9696L6.43947 16.5L5.46975 15.5303C4.99728 15.0578 5.33191 14.25 6.00008 14.25H9.00008C9.4143 14.25 9.75008 14.5857 9.75008 15V18C9.75008 18.6681 8.94223 19.0028 8.46975 18.5303ZM4.95967 3.90727C4.66545 3.6785 4.24003 3.6993 3.96967 3.96966C3.67677 4.26255 3.67677 4.73743 3.96967 5.03032L6.43931 7.49996L5.46962 8.46965C4.99715 8.94212 5.33177 9.74998 5.99995 9.74998H8.99995C9.41416 9.74998 9.74995 9.41419 9.74995 8.99998V5.99998C9.74995 5.3318 8.94209 4.99717 8.46962 5.46965L7.49997 6.4393L5.03033 3.96966L4.95967 3.90727ZM20.0305 3.96966C19.7601 3.6993 19.3347 3.6785 19.0404 3.90727L18.9698 3.96966L16.5001 6.43934L15.5304 5.46964C15.0579 4.99716 14.2501 5.33179 14.2501 5.99996V8.99996C14.2501 9.41418 14.5859 9.74996 15.0001 9.74996H18.0001C18.6683 9.74996 19.0029 8.94211 18.5304 8.46964L17.5608 7.5L20.0305 5.03032C20.3233 4.73743 20.3233 4.26255 20.0305 3.96966Z" fill="#323232"/>
</svg>
