<svg width="24" height="24" viewBox="0 0 24 24" fill="none" xmlns="http://www.w3.org/2000/svg">
<path fill-rule="evenodd" clip-rule="evenodd" d="M16.348 17.047H8V6H16.348V17.047ZM7 4H17.348C17.9 4 18.348 4.447 18.348 5V18.047C18.348 18.6 17.9 19.047 17.348 19.047H7C6.447 19.047 6 18.6 6 18.047V5C6 4.447 6.447 4 7 4ZM9.46 9.0001H14.889C15.165 9.0001 15.389 8.7761 15.389 8.5001C15.389 8.2241 15.165 8.0001 14.889 8.0001H9.46C9.184 8.0001 8.96 8.2241 8.96 8.5001C8.96 8.7761 9.184 9.0001 9.46 9.0001ZM9.46 11.0001H14.889C15.165 11.0001 15.389 10.7761 15.389 10.5001C15.389 10.2241 15.165 10.0001 14.889 10.0001H9.46C9.184 10.0001 8.96 10.2241 8.96 10.5001C8.96 10.7761 9.184 11.0001 9.46 11.0001ZM14.889 13.0001H9.46C9.184 13.0001 8.96 12.7761 8.96 12.5001C8.96 12.2241 9.184 12.0001 9.46 12.0001H14.889C15.165 12.0001 15.389 12.2241 15.389 12.5001C15.389 12.7761 15.165 13.0001 14.889 13.0001ZM9.46 15.0001H12.96C13.236 15.0001 13.46 14.7761 13.46 14.5001C13.46 14.2241 13.236 14.0001 12.96 14.0001H9.46C9.184 14.0001 8.96 14.2241 8.96 14.5001C8.96 14.7761 9.184 15.0001 9.46 15.0001Z" fill="#323232"/>
<mask id="mask0_8_4129" style="mask-type:alpha" maskUnits="userSpaceOnUse" x="6" y="4" width="13" height="16">
<path fill-rule="evenodd" clip-rule="evenodd" d="M16.348 17.047H8V6H16.348V17.047ZM7 4H17.348C17.9 4 18.348 4.447 18.348 5V18.047C18.348 18.6 17.9 19.047 17.348 19.047H7C6.447 19.047 6 18.6 6 18.047V5C6 4.447 6.447 4 7 4ZM9.46 9.0001H14.889C15.165 9.0001 15.389 8.7761 15.389 8.5001C15.389 8.2241 15.165 8.0001 14.889 8.0001H9.46C9.184 8.0001 8.96 8.2241 8.96 8.5001C8.96 8.7761 9.184 9.0001 9.46 9.0001ZM9.46 11.0001H14.889C15.165 11.0001 15.389 10.7761 15.389 10.5001C15.389 10.2241 15.165 10.0001 14.889 10.0001H9.46C9.184 10.0001 8.96 10.2241 8.96 10.5001C8.96 10.7761 9.184 11.0001 9.46 11.0001ZM14.889 13.0001H9.46C9.184 13.0001 8.96 12.7761 8.96 12.5001C8.96 12.2241 9.184 12.0001 9.46 12.0001H14.889C15.165 12.0001 15.389 12.2241 15.389 12.5001C15.389 12.7761 15.165 13.0001 14.889 13.0001ZM9.46 15.0001H12.96C13.236 15.0001 13.46 14.7761 13.46 14.5001C13.46 14.2241 13.236 14.0001 12.96 14.0001H9.46C9.184 14.0001 8.96 14.2241 8.96 14.5001C8.96 14.7761 9.184 15.0001 9.46 15.0001Z" fill="white"/>
</mask>
<g mask="url(#mask0_8_4129)">
</g>
</svg>
