<svg width="24" height="24" viewBox="0 0 24 24" fill="none" xmlns="http://www.w3.org/2000/svg">
<path fill-rule="evenodd" clip-rule="evenodd" d="M17 4C18.1046 4 19 4.89543 19 6V18C19 19.1046 18.1046 20 17 20H8C6.89543 20 6 19.1046 6 18V6C6 4.89543 6.89543 4 8 4H17ZM17 6H8V18H17V6ZM11 13C10.448 13 10 12.552 10 12C10 11.448 10.448 11 11 11H14C14.552 11 15 11.448 15 12C15 12.552 14.552 13 14 13H11ZM11 10C10.448 10 10 9.552 10 9C10 8.448 10.448 8 11 8H14C14.552 8 15 8.448 15 9C15 9.552 14.552 10 14 10H11ZM11 16C10.448 16 10 15.552 10 15C10 14.448 10.448 14 11 14H12C12.552 14 13 14.448 13 15C13 15.552 12.552 16 12 16H11Z" fill="#323232"/>
</svg>
