<svg width="40" height="40" viewBox="0 0 40 40" fill="none" xmlns="http://www.w3.org/2000/svg">
<path fill-rule="evenodd" clip-rule="evenodd" d="M19.5733 9.86005L19.5731 7.5732C19.573 7.3467 19.4394 7.14198 19.2323 7.04967C19.026 6.95817 18.7857 6.99446 18.6167 7.14727L15.1827 10.5813C15.0639 10.6904 14.9944 10.8441 14.9944 11.0059C14.9953 11.1685 15.0642 11.323 15.1839 11.4315L18.6202 14.8613C18.7278 14.9576 18.8654 15.0078 19.0037 15.0087C19.0838 15.0079 19.1614 14.9917 19.2358 14.9578C19.4429 14.8673 19.5754 14.6619 19.5761 14.4362L19.5753 12.5H20C25.5228 12.5 29.5 16.4772 29.5 22C29.5 27.5228 25.5228 31.5 20 31.5C14.4772 31.5 10.5 27.5228 10.5 22C10.5 20 8 20 8 22C8 28.6274 13.3726 34 20 34C26.6274 34 32 28.6274 32 22C32 15.3726 26.6274 10 20 10H19.5734L19.5733 9.86005Z" fill="#323232"/>
<path d="M14.0167 27V25.464H15.9367V20.1H16.8127L14.2207 21.612V19.86L16.4767 18.54H17.8087V25.464H19.6087V27H14.0167ZM23.6 27.132C23.224 27.132 22.852 27.092 22.484 27.012C22.116 26.932 21.772 26.824 21.452 26.688C21.132 26.544 20.864 26.376 20.648 26.184L21.236 24.792C21.596 25.048 21.972 25.244 22.364 25.38C22.756 25.516 23.156 25.584 23.564 25.584C24.028 25.584 24.388 25.476 24.644 25.26C24.908 25.036 25.04 24.732 25.04 24.348C25.04 23.964 24.916 23.656 24.668 23.424C24.42 23.192 24.08 23.076 23.648 23.076C23.344 23.076 23.06 23.132 22.796 23.244C22.54 23.356 22.308 23.528 22.1 23.76H20.9V18.54H26.3V20.064H22.664V22.356H22.232C22.432 22.108 22.696 21.916 23.024 21.78C23.352 21.644 23.72 21.576 24.128 21.576C24.672 21.576 25.144 21.692 25.544 21.924C25.952 22.148 26.268 22.464 26.492 22.872C26.716 23.272 26.828 23.744 26.828 24.288C26.828 24.848 26.696 25.344 26.432 25.776C26.176 26.2 25.804 26.532 25.316 26.772C24.836 27.012 24.264 27.132 23.6 27.132Z" fill="#323232"/>
</svg>
