<svg width="40" height="40" viewBox="0 0 40 40" fill="none" xmlns="http://www.w3.org/2000/svg">
<path fill-rule="evenodd" clip-rule="evenodd" d="M20.4267 9.86005L20.4269 7.5732C20.427 7.3467 20.5606 7.14198 20.7677 7.04967C20.974 6.95817 21.2143 6.99446 21.3833 7.14727L24.8173 10.5813C24.9361 10.6904 25.0056 10.8441 25.0056 11.0059C25.0047 11.1685 24.9358 11.323 24.8161 11.4315L21.3798 14.8613C21.2722 14.9576 21.1346 15.0078 20.9963 15.0087C20.9162 15.0079 20.8386 14.9917 20.7642 14.9578C20.5571 14.8673 20.4246 14.6619 20.4239 14.4362L20.4247 12.5H20C14.4772 12.5 10.5 16.4772 10.5 22C10.5 27.5228 14.4772 31.5 20 31.5C25.5228 31.5 29.5 27.5228 29.5 22C29.5 20 32 20 32 22C32 28.6274 26.6274 34 20 34C13.3726 34 8 28.6274 8 22C8 15.3726 13.3726 10 20 10H20.4266L20.4267 9.86005Z" fill="#323232"/>
<path d="M14.0167 27V25.464H15.9367V20.1H16.8127L14.2207 21.612V19.86L16.4767 18.54H17.8087V25.464H19.6087V27H14.0167ZM23.6 27.132C23.224 27.132 22.852 27.092 22.484 27.012C22.116 26.932 21.772 26.824 21.452 26.688C21.132 26.544 20.864 26.376 20.648 26.184L21.236 24.792C21.596 25.048 21.972 25.244 22.364 25.38C22.756 25.516 23.156 25.584 23.564 25.584C24.028 25.584 24.388 25.476 24.644 25.26C24.908 25.036 25.04 24.732 25.04 24.348C25.04 23.964 24.916 23.656 24.668 23.424C24.42 23.192 24.08 23.076 23.648 23.076C23.344 23.076 23.06 23.132 22.796 23.244C22.54 23.356 22.308 23.528 22.1 23.76H20.9V18.54H26.3V20.064H22.664V22.356H22.232C22.432 22.108 22.696 21.916 23.024 21.78C23.352 21.644 23.72 21.576 24.128 21.576C24.672 21.576 25.144 21.692 25.544 21.924C25.952 22.148 26.268 22.464 26.492 22.872C26.716 23.272 26.828 23.744 26.828 24.288C26.828 24.848 26.696 25.344 26.432 25.776C26.176 26.2 25.804 26.532 25.316 26.772C24.836 27.012 24.264 27.132 23.6 27.132Z" fill="#323232"/>
</svg>
