<svg width="24" height="24" viewBox="0 0 24 24" fill="none" xmlns="http://www.w3.org/2000/svg">
<path fill-rule="evenodd" clip-rule="evenodd" d="M11.991 10C12.497 10 12.991 10.104 12.991 11.355C12.991 12.185 12.496 13 11.991 13C11.486 13 10.991 12.185 10.991 11.355C10.991 10.104 11.485 10 11.991 10M11.991 15C13.845 15 14.991 13.108 14.991 11.355C14.991 9.254 13.87 8 11.991 8C10.113 8 8.99097 9.254 8.99097 11.355C8.99097 13.108 10.138 15 11.991 15" fill="#323232"/>
<path fill-rule="evenodd" clip-rule="evenodd" d="M12.9901 19H11.9921H8.99007C9.57907 18.312 10.5311 18 11.9901 18L11.9921 17.999V18C13.4521 18 14.4031 18.312 14.9921 19H12.9901ZM11.9921 16V16.003L11.9901 16C9.92807 16 7.98607 16.985 6.49007 19C5.68007 20.09 5.87307 21 6.99007 21H7.99007H9.00007H11.9901L11.9921 20.996V21H14.9821H15.9921H16.9921C18.1101 21 18.3021 20.09 17.4921 19C15.9961 16.985 14.0531 16 11.9921 16V16Z" fill="#323232"/>
<path fill-rule="evenodd" clip-rule="evenodd" d="M6.99593 15H5.99793H2.99593C3.58493 14.312 4.53693 14 5.99593 14L5.99793 13.999V14C6.69793 14 7.26493 14.085 7.74193 14.239C7.38893 13.571 7.15593 12.839 7.05493 12.094C6.70793 12.033 6.35493 12 5.99793 12V12.003L5.99593 12C3.93393 12 1.99193 12.985 0.495932 15C-0.314068 16.09 -0.121068 17 0.995932 17H1.99593H3.00693H5.63593C6.42893 16.16 7.27293 15.483 8.16793 15H6.99593Z" fill="#323232"/>
<path fill-rule="evenodd" clip-rule="evenodd" d="M23.492 15C21.996 12.985 20.054 12 17.992 12V12.003L17.99 12C17.631 12 17.276 12.033 16.928 12.096C16.826 12.841 16.594 13.574 16.238 14.242C16.718 14.086 17.287 14 17.99 14L17.992 13.999V14C19.452 14 20.403 14.312 20.992 15H18.99H17.992H15.814C16.709 15.483 17.555 16.16 18.346 17H20.982H21.992H22.992C24.11 17 24.302 16.09 23.492 15" fill="#323232"/>
<path fill-rule="evenodd" clip-rule="evenodd" d="M17.991 6C18.497 6 18.991 6.104 18.991 7.355C18.991 8.185 18.496 9 17.991 9C17.486 9 16.991 8.185 16.991 7.355C16.991 6.104 17.485 6 17.991 6M16.957 10.764C17.272 10.905 17.613 11 17.991 11C19.845 11 20.991 9.108 20.991 7.355C20.991 5.254 19.87 4 17.991 4C16.268 4 15.193 5.064 15.025 6.86C16.176 7.66 16.845 9.004 16.957 10.764" fill="#323232"/>
<path fill-rule="evenodd" clip-rule="evenodd" d="M5.99695 6C6.50295 6 6.99695 6.104 6.99695 7.355C6.99695 8.185 6.50195 9 5.99695 9C5.49195 9 4.99695 8.185 4.99695 7.355C4.99695 6.104 5.49095 6 5.99695 6M5.99695 11C6.37295 11 6.71095 10.906 7.02495 10.767C7.13695 9.002 7.80895 7.655 8.96295 6.855C8.79295 5.063 7.71895 4 5.99695 4C4.11895 4 2.99695 5.254 2.99695 7.355C2.99695 9.108 4.14395 11 5.99695 11" fill="#323232"/>
</svg>
