<svg width="24" height="24" viewBox="0 0 24 24" fill="none" xmlns="http://www.w3.org/2000/svg">
<path fill-rule="evenodd" clip-rule="evenodd" d="M12 14.0001L16 17.0001V7.00012L12 10.0001V14.0001ZM17 20.0001C16.788 20.0001 16.577 19.9321 16.4 19.8001L10.4 15.3001C10.148 15.1111 10 14.8151 10 14.5001V9.50012C10 9.18512 10.148 8.88912 10.4 8.70012L16.4 4.20012C16.703 3.97312 17.107 3.93612 17.447 4.10512C17.786 4.27512 18 4.62112 18 5.00012V19.0001C18 19.3791 17.786 19.7251 17.447 19.8951C17.306 19.9651 17.152 20.0001 17 20.0001ZM8.5 15.0001H6.5C6.225 15.0001 6 14.7751 6 14.5001V9.50012C6 9.22512 6.225 9.00012 6.5 9.00012H8.5C8.775 9.00012 9 9.22512 9 9.50012V14.5001C9 14.7751 8.775 15.0001 8.5 15.0001Z" fill="#323232"/>
</svg>
