<svg width="40" height="40" viewBox="0 0 40 40" fill="none" xmlns="http://www.w3.org/2000/svg">
<path fill-rule="evenodd" clip-rule="evenodd" d="M19.799 7.14377C18.9904 6.40824 18.2341 6.03652 17.0529 6.0008L15.25 6C14.2835 6 13.5 6.7835 13.5 7.75C13.5 8.7165 14.2835 9.5 15.25 9.5H16.9773L17.0423 9.50485C17.2157 9.52268 17.3023 9.589 17.5919 9.87318L17.9372 10.2046C18.7064 10.9065 19.4052 11.25 20.5 11.25C21.7043 11.25 22.4294 10.8343 23.2962 9.98333L23.5373 9.74846C23.7213 9.57545 23.8063 9.5238 23.9406 9.5068L24.0245 9.5H25.75C26.7165 9.5 27.5 8.7165 27.5 7.75C27.5 6.7835 26.7165 6 25.75 6L23.9471 6.0008C22.6478 6.04009 21.8626 6.48594 20.9564 7.37537L20.6698 7.65592C20.5882 7.73324 20.5645 7.74706 20.5295 7.74949H20.4705C20.4355 7.74706 20.4118 7.73324 20.3302 7.65592L20.0436 7.37537L19.799 7.14377ZM38 18.8668C38 15.7593 31.4773 14.7876 21.1378 14.75L19.234 14.7535C9.25918 14.8282 3 15.8228 3 18.8668C3 23.7171 11.7085 28.75 20.5 28.75C29.2915 28.75 38 23.7171 38 18.8668ZM12.1211 23.1404C14.4439 22.2972 17.4979 21.75 20.5009 21.75C23.5038 21.75 26.5578 22.2972 28.8806 23.1404L29.25 23.2795L28.9111 23.4428C28.2837 23.7277 27.6261 23.9851 26.9459 24.2099C24.9011 24.8858 22.7136 25.25 20.5009 25.25C18.2881 25.25 16.1006 24.8858 14.0559 24.2099L13.3835 23.9744C12.9406 23.8104 12.5089 23.6327 12.0907 23.4428L11.75 23.2795L12.1211 23.1404ZM25.7912 30.5356C26.5454 30.3607 27.2949 30.8465 27.4653 31.6207C27.6357 32.3948 27.1624 33.1642 26.4083 33.3392C24.5301 33.7748 22.5384 34 20.5 34C18.4616 34 16.4699 33.7748 14.5917 33.3392C13.8376 33.1642 13.3643 32.3948 13.5347 31.6207C13.7051 30.8465 14.4546 30.3607 15.2088 30.5356C16.8832 30.924 18.6679 31.2 20.5 31.2C22.3321 31.2 24.1168 30.924 25.7912 30.5356Z" fill="#323232"/>
</svg>
