<svg width="24" height="24" viewBox="0 0 24 24" fill="none" xmlns="http://www.w3.org/2000/svg">
<mask id="path-1-inside-1_8_3566" fill="white">
<path fill-rule="evenodd" clip-rule="evenodd" d="M19.9513 9.76766C19.8303 9.39372 19.5033 9.12505 19.1143 9.07994L15.2123 8.62681L12.8703 4.47143C12.5153 3.84286 11.4833 3.84286 11.1293 4.47143L8.78626 8.62681L4.88526 9.07994C4.49526 9.12505 4.16826 9.39372 4.04826 9.76766C3.92826 10.1416 4.03626 10.5506 4.32526 10.8153L7.55226 13.7687L6.86626 17.8298C6.80226 18.2087 6.95926 18.5907 7.27126 18.8133C7.58426 19.0368 7.99526 19.0619 8.33126 18.8764L11.9993 16.8644L15.6673 18.8764C15.8173 18.9586 15.9833 18.9997 16.1473 18.9997C16.3513 18.9997 16.5553 18.9366 16.7273 18.8133C17.0403 18.5907 17.1973 18.2087 17.1333 17.8298L16.4473 13.7687L19.6743 10.8153C19.9633 10.5506 20.0713 10.1416 19.9513 9.76766Z"/>
</mask>
<path d="M19.1143 9.07994L18.8836 11.0666L18.8839 11.0666L19.1143 9.07994ZM15.2123 8.62681L13.4699 9.6088L13.97 10.496L14.9816 10.6135L15.2123 8.62681ZM12.8703 4.47143L14.6126 3.48944L14.6117 3.4879L12.8703 4.47143ZM11.1293 4.47143L12.8714 5.45373L12.8719 5.45285L11.1293 4.47143ZM8.78626 8.62681L9.01703 10.6135L10.0284 10.496L10.5284 9.60911L8.78626 8.62681ZM4.88526 9.07994L5.11508 11.0667L5.11603 11.0666L4.88526 9.07994ZM4.32526 10.8153L2.97452 12.2902L2.97498 12.2907L4.32526 10.8153ZM7.55226 13.7687L9.52432 14.1018L9.70566 13.0283L8.90254 12.2933L7.55226 13.7687ZM6.86626 17.8298L4.8942 17.4967L4.89419 17.4967L6.86626 17.8298ZM7.27126 18.8133L8.43369 17.1858L8.4327 17.185L7.27126 18.8133ZM8.33126 18.8764L7.36939 17.1229L7.36477 17.1254L8.33126 18.8764ZM11.9993 16.8644L12.9611 15.1109L11.9993 14.5833L11.0374 15.1109L11.9993 16.8644ZM15.6673 18.8764L14.7054 20.6299L14.7061 20.6303L15.6673 18.8764ZM16.7273 18.8133L15.5683 17.1833L15.562 17.1878L16.7273 18.8133ZM17.1333 17.8298L19.1053 17.4967L19.1053 17.4967L17.1333 17.8298ZM16.4473 13.7687L15.097 12.2933L14.2939 13.0283L14.4752 14.1018L16.4473 13.7687ZM19.6743 10.8153L21.0245 12.2907L21.025 12.2902L19.6743 10.8153ZM21.8541 9.15192C21.4932 8.03649 20.5151 7.22899 19.3447 7.09326L18.8839 11.0666C18.4915 11.0211 18.1673 10.751 18.0484 10.3834L21.8541 9.15192ZM19.345 7.09329L15.443 6.64016L14.9816 10.6135L18.8836 11.0666L19.345 7.09329ZM16.9546 7.64482L14.6126 3.48944L11.1279 5.45341L13.4699 9.6088L16.9546 7.64482ZM14.6117 3.4879C14.0044 2.41253 12.9004 2 11.9994 2C11.0985 2 9.99337 2.41265 9.38662 3.49L12.8719 5.45285C12.6192 5.90164 12.207 6 11.9994 6C11.7917 6 11.3811 5.90175 11.1288 5.45496L14.6117 3.4879ZM9.38711 3.48912L7.04411 7.6445L10.5284 9.60911L12.8714 5.45373L9.38711 3.48912ZM8.5555 6.64017L4.6545 7.0933L5.11603 11.0666L9.01703 10.6135L8.5555 6.64017ZM4.65545 7.09319C3.48542 7.22853 2.50369 8.03543 2.14392 9.15653L5.95261 10.3788C5.83283 10.752 5.50511 11.0216 5.11508 11.0667L4.65545 7.09319ZM2.14392 9.15653C1.78619 10.2712 2.10709 11.4959 2.97452 12.2902L5.676 9.34032C5.96543 9.60537 6.07033 10.0119 5.95261 10.3788L2.14392 9.15653ZM2.97498 12.2907L6.20198 15.244L8.90254 12.2933L5.67554 9.3399L2.97498 12.2907ZM5.5802 13.4355L4.8942 17.4967L8.83833 18.1629L9.52432 14.1018L5.5802 13.4355ZM4.89419 17.4967C4.70345 18.6261 5.17067 19.7716 6.10983 20.4415L8.4327 17.185C8.74785 17.4099 8.90108 17.7914 8.83833 18.1629L4.89419 17.4967ZM6.10883 20.4408C7.04346 21.1083 8.2821 21.188 9.29775 20.6274L7.36477 17.1254C7.70842 16.9358 8.12507 16.9653 8.43369 17.1858L6.10883 20.4408ZM9.29313 20.6299L12.9611 18.6179L11.0374 15.1109L7.3694 17.1229L9.29313 20.6299ZM11.0374 18.6179L14.7054 20.6299L16.6291 17.1229L12.9611 15.1109L11.0374 18.6179ZM14.7061 20.6303C15.1542 20.8759 15.6513 20.9997 16.1473 20.9997V16.9997C16.3152 16.9997 16.4803 17.0413 16.6285 17.1225L14.7061 20.6303ZM16.1473 20.9997C16.7616 20.9997 17.3746 20.81 17.8926 20.4387L15.562 17.1878C15.7359 17.0631 15.941 16.9997 16.1473 16.9997V20.9997ZM17.8862 20.4432C18.8283 19.7734 19.2962 18.6268 19.1053 17.4967L15.1612 18.1629C15.0983 17.7907 15.2522 17.408 15.5683 17.1833L17.8862 20.4432ZM19.1053 17.4967L18.4193 13.4355L14.4752 14.1018L15.1612 18.1629L19.1053 17.4967ZM17.7975 15.244L21.0245 12.2907L18.324 9.3399L15.097 12.2933L17.7975 15.244ZM21.025 12.2902C21.8924 11.4959 22.2133 10.2712 21.8556 9.15653L18.0469 10.3788C17.9292 10.0119 18.0341 9.60538 18.3235 9.34032L21.025 12.2902Z" fill="#B4B4B4" mask="url(#path-1-inside-1_8_3566)"/>
<mask id="mask0_8_3566" style="mask-type:alpha" maskUnits="userSpaceOnUse" x="4" y="4" width="16" height="15">
<mask id="path-3-inside-2_8_3566" fill="white">
<path fill-rule="evenodd" clip-rule="evenodd" d="M19.9513 9.76766C19.8303 9.39372 19.5033 9.12505 19.1143 9.07994L15.2123 8.62681L12.8703 4.47143C12.5153 3.84286 11.4833 3.84286 11.1293 4.47143L8.78626 8.62681L4.88526 9.07994C4.49526 9.12505 4.16826 9.39372 4.04826 9.76766C3.92826 10.1416 4.03626 10.5506 4.32526 10.8153L7.55226 13.7687L6.86626 17.8298C6.80226 18.2087 6.95926 18.5907 7.27126 18.8133C7.58426 19.0368 7.99526 19.0619 8.33126 18.8764L11.9993 16.8644L15.6673 18.8764C15.8173 18.9586 15.9833 18.9997 16.1473 18.9997C16.3513 18.9997 16.5553 18.9366 16.7273 18.8133C17.0403 18.5907 17.1973 18.2087 17.1333 17.8298L16.4473 13.7687L19.6743 10.8153C19.9633 10.5506 20.0713 10.1416 19.9513 9.76766Z"/>
</mask>
<path fill-rule="evenodd" clip-rule="evenodd" d="M19.9513 9.76766C19.8303 9.39372 19.5033 9.12505 19.1143 9.07994L15.2123 8.62681L12.8703 4.47143C12.5153 3.84286 11.4833 3.84286 11.1293 4.47143L8.78626 8.62681L4.88526 9.07994C4.49526 9.12505 4.16826 9.39372 4.04826 9.76766C3.92826 10.1416 4.03626 10.5506 4.32526 10.8153L7.55226 13.7687L6.86626 17.8298C6.80226 18.2087 6.95926 18.5907 7.27126 18.8133C7.58426 19.0368 7.99526 19.0619 8.33126 18.8764L11.9993 16.8644L15.6673 18.8764C15.8173 18.9586 15.9833 18.9997 16.1473 18.9997C16.3513 18.9997 16.5553 18.9366 16.7273 18.8133C17.0403 18.5907 17.1973 18.2087 17.1333 17.8298L16.4473 13.7687L19.6743 10.8153C19.9633 10.5506 20.0713 10.1416 19.9513 9.76766Z" fill="white"/>
<path d="M19.1143 9.07994L18.8836 11.0666L18.8839 11.0666L19.1143 9.07994ZM15.2123 8.62681L13.4699 9.6088L13.97 10.496L14.9816 10.6135L15.2123 8.62681ZM12.8703 4.47143L14.6126 3.48944L14.6117 3.4879L12.8703 4.47143ZM11.1293 4.47143L12.8714 5.45373L12.8719 5.45285L11.1293 4.47143ZM8.78626 8.62681L9.01703 10.6135L10.0284 10.496L10.5284 9.60911L8.78626 8.62681ZM4.88526 9.07994L5.11508 11.0667L5.11603 11.0666L4.88526 9.07994ZM4.32526 10.8153L2.97452 12.2902L2.97498 12.2907L4.32526 10.8153ZM7.55226 13.7687L9.52432 14.1018L9.70566 13.0283L8.90254 12.2933L7.55226 13.7687ZM6.86626 17.8298L4.8942 17.4967L4.89419 17.4967L6.86626 17.8298ZM7.27126 18.8133L8.43369 17.1858L8.4327 17.185L7.27126 18.8133ZM8.33126 18.8764L7.36939 17.1229L7.36477 17.1254L8.33126 18.8764ZM11.9993 16.8644L12.9611 15.1109L11.9993 14.5833L11.0374 15.1109L11.9993 16.8644ZM15.6673 18.8764L14.7054 20.6299L14.7061 20.6303L15.6673 18.8764ZM16.7273 18.8133L15.5683 17.1833L15.562 17.1878L16.7273 18.8133ZM17.1333 17.8298L19.1053 17.4967L19.1053 17.4967L17.1333 17.8298ZM16.4473 13.7687L15.097 12.2933L14.2939 13.0283L14.4752 14.1018L16.4473 13.7687ZM19.6743 10.8153L21.0245 12.2907L21.025 12.2902L19.6743 10.8153ZM21.8541 9.15192C21.4932 8.03649 20.5151 7.22899 19.3447 7.09326L18.8839 11.0666C18.4915 11.0211 18.1673 10.751 18.0484 10.3834L21.8541 9.15192ZM19.345 7.09329L15.443 6.64016L14.9816 10.6135L18.8836 11.0666L19.345 7.09329ZM16.9546 7.64482L14.6126 3.48944L11.1279 5.45341L13.4699 9.6088L16.9546 7.64482ZM14.6117 3.4879C14.0044 2.41253 12.9004 2 11.9994 2C11.0985 2 9.99337 2.41265 9.38662 3.49L12.8719 5.45285C12.6192 5.90164 12.207 6 11.9994 6C11.7917 6 11.3811 5.90175 11.1288 5.45496L14.6117 3.4879ZM9.38711 3.48912L7.04411 7.6445L10.5284 9.60911L12.8714 5.45373L9.38711 3.48912ZM8.5555 6.64017L4.6545 7.0933L5.11603 11.0666L9.01703 10.6135L8.5555 6.64017ZM4.65545 7.09319C3.48542 7.22853 2.50369 8.03543 2.14392 9.15653L5.95261 10.3788C5.83283 10.752 5.50511 11.0216 5.11508 11.0667L4.65545 7.09319ZM2.14392 9.15653C1.78619 10.2712 2.10709 11.4959 2.97452 12.2902L5.676 9.34032C5.96543 9.60537 6.07033 10.0119 5.95261 10.3788L2.14392 9.15653ZM2.97498 12.2907L6.20198 15.244L8.90254 12.2933L5.67554 9.3399L2.97498 12.2907ZM5.5802 13.4355L4.8942 17.4967L8.83833 18.1629L9.52432 14.1018L5.5802 13.4355ZM4.89419 17.4967C4.70345 18.6261 5.17067 19.7716 6.10983 20.4415L8.4327 17.185C8.74785 17.4099 8.90108 17.7914 8.83833 18.1629L4.89419 17.4967ZM6.10883 20.4408C7.04346 21.1083 8.2821 21.188 9.29775 20.6274L7.36477 17.1254C7.70842 16.9358 8.12507 16.9653 8.43369 17.1858L6.10883 20.4408ZM9.29313 20.6299L12.9611 18.6179L11.0374 15.1109L7.3694 17.1229L9.29313 20.6299ZM11.0374 18.6179L14.7054 20.6299L16.6291 17.1229L12.9611 15.1109L11.0374 18.6179ZM14.7061 20.6303C15.1542 20.8759 15.6513 20.9997 16.1473 20.9997V16.9997C16.3152 16.9997 16.4803 17.0413 16.6285 17.1225L14.7061 20.6303ZM16.1473 20.9997C16.7616 20.9997 17.3746 20.81 17.8926 20.4387L15.562 17.1878C15.7359 17.0631 15.941 16.9997 16.1473 16.9997V20.9997ZM17.8862 20.4432C18.8283 19.7734 19.2962 18.6268 19.1053 17.4967L15.1612 18.1629C15.0983 17.7907 15.2522 17.408 15.5683 17.1833L17.8862 20.4432ZM19.1053 17.4967L18.4193 13.4355L14.4752 14.1018L15.1612 18.1629L19.1053 17.4967ZM17.7975 15.244L21.0245 12.2907L18.324 9.3399L15.097 12.2933L17.7975 15.244ZM21.025 12.2902C21.8924 11.4959 22.2133 10.2712 21.8556 9.15653L18.0469 10.3788C17.9292 10.0119 18.0341 9.60538 18.3235 9.34032L21.025 12.2902Z" fill="white" mask="url(#path-3-inside-2_8_3566)"/>
</mask>
<g mask="url(#mask0_8_3566)">
</g>
</svg>
