<svg width="24" height="24" viewBox="0 0 24 24" fill="none" xmlns="http://www.w3.org/2000/svg">
<path fill-rule="evenodd" clip-rule="evenodd" d="M19.9513 9.76766C19.8303 9.39372 19.5033 9.12505 19.1143 9.07994L15.2123 8.62681L12.8703 4.47143C12.5153 3.84286 11.4833 3.84286 11.1293 4.47143L8.78626 8.62681L4.88526 9.07994C4.49526 9.12505 4.16826 9.39372 4.04826 9.76766C3.92826 10.1416 4.03626 10.5506 4.32526 10.8153L7.55226 13.7687L6.86626 17.8298C6.80226 18.2087 6.95926 18.5907 7.27126 18.8133C7.58426 19.0368 7.99526 19.0619 8.33126 18.8764L11.9993 16.8644L15.6673 18.8764C15.8173 18.9586 15.9833 18.9997 16.1473 18.9997C16.3513 18.9997 16.5553 18.9366 16.7273 18.8133C17.0403 18.5907 17.1973 18.2087 17.1333 17.8298L16.4473 13.7687L19.6743 10.8153C19.9633 10.5506 20.0713 10.1416 19.9513 9.76766Z" fill="#E6C84A"/>
<mask id="mask0_8_3547" style="mask-type:alpha" maskUnits="userSpaceOnUse" x="4" y="4" width="16" height="15">
<path fill-rule="evenodd" clip-rule="evenodd" d="M19.9513 9.76766C19.8303 9.39372 19.5033 9.12505 19.1143 9.07994L15.2123 8.62681L12.8703 4.47143C12.5153 3.84286 11.4833 3.84286 11.1293 4.47143L8.78626 8.62681L4.88526 9.07994C4.49526 9.12505 4.16826 9.39372 4.04826 9.76766C3.92826 10.1416 4.03626 10.5506 4.32526 10.8153L7.55226 13.7687L6.86626 17.8298C6.80226 18.2087 6.95926 18.5907 7.27126 18.8133C7.58426 19.0368 7.99526 19.0619 8.33126 18.8764L11.9993 16.8644L15.6673 18.8764C15.8173 18.9586 15.9833 18.9997 16.1473 18.9997C16.3513 18.9997 16.5553 18.9366 16.7273 18.8133C17.0403 18.5907 17.1973 18.2087 17.1333 17.8298L16.4473 13.7687L19.6743 10.8153C19.9633 10.5506 20.0713 10.1416 19.9513 9.76766Z" fill="white"/>
</mask>
<g mask="url(#mask0_8_3547)">
</g>
</svg>
