<svg width="24" height="24" viewBox="0 0 24 24" fill="none" xmlns="http://www.w3.org/2000/svg">
<path fill-rule="evenodd" clip-rule="evenodd" d="M14.6963 12.6571C14.4453 12.8867 14.3273 13.2286 14.3843 13.5644L14.8173 16.1238L13.1893 15.2306L15.4613 10.6742L16.7053 10.8185L14.6963 12.6571ZM8.86226 10.6361L8.30826 11.7459L7.29526 10.8185L8.86226 10.6361ZM12.7563 8.34336L9.34026 15.1915L9.61526 13.5644C9.67226 13.2286 9.55426 12.8867 9.30326 12.6571L9.07626 12.4486L10.2583 10.0787C10.2633 10.0707 10.2733 10.0667 10.2783 10.0576L12.0003 7.00201L12.7563 8.34336ZM14.4123 10.5358L12.3003 14.7704C12.2013 14.7404 12.1013 14.7193 12.0003 14.7193C11.8353 14.7193 11.6693 14.7604 11.5203 14.8416L10.2983 15.5123L13.3493 9.39599L13.7223 10.0576C13.8673 10.3163 14.1233 10.4817 14.4123 10.5358ZM19.9513 9.76792C19.8313 9.39399 19.5043 9.12531 19.1143 9.0802L15.2133 8.62707L12.8703 4.47068C12.5163 3.84311 11.4843 3.84311 11.1293 4.47068L8.78726 8.62707L4.88526 9.0802C4.49626 9.12531 4.16926 9.39399 4.04826 9.76792C3.92826 10.1409 4.03626 10.5509 4.32526 10.8155L7.55226 13.7689L6.86626 17.8301C6.80226 18.209 6.95926 18.591 7.27226 18.8135C7.58426 19.0361 7.99626 19.0612 8.33226 18.8767L11.8343 16.9559C11.8883 16.9749 11.9443 16.995 11.9993 16.995C12.0553 16.995 12.1053 16.9689 12.1563 16.9509L15.6683 18.8767C15.8183 18.9589 15.9833 19 16.1483 19C16.3523 19 16.5553 18.9368 16.7283 18.8135C17.0403 18.591 17.1973 18.209 17.1343 17.8301L16.4473 13.7689L19.6743 10.8155C19.9633 10.5509 20.0713 10.1409 19.9513 9.76792Z" fill="#E6C84A"/>
<mask id="mask0_8_3550" style="mask-type:alpha" maskUnits="userSpaceOnUse" x="4" y="4" width="16" height="15">
<path fill-rule="evenodd" clip-rule="evenodd" d="M14.6963 12.6571C14.4453 12.8867 14.3273 13.2286 14.3843 13.5644L14.8173 16.1238L13.1893 15.2306L15.4613 10.6742L16.7053 10.8185L14.6963 12.6571ZM8.86226 10.6361L8.30826 11.7459L7.29526 10.8185L8.86226 10.6361ZM12.7563 8.34336L9.34026 15.1915L9.61526 13.5644C9.67226 13.2286 9.55426 12.8867 9.30326 12.6571L9.07626 12.4486L10.2583 10.0787C10.2633 10.0707 10.2733 10.0667 10.2783 10.0576L12.0003 7.00201L12.7563 8.34336ZM14.4123 10.5358L12.3003 14.7704C12.2013 14.7404 12.1013 14.7193 12.0003 14.7193C11.8353 14.7193 11.6693 14.7604 11.5203 14.8416L10.2983 15.5123L13.3493 9.39599L13.7223 10.0576C13.8673 10.3163 14.1233 10.4817 14.4123 10.5358ZM19.9513 9.76792C19.8313 9.39399 19.5043 9.12531 19.1143 9.0802L15.2133 8.62707L12.8703 4.47068C12.5163 3.84311 11.4843 3.84311 11.1293 4.47068L8.78726 8.62707L4.88526 9.0802C4.49626 9.12531 4.16926 9.39399 4.04826 9.76792C3.92826 10.1409 4.03626 10.5509 4.32526 10.8155L7.55226 13.7689L6.86626 17.8301C6.80226 18.209 6.95926 18.591 7.27226 18.8135C7.58426 19.0361 7.99626 19.0612 8.33226 18.8767L11.8343 16.9559C11.8883 16.9749 11.9443 16.995 11.9993 16.995C12.0553 16.995 12.1053 16.9689 12.1563 16.9509L15.6683 18.8767C15.8183 18.9589 15.9833 19 16.1483 19C16.3523 19 16.5553 18.9368 16.7283 18.8135C17.0403 18.591 17.1973 18.209 17.1343 17.8301L16.4473 13.7689L19.6743 10.8155C19.9633 10.5509 20.0713 10.1409 19.9513 9.76792Z" fill="white"/>
</mask>
<g mask="url(#mask0_8_3550)">
</g>
</svg>
