<svg width="24" height="24" viewBox="0 0 24 24" fill="none" xmlns="http://www.w3.org/2000/svg">
<path fill-rule="evenodd" clip-rule="evenodd" d="M12.0318 18.494C9.2748 18.494 7.0318 16.251 7.0318 13.494C7.0318 10.737 9.2748 8.49402 12.0318 8.49402C14.7888 8.49402 17.0318 10.737 17.0318 13.494C17.0318 16.251 14.7888 18.494 12.0318 18.494ZM18.7388 8.20102C19.1298 7.81002 19.1298 7.17802 18.7388 6.78702C18.3478 6.39602 17.7158 6.39602 17.3248 6.78702L16.2168 7.89502C15.0478 7.02002 13.6018 6.49402 12.0318 6.49402C8.1718 6.49402 5.0318 9.63402 5.0318 13.494C5.0318 17.354 8.1718 20.494 12.0318 20.494C15.8918 20.494 19.0318 17.354 19.0318 13.494C19.0318 11.924 18.5058 10.478 17.6308 9.30902L18.7388 8.20102ZM12.0318 13.494C12.0318 13.494 12.0504 17.494 12.0318 17.494C14.2258 17.494 16.0318 15.688 16.0318 13.494C16.0318 11.3 14.2258 9.49402 12.0318 9.49402V13.494ZM10.0318 5.49402H14.0318C14.5838 5.49402 15.0318 5.04602 15.0318 4.49402C15.0318 3.94202 14.5838 3.49402 14.0318 3.49402H10.0318C9.4798 3.49402 9.0318 3.94202 9.0318 4.49402C9.0318 5.04602 9.4798 5.49402 10.0318 5.49402Z" fill="#323232"/>
</svg>
