<svg width="24" height="24" viewBox="0 0 24 24" fill="none" xmlns="http://www.w3.org/2000/svg">
<path fill-rule="evenodd" clip-rule="evenodd" d="M12.0149 18.4675C9.25789 18.4675 7.01489 16.2245 7.01489 13.4675C7.01489 10.7105 9.25789 8.46753 12.0149 8.46753C14.7719 8.46753 17.0149 10.7105 17.0149 13.4675C17.0149 16.2245 14.7719 18.4675 12.0149 18.4675ZM18.7219 8.17453C19.1129 7.78353 19.1129 7.15153 18.7219 6.76053C18.3309 6.36953 17.6989 6.36953 17.3079 6.76053L16.1999 7.86853C15.0309 6.99353 13.5849 6.46753 12.0149 6.46753C8.15489 6.46753 5.01489 9.60753 5.01489 13.4675C5.01489 17.3275 8.15489 20.4675 12.0149 20.4675C15.8749 20.4675 19.0149 17.3275 19.0149 13.4675C19.0149 11.8975 18.4889 10.4515 17.6139 9.28253L18.7219 8.17453ZM12.0149 9.46753V13.4675H8.01489C8.01489 15.6615 9.82089 17.4675 12.0149 17.4675C14.2089 17.4675 16.0149 15.6615 16.0149 13.4675C16.0149 11.2735 14.2089 9.46753 12.0149 9.46753ZM10.0149 5.46753H14.0149C14.5669 5.46753 15.0149 5.01953 15.0149 4.46753C15.0149 3.91553 14.5669 3.46753 14.0149 3.46753H10.0149C9.46289 3.46753 9.01489 3.91553 9.01489 4.46753C9.01489 5.01953 9.46289 5.46753 10.0149 5.46753Z" fill="#323232"/>
</svg>
