<svg width="24" height="24" viewBox="0 0 24 24" fill="none" xmlns="http://www.w3.org/2000/svg">
<path fill-rule="evenodd" clip-rule="evenodd" d="M12.0027 18.5264C9.24575 18.5264 7.00275 16.2834 7.00275 13.5264C7.00275 10.7694 9.24575 8.52637 12.0027 8.52637C14.7597 8.52637 17.0027 10.7694 17.0027 13.5264C17.0027 16.2834 14.7597 18.5264 12.0027 18.5264ZM18.7097 8.23337C19.1007 7.84237 19.1007 7.21037 18.7097 6.81937C18.3187 6.42837 17.6867 6.42837 17.2957 6.81937L16.1877 7.92737C15.0187 7.05237 13.5727 6.52637 12.0027 6.52637C8.14275 6.52637 5.00275 9.66637 5.00275 13.5264C5.00275 17.3864 8.14275 20.5264 12.0027 20.5264C15.8627 20.5264 19.0027 17.3864 19.0027 13.5264C19.0027 11.9564 18.4767 10.5104 17.6017 9.34137L18.7097 8.23337ZM12.0027 13.5264C12.0027 13.5264 16.0027 13.5393 16.0027 13.5264C16.0027 11.3324 14.1967 9.52637 12.0027 9.52637V13.5264ZM10.0027 5.52637H14.0027C14.5547 5.52637 15.0027 5.07837 15.0027 4.52637C15.0027 3.97437 14.5547 3.52637 14.0027 3.52637H10.0027C9.45075 3.52637 9.00275 3.97437 9.00275 4.52637C9.00275 5.07837 9.45075 5.52637 10.0027 5.52637Z" fill="#323232"/>
</svg>
