<svg width="32" height="32" viewBox="0 0 32 32" fill="none" xmlns="http://www.w3.org/2000/svg">
<path fill-rule="evenodd" clip-rule="evenodd" d="M22 8C23.878 8 25 9.254 25 11.355C25 13.108 23.853 15 22 15C20.147 15 19 13.108 19 11.355C19 9.254 20.122 8 22 8ZM20 21V19C20 17.897 20.897 17 22 17C23.103 17 24 17.897 24 19V23C24 23.552 24.448 24 25 24C25.552 24 26 23.552 26 23V19C26 16.794 24.206 15 22 15C20.2575 15 18.772 16.1194 18.2247 17.677C17.5883 17.2496 16.8228 17 16 17C17.853 17 19 15.108 19 13.355C19 11.254 17.878 10 16 10C14.122 10 13 11.254 13 13.355C13 15.108 14.147 17 16 17C14.2575 17 12.772 18.1194 12.2247 19.677C11.5883 19.2496 10.8228 19 10 19C11.853 19 13 17.108 13 15.355C13 13.254 11.878 12 10 12C8.122 12 7 13.254 7 15.355C7 17.108 8.147 19 10 19C7.794 19 6 20.794 6 23C6 23.552 6.448 24 7 24C7.552 24 8 23.552 8 23C8 21.897 8.897 21 10 21C11.103 21 12 21.897 12 23C12 23.552 12.448 24 13 24C13.552 24 14 23.552 14 23V21C14 19.897 14.897 19 16 19C17.103 19 18 19.897 18 21V23C18 23.552 18.448 24 19 24C19.552 24 20 23.552 20 23V21ZM9 15.355C9 14.105 9.494 14 10 14C10.506 14 11 14.105 11 15.355C11 16.185 10.505 17 10 17C9.495 17 9 16.185 9 15.355ZM16 12C15.494 12 15 12.105 15 13.355C15 14.185 15.495 15 16 15C16.505 15 17 14.185 17 13.355C17 12.105 16.506 12 16 12ZM21 11.355C21 10.105 21.494 10 22 10C22.506 10 23 10.105 23 11.355C23 12.185 22.505 13 22 13C21.495 13 21 12.185 21 11.355Z" fill="#323232"/>
</svg>
