<svg width="32" height="32" viewBox="0 0 32 32" fill="none" xmlns="http://www.w3.org/2000/svg">
<path fill-rule="evenodd" clip-rule="evenodd" d="M3 5C3 4.44772 3.44772 4 4 4H28C28.5523 4 29 4.44772 29 5V21C29 21.5523 28.5523 22 28 22H25V20H27V6H5V20H14V22H4C3.44772 22 3 21.5523 3 21V5ZM23 20.7428C24.2215 19.734 25 18.2079 25 16.5C25 13.4624 22.5376 11 19.5 11C16.4624 11 14 13.4624 14 16.5C14 18.2079 14.7785 19.734 16 20.7428V26.2768C16 27.0446 16.8295 27.526 17.4961 27.1451L19.0039 26.2835C19.3113 26.1078 19.6887 26.1078 19.9961 26.2835L21.5039 27.1451C22.1705 27.526 23 27.0446 23 26.2768V20.7428ZM21 19.6632C22.1825 19.1015 23 17.8962 23 16.5C23 14.567 21.433 13 19.5 13C17.567 13 16 14.567 16 16.5C16 17.8962 16.8175 19.1015 18 19.6632V25L19.5 24L21 25V19.6632ZM21.2734 15.2663C21.3523 15.3702 21.4761 15.434 21.6099 15.4398C21.7774 15.4618 21.9172 15.5737 21.9698 15.7281C22.0224 15.8824 21.9786 16.0521 21.857 16.165C21.7526 16.2455 21.6919 16.3671 21.6919 16.4958C21.6919 16.6244 21.7526 16.746 21.857 16.8265C21.9842 16.9387 22.0317 17.1118 21.9785 17.2696C21.9254 17.4274 21.7813 17.5409 21.6099 17.5602C21.4777 17.5684 21.3564 17.6333 21.2794 17.7368C21.2024 17.8404 21.1779 17.9717 21.2126 18.0945C21.2468 18.257 21.1793 18.4238 21.0397 18.5214C20.9002 18.6189 20.7142 18.6294 20.5638 18.5482C20.4518 18.4766 20.3119 18.4579 20.1838 18.4976C20.0557 18.5372 19.9535 18.6308 19.9061 18.7518C19.8344 18.903 19.6774 19 19.5044 19C19.3315 19 19.1745 18.903 19.1027 18.7518C19.0553 18.6308 18.9531 18.5372 18.825 18.4976C18.697 18.4579 18.5571 18.4766 18.4451 18.5482C18.2946 18.6294 18.1086 18.6189 17.9691 18.5214C17.8296 18.4238 17.762 18.257 17.7962 18.0945C17.8312 17.9703 17.8056 17.8376 17.7266 17.7337C17.6477 17.6298 17.5239 17.566 17.3901 17.5602C17.2226 17.5382 17.0828 17.4263 17.0302 17.2719C16.9776 17.1176 17.0214 16.9479 17.143 16.835C17.2474 16.7545 17.3081 16.6329 17.3081 16.5042C17.3081 16.3756 17.2474 16.254 17.143 16.1735C17.0158 16.0613 16.9683 15.8882 17.0215 15.7304C17.0746 15.5726 17.2187 15.4591 17.3901 15.4398C17.5223 15.4316 17.6436 15.3667 17.7206 15.2632C17.7976 15.1596 17.8221 15.0283 17.7874 14.9055C17.7532 14.743 17.8207 14.5762 17.9603 14.4786C18.0998 14.3811 18.2858 14.3706 18.4362 14.4518C18.5482 14.5234 18.6881 14.5421 18.8162 14.5024C18.9443 14.4628 19.0465 14.3692 19.0939 14.2482C19.1656 14.097 19.3226 14 19.4956 14C19.6685 14 19.8255 14.097 19.8973 14.2482C19.9447 14.3692 20.0469 14.4628 20.175 14.5024C20.303 14.5421 20.4429 14.5234 20.5549 14.4518C20.7054 14.3706 20.8914 14.3811 21.0309 14.4786C21.1704 14.5762 21.238 14.743 21.2038 14.9055C21.1688 15.0297 21.1944 15.1624 21.2734 15.2663ZM20.564 15.7598C20.6114 15.8221 20.6857 15.8604 20.7659 15.8639C20.8664 15.8771 20.9503 15.9442 20.9819 16.0368C21.0135 16.1295 20.9872 16.2313 20.9142 16.299C20.8516 16.3473 20.8151 16.4203 20.8151 16.4975C20.8151 16.5746 20.8516 16.6476 20.9142 16.6959C20.9905 16.7632 21.019 16.8671 20.9871 16.9617C20.9552 17.0564 20.8688 17.1245 20.7659 17.1361C20.6866 17.1411 20.6138 17.18 20.5676 17.2421C20.5214 17.3042 20.5067 17.383 20.5276 17.4567C20.5481 17.5542 20.5076 17.6543 20.4238 17.7128C20.3401 17.7714 20.2285 17.7777 20.1383 17.7289C20.0711 17.6859 19.9871 17.6748 19.9103 17.6985C19.8335 17.7223 19.7721 17.7785 19.7436 17.8511C19.7006 17.9418 19.6064 18 19.5026 18C19.3989 18 19.3047 17.9418 19.2616 17.8511C19.2332 17.7785 19.1718 17.7223 19.095 17.6985C19.0182 17.6748 18.9342 17.6859 18.867 17.7289C18.7768 17.7777 18.6652 17.7714 18.5815 17.7128C18.4977 17.6543 18.4572 17.5542 18.4777 17.4567C18.4987 17.3822 18.4833 17.3026 18.436 17.2402C18.3886 17.1779 18.3143 17.1396 18.2341 17.1361C18.1336 17.1229 18.0497 17.0558 18.0181 16.9632C17.9865 16.8705 18.0128 16.7687 18.0858 16.701C18.1484 16.6527 18.1849 16.5797 18.1849 16.5025C18.1849 16.4254 18.1484 16.3524 18.0858 16.3041C18.0095 16.2368 17.981 16.1329 18.0129 16.0383C18.0448 15.9436 18.1312 15.8755 18.2341 15.8639C18.3134 15.8589 18.3862 15.82 18.4324 15.7579C18.4786 15.6958 18.4933 15.617 18.4724 15.5433C18.4519 15.4458 18.4924 15.3457 18.5762 15.2872C18.6599 15.2286 18.7715 15.2223 18.8617 15.2711C18.9289 15.3141 19.0129 15.3252 19.0897 15.3015C19.1665 15.2777 19.2279 15.2215 19.2564 15.1489C19.2994 15.0582 19.3936 15 19.4974 15C19.6011 15 19.6953 15.0582 19.7384 15.1489C19.7668 15.2215 19.8282 15.2777 19.905 15.3015C19.9818 15.3252 20.0658 15.3141 20.133 15.2711C20.2232 15.2223 20.3348 15.2286 20.4185 15.2872C20.5023 15.3457 20.5428 15.4458 20.5223 15.5433C20.5013 15.6178 20.5167 15.6974 20.564 15.7598ZM7 8H25V9H7V8ZM7 17H13V18H7V17ZM13 11H7V12H13V11ZM7 14H13V15H7V14Z" fill="#323232"/>
</svg>
