<svg width="24" height="24" viewBox="0 0 24 24" fill="none" xmlns="http://www.w3.org/2000/svg">
<path fill-rule="evenodd" clip-rule="evenodd" d="M1 3H23C23.552 3 24 3.448 24 4V18C24 18.552 23.552 19 23 19H13L12 18L13 17H22V5H2V16.5L0 18V4C0 3.448 0.448 3 1 3ZM10.8535 12.8535L13.4995 10.2075L15.1465 11.8535C15.3415 12.0485 15.6585 12.0485 15.8535 11.8535L19.8535 7.8535C20.0485 7.6585 20.0485 7.3415 19.8535 7.1465C19.6585 6.9515 19.3415 6.9515 19.1465 7.1465L15.4995 10.7925L13.8535 9.1465C13.6585 8.9515 13.3415 8.9515 13.1465 9.1465L10.1465 12.1465C9.9515 12.3415 9.9515 12.6585 10.1465 12.8535C10.2445 12.9515 10.3725 12.9995 10.4995 12.9995C10.6275 12.9995 10.7555 12.9515 10.8535 12.8535ZM6.0039 11C5.4979 11 5.0039 11.105 5.0039 12.355C5.0039 13.185 5.4989 14 6.0039 14C6.5089 14 7.0039 13.185 7.0039 12.355C7.0039 11.105 6.5099 11 6.0039 11ZM6.0039 9C7.8819 9 9.0039 10.254 9.0039 12.355C9.0039 14.108 7.8569 16 6.0039 16C4.1509 16 3.0039 14.108 3.0039 12.355C3.0039 10.254 4.1259 9 6.0039 9ZM6.004 20H7.002H9.004C8.415 19.312 7.463 19 6.004 19V18.999L6.002 19C4.543 19 3.591 19.312 3.002 20H6.004ZM12.854 14.854L9.583 18.124C10.277 18.598 10.924 19.22 11.504 20C12.314 21.09 12.122 22 11.004 22H10.004H8.994H6.004V21.996L6.002 22H3.012H2.002H1.002C-0.116 22 -0.308 21.09 0.502 20C1.999 17.985 3.94 17 6.002 17L6.004 17.003V17C6.931 17 7.831 17.21 8.68 17.613L12.147 14.146C12.342 13.951 12.658 13.951 12.854 14.146C13.049 14.342 13.049 14.658 12.854 14.854Z" fill="#323232"/>
</svg>
