<svg width="24" height="24" viewBox="0 0 24 24" fill="none" xmlns="http://www.w3.org/2000/svg">
<path fill-rule="evenodd" clip-rule="evenodd" d="M4 5C3.448 5 3 4.552 3 4V2C3 1.448 3.448 1 4 1H6C6.552 1 7 1.448 7 2C7 2.552 6.552 3 6 3H5V4C5 4.552 4.552 5 4 5ZM3 19C3 19.552 3.448 20 4 20H6C6.552 20 7 19.552 7 19C7 18.448 6.552 18 6 18H5V17C5 16.448 4.552 16 4 16C3.448 16 3 16.448 3 17V19ZM13 19C13 19.552 13.448 20 14 20H16C16.552 20 17 19.552 17 19V17C17 16.448 16.552 16 16 16C15.448 16 15 16.448 15 17V18H14C13.448 18 13 18.448 13 19ZM15 4C15 4.552 15.448 5 16 5C16.552 5 17 4.552 17 4V2C17 1.448 16.552 1 16 1H14C13.448 1 13 1.448 13 2C13 2.552 13.448 3 14 3H15V4ZM9 20C8.448 20 8 19.552 8 19C8 18.448 8.448 18 9 18H11C11.552 18 12 18.448 12 19C12 19.552 11.552 20 11 20H9ZM9 3H11C11.552 3 12 2.552 12 2C12 1.448 11.552 1 11 1H9C8.448 1 8 1.448 8 2C8 2.552 8.448 3 9 3ZM4 15C3.448 15 3 14.552 3 14V12C3 11.448 3.448 11 4 11C4.552 11 5 11.448 5 12V14C5 14.552 4.552 15 4 15ZM3 9C3 9.552 3.448 10 4 10C4.552 10 5 9.552 5 9V7C5 6.448 4.552 6 4 6C3.448 6 3 6.448 3 7V9ZM16 15C15.448 15 15 14.552 15 14V12C15 11.448 15.448 11 16 11C16.552 11 17 11.448 17 12V14C17 14.552 16.552 15 16 15ZM15 9C15 9.552 15.448 10 16 10C16.552 10 17 9.552 17 9V7C17 6.448 16.552 6 16 6C15.448 6 15 6.448 15 7V9ZM12.5 6H10.5C10.224 6 10 5.776 10 5.5C10 5.224 10.224 5 10.5 5H12.5C12.776 5 13 5.224 13 5.5C13 5.776 12.776 6 12.5 6ZM10.5 8H12.5C12.776 8 13 7.776 13 7.5C13 7.224 12.776 7 12.5 7H10.5C10.224 7 10 7.224 10 7.5C10 7.776 10.224 8 10.5 8ZM12.5 11H7.5C7.224 11 7 10.776 7 10.5C7 10.224 7.224 10 7.5 10H12.5C12.776 10 13 10.224 13 10.5C13 10.776 12.776 11 12.5 11ZM7.5 13H12.5C12.776 13 13 12.776 13 12.5C13 12.224 12.776 12 12.5 12H7.5C7.224 12 7 12.224 7 12.5C7 12.776 7.224 13 7.5 13ZM9.5 16H7.5C7.224 16 7 15.776 7 15.5C7 15.224 7.224 15 7.5 15H9.5C9.776 15 10 15.224 10 15.5C10 15.776 9.776 16 9.5 16ZM7 23H20C20.552 23 21 22.552 21 22V5C21 4.448 20.552 4 20 4H19C18.448 4 18 4.448 18 5V21H7C6.448 21 6 21.448 6 22C6 22.552 6.448 23 7 23Z" fill="#323232"/>
</svg>
