<svg width="24" height="24" viewBox="0 0 24 24" fill="none" xmlns="http://www.w3.org/2000/svg">
<path fill-rule="evenodd" clip-rule="evenodd" d="M12 6C8.692 6 6 8.691 6 12C6 15.309 8.692 18 12 18C15.308 18 18 15.309 18 12C18 8.691 15.308 6 12 6ZM4 12C4 7.589 7.588 4 12 4C16.412 4 20 7.589 20 12C20 16.411 16.412 20 12 20C7.588 20 4 16.411 4 12ZM14.4995 15C14.2805 15 14.0595 14.928 13.8755 14.781L11.1445 12.596L10.0515 9.316C9.8765 8.792 10.1595 8.226 10.6835 8.051C11.2095 7.874 11.7745 8.16 11.9485 8.684L12.8555 11.404L15.1245 13.219C15.5565 13.564 15.6255 14.193 15.2805 14.625C15.0835 14.872 14.7925 15 14.4995 15Z" fill="#323232"/>
</svg>
