<svg width="24" height="24" viewBox="0 0 24 24" fill="none" xmlns="http://www.w3.org/2000/svg">
<path fill-rule="evenodd" clip-rule="evenodd" d="M14.1008 15.9996C14.3288 14.8276 14.9238 13.9286 15.5088 13.0576C16.2758 11.9166 16.9998 10.8386 16.9998 8.99957C16.9998 6.24357 14.7568 3.99957 11.9998 3.99957C9.2428 3.99957 6.9998 6.24357 6.9998 8.99957C6.9998 10.8386 7.7238 11.9166 8.4908 13.0576C9.0768 13.9286 9.6718 14.8276 9.8988 15.9996H14.1008ZM4.9998 8.99957C4.9998 5.14057 8.1398 1.99957 11.9998 1.99957C15.8598 1.99957 18.9998 5.14057 18.9998 8.99957C18.9998 11.4486 17.9848 12.9596 17.1688 14.1736C16.5158 15.1446 15.9998 15.9126 15.9998 16.9996C15.9998 17.5526 15.5518 17.9996 14.9998 17.9996H8.9998C8.4478 17.9996 7.9998 17.5526 7.9998 16.9996C7.9998 15.9126 7.4848 15.1446 6.8308 14.1736L6.82841 14.17C6.01381 12.9566 4.9998 11.4462 4.9998 8.99957ZM10.5 21H13.5C13.776 21 14 21.224 14 21.5C14 21.776 13.776 22 13.5 22H10.5C10.224 22 10 21.776 10 21.5C10 21.224 10.224 21 10.5 21ZM14.5 19H9.5C9.224 19 9 19.224 9 19.5C9 19.776 9.224 20 9.5 20H14.5C14.776 20 15 19.776 15 19.5C15 19.224 14.776 19 14.5 19ZM18.5 3.99997C18.628 3.99997 18.756 3.95097 18.854 3.85397L19.854 2.85397C20.049 2.65797 20.049 2.34197 19.854 2.14597C19.658 1.95097 19.342 1.95097 19.146 2.14597L18.146 3.14597C17.951 3.34197 17.951 3.65797 18.146 3.85397C18.244 3.95097 18.372 3.99997 18.5 3.99997ZM5.1465 3.85347C5.2445 3.95147 5.3725 3.99947 5.5005 3.99947C5.6275 3.99947 5.7555 3.95147 5.8535 3.85347C6.0485 3.65847 6.0485 3.34147 5.8535 3.14647L4.8535 2.14647C4.6585 1.95147 4.3415 1.95147 4.1465 2.14647C3.9515 2.34147 3.9515 2.65847 4.1465 2.85347L5.1465 3.85347ZM18.1465 15.8535C17.9515 15.6585 17.9515 15.3415 18.1465 15.1465C18.3415 14.9515 18.6585 14.9515 18.8535 15.1465L19.8535 16.1465C20.0485 16.3415 20.0485 16.6585 19.8535 16.8535C19.7555 16.9515 19.6275 17.0005 19.4995 17.0005C19.3725 17.0005 19.2445 16.9515 19.1465 16.8535L18.1465 15.8535ZM5.1465 15.1465L4.1465 16.1465C3.9515 16.3415 3.9515 16.6585 4.1465 16.8535C4.2445 16.9515 4.3725 17.0005 4.5005 17.0005C4.6275 17.0005 4.7555 16.9515 4.8535 16.8535L5.8535 15.8535C6.0485 15.6585 6.0485 15.3415 5.8535 15.1465C5.6585 14.9515 5.3415 14.9515 5.1465 15.1465ZM20.5 8.99997H21.5C21.776 8.99997 22 9.22397 22 9.49997C22 9.77597 21.776 9.99997 21.5 9.99997H20.5C20.224 9.99997 20 9.77597 20 9.49997C20 9.22397 20.224 8.99997 20.5 8.99997ZM3.5 8.99997H2.5C2.224 8.99997 2 9.22397 2 9.49997C2 9.77597 2.224 9.99997 2.5 9.99997H3.5C3.776 9.99997 4 9.77597 4 9.49997C4 9.22397 3.776 8.99997 3.5 8.99997Z" fill="#323232"/>
</svg>
