<svg width="24" height="24" viewBox="0 0 24 24" fill="none" xmlns="http://www.w3.org/2000/svg">
<path fill-rule="evenodd" clip-rule="evenodd" d="M15.5833 10.0009H10.0002V8.00085C10.0002 7.59685 9.75725 7.23085 9.38325 7.07685C9.01025 6.92085 8.57925 7.00685 8.29325 7.29385L5.29325 10.2939C4.90225 10.6849 4.90225 11.3169 5.29325 11.7079L8.29325 14.7079C8.48425 14.8989 8.74025 15.0009 9.00025 15.0009C9.12925 15.0009 9.25925 14.9769 9.38325 14.9249C9.75725 14.7709 10.0002 14.4049 10.0002 14.0009V12.0009H15.5833C16.6403 12.0009 17.5002 12.8609 17.5002 13.9179C17.5002 14.9749 16.6403 15.8349 15.5833 15.8349C15.0303 15.8349 14.5833 16.2819 14.5833 16.8349C14.5833 17.3879 15.0303 17.8349 15.5833 17.8349C17.7432 17.8349 19.5002 16.0779 19.5002 13.9179C19.5002 11.7579 17.7432 10.0009 15.5833 10.0009Z" fill="#323232"/>
</svg>
