<svg width="32" height="32" viewBox="0 0 32 32" fill="none" xmlns="http://www.w3.org/2000/svg">
<path fill-rule="evenodd" clip-rule="evenodd" d="M5 5H3V3H5V5ZM5 9H3V7H5V9ZM5 13H3V11H5V13ZM5 17H3V15H5V17ZM3 21H5V19H3V21ZM3 25H5V23H3V25ZM23 5H25V3H23V5ZM21 5H19V3H21V5ZM11 5H13V3H11V5ZM9.001 5H7V3H9.001V5ZM15 5H17.001V3H15V5ZM29 5H27V3H29V5ZM27 21H29V19H27V21ZM29 25H27V23H29V25ZM27 17H29V15H27V17ZM29 9H27V7H29V9ZM27 13H29V11H27V13ZM25.125 17H23.125V15H25.125V17ZM7.125 17H9.125V15H7.125V17ZM15.125 16.9999V15.0049V14.9999H17.125V15.0049V16.9999V17.0049H15.125V16.9999ZM11.125 17H13.125V15H11.125V17ZM21.125 17H19.125V15H21.125V17ZM15.125 25.125H17.125V23.125H15.125V25.125ZM17.125 9.125H15.125V7.125H17.125V9.125ZM15.125 21.125H17.125V19.125H15.125V21.125ZM17.125 13.125H15.125V11.125H17.125V13.125Z" fill="#323232"/>
<path fill-rule="evenodd" clip-rule="evenodd" d="M3 28.625H29V26.625H3V28.625Z" fill="#323232"/>
</svg>
