<svg width="32" height="32" viewBox="0 0 32 32" fill="none" xmlns="http://www.w3.org/2000/svg">
<path fill-rule="evenodd" clip-rule="evenodd" d="M25.0494 22.0001C25.1034 21.5211 25.2284 21.0531 25.4354 20.6071C25.7024 21.0201 25.8754 21.4931 25.9484 22.0001H25.0494ZM25.0494 23.0001H25.9484C25.8754 23.5071 25.7024 23.9801 25.4354 24.3931C25.2284 23.9481 25.1024 23.4791 25.0494 23.0001V23.0001ZM22.9994 23.0001H24.0494C24.1184 23.7581 24.3424 24.4981 24.7244 25.1791C24.2394 25.5821 23.6514 25.8551 22.9994 25.9491V23.0001ZM20.9494 23.0001H21.9994V25.9491C21.3474 25.8551 20.7594 25.5821 20.2754 25.1791C20.6564 24.4981 20.8804 23.7581 20.9494 23.0001V23.0001ZM19.9494 23.0001C19.8964 23.4791 19.7714 23.9481 19.5644 24.3931C19.2974 23.9801 19.1234 23.5071 19.0504 23.0001H19.9494ZM19.9494 22.0001H19.0504C19.1234 21.4931 19.2974 21.0201 19.5644 20.6071C19.7704 21.0531 19.8964 21.5211 19.9494 22.0001V22.0001ZM21.9994 22.0001H20.9494C20.8804 21.2421 20.6564 20.5021 20.2754 19.8211C20.7594 19.4181 21.3474 19.1451 21.9994 19.0511V22.0001ZM24.0494 22.0001H22.9994V19.0511C23.6514 19.1451 24.2394 19.4181 24.7244 19.8211C24.3424 20.5021 24.1184 21.2421 24.0494 22.0001V22.0001ZM22.4994 17.0001C19.4664 17.0001 16.9994 19.4671 16.9994 22.5001C16.9994 25.5331 19.4664 28.0001 22.4994 28.0001C25.5324 28.0001 27.9994 25.5331 27.9994 22.5001C27.9994 19.4671 25.5324 17.0001 22.4994 17.0001V17.0001Z" fill="#323232"/>
<path fill-rule="evenodd" clip-rule="evenodd" d="M13.901 9.858C12.854 10.125 11.668 10.428 11.105 11.553C10.891 11.981 10.816 12.446 10.743 12.896C10.565 14 10.479 14 10 14C7.682 14 6 12.318 6 10C6 6.694 8.719 6 11 6C16 6 16 7.017 16 8C16 9.214 15.456 9.461 13.901 9.858M18 8C18 4.669 15.321 4 11 4C6.616 4 4 6.243 4 10C4 13.421 6.579 16 10 16C12.268 16 12.572 14.119 12.718 13.214C12.766 12.913 12.817 12.602 12.894 12.447C13.048 12.14 13.733 11.965 14.396 11.795C15.744 11.452 18 10.876 18 8M14.0001 8.0006V7.9996L14.5001 8.0006H14.0001ZM14.0001 7.0006C13.4481 7.0006 13.0001 7.4486 13.0001 8.0006C13.0001 8.5516 13.4481 9.0006 14.0001 9.0006C14.5511 9.0006 15.0001 8.5516 15.0001 8.0006C15.0001 7.4486 14.5511 7.0006 14.0001 7.0006ZM11.0001 8.0006V7.9996L11.5001 8.0006H11.0001ZM11.0001 7.0006C10.4481 7.0006 10.0001 7.4486 10.0001 8.0006C10.0001 8.5516 10.4481 9.0006 11.0001 9.0006C11.5511 9.0006 12.0001 8.5516 12.0001 8.0006C12.0001 7.4486 11.5511 7.0006 11.0001 7.0006ZM8.4996 9.0001H7.9996H8.4996ZM8.9996 9.0001C8.9996 8.4491 8.5506 8.0001 7.9996 8.0001C7.4486 8.0001 6.9996 8.4491 6.9996 9.0001C6.9996 9.5511 7.4486 10.0001 7.9996 10.0001C8.5506 10.0001 8.9996 9.5511 8.9996 9.0001ZM9.0001 12.0006V11.9996L9.5001 12.0006H9.0001ZM9.0001 11.0006C8.4481 11.0006 8.0001 11.4486 8.0001 12.0006C8.0001 12.5516 8.4481 13.0006 9.0001 13.0006C9.5511 13.0006 10.0001 12.5516 10.0001 12.0006C10.0001 11.4486 9.5511 11.0006 9.0001 11.0006Z" fill="#323232"/>
<path fill-rule="evenodd" clip-rule="evenodd" d="M21.9996 15.0001C23.5746 15.0001 24.8556 13.9461 24.9766 12.6161C24.9806 12.5761 24.9996 12.5421 24.9996 12.5001V7.45309C25.5446 7.77209 26.2096 8.00009 26.9996 8.00009C27.5516 8.00009 27.9996 7.55309 27.9996 7.00009C27.9996 6.44809 27.5516 6.00009 26.9996 6.00009C25.6576 6.00009 24.8986 4.56209 24.8946 4.55309C24.6866 4.13909 24.2246 3.92109 23.7696 4.02709C23.3186 4.13409 22.9996 4.53609 22.9996 5.00009V10.1591C22.6856 10.0631 22.3526 10.0001 21.9996 10.0001C20.3456 10.0001 18.9996 11.0761 18.9996 12.5001C18.9996 13.9251 20.3456 15.0001 21.9996 15.0001" fill="#323232"/>
<path fill-rule="evenodd" clip-rule="evenodd" d="M7.08015 18.0948C6.97015 18.0318 6.84915 17.9998 6.72715 17.9998C6.59915 17.9998 6.47215 18.0348 6.35815 18.1038C6.13615 18.2388 5.99915 18.4848 5.99915 18.7498V26.2498C5.99915 26.5158 6.13615 26.7618 6.35815 26.8968C6.47215 26.9658 6.59915 26.9998 6.72715 26.9998C6.84915 26.9998 6.97015 26.9688 7.08015 26.9058L13.6251 23.1558C13.8561 23.0238 13.9991 22.7728 13.9991 22.4998C13.9991 22.2278 13.8561 21.9768 13.6251 21.8448L7.08015 18.0948Z" fill="#323232"/>
</svg>
