<svg width="40" height="40" viewBox="0 0 40 40" fill="none" xmlns="http://www.w3.org/2000/svg">
<path fill-rule="evenodd" clip-rule="evenodd" d="M32 7C32.9205 7 33.6667 7.64318 33.6667 8.43659V27.1122C33.6667 27.9056 32.9205 28.5488 32 28.5488H12C11.9244 28.5488 11.8499 28.5483 11.7769 28.5478C10.9635 28.5421 10.3333 28.5378 10.3333 29.2654C10.3333 29.9956 10.9678 29.9915 11.7852 29.9863C11.8555 29.9859 11.9272 29.9854 12 29.9854H32C32.9205 29.9854 33.6667 30.6286 33.6667 31.422C33.6667 32.2154 32.9205 32.8586 32 32.8586H12C9.24333 32.8586 7 31.6416 7 29.2654V11.3098C7 8.93365 9.24333 7 12 7H32ZM30.3336 9.87296H12.0002C11.0819 9.87296 10.3336 10.5165 10.3336 11.3095V25.9211C10.8552 25.7631 11.4152 25.6754 12.0002 25.6754H30.3336V9.87296ZM26.929 16.6315C27.1726 16.1706 26.7861 15.6193 26.1681 15.6193H22.8347L22.6849 15.6309C22.2962 15.6917 22.0014 15.985 22.0014 16.3376L22.0148 16.4667C22.0854 16.8018 22.4256 17.0559 22.8347 17.0559H24.6081L22.1414 20.2489L22.0738 20.3534C21.8302 20.8143 22.2167 21.3656 22.8347 21.3656H26.1681L26.3179 21.3541C26.7066 21.2933 27.0014 21 27.0014 20.6473L26.988 20.5182C26.9174 20.1832 26.5772 19.9291 26.1681 19.9291H24.3914L26.8614 16.736L26.929 16.6315ZM17.7116 14.5252L17.7804 14.6488L20.2806 20.3952C20.4422 20.7666 20.2239 21.1807 19.793 21.32C19.4099 21.4438 18.9878 21.3089 18.7852 21.0165L18.7201 20.8996L18.2981 19.9291H15.7014L15.2803 20.8996C15.1366 21.2298 14.7411 21.4152 14.3523 21.3545L14.2074 21.32C13.8243 21.1962 13.6093 20.8553 13.6797 20.5202L13.7197 20.3952L16.2199 14.6488C16.471 14.0718 17.3682 14.0306 17.7116 14.5252ZM16.3264 18.4925L17 16.9467L17.6731 18.4925H16.3264Z" fill="#323232"/>
</svg>
