<svg width="24" height="24" viewBox="0 0 24 24" fill="none" xmlns="http://www.w3.org/2000/svg">
<path fill-rule="evenodd" clip-rule="evenodd" d="M12 1C5.93442 1 1 5.93442 1 12C1 18.0656 5.93442 23 12 23C18.0656 23 23 18.0656 23 12C23 5.93442 18.0656 1 12 1ZM5.77358 19.9259C3.42648 18.078 1.91667 15.2118 1.91667 12C1.91667 6.44042 6.44042 1.91667 12 1.91667C17.5596 1.91667 22.0833 6.44042 22.0833 12C22.0833 15.2118 20.5735 18.078 18.2264 19.9259C17.6526 19.0295 15.7436 16.5833 12 16.5833C8.25638 16.5833 6.34741 19.0295 5.77358 19.9259ZM7.34655 20.9438C8.73955 21.6715 10.3226 22.0833 12 22.0833C13.6773 22.0833 15.2604 21.6716 16.6534 20.9438C16.0247 20.0019 14.5859 18.4167 12 18.4167C9.41342 18.4167 7.975 20.0018 7.34655 20.9438ZM15.7163 10.8936C15.7163 13.1889 14.3147 15.6667 12.0496 15.6667C9.78451 15.6667 8.38293 13.1889 8.38293 10.8936C8.38293 8.14267 9.75426 6.5 12.0496 6.5C14.3458 6.5 15.7163 8.14267 15.7163 10.8936ZM12.0551 8.33333C12.9828 8.33333 13.8884 8.52492 13.8884 10.8175C13.8884 12.3392 12.9809 13.8333 12.0551 13.8333C11.1293 13.8333 10.2218 12.3392 10.2218 10.8175C10.2218 8.52492 11.1274 8.33333 12.0551 8.33333Z" fill="#323232"/>
</svg>
