<svg width="32" height="32" viewBox="0 0 32 32" fill="none" xmlns="http://www.w3.org/2000/svg">
<path d="M16 0C12.8355 0 9.74207 0.938384 7.11088 2.69649C4.4797 4.45459 2.42894 6.95345 1.21793 9.87706C0.00693262 12.8007 -0.309921 16.0177 0.307443 19.1214C0.924806 22.2251 2.44866 25.0761 4.6863 27.3137C6.92394 29.5513 9.77487 31.0752 12.8786 31.6926C15.9823 32.3099 19.1993 31.9931 22.1229 30.7821C25.0466 29.5711 27.5454 27.5203 29.3035 24.8891C31.0616 22.2579 32 19.1645 32 16C32 11.7565 30.3143 7.68687 27.3137 4.68629C24.3131 1.68571 20.2435 0 16 0Z" fill="#8723FF"/>
<path d="M16.0001 1.67999C18.8323 1.67999 21.6009 2.51985 23.9558 4.09335C26.3107 5.66685 28.1462 7.90333 29.23 10.52C30.3139 13.1366 30.5974 16.0159 30.0449 18.7937C29.4924 21.5715 28.1285 24.1231 26.1258 26.1258C24.1231 28.1284 21.5716 29.4923 18.7937 30.0448C16.0159 30.5974 13.1367 30.3138 10.52 29.2299C7.90339 28.1461 5.66691 26.3107 4.09341 23.9558C2.51991 21.6008 1.68005 18.8322 1.68005 16C1.68005 12.2021 3.18876 8.55974 5.87428 5.87422C8.55981 3.1887 12.2022 1.67999 16.0001 1.67999Z" fill="white"/>
<path fill-rule="evenodd" clip-rule="evenodd" d="M15.9999 9.26C18.5005 9.20452 20.9895 9.61483 23.3399 10.47C23.6626 10.5963 23.9389 10.8182 24.1319 11.106C24.325 11.3937 24.4255 11.7336 24.4199 12.08V19.99C24.4187 20.33 24.315 20.6616 24.1223 20.9417C23.9297 21.2218 23.657 21.4373 23.3399 21.56C20.9895 22.4152 18.5005 22.8255 15.9999 22.77C13.4961 22.8263 11.0036 22.4159 8.64995 21.56C8.3329 21.4373 8.06024 21.2218 7.86756 20.9417C7.67489 20.6616 7.57117 20.33 7.56995 19.99V12.08C7.57253 11.7404 7.67679 11.4093 7.86929 11.1294C8.06178 10.8496 8.33369 10.6339 8.64995 10.51C11.001 9.64044 13.4936 9.21654 15.9999 9.26ZM15.9999 10.94C13.8286 10.9074 11.6676 11.2456 9.60995 11.94L9.25995 12.08V19.99L9.60995 20.08C11.6676 20.7744 13.8286 21.1125 15.9999 21.08C18.168 21.1118 20.3256 20.7736 22.3799 20.08L22.7299 19.95V12.08C20.5767 11.2858 18.2946 10.8993 15.9999 10.94ZM14.0999 12.71C14.2114 12.7115 14.3209 12.7389 14.4199 12.79L18.9599 15.45C19.0316 15.4913 19.0943 15.5465 19.1444 15.6124C19.1944 15.6783 19.2307 15.7535 19.2512 15.8336C19.2717 15.9138 19.276 15.9972 19.2637 16.079C19.2515 16.1608 19.223 16.2394 19.1799 16.31C19.1314 16.407 19.0547 16.4872 18.9599 16.54L14.4199 19.2C14.2754 19.2834 14.1036 19.306 13.9424 19.2629C13.7811 19.2198 13.6436 19.1144 13.5599 18.97C13.4988 18.8746 13.4675 18.7632 13.4699 18.65V13.34C13.4699 13.1729 13.5363 13.0127 13.6545 12.8945C13.7726 12.7764 13.9329 12.71 14.0999 12.71ZM15.1499 15.17V16.82L16.5599 16L15.1499 15.17Z" fill="#8723FF"/>
</svg>
