<svg width="24" height="24" viewBox="0 0 24 24" fill="none" xmlns="http://www.w3.org/2000/svg">
<path fill-rule="evenodd" clip-rule="evenodd" d="M12 19C6.134 19 3.068 17.888 2 17.397V6.604C3.075 6.109 6.14 5 12 5C17.866 5 20.932 6.112 22 6.603V17.396C20.925 17.891 17.86 19 12 19ZM0.445 18.832C0.578 18.92 3.792 21 12 21C20.208 21 23.422 18.92 23.555 18.832C23.833 18.647 24 18.334 24 18V6C24 5.666 23.833 5.354 23.555 5.168C23.422 5.08 20.208 3 12 3C3.792 3 0.578 5.08 0.445 5.168C0.167 5.354 0 5.666 0 6V18C0 18.334 0.167 18.647 0.445 18.832ZM9.9449 8.084L15.6729 11.417C15.8749 11.535 15.9999 11.758 15.9999 12C15.9999 12.242 15.8749 12.465 15.6729 12.583L9.9449 15.916C9.8489 15.972 9.7429 16 9.6359 16C9.5249 16 9.4129 15.969 9.3139 15.908C9.1189 15.788 8.9999 15.569 8.9999 15.334V8.667C8.9999 8.431 9.1189 8.212 9.3139 8.092C9.4129 8.031 9.5249 8 9.6359 8C9.7429 8 9.8489 8.028 9.9449 8.084Z" fill="#323232"/>
</svg>
