<svg width="24" height="24" viewBox="0 0 24 24" fill="none" xmlns="http://www.w3.org/2000/svg">
<path fill-rule="evenodd" clip-rule="evenodd" d="M13.7248 3.31901C13.3498 2.91401 12.7188 2.89201 12.3178 3.26801C11.9148 3.64401 11.8918 4.27701 12.2668 4.68101C15.8858 8.58701 15.8858 15.426 12.2678 19.318C11.8928 19.721 11.9148 20.354 12.3158 20.731C12.5088 20.911 12.7518 21 12.9958 21C13.2618 21 13.5278 20.894 13.7238 20.683C18.0918 15.984 18.0928 8.03201 13.7248 3.31901ZM10.7106 6.30241C10.3266 5.90641 9.6966 5.89941 9.3016 6.28341C8.9076 6.66841 8.8986 7.30241 9.2826 7.69841C11.5486 10.0344 11.5496 13.9744 9.2836 16.3014C8.8996 16.6964 8.9066 17.3294 9.2996 17.7154C9.4936 17.9054 9.7456 18.0004 9.9966 18.0004C10.2556 18.0004 10.5136 17.8994 10.7096 17.6994C13.7636 14.5634 13.7636 9.45041 10.7106 6.30241ZM6.3195 10.7071C5.8935 10.3161 5.8935 9.68411 6.3195 9.29311C6.7455 8.90211 7.4355 8.90211 7.8615 9.29311C9.3795 10.6851 9.3795 13.3151 7.8615 14.7071C7.6495 14.9021 7.3695 15.0001 7.0905 15.0001C6.8115 15.0001 6.5325 14.9021 6.3195 14.7071C5.8935 14.3161 5.8935 13.6841 6.3195 13.2931C6.9785 12.6891 6.9785 11.3111 6.3195 10.7071Z" fill="#323232"/>
</svg>
