<svg width="24" height="24" viewBox="0 0 24 24" fill="none" xmlns="http://www.w3.org/2000/svg">
<path fill-rule="evenodd" clip-rule="evenodd" d="M14 8.062H7.5C7.224 8.062 7 7.839 7 7.562V1.5C7 1.224 7.224 1 7.5 1H16.5C16.776 1 17 1.224 17 1.5V7.5C17 7.631 16.948 7.757 16.856 7.851L14.856 9.882C14.76 9.979 14.631 10.031 14.5 10.031C14.436 10.031 14.372 10.019 14.311 9.994C14.123 9.917 14 9.734 14 9.531V8.062ZM16 2H8V7.062H14.5C14.776 7.062 15 7.286 15 7.562V8.311L16 7.295V2ZM9.5 4H14.5C14.776 4 15 3.776 15 3.5C15 3.224 14.776 3 14.5 3H9.5C9.224 3 9 3.224 9 3.5C9 3.776 9.224 4 9.5 4ZM9.5 5H13.5C13.776 5 14 5.224 14 5.5C14 5.776 13.776 6 13.5 6H9.5C9.224 6 9 5.776 9 5.5C9 5.224 9.224 5 9.5 5ZM13.002 21H12.004H9.002C9.591 20.312 10.543 20 12.002 20L12.004 19.999V20C13.463 20 14.415 20.312 15.004 21H13.002ZM23 5H18V7H22V21H17.504C16.008 18.985 14.065 18 12.004 18V18.003L12.002 18C9.94 18 7.999 18.985 6.502 21H2V7H6V5H1C0.448 5 0 5.448 0 6V22C0 22.552 0.448 23 1 23H7.002H8.002H9.012H12.002H12.004H14.994H16.004H17.004H23C23.552 23 24 22.552 24 22V6C24 5.448 23.552 5 23 5ZM11.0039 13.355C11.0039 14.185 11.4989 15 12.0039 15C12.5089 15 13.0039 14.185 13.0039 13.355C13.0039 12.104 12.5099 12 12.0039 12C11.4979 12 11.0039 12.104 11.0039 13.355ZM9.0039 13.355C9.0039 11.254 10.1259 10 12.0039 10C13.8819 10 15.0039 11.254 15.0039 13.355C15.0039 15.108 13.8569 17 12.0039 17C10.1509 17 9.0039 15.108 9.0039 13.355Z" fill="#323232"/>
</svg>
