<svg width="64" height="64" viewBox="0 0 64 64" fill="none" xmlns="http://www.w3.org/2000/svg">
<path fill-rule="evenodd" clip-rule="evenodd" d="M0 12C0 9.79086 1.79086 8 4 8H60C62.2091 8 64 9.79086 64 12V26C64 26.3453 63.9562 26.6804 63.874 27H61V11H3V27H29.1429L28 28.5L29.1429 30H4C1.79086 30 0 28.2091 0 26V12ZM11 22C12.6569 22 14 20.6569 14 19C14 17.3431 12.6569 16 11 16C9.34315 16 8 17.3431 8 19C8 20.6569 9.34315 22 11 22ZM22 19C22 20.6569 20.6569 22 19 22C17.3431 22 16 20.6569 16 19C16 17.3431 17.3431 16 19 16C20.6569 16 22 17.3431 22 19ZM27 22C28.6569 22 30 20.6569 30 19C30 17.3431 28.6569 16 27 16C25.3431 16 24 17.3431 24 19C24 20.6569 25.3431 22 27 22ZM37.423 17.2307C36.8772 16.4846 35.9952 16 35 16C33.3431 16 32 17.3431 32 19C32 20.3286 32.8636 21.4554 34.0601 21.8498C33.378 23.429 33 25.1704 33 27C33 32.7841 36.7775 37.6859 42 39.373V57.4635C42 57.7238 42.1015 57.9739 42.2829 58.1605L46.728 62.7336C46.8818 62.8917 47.121 62.9305 47.3168 62.8289L50.4576 61.1993C50.6233 61.1133 50.7273 60.9422 50.7273 60.7555V56.4575C50.7273 56.3232 50.6732 56.1945 50.5773 56.1004L49.4365 54.9823C49.2438 54.7934 49.2357 54.4858 49.4182 54.287L53.6895 49.6352C53.8651 49.4439 53.8651 49.1501 53.6895 48.9588L49.4182 44.3069C49.2357 44.1082 49.2438 43.8006 49.4365 43.6117L50.5773 42.4935C50.6732 42.3995 50.7273 42.2708 50.7273 42.1365V39.1138C55.5696 37.2227 59 32.512 59 27C59 19.8203 53.1797 14 46 14C42.7135 14 39.7119 15.2195 37.423 17.2307ZM51.3726 22.869C50.9564 22.4051 50.2296 22.4051 49.8134 22.869L44.4473 28.8506L42.1866 26.3307C41.7704 25.8667 41.0436 25.8667 40.6274 26.3307C40.2704 26.7286 40.2704 27.3315 40.6274 27.7294L43.6789 31.131C44.0951 31.5949 44.8219 31.5949 45.2381 31.131C45.2808 31.0834 45.3184 31.033 45.3508 30.9803L45.3548 30.9758L51.3726 24.2678C51.7296 23.8699 51.7296 23.267 51.3726 22.869Z" fill="#323232"/>
</svg>
