<svg width="40" height="40" viewBox="0 0 40 40" fill="none" xmlns="http://www.w3.org/2000/svg">
<path fill-rule="evenodd" clip-rule="evenodd" d="M31.2973 8.85673C31.9491 8.43039 32.1922 7.57377 31.8354 6.86025C31.4512 6.09185 30.5168 5.78039 29.7484 6.1646L26.9628 7.55591H13.3332L13.1287 7.5694C12.7917 7.61409 12.4764 7.76841 12.2333 8.01151L10.7106 8.92441L10.1148 7.17189L10.0599 6.99868C9.78183 6.27118 8.99646 5.85158 8.22342 6.04852C7.39091 6.2606 6.88796 7.10741 7.10004 7.93992L7.98839 10.5577L4.45561 12.6781L4.32057 12.8322C4.11381 13.1022 4 13.4343 4 13.778V24.6668L4.01349 24.8713C4.05818 25.2083 4.21251 25.5236 4.45561 25.7667L7.4092 28.7235C7.41638 28.7331 7.4237 28.7427 7.43113 28.7523L7.55104 28.8888L8.2463 29.594C9.97217 31.3447 12.745 31.4368 14.5808 29.8562L14.8887 30.8889L17.9934 34C17.986 30.8889 17.986 29.3334 17.9934 29.3334L17.2446 27.1872C18.6925 27.4415 20.2374 27.0094 21.3558 25.891C21.8144 25.4324 22.1291 25.0376 22.2999 24.6665L24.8354 24.6668C26.7933 24.6668 28.6292 23.7459 29.8006 22.1946L30.0123 21.8964L31.5108 19.6502L34.2505 18.2811C34.964 17.9243 35.2835 17.0932 35.0179 16.361L34.9461 16.1941C34.5894 15.4806 33.7582 15.1611 33.0261 15.4267L32.8592 15.4984L29.7481 17.054C29.5665 17.1447 29.4051 17.2699 29.2723 17.4218L29.1495 17.5823L27.4238 20.1705C26.8949 20.9638 26.0347 21.4667 25.0938 21.545L24.8354 21.5557H13.3329C12.4738 21.5557 11.7773 20.8593 11.7773 20.0002C11.7773 19.2025 12.3778 18.545 13.1515 18.4551L13.3329 18.4447H17.9995C18.1806 18.4447 18.3598 18.413 18.5293 18.3517L18.6951 18.2804L21.8062 16.7249C22.5746 16.3407 22.8861 15.4063 22.5019 14.6379C22.1451 13.9244 21.314 13.6049 20.5818 13.8705L20.4149 13.9423L17.6308 15.3336H13.3329L13.0587 15.3415C13.0039 15.3447 12.9494 15.3488 12.8952 15.3538L11.7217 11.9001L13.9772 10.667H27.333L27.5132 10.6565C27.6922 10.6356 27.8667 10.5838 28.0287 10.5028L31.1397 8.94722L31.2973 8.85673ZM7.11107 14.422L8.95749 13.4121L10.0636 16.6701C9.26208 17.4571 8.74341 18.5313 8.67419 19.726L8.66626 20.0002C8.66626 22.0592 9.99969 23.8067 11.8501 24.4263L11.8994 24.4792L12.6381 25.2178C13.2022 25.7819 13.2425 26.6715 12.759 27.282L12.6381 27.4177C12.0709 27.9769 11.1932 28.0109 10.5947 27.53L10.4618 27.4099L9.92239 26.8595C9.87586 26.796 9.8239 26.7353 9.76653 26.6779L7.11107 24.0213V14.422Z" fill="#323232"/>
</svg>
