<svg width="24" height="24" viewBox="0 0 24 24" fill="none" xmlns="http://www.w3.org/2000/svg">
<path fill-rule="evenodd" clip-rule="evenodd" d="M10.5 17C12.086 17 13.539 16.427 14.669 15.481C14.701 15.429 15.1 15.087 15.1 15.087C16.273 13.911 17 12.289 17 10.5C17 6.916 14.084 4 10.5 4C6.916 4 4 6.916 4 10.5C4 14.084 6.916 17 10.5 17ZM19 10.5C19 12.593 18.236 14.508 16.977 15.991L21.673 20.26C22.082 20.631 22.112 21.264 21.74 21.672C21.543 21.889 21.272 22 21 22C20.76 22 20.519 21.914 20.328 21.739L15.505 17.355C14.099 18.384 12.372 19 10.5 19C5.813 19 2 15.187 2 10.5C2 5.813 5.813 2 10.5 2C15.187 2 19 5.813 19 10.5ZM10.5 7C10.8797 7 11.1935 7.28215 11.2432 7.64823L11.25 7.75V9.75H13.25C13.6642 9.75 14 10.0858 14 10.5C14 10.8797 13.7178 11.1935 13.3518 11.2432L13.25 11.25H11.25V13.25C11.25 13.6642 10.9142 14 10.5 14C10.1203 14 9.80651 13.7178 9.75685 13.3518L9.75 13.25V11.25H7.75C7.33579 11.25 7 10.9142 7 10.5C7 10.1203 7.28215 9.80651 7.64823 9.75685L7.75 9.75H9.75V7.75C9.75 7.33579 10.0858 7 10.5 7Z" fill="#323232"/>
<mask id="mask0_8_4360" style="mask-type:alpha" maskUnits="userSpaceOnUse" x="2" y="2" width="21" height="20">
<path fill-rule="evenodd" clip-rule="evenodd" d="M10.5 17C12.086 17 13.539 16.427 14.669 15.481C14.701 15.429 15.1 15.087 15.1 15.087C16.273 13.911 17 12.289 17 10.5C17 6.916 14.084 4 10.5 4C6.916 4 4 6.916 4 10.5C4 14.084 6.916 17 10.5 17ZM19 10.5C19 12.593 18.236 14.508 16.977 15.991L21.673 20.26C22.082 20.631 22.112 21.264 21.74 21.672C21.543 21.889 21.272 22 21 22C20.76 22 20.519 21.914 20.328 21.739L15.505 17.355C14.099 18.384 12.372 19 10.5 19C5.813 19 2 15.187 2 10.5C2 5.813 5.813 2 10.5 2C15.187 2 19 5.813 19 10.5ZM10.5 7C10.8797 7 11.1935 7.28215 11.2432 7.64823L11.25 7.75V9.75H13.25C13.6642 9.75 14 10.0858 14 10.5C14 10.8797 13.7178 11.1935 13.3518 11.2432L13.25 11.25H11.25V13.25C11.25 13.6642 10.9142 14 10.5 14C10.1203 14 9.80651 13.7178 9.75685 13.3518L9.75 13.25V11.25H7.75C7.33579 11.25 7 10.9142 7 10.5C7 10.1203 7.28215 9.80651 7.64823 9.75685L7.75 9.75H9.75V7.75C9.75 7.33579 10.0858 7 10.5 7Z" fill="white"/>
</mask>
<g mask="url(#mask0_8_4360)">
</g>
</svg>
